mtllib Spacestation_Structure_Wing_Thin_Foreward_Flush.mtl
o object1
g object1
v 0.50000000 -0.10000000 -0.30000000
v 0.50000000 -0.07071068 -0.44142136
v 0.55000000 -0.02530667 -0.41410662
v 0.55000000 -0.05000000 -0.29487669
v -0.50000000 -0.14142136 -0.38284271
v -0.50000000 -0.20000000 -0.10000000
v -0.50000000 0.00000000 -0.50000000
v 0.50000000 0.00000000 -0.50000000
v -0.50000000 0.14142136 -0.38284271
v 0.50000000 0.07071068 -0.44142136
v 0.55000000 0.02530667 -0.41410662
v 0.55000000 -0.00000000 -0.43507136
v 0.50000000 0.10000000 -0.30000000
v 0.55000000 0.05000000 -0.29487669
v 0.50000000 0.10000000 0.00000000
v 0.55000000 0.05000000 0.00000000
v 0.50000000 0.05000000 0.05000000
v 0.50000000 -0.05000000 0.05000000
v 0.55000000 -0.05000000 0.00000000
v -0.50000000 -0.15000000 0.55000000
v -0.50000000 0.15000000 0.55000000
v -0.50000000 -0.20000000 0.50000000
v 0.50000000 -0.10000000 0.00000000
v -0.50000000 0.20000000 0.50000000
v -0.50000000 0.20000000 -0.10000000
vt 0.00000000 0.00000000
vt 1.00000000 0.00000000
vt 0.87855735 1.00000000
vt 0.03547444 1.00000000
vt 0.00000000 1.00000000
vt 0.00000000 0.00000000
vt 1.00000000 0.00000000
vt 1.00000000 1.00000000
vt 0.00000000 1.00000000
vt 0.00000000 0.00000000
vt 1.00000000 0.00000000
vt 1.00000000 1.00000000
vt 0.00000000 1.00000000
vt 0.00000000 0.00000000
vt 1.00000000 0.00000000
vt 1.00000000 1.00000000
vt 0.00000000 0.00000000
vt 1.00000000 0.00000000
vt 0.80899057 1.00000000
vt 0.45110017 1.00000000
vt 0.00000000 0.00000000
vt 1.00000000 0.00000000
vt 0.96452556 1.00000000
vt 0.12144265 1.00000000
vt 0.98292231 0.00000000
vt 1.00000000 1.00000000
vt 0.00000000 1.00000000
vt 0.00000000 0.00000000
vt 1.00000000 1.00000000
vt 0.00000000 0.50000000
vt 1.00000000 0.00000000
vt 0.00000000 1.00000000
vt 0.00000000 0.00000000
vt 1.00000000 0.00000000
vt 1.00000000 1.00000000
vt 0.00000000 1.00000000
vt 0.00000000 0.00000000
vt 1.00000000 0.00000000
vt 1.00000000 1.00000000
vt 0.00000000 1.00000000
vt 0.00000000 0.00000000
vt 1.00000000 0.00000000
vt 1.00000000 1.00000000
vt 1.00000000 1.00000000
vt 0.00000000 0.50000000
vt 1.00000000 0.00000000
vt 0.00000000 1.00000000
vt 0.00000000 0.00000000
vt 1.00000000 0.00000000
vt 1.00000000 1.00000000
vt 0.00000000 1.00000000
vt 0.00000000 0.00000000
vt 1.00000000 0.00000000
vt 1.00000000 1.00000000
vt 0.00000000 1.00000000
vt 0.00000000 0.00000000
vt 1.00000000 0.00000000
vt 1.00000000 1.00000000
vt 0.12500000 0.00000000
vt 0.87500000 0.00000000
vt 1.00000000 0.04761905
vt 1.00000000 0.61904762
vt 0.85355339 0.88842163
vt 0.50000000 1.00000000
vt 0.14644661 0.88842163
vt 0.00000000 0.61904762
vt 0.00000000 0.04761905
vt 0.00000000 1.00000000
vt 0.00000000 0.00000000
vt 1.00000000 0.00000000
vt 1.00000000 1.00000000
vt 1.00000000 0.00000000
vt 0.98292231 1.00000000
vt 0.00000000 1.00000000
vt 0.00000000 0.00000000
vt 0.00000000 0.00000000
vt 1.00000000 0.00000000
vt 1.00000000 0.67776627
vt 0.75306673 0.95181311
vt 0.50000000 1.00000000
vt 0.24693327 0.95181311
vt 0.00000000 0.67776627
vt 0.00000000 0.00000000
vt 1.00000000 0.00000000
vt 0.54889983 1.00000000
vt 0.19100943 1.00000000
vn 0.70710678 -0.69241279 -0.14340338
vn 0.70710678 -0.69241279 -0.14340338
vn 0.70710678 -0.69241279 -0.14340338
vn 0.70710678 -0.69241279 -0.14340338
vn 0.05726722 -0.97761255 -0.20247019
vn 0.05726722 -0.97761255 -0.20247019
vn 0.05726722 -0.97761255 -0.20247019
vn 0.05726722 -0.97761255 -0.20247019
vn 0.00000000 -0.63795197 -0.77007615
vn -0.00000000 -0.63795197 -0.77007615
vn -0.00000000 -0.63795197 -0.77007615
vn 0.00000000 -0.63795197 -0.77007615
vn -0.00000000 0.63795197 -0.77007615
vn 0.00000000 0.63795197 -0.77007615
vn 0.00000000 0.63795197 -0.77007615
vn -0.00000000 0.63795197 -0.77007615
vn 0.70710678 0.45110017 -0.54452607
vn 0.70710678 0.45110017 -0.54452607
vn 0.70710678 0.45110017 -0.54452607
vn 0.70710678 0.45110017 -0.54452607
vn 0.70710678 0.69241279 -0.14340338
vn 0.70710678 0.69241279 -0.14340338
vn 0.70710678 0.69241279 -0.14340338
vn 0.70710678 0.69241279 -0.14340338
vn 0.70710678 0.70710678 0.00000000
vn 0.70710678 0.70710678 0.00000000
vn 0.70710678 0.70710678 0.00000000
vn 0.70710678 0.70710678 0.00000000
vn 0.57735027 0.57735027 0.57735027
vn 0.57735027 0.57735027 0.57735027
vn 0.57735027 0.57735027 0.57735027
vn 0.70710678 0.00000000 0.70710678
vn 0.70710678 0.00000000 0.70710678
vn 0.70710678 0.00000000 0.70710678
vn 0.70710678 0.00000000 0.70710678
vn 0.44721360 -0.00000000 0.89442719
vn 0.44721360 -0.00000000 0.89442719
vn 0.44721360 0.00000000 0.89442719
vn 0.44721360 0.00000000 0.89442719
vn 0.39056673 -0.65094455 0.65094455
vn 0.39056673 -0.65094455 0.65094455
vn 0.39056673 -0.65094455 0.65094455
vn 0.39056673 -0.65094455 0.65094455
vn 0.57735027 -0.57735027 0.57735027
vn 0.57735027 -0.57735027 0.57735027
vn 0.57735027 -0.57735027 0.57735027
vn 0.39056673 0.65094455 0.65094455
vn 0.39056673 0.65094455 0.65094455
vn 0.39056673 0.65094455 0.65094455
vn 0.39056673 0.65094455 0.65094455
vn 0.09950372 0.99503719 -0.00000000
vn 0.09950372 0.99503719 0.00000000
vn 0.09950372 0.99503719 0.00000000
vn 0.09950372 0.99503719 -0.00000000
vn 0.05726722 0.97761255 -0.20247019
vn 0.05726722 0.97761255 -0.20247019
vn 0.05726722 0.97761255 -0.20247019
vn 0.05726722 0.97761255 -0.20247019
vn -1.00000000 0.00000000 0.00000000
vn -1.00000000 0.00000000 0.00000000
vn -1.00000000 0.00000000 0.00000000
vn -1.00000000 0.00000000 0.00000000
vn -1.00000000 0.00000000 0.00000000
vn -1.00000000 0.00000000 0.00000000
vn -1.00000000 0.00000000 0.00000000
vn -1.00000000 0.00000000 0.00000000
vn -1.00000000 0.00000000 0.00000000
vn 0.09950372 -0.99503719 0.00000000
vn 0.09950372 -0.99503719 -0.00000000
vn 0.09950372 -0.99503719 -0.00000000
vn 0.09950372 -0.99503719 0.00000000
vn 0.70710678 -0.70710678 0.00000000
vn 0.70710678 -0.70710678 0.00000000
vn 0.70710678 -0.70710678 0.00000000
vn 0.70710678 -0.70710678 0.00000000
vn 1.00000000 0.00000000 0.00000000
vn 1.00000000 0.00000000 0.00000000
vn 1.00000000 0.00000000 0.00000000
vn 1.00000000 0.00000000 0.00000000
vn 1.00000000 0.00000000 0.00000000
vn 1.00000000 0.00000000 0.00000000
vn 1.00000000 0.00000000 0.00000000
vn 0.70710678 -0.45110017 -0.54452607
vn 0.70710678 -0.45110017 -0.54452607
vn 0.70710678 -0.45110017 -0.54452607
vn 0.70710678 -0.45110017 -0.54452607
s 1
usemtl Metal_Blue
f 1/1/1 2/2/2 3/3/3
f 1/1/1 3/3/3 4/4/4
s 2
f 2/8/8 1/7/7 5/5/5
f 1/7/7 6/6/6 5/5/5
s 3
f 8/12/12 2/11/11 7/9/9
f 2/11/11 5/10/10 7/9/9
s 4
f 10/16/16 8/15/15 7/14/14
f 10/16/16 7/14/14 9/13/13
s 5
f 8/17/17 10/18/18 12/20/20
f 10/18/18 11/19/19 12/20/20
s 6
f 10/21/21 13/22/22 11/24/24
f 13/22/22 14/23/23 11/24/24
s 7
f 14/25/25 13/26/26 15/27/27
f 14/25/25 15/27/27 16/28/28
s 8
f 15/31/31 17/30/30 16/29/29
s 9
f 17/32/32 18/33/33 16/35/35
f 18/33/33 19/34/34 16/35/35
s 10
f 18/39/39 17/38/38 21/37/37
f 18/39/39 21/37/37 20/36/36
s 11
f 23/43/43 18/42/42 22/40/40
f 18/42/42 20/41/41 22/40/40
s 12
f 19/44/44 18/45/45 23/46/46
s 13
f 17/50/50 15/49/49 24/48/48
f 17/50/50 24/48/48 21/47/47
s 14
f 15/54/54 13/53/53 25/52/52
f 15/54/54 25/52/52 24/51/51
s 15
f 13/58/58 10/57/57 9/56/56
f 13/58/58 9/56/56 25/55/55
s 16
f 9/65/65 7/64/64 5/63/63
f 25/66/66 9/65/65 6/62/62
f 24/67/67 25/66/66 22/61/61
f 22/61/61 20/60/60 21/59/59
f 24/67/67 22/61/61 21/59/59
f 25/66/66 6/62/62 22/61/61
f 9/65/65 5/63/63 6/62/62
s 17
f 1/71/71 23/70/70 6/68/68
f 23/70/70 22/69/69 6/68/68
s 18
f 1/72/72 4/73/73 23/75/75
f 4/73/73 19/74/74 23/75/75
s 19
f 3/81/81 12/80/80 11/79/79
f 4/82/82 11/79/79 14/78/78
f 4/82/82 14/78/78 16/77/77
f 16/77/77 19/76/76 4/82/82
f 4/82/82 3/81/81 11/79/79
s 20
f 2/83/83 8/84/84 12/85/85
f 2/83/83 12/85/85 3/86/86
