mtllib Spacestation_Structure_Fuselage_Angled_Horizontal_Band.mtl
o object1
g object1
v -0.50000000 -0.22500000 0.50000000
v -0.50000000 0.22500000 0.50000000
v 0.54846118 0.22500000 0.50000000
v 0.60000000 0.17500000 0.50000000
v 0.60000000 -0.17500000 0.50000000
v 0.54846118 -0.22500000 0.50000000
v 0.10000000 0.17500000 -1.50000000
v 0.04846118 0.22500000 -1.50000000
v -0.50000000 0.22500000 -1.50000000
v -0.50000000 -0.22500000 -1.50000000
v 0.04846118 -0.22500000 -1.50000000
v 0.10000000 -0.17500000 -1.50000000
vt 0.00000000 0.00000000
vt 1.00000000 0.00000000
vt 1.00000000 0.95314653
vt 0.88888889 1.00000000
vt 0.11111111 1.00000000
vt 0.00000000 0.95314653
vt 0.00602685 1.00000000
vt 0.00000000 0.00000000
vt 0.99397315 0.00000000
vt 1.00000000 1.00000000
vt 1.00000000 1.00000000
vt 0.00000000 1.00000000
vt 0.00000000 0.08589803
vt 0.11111111 0.00000000
vt 0.88888889 0.00000000
vt 1.00000000 0.08589803
vt 1.00000000 1.00000000
vt 0.00000000 1.00000000
vt 0.00000000 0.00000000
vt 1.00000000 0.00000000
vt 0.00000000 1.00000000
vt 0.00602685 0.00000000
vt 1.00000000 0.00000000
vt 0.99397315 1.00000000
vt 0.00000000 0.00000000
vt 1.00000000 0.47688938
vt 1.00000000 1.00000000
vt 0.00000000 1.00000000
vt 0.00000000 0.00000000
vt 1.00000000 0.00000000
vt 1.00000000 1.00000000
vt 0.00000000 1.00000000
vt 0.00000000 0.00000000
vt 1.00000000 0.47688938
vt 1.00000000 1.00000000
vt 0.00000000 1.00000000
vn 0.00000000 0.00000000 1.00000000
vn 0.00000000 0.00000000 1.00000000
vn 0.00000000 0.00000000 1.00000000
vn 0.00000000 0.00000000 1.00000000
vn 0.00000000 0.00000000 1.00000000
vn 0.00000000 0.00000000 1.00000000
vn 0.68599434 0.70710678 -0.17149859
vn 0.68599434 0.70710678 -0.17149859
vn 0.68599434 0.70710678 -0.17149859
vn 0.68599434 0.70710678 -0.17149859
vn 0.00000000 0.00000000 -1.00000000
vn 0.00000000 0.00000000 -1.00000000
vn 0.00000000 0.00000000 -1.00000000
vn 0.00000000 0.00000000 -1.00000000
vn 0.00000000 0.00000000 -1.00000000
vn 0.00000000 0.00000000 -1.00000000
vn 0.97014250 -0.00000000 -0.24253563
vn 0.97014250 -0.00000000 -0.24253563
vn 0.97014250 -0.00000000 -0.24253563
vn 0.97014250 -0.00000000 -0.24253563
vn 0.68599434 -0.70710678 -0.17149859
vn 0.68599434 -0.70710678 -0.17149859
vn 0.68599434 -0.70710678 -0.17149859
vn 0.68599434 -0.70710678 -0.17149859
vn 0.00000000 -1.00000000 0.00000000
vn 0.00000000 -1.00000000 0.00000000
vn 0.00000000 -1.00000000 0.00000000
vn 0.00000000 -1.00000000 0.00000000
vn -1.00000000 0.00000000 0.00000000
vn -1.00000000 0.00000000 0.00000000
vn -1.00000000 0.00000000 0.00000000
vn -1.00000000 0.00000000 0.00000000
vn 0.00000000 1.00000000 0.00000000
vn 0.00000000 1.00000000 0.00000000
vn 0.00000000 1.00000000 0.00000000
vn 0.00000000 1.00000000 0.00000000
s 1
usemtl Metal_Blue_Dark
f 2/2/2 1/1/1 6/6/6
f 6/6/6 4/4/4 3/3/3
f 6/6/6 5/5/5 4/4/4
f 3/3/3 2/2/2 6/6/6
s 2
f 3/7/7 4/8/8 7/9/9
f 3/7/7 7/9/9 8/10/10
s 3
f 11/13/13 10/12/12 9/11/11
f 8/16/16 7/15/15 11/13/13
f 7/15/15 12/14/14 11/13/13
f 11/13/13 9/11/11 8/16/16
s 4
f 12/17/17 7/18/18 4/19/19
f 12/17/17 4/19/19 5/20/20
s 5
f 5/21/21 6/22/22 12/24/24
f 6/22/22 11/23/23 12/24/24
s 6
f 1/28/28 10/27/27 11/26/26
f 1/28/28 11/26/26 6/25/25
s 7
f 1/32/32 2/31/31 10/29/29
f 2/31/31 9/30/30 10/29/29
s 8
f 3/33/33 8/34/34 2/36/36
f 8/34/34 9/35/35 2/36/36
