mtllib Spacestation_Structure_Fuselage_Straight_Windows.mtl
o object1
g object1
v -0.87137606 0.92282564 0.25000000
v -0.87137606 0.92282564 -0.25000000
v -0.12862394 0.47717436 -0.25000000
v -0.12862394 0.47717436 0.25000000
v -0.85851367 0.94426296 0.25000000
v -0.85851367 0.94426296 -0.25000000
v -0.11576154 0.49861169 -0.25000000
v -0.11576154 0.49861169 0.25000000
vt 0.00000000 0.00000000
vt 1.00000000 0.00000000
vt 1.00000000 1.00000000
vt 0.00000000 1.00000000
vt 0.00000000 0.00000000
vt 1.00000000 0.00000000
vt 1.00000000 1.00000000
vt 0.00000000 1.00000000
vt 0.00000000 1.00000000
vt 0.00000000 0.00000000
vt 1.00000000 0.00000000
vt 1.00000000 1.00000000
vt 0.00000000 1.00000000
vt 0.00000000 0.00000000
vt 1.00000000 0.00000000
vt 1.00000000 1.00000000
vt 0.00000000 1.00000000
vt 0.00000000 0.00000000
vt 1.00000000 0.00000000
vt 1.00000000 1.00000000
vt 0.00000000 1.00000000
vt 0.00000000 0.00000000
vt 1.00000000 0.00000000
vt 1.00000000 1.00000000
vn -0.51449576 -0.85749293 -0.00000000
vn -0.51449576 -0.85749293 -0.00000000
vn -0.51449576 -0.85749293 -0.00000000
vn -0.51449576 -0.85749293 -0.00000000
vn 0.51449576 0.85749293 0.00000000
vn 0.51449576 0.85749293 0.00000000
vn 0.51449576 0.85749293 0.00000000
vn 0.51449576 0.85749293 0.00000000
vn -0.85749293 0.51449576 0.00000000
vn -0.85749293 0.51449576 0.00000000
vn -0.85749293 0.51449576 0.00000000
vn -0.85749293 0.51449576 0.00000000
vn 0.00000000 0.00000000 -1.00000000
vn 0.00000000 0.00000000 -1.00000000
vn 0.00000000 0.00000000 -1.00000000
vn 0.00000000 0.00000000 -1.00000000
vn 0.85749293 -0.51449576 -0.00000000
vn 0.85749293 -0.51449576 -0.00000000
vn 0.85749293 -0.51449576 -0.00000000
vn 0.85749293 -0.51449576 -0.00000000
vn -0.00000000 0.00000000 1.00000000
vn -0.00000000 0.00000000 1.00000000
vn -0.00000000 0.00000000 1.00000000
vn -0.00000000 0.00000000 1.00000000
s 1
usemtl Glass
f 1/1/1 2/2/2 3/3/3
f 1/1/1 3/3/3 4/4/4
s 2
f 8/8/8 7/7/7 5/5/5
f 7/7/7 6/6/6 5/5/5
s 3
f 2/9/9 1/10/10 5/11/11
f 2/9/9 5/11/11 6/12/12
s 4
f 3/13/13 2/14/14 6/15/15
f 3/13/13 6/15/15 7/16/16
s 5
f 7/20/20 8/19/19 3/17/17
f 8/19/19 4/18/18 3/17/17
s 6
f 8/24/24 5/23/23 4/21/21
f 5/23/23 1/22/22 4/21/21
o object2
g object2
v -0.11576154 0.49861169 0.20000000
v -0.12862394 0.47717436 0.20000000
v -0.12862394 0.47717436 0.05000000
v -0.11576154 0.49861169 0.05000000
v -0.08146183 0.50718662 0.20000000
v -0.08146183 0.50718662 0.05000000
v -0.10289915 0.52004901 0.02500000
v -0.85851367 0.94426296 0.05000000
v -0.84565127 0.96570028 0.02500000
v -0.47427521 0.74287465 0.02500000
v -0.86708860 0.97856268 0.05000000
v -0.86708860 0.97856268 0.20000000
v -0.85851367 0.94426296 0.20000000
v -0.84565127 0.96570028 0.22500000
v -0.10289915 0.52004901 0.22500000
v -0.47427521 0.74287465 0.22500000
v -0.87137606 0.92282564 0.05000000
v -0.50000000 0.70000000 0.05000000
v -0.87137606 0.92282564 0.20000000
v -0.50000000 0.70000000 0.20000000
v -0.11576154 0.49861169 -0.05000000
v -0.85851367 0.94426296 -0.05000000
v -0.87137606 0.92282564 -0.05000000
v -0.12862394 0.47717436 -0.05000000
v -0.50000000 0.70000000 -0.05000000
v -0.11576154 0.49861169 -0.20000000
v -0.12862394 0.47717436 -0.20000000
v -0.08146183 0.50718662 -0.20000000
v -0.08146183 0.50718662 -0.05000000
v -0.10289915 0.52004901 -0.02500000
v -0.10289915 0.52004901 -0.22500000
v -0.85851367 0.94426296 -0.20000000
v -0.84565127 0.96570028 -0.22500000
v -0.47427521 0.74287465 -0.22500000
v -0.86708860 0.97856268 -0.20000000
v -0.86708860 0.97856268 -0.05000000
v -0.84565127 0.96570028 -0.02500000
v -0.87137606 0.92282564 -0.20000000
v -0.50000000 0.70000000 -0.20000000
v -0.47427521 0.74287465 -0.02500000
v -0.47427521 0.74287465 0.25000000
v -0.85820897 0.97323490 0.25000000
v -0.88852592 0.99142507 0.21464466
v -0.88852592 0.99142507 -0.21464466
v -0.85820897 0.97323490 -0.25000000
v -0.47427521 0.74287465 -0.25000000
v -0.09034146 0.51251439 -0.25000000
v -0.06002450 0.49432422 -0.21464466
v -0.06002450 0.49432422 0.21464466
v -0.09034146 0.51251439 0.25000000
v -0.95712535 0.97427521 -0.25000000
v -0.91425071 0.94855042 -0.30000000
v -0.95712535 0.97427521 0.25000000
v -0.91425071 0.94855042 0.30000000
v -0.50000000 0.70000000 0.30000000
v -0.50000000 0.70000000 -0.30000000
v -0.08574929 0.45144958 -0.30000000
v -0.04287465 0.42572479 -0.25000000
v -0.04287465 0.42572479 0.25000000
v -0.08574929 0.45144958 0.30000000
vt 0.00000000 0.00000000
vt 1.00000000 0.00000000
vt 1.00000000 1.00000000
vt 0.00000000 1.00000000
vt 0.00000000 1.00000000
vt 0.00000000 0.00000000
vt 1.00000000 0.00000000
vt 1.00000000 1.00000000
vt 0.00000000 0.00000000
vt 1.00000000 0.50000000
vt 0.00000000 1.00000000
vt 0.00000000 0.00000000
vt 1.00000000 0.00000000
vt 1.00000000 1.00000000
vt 0.00000000 1.00000000
vt 0.50000000 1.00000000
vt 0.00000000 0.00000000
vt 1.00000000 0.50000000
vt 0.00000000 1.00000000
vt 0.00000000 1.00000000
vt 0.00000000 0.00000000
vt 1.00000000 0.00000000
vt 1.00000000 1.00000000
vt 0.00000000 1.00000000
vt 0.00000000 0.00000000
vt 1.00000000 0.50000000
vt 0.00000000 0.00000000
vt 1.00000000 0.00000000
vt 1.00000000 1.00000000
vt 0.00000000 1.00000000
vt 0.50000000 1.00000000
vt 0.00000000 1.00000000
vt 0.00000000 0.00000000
vt 1.00000000 0.50000000
vt 0.00000000 1.00000000
vt 0.00000000 0.00000000
vt 1.00000000 0.00000000
vt 1.00000000 1.00000000
vt 1.00000000 0.50000000
vt 0.00000000 0.00000000
vt 1.00000000 0.00000000
vt 1.00000000 1.00000000
vt 0.00000000 1.00000000
vt 0.00000000 1.00000000
vt 0.00000000 0.00000000
vt 1.00000000 0.00000000
vt 1.00000000 1.00000000
vt 1.00000000 0.50000000
vt 0.00000000 1.00000000
vt 0.00000000 0.00000000
vt 1.00000000 0.00000000
vt 1.00000000 1.00000000
vt 1.00000000 0.50000000
vt 0.00000000 0.00000000
vt 1.00000000 0.00000000
vt 1.00000000 1.00000000
vt 0.00000000 1.00000000
vt 0.00000000 1.00000000
vt 0.00000000 0.00000000
vt 1.00000000 0.00000000
vt 1.00000000 1.00000000
vt 1.00000000 1.00000000
vt 0.00000000 0.50000000
vt 1.00000000 0.00000000
vt 0.00000000 1.00000000
vt 0.00000000 0.00000000
vt 1.00000000 0.50000000
vt 0.00000000 0.00000000
vt 1.00000000 0.00000000
vt 1.00000000 1.00000000
vt 0.00000000 1.00000000
vt 0.50000000 1.00000000
vt 0.00000000 1.00000000
vt 0.00000000 0.00000000
vt 1.00000000 0.50000000
vt 0.00000000 1.00000000
vt 0.00000000 0.00000000
vt 1.00000000 0.00000000
vt 1.00000000 1.00000000
vt 1.00000000 0.00000000
vt 1.00000000 1.00000000
vt 0.00000000 0.50000000
vt 0.00000000 1.00000000
vt 0.00000000 0.00000000
vt 1.00000000 0.00000000
vt 1.00000000 1.00000000
vt 1.00000000 0.50000000
vt 0.00000000 0.00000000
vt 1.00000000 0.00000000
vt 1.00000000 1.00000000
vt 0.00000000 1.00000000
vt 0.00000000 0.00000000
vt 1.00000000 0.00000000
vt 1.00000000 1.00000000
vt 0.00000000 1.00000000
vt 0.50000000 0.00000000
vt 0.45000000 0.50000000
vt 0.45000000 0.05174964
vt 0.40000000 0.02587482
vt 0.10000000 0.02587482
vt 0.05000000 0.05174964
vt 0.05000000 0.50000000
vt 0.00000000 0.50000000
vt 0.00000000 0.03659252
vt 0.07071068 0.00000000
vt 0.92928932 0.00000000
vt 1.00000000 0.03659252
vt 1.00000000 0.50000000
vt 0.95000000 0.50000000
vt 0.95000000 0.05174964
vt 0.90000000 0.02587482
vt 0.60000000 0.02587482
vt 0.55000000 0.05174964
vt 0.55000000 0.50000000
vt 0.05000000 0.94825036
vt 0.10000000 0.97412518
vt 0.40000000 0.97412518
vt 0.45000000 0.94825036
vt 0.55000000 0.94825036
vt 0.60000000 0.97412518
vt 0.90000000 0.97412518
vt 0.95000000 0.94825036
vt 1.00000000 0.96340748
vt 0.92928932 1.00000000
vt 0.07071068 1.00000000
vt 0.00000000 0.96340748
vt 1.00000000 1.00000000
vt 0.00000000 0.85355339
vt 0.00000000 0.14644661
vt 1.00000000 0.00000000
vt 1.00000000 0.00000000
vt 0.92928932 1.00000000
vt 0.07071068 1.00000000
vt 0.00000000 0.00000000
vt 1.00000000 1.00000000
vt 0.00000000 0.85355339
vt 0.00000000 0.14644661
vt 1.00000000 0.00000000
vt 0.83333333 0.50000000
vt 0.83333333 0.09379188
vt 0.58333333 0.09379188
vt 0.58333333 0.50000000
vt 0.41666667 0.50000000
vt 0.41666667 0.09379188
vt 0.16666667 0.09379188
vt 0.16666667 0.50000000
vt 0.00000000 0.50000000
vt 0.00000000 0.04689594
vt 0.08333333 0.00000000
vt 0.91666667 0.00000000
vt 1.00000000 0.04689594
vt 1.00000000 0.50000000
vt 0.58333333 0.90620812
vt 0.83333333 0.90620812
vt 1.00000000 0.95310406
vt 0.91666667 1.00000000
vt 0.08333333 1.00000000
vt 0.00000000 0.95310406
vt 0.16666667 0.90620812
vt 0.41666667 0.90620812
vt 0.96340748 0.00000000
vt 1.00000000 1.00000000
vt 0.00000000 1.00000000
vt 0.03659252 0.00000000
vt 0.50000000 1.00000000
vt 0.50000000 0.00000000
vt 0.07071068 1.00000000
vt 0.00000000 0.00000000
vt 1.00000000 0.00000000
vt 0.92928932 1.00000000
vt 1.00000000 1.00000000
vt 0.00000000 0.85355339
vt 0.00000000 0.14644661
vt 1.00000000 0.00000000
vt 1.00000000 0.00000000
vt 0.96340748 1.00000000
vt 0.03659252 1.00000000
vt 0.00000000 0.00000000
vt 0.50000000 1.00000000
vt 0.50000000 0.00000000
vt 1.00000000 1.00000000
vt 0.00000000 0.85355339
vt 0.00000000 0.14644661
vt 1.00000000 0.00000000
vn -0.85749293 0.51449576 0.00000000
vn -0.85749293 0.51449576 0.00000000
vn -0.85749293 0.51449576 0.00000000
vn -0.85749293 0.51449576 0.00000000
vn -0.24253563 0.97014250 0.00000000
vn -0.24253563 0.97014250 0.00000000
vn -0.24253563 0.97014250 0.00000000
vn -0.24253563 0.97014250 0.00000000
vn -0.19802951 0.79211803 0.57735027
vn -0.19802951 0.79211803 0.57735027
vn -0.19802951 0.79211803 0.57735027
vn 0.36380344 0.60633906 0.70710678
vn 0.36380344 0.60633906 0.70710678
vn 0.36380344 0.60633906 0.70710678
vn 0.36380344 0.60633906 0.70710678
vn 0.36380344 0.60633906 0.70710678
vn 0.79211803 0.19802951 0.57735027
vn 0.79211803 0.19802951 0.57735027
vn 0.79211803 0.19802951 0.57735027
vn 0.97014250 0.24253563 0.00000000
vn 0.97014250 0.24253563 0.00000000
vn 0.97014250 0.24253563 0.00000000
vn 0.97014250 0.24253563 0.00000000
vn 0.79211803 0.19802951 -0.57735027
vn 0.79211803 0.19802951 -0.57735027
vn 0.79211803 0.19802951 -0.57735027
vn 0.36380344 0.60633906 -0.70710678
vn 0.36380344 0.60633906 -0.70710678
vn 0.36380344 0.60633906 -0.70710678
vn 0.36380344 0.60633906 -0.70710678
vn 0.36380344 0.60633906 -0.70710678
vn -0.19802951 0.79211803 -0.57735027
vn -0.19802951 0.79211803 -0.57735027
vn -0.19802951 0.79211803 -0.57735027
vn 0.00000000 0.00000000 1.00000000
vn 0.00000000 0.00000000 1.00000000
vn 0.00000000 0.00000000 1.00000000
vn 0.00000000 0.00000000 1.00000000
vn 0.00000000 0.00000000 1.00000000
vn 0.85749293 -0.51449576 -0.00000000
vn 0.85749293 -0.51449576 -0.00000000
vn 0.85749293 -0.51449576 -0.00000000
vn 0.85749293 -0.51449576 -0.00000000
vn 0.00000000 0.00000000 -1.00000000
vn 0.00000000 0.00000000 -1.00000000
vn 0.00000000 0.00000000 -1.00000000
vn 0.00000000 0.00000000 -1.00000000
vn 0.00000000 0.00000000 -1.00000000
vn 0.00000000 0.00000000 -1.00000000
vn 0.00000000 0.00000000 -1.00000000
vn 0.00000000 0.00000000 -1.00000000
vn 0.00000000 0.00000000 -1.00000000
vn 0.00000000 0.00000000 -1.00000000
vn -0.85749293 0.51449576 0.00000000
vn -0.85749293 0.51449576 0.00000000
vn -0.85749293 0.51449576 0.00000000
vn -0.85749293 0.51449576 0.00000000
vn -0.24253563 0.97014250 0.00000000
vn -0.24253563 0.97014250 0.00000000
vn -0.24253563 0.97014250 0.00000000
vn -0.24253563 0.97014250 0.00000000
vn -0.19802951 0.79211803 -0.57735027
vn -0.19802951 0.79211803 -0.57735027
vn -0.19802951 0.79211803 -0.57735027
vn -0.19802951 0.79211803 0.57735027
vn -0.19802951 0.79211803 0.57735027
vn -0.19802951 0.79211803 0.57735027
vn 0.36380344 0.60633906 0.70710678
vn 0.36380344 0.60633906 0.70710678
vn 0.36380344 0.60633906 0.70710678
vn 0.36380344 0.60633906 0.70710678
vn 0.36380344 0.60633906 0.70710678
vn 0.79211803 0.19802951 0.57735027
vn 0.79211803 0.19802951 0.57735027
vn 0.79211803 0.19802951 0.57735027
vn 0.97014250 0.24253563 -0.00000000
vn 0.97014250 0.24253563 0.00000000
vn 0.97014250 0.24253563 0.00000000
vn 0.97014250 0.24253563 -0.00000000
vn 0.79211803 0.19802951 -0.57735027
vn 0.79211803 0.19802951 -0.57735027
vn 0.79211803 0.19802951 -0.57735027
vn 0.00000000 0.00000000 1.00000000
vn 0.00000000 0.00000000 1.00000000
vn 0.00000000 0.00000000 1.00000000
vn 0.00000000 0.00000000 1.00000000
vn 0.00000000 0.00000000 1.00000000
vn 0.85749293 -0.51449576 0.00000000
vn 0.85749293 -0.51449576 0.00000000
vn 0.85749293 -0.51449576 0.00000000
vn 0.85749293 -0.51449576 0.00000000
vn 0.36380344 0.60633906 -0.70710678
vn 0.36380344 0.60633906 -0.70710678
vn 0.36380344 0.60633906 -0.70710678
vn 0.36380344 0.60633906 -0.70710678
vn 0.36380344 0.60633906 -0.70710678
vn 0.51449576 0.85749293 0.00000000
vn 0.51449576 0.85749293 0.00000000
vn 0.51449576 0.85749293 0.00000000
vn 0.51449576 0.85749293 0.00000000
vn 0.51449576 0.85749293 0.00000000
vn 0.51449576 0.85749293 0.00000000
vn 0.51449576 0.85749293 0.00000000
vn 0.51449576 0.85749293 0.00000000
vn 0.51449576 0.85749293 0.00000000
vn 0.51449576 0.85749293 0.00000000
vn 0.51449576 0.85749293 0.00000000
vn 0.51449576 0.85749293 0.00000000
vn 0.51449576 0.85749293 0.00000000
vn 0.51449576 0.85749293 0.00000000
vn 0.51449576 0.85749293 0.00000000
vn 0.51449576 0.85749293 0.00000000
vn 0.51449576 0.85749293 0.00000000
vn 0.51449576 0.85749293 0.00000000
vn 0.51449576 0.85749293 0.00000000
vn 0.51449576 0.85749293 0.00000000
vn 0.51449576 0.85749293 0.00000000
vn 0.51449576 0.85749293 0.00000000
vn 0.51449576 0.85749293 0.00000000
vn 0.51449576 0.85749293 0.00000000
vn 0.51449576 0.85749293 0.00000000
vn 0.51449576 0.85749293 0.00000000
vn 0.51449576 0.85749293 0.00000000
vn 0.51449576 0.85749293 0.00000000
vn 0.51449576 0.85749293 0.00000000
vn 0.51449576 0.85749293 0.00000000
vn 0.00938571 0.89242397 -0.45110017
vn 0.00938571 0.89242397 -0.45110017
vn 0.00938571 0.89242397 -0.45110017
vn 0.00938571 0.89242397 -0.45110017
vn -0.24253563 0.97014250 -0.00000000
vn -0.24253563 0.97014250 -0.00000000
vn -0.24253563 0.97014250 -0.00000000
vn -0.24253563 0.97014250 -0.00000000
vn 0.00938571 0.89242397 0.45110017
vn 0.00938571 0.89242397 0.45110017
vn 0.00938571 0.89242397 0.45110017
vn 0.00938571 0.89242397 0.45110017
vn -0.51449576 -0.85749293 -0.00000000
vn -0.51449576 -0.85749293 -0.00000000
vn -0.51449576 -0.85749293 -0.00000000
vn -0.51449576 -0.85749293 -0.00000000
vn -0.51449576 -0.85749293 -0.00000000
vn -0.51449576 -0.85749293 -0.00000000
vn -0.51449576 -0.85749293 -0.00000000
vn -0.51449576 -0.85749293 -0.00000000
vn -0.51449576 -0.85749293 -0.00000000
vn -0.51449576 -0.85749293 -0.00000000
vn -0.51449576 -0.85749293 -0.00000000
vn -0.51449576 -0.85749293 -0.00000000
vn -0.51449576 -0.85749293 -0.00000000
vn -0.51449576 -0.85749293 -0.00000000
vn -0.51449576 -0.85749293 -0.00000000
vn -0.51449576 -0.85749293 -0.00000000
vn -0.51449576 -0.85749293 -0.00000000
vn -0.51449576 -0.85749293 -0.00000000
vn -0.51449576 -0.85749293 -0.00000000
vn -0.51449576 -0.85749293 -0.00000000
vn -0.51449576 -0.85749293 -0.00000000
vn -0.51449576 -0.85749293 -0.00000000
vn 0.36380344 0.60633906 -0.70710678
vn 0.36380344 0.60633906 -0.70710678
vn 0.36380344 0.60633906 -0.70710678
vn 0.36380344 0.60633906 -0.70710678
vn 0.36380344 0.60633906 -0.70710678
vn 0.36380344 0.60633906 -0.70710678
vn 0.97014250 0.24253563 -0.00000000
vn 0.97014250 0.24253563 -0.00000000
vn 0.97014250 0.24253563 -0.00000000
vn 0.97014250 0.24253563 -0.00000000
vn 0.78301611 0.42824573 -0.45110017
vn 0.78301611 0.42824573 -0.45110017
vn 0.78301611 0.42824573 -0.45110017
vn 0.78301611 0.42824573 -0.45110017
vn 0.36380344 0.60633906 0.70710678
vn 0.36380344 0.60633906 0.70710678
vn 0.36380344 0.60633906 0.70710678
vn 0.36380344 0.60633906 0.70710678
vn 0.36380344 0.60633906 0.70710678
vn 0.36380344 0.60633906 0.70710678
vn 0.78301611 0.42824573 0.45110017
vn 0.78301611 0.42824573 0.45110017
vn 0.78301611 0.42824573 0.45110017
vn 0.78301611 0.42824573 0.45110017
s 1
usemtl Metal_Blue
f 12/28/28 11/27/27 9/25/25
f 11/27/27 10/26/26 9/25/25
s 2
f 9/29/29 13/30/30 14/31/31
f 9/29/29 14/31/31 12/32/32
s 3
f 14/35/35 15/34/34 12/33/33
s 4
f 12/37/37 15/38/38 18/40/40
f 18/40/40 17/39/39 16/36/36
f 16/36/36 12/37/37 18/40/40
s 5
f 16/41/41 17/42/42 19/43/43
s 6
f 20/44/44 21/45/45 16/46/46
f 20/44/44 16/46/46 19/47/47
s 7
f 21/48/48 20/49/49 22/50/50
s 8
f 24/55/55 23/53/53 9/52/52
f 24/55/55 9/52/52 21/51/51
f 21/51/51 22/54/54 24/55/55
s 9
f 23/58/58 13/57/57 9/56/56
s 10
f 26/63/63 11/62/62 12/59/59
f 12/59/59 16/60/60 26/63/63
f 16/60/60 25/61/61 26/63/63
s 11
f 21/64/64 27/65/65 16/67/67
f 27/65/65 25/66/66 16/67/67
s 12
f 28/72/72 27/70/70 21/69/69
f 28/72/72 21/69/69 9/68/68
f 9/68/68 10/71/71 28/72/72
s 13
f 29/73/73 32/76/76 33/77/77
f 33/77/77 31/75/75 30/74/74
f 33/77/77 30/74/74 29/73/73
s 14
f 34/78/78 35/79/79 29/81/81
f 35/79/79 32/80/80 29/81/81
s 15
f 36/82/82 34/83/83 37/85/85
f 34/83/83 29/84/84 37/85/85
s 16
f 29/86/86 38/87/87 37/88/88
s 17
f 34/89/89 36/90/90 39/91/91
s 18
f 34/93/93 39/94/94 42/96/96
f 42/96/96 41/95/95 40/92/92
f 40/92/92 34/93/93 42/96/96
s 19
f 41/99/99 43/98/98 40/97/97
s 20
f 40/100/100 43/101/101 30/103/103
f 43/101/101 44/102/102 30/103/103
s 21
f 30/104/104 44/105/105 45/106/106
s 22
f 47/111/111 35/110/110 34/107/107
f 34/107/107 40/108/108 47/111/111
f 40/108/108 46/109/109 47/111/111
s 23
f 30/115/115 31/114/114 40/112/112
f 31/114/114 46/113/113 40/112/112
s 24
f 48/120/120 38/117/117 29/118/118
f 48/120/120 29/118/118 30/119/119
f 30/119/119 45/116/116 48/120/120
s 25
f 49/127/127 24/126/126 22/125/125
f 50/128/128 22/125/125 20/124/124
f 51/129/129 20/124/124 19/123/123
f 44/136/136 19/123/123 17/122/122
f 45/137/137 17/122/122 18/121/121
f 48/138/138 18/121/121 15/142/142
f 15/142/142 14/141/141 38/143/143
f 14/141/141 37/144/144 38/143/143
f 56/148/148 36/145/145 37/144/144
f 55/147/147 39/146/146 36/145/145
f 54/132/132 42/133/133 39/146/146
f 41/134/134 54/132/132 53/131/131
f 43/135/135 53/131/131 52/130/130
f 43/135/135 41/134/134 53/131/131
f 41/134/134 42/133/133 54/132/132
f 55/147/147 54/132/132 39/146/146
f 56/148/148 55/147/147 36/145/145
f 14/141/141 56/148/148 37/144/144
f 14/141/141 57/149/149 56/148/148
f 13/140/140 58/150/150 57/149/149
f 13/140/140 23/139/139 58/150/150
f 14/141/141 13/140/140 57/149/149
f 38/143/143 48/138/138 15/142/142
f 48/138/138 45/137/137 18/121/121
f 45/137/137 44/136/136 17/122/122
f 44/136/136 43/135/135 52/130/130
f 44/136/136 52/130/130 19/123/123
f 52/130/130 51/129/129 19/123/123
f 51/129/129 50/128/128 20/124/124
f 23/139/139 49/127/127 58/150/150
f 23/139/139 24/126/126 49/127/127
f 50/128/128 49/127/127 22/125/125
s 26
f 59/151/151 52/152/152 53/153/153
f 59/151/151 53/153/153 60/154/154
s 27
f 61/155/155 51/156/156 59/158/158
f 51/156/156 52/157/157 59/158/158
s 28
f 62/162/162 50/161/161 61/159/159
f 50/161/161 51/160/160 61/159/159
s 29
f 27/169/169 28/170/170 63/171/171
f 68/182/182 63/171/171 10/183/183
f 67/181/181 10/183/183 11/184/184
f 32/177/177 66/180/180 11/184/184
f 35/178/178 65/179/179 66/180/180
f 35/178/178 64/176/176 65/179/179
f 60/175/175 64/176/176 46/164/164
f 59/174/174 46/164/164 31/165/165
f 31/165/165 33/166/166 25/168/168
f 33/166/166 26/167/167 25/168/168
f 31/165/165 25/168/168 59/174/174
f 25/168/168 61/173/173 59/174/174
f 59/174/174 60/175/175 46/164/164
f 64/176/176 47/163/163 46/164/164
f 35/178/178 47/163/163 64/176/176
f 32/177/177 35/178/178 66/180/180
f 11/184/184 33/166/166 32/177/177
f 11/184/184 26/167/167 33/166/166
f 66/180/180 67/181/181 11/184/184
f 67/181/181 68/182/182 10/183/183
f 63/171/171 28/170/170 10/183/183
f 25/168/168 27/169/169 61/173/173
f 27/169/169 62/172/172 61/173/173
f 27/169/169 63/171/171 62/172/172
s 30
f 60/187/187 53/188/188 54/190/190
f 65/186/186 64/189/189 54/190/190
f 54/190/190 55/185/185 65/186/186
f 64/189/189 60/187/187 54/190/190
s 31
f 57/191/191 67/192/192 66/193/193
f 57/191/191 66/193/193 56/194/194
s 32
f 65/198/198 55/197/197 56/196/196
f 65/198/198 56/196/196 66/195/195
s 33
f 49/203/203 50/201/201 62/202/202
f 68/199/199 49/203/203 63/204/204
f 49/203/203 62/202/202 63/204/204
f 68/199/199 58/200/200 49/203/203
s 34
f 67/205/205 57/206/206 68/208/208
f 57/206/206 58/207/207 68/208/208
