mtllib Spacestation_Structure_Rod_Housing_Short_Centered.mtl
o object1
g object1
v 0.00000000 0.05000000 -0.30000000
v 0.05000000 0.05000000 -0.30000000
v 0.05000000 0.20000000 -0.15000000
v 0.00000000 0.20000000 -0.15000000
v 0.05000000 0.20000000 0.15000000
v 0.00000000 0.20000000 0.15000000
v 0.05000000 0.05000000 0.30000000
v 0.00000000 0.05000000 0.30000000
v 0.05000000 -0.05000000 0.30000000
v 0.00000000 -0.05000000 0.30000000
v 0.05000000 -0.20000000 0.15000000
v 0.00000000 -0.20000000 0.15000000
v 0.05000000 -0.20000000 -0.15000000
v 0.00000000 -0.20000000 -0.15000000
v 0.05000000 -0.05000000 -0.30000000
v 0.00000000 -0.05000000 -0.30000000
v 0.10000000 -0.15000000 -0.12928932
v 0.10000000 -0.02928932 -0.25000000
v 0.10000000 0.15000000 0.12928932
v 0.10000000 0.02928932 0.25000000
v 0.10000000 -0.02928932 0.25000000
v 0.10000000 -0.15000000 0.12928932
v 0.10000000 0.02928932 -0.25000000
v 0.10000000 0.15000000 -0.12928932
vt 0.00000000 0.00000000
vt 1.00000000 0.00000000
vt 1.00000000 1.00000000
vt 0.00000000 1.00000000
vt 0.00000000 0.00000000
vt 1.00000000 0.00000000
vt 1.00000000 1.00000000
vt 0.00000000 1.00000000
vt 0.00000000 0.00000000
vt 1.00000000 0.00000000
vt 1.00000000 1.00000000
vt 0.00000000 1.00000000
vt 0.00000000 0.00000000
vt 1.00000000 0.00000000
vt 1.00000000 1.00000000
vt 0.00000000 1.00000000
vt 0.00000000 0.00000000
vt 1.00000000 0.00000000
vt 1.00000000 1.00000000
vt 0.00000000 1.00000000
vt 0.00000000 0.00000000
vt 1.00000000 0.00000000
vt 1.00000000 1.00000000
vt 0.00000000 1.00000000
vt 0.00000000 0.00000000
vt 1.00000000 0.00000000
vt 1.00000000 1.00000000
vt 0.00000000 1.00000000
vt 0.09763107 1.00000000
vt 0.00000000 0.00000000
vt 1.00000000 0.00000000
vt 0.90236893 1.00000000
vt 1.00000000 0.75857864
vt 0.59763107 1.00000000
vt 0.40236893 1.00000000
vt 0.00000000 0.75857864
vt 0.00000000 0.24142136
vt 0.40236893 0.00000000
vt 0.59763107 0.00000000
vt 1.00000000 0.24142136
vt 0.20710678 1.00000000
vt 0.00000000 0.00000000
vt 1.00000000 0.00000000
vt 0.79289322 1.00000000
vt 0.06903559 1.00000000
vt 0.00000000 0.00000000
vt 1.00000000 0.00000000
vt 0.93096441 1.00000000
vt 0.09763107 1.00000000
vt 0.00000000 0.00000000
vt 1.00000000 0.00000000
vt 0.90236893 1.00000000
vt 0.20710678 1.00000000
vt 0.00000000 0.00000000
vt 1.00000000 0.00000000
vt 0.79289322 1.00000000
vt 0.09763107 1.00000000
vt 0.00000000 0.00000000
vt 1.00000000 0.00000000
vt 0.90236893 1.00000000
vt 0.06903559 1.00000000
vt 0.00000000 0.00000000
vt 1.00000000 0.00000000
vt 0.93096441 1.00000000
vt 0.00000000 0.75000000
vt 0.00000000 0.25000000
vt 0.37500000 0.00000000
vt 0.62500000 0.00000000
vt 1.00000000 0.25000000
vt 1.00000000 0.75000000
vt 0.62500000 1.00000000
vt 0.37500000 1.00000000
vt 0.00000000 0.00000000
vt 1.00000000 0.00000000
vt 1.00000000 1.00000000
vt 0.00000000 1.00000000
vt 0.09763107 1.00000000
vt 0.00000000 0.00000000
vt 1.00000000 0.00000000
vt 0.90236893 1.00000000
vn 0.00000000 0.70710678 -0.70710678
vn 0.00000000 0.70710678 -0.70710678
vn 0.00000000 0.70710678 -0.70710678
vn 0.00000000 0.70710678 -0.70710678
vn 0.00000000 1.00000000 0.00000000
vn 0.00000000 1.00000000 0.00000000
vn 0.00000000 1.00000000 0.00000000
vn 0.00000000 1.00000000 0.00000000
vn 0.00000000 0.70710678 0.70710678
vn 0.00000000 0.70710678 0.70710678
vn 0.00000000 0.70710678 0.70710678
vn 0.00000000 0.70710678 0.70710678
vn 0.00000000 0.00000000 1.00000000
vn 0.00000000 0.00000000 1.00000000
vn 0.00000000 0.00000000 1.00000000
vn 0.00000000 0.00000000 1.00000000
vn 0.00000000 -0.70710678 0.70710678
vn 0.00000000 -0.70710678 0.70710678
vn 0.00000000 -0.70710678 0.70710678
vn 0.00000000 -0.70710678 0.70710678
vn 0.00000000 -1.00000000 0.00000000
vn 0.00000000 -1.00000000 0.00000000
vn 0.00000000 -1.00000000 0.00000000
vn 0.00000000 -1.00000000 0.00000000
vn 0.00000000 -0.70710678 -0.70710678
vn 0.00000000 -0.70710678 -0.70710678
vn 0.00000000 -0.70710678 -0.70710678
vn 0.00000000 -0.70710678 -0.70710678
vn 0.70710678 -0.50000000 -0.50000000
vn 0.70710678 -0.50000000 -0.50000000
vn 0.70710678 -0.50000000 -0.50000000
vn 0.70710678 -0.50000000 -0.50000000
vn 1.00000000 0.00000000 0.00000000
vn 1.00000000 0.00000000 0.00000000
vn 1.00000000 0.00000000 0.00000000
vn 1.00000000 0.00000000 0.00000000
vn 1.00000000 0.00000000 0.00000000
vn 1.00000000 0.00000000 0.00000000
vn 1.00000000 0.00000000 0.00000000
vn 1.00000000 0.00000000 0.00000000
vn 0.70710678 0.00000000 -0.70710678
vn 0.70710678 0.00000000 -0.70710678
vn 0.70710678 0.00000000 -0.70710678
vn 0.70710678 0.00000000 -0.70710678
vn 0.70710678 -0.70710678 0.00000000
vn 0.70710678 -0.70710678 0.00000000
vn 0.70710678 -0.70710678 0.00000000
vn 0.70710678 -0.70710678 0.00000000
vn 0.70710678 -0.50000000 0.50000000
vn 0.70710678 -0.50000000 0.50000000
vn 0.70710678 -0.50000000 0.50000000
vn 0.70710678 -0.50000000 0.50000000
vn 0.70710678 0.00000000 0.70710678
vn 0.70710678 0.00000000 0.70710678
vn 0.70710678 0.00000000 0.70710678
vn 0.70710678 0.00000000 0.70710678
vn 0.70710678 0.50000000 0.50000000
vn 0.70710678 0.50000000 0.50000000
vn 0.70710678 0.50000000 0.50000000
vn 0.70710678 0.50000000 0.50000000
vn 0.70710678 0.70710678 0.00000000
vn 0.70710678 0.70710678 0.00000000
vn 0.70710678 0.70710678 0.00000000
vn 0.70710678 0.70710678 0.00000000
vn -1.00000000 0.00000000 0.00000000
vn -1.00000000 0.00000000 0.00000000
vn -1.00000000 0.00000000 0.00000000
vn -1.00000000 0.00000000 0.00000000
vn -1.00000000 0.00000000 0.00000000
vn -1.00000000 0.00000000 0.00000000
vn -1.00000000 0.00000000 0.00000000
vn -1.00000000 0.00000000 0.00000000
vn 0.00000000 0.00000000 -1.00000000
vn 0.00000000 0.00000000 -1.00000000
vn 0.00000000 0.00000000 -1.00000000
vn 0.00000000 0.00000000 -1.00000000
vn 0.70710678 0.50000000 -0.50000000
vn 0.70710678 0.50000000 -0.50000000
vn 0.70710678 0.50000000 -0.50000000
vn 0.70710678 0.50000000 -0.50000000
s 1
usemtl Metal_Blue
f 4/4/4 3/3/3 2/2/2
f 4/4/4 2/2/2 1/1/1
s 2
f 6/8/8 5/7/7 3/6/6
f 6/8/8 3/6/6 4/5/5
s 3
f 8/12/12 7/11/11 5/10/10
f 8/12/12 5/10/10 6/9/9
s 4
f 10/16/16 9/15/15 8/13/13
f 9/15/15 7/14/14 8/13/13
s 5
f 12/20/20 11/19/19 9/18/18
f 12/20/20 9/18/18 10/17/17
s 6
f 14/24/24 13/23/23 11/22/22
f 14/24/24 11/22/22 12/21/21
s 7
f 16/28/28 15/27/27 13/26/26
f 16/28/28 13/26/26 14/25/25
s 8
f 17/29/29 13/30/30 18/32/32
f 13/30/30 15/31/31 18/32/32
s 9
f 20/34/34 21/35/35 22/36/36
f 22/36/36 17/37/37 24/40/40
f 18/38/38 23/39/39 24/40/40
f 17/37/37 18/38/38 24/40/40
f 24/40/40 19/33/33 22/36/36
f 19/33/33 20/34/34 22/36/36
s 10
f 18/41/41 15/42/42 23/44/44
f 15/42/42 2/43/43 23/44/44
s 11
f 22/45/45 11/46/46 17/48/48
f 11/46/46 13/47/47 17/48/48
s 12
f 21/49/49 9/50/50 22/52/52
f 9/50/50 11/51/51 22/52/52
s 13
f 20/53/53 7/54/54 21/56/56
f 7/54/54 9/55/55 21/56/56
s 14
f 19/57/57 5/58/58 20/60/60
f 5/58/58 7/59/59 20/60/60
s 15
f 24/61/61 3/62/62 19/64/64
f 3/62/62 5/63/63 19/64/64
s 16
f 1/68/68 16/67/67 14/66/66
f 6/70/70 4/69/69 14/66/66
f 12/65/65 10/72/72 6/70/70
f 10/72/72 8/71/71 6/70/70
f 14/66/66 12/65/65 6/70/70
f 4/69/69 1/68/68 14/66/66
s 17
f 1/76/76 2/75/75 16/73/73
f 2/75/75 15/74/74 16/73/73
s 18
f 23/77/77 2/78/78 24/80/80
f 2/78/78 3/79/79 24/80/80
o object2
g object2
v -0.40000000 0.10000000 -0.45000000
v -0.50000000 0.10000000 -0.45000000
v -0.50000000 0.35000000 -0.20000000
v -0.40000000 0.35000000 -0.20000000
v -0.40000000 -0.10000000 -0.45000000
v -0.50000000 -0.10000000 -0.45000000
v -0.40000000 -0.35000000 -0.20000000
v -0.50000000 -0.35000000 -0.20000000
v -0.40000000 -0.35000000 0.20000000
v -0.50000000 -0.35000000 0.20000000
v -0.40000000 -0.10000000 0.45000000
v -0.50000000 -0.10000000 0.45000000
v -0.40000000 0.10000000 0.45000000
v -0.50000000 0.10000000 0.45000000
v -0.40000000 0.35000000 0.20000000
v -0.50000000 0.35000000 0.20000000
v -0.22500000 0.08750000 0.41250000
v -0.22500000 0.31250000 0.18750000
v -0.22500000 0.31250000 -0.18750000
v 0.00000000 0.20000000 0.15000000
v 0.00000000 0.20000000 -0.15000000
v 0.00000000 0.05000000 -0.30000000
v -0.22500000 0.08750000 -0.41250000
v 0.00000000 -0.05000000 -0.30000000
v -0.22500000 -0.08750000 -0.41250000
v 0.00000000 -0.20000000 -0.15000000
v -0.22500000 -0.31250000 -0.18750000
v 0.00000000 -0.20000000 0.15000000
v -0.22500000 -0.31250000 0.18750000
v 0.00000000 -0.05000000 0.30000000
v -0.22500000 -0.08750000 0.41250000
v 0.00000000 0.05000000 0.30000000
vt 0.00000000 0.00000000
vt 1.00000000 0.00000000
vt 1.00000000 1.00000000
vt 0.00000000 1.00000000
vt 0.00000000 0.00000000
vt 1.00000000 0.00000000
vt 1.00000000 1.00000000
vt 0.00000000 1.00000000
vt 0.00000000 0.00000000
vt 1.00000000 0.00000000
vt 1.00000000 1.00000000
vt 0.00000000 1.00000000
vt 0.00000000 0.00000000
vt 1.00000000 0.00000000
vt 1.00000000 1.00000000
vt 0.00000000 1.00000000
vt 0.00000000 0.00000000
vt 1.00000000 0.00000000
vt 1.00000000 1.00000000
vt 0.00000000 1.00000000
vt 0.00000000 0.00000000
vt 1.00000000 0.00000000
vt 1.00000000 1.00000000
vt 0.00000000 1.00000000
vt 0.00000000 0.00000000
vt 1.00000000 0.00000000
vt 1.00000000 1.00000000
vt 0.00000000 1.00000000
vt 0.00000000 0.00000000
vt 1.00000000 0.00000000
vt 1.00000000 1.00000000
vt 0.00000000 1.00000000
vt 0.00000000 0.00000000
vt 1.00000000 0.00000000
vt 1.00000000 1.00000000
vt 0.00000000 1.00000000
vt 1.00000000 1.00000000
vt 0.00000000 1.00000000
vt 0.00000000 0.00000000
vt 1.00000000 0.00000000
vt 1.00000000 1.00000000
vt 0.00000000 1.00000000
vt 0.00000000 0.00000000
vt 1.00000000 0.00000000
vt 1.00000000 1.00000000
vt 0.00000000 1.00000000
vt 0.00000000 0.00000000
vt 1.00000000 0.00000000
vt 1.00000000 1.00000000
vt 0.00000000 1.00000000
vt 0.00000000 0.00000000
vt 1.00000000 0.00000000
vt 1.00000000 1.00000000
vt 0.00000000 1.00000000
vt 0.00000000 0.00000000
vt 1.00000000 0.00000000
vt 1.00000000 1.00000000
vt 0.00000000 1.00000000
vt 0.00000000 0.00000000
vt 1.00000000 0.00000000
vt 1.00000000 1.00000000
vt 0.00000000 1.00000000
vt 0.00000000 0.00000000
vt 1.00000000 0.00000000
vt 0.00000000 0.75000000
vt 0.00000000 0.25000000
vt 0.37500000 0.00000000
vt 0.62500000 0.00000000
vt 1.00000000 0.25000000
vt 1.00000000 0.75000000
vt 0.62500000 1.00000000
vt 0.37500000 1.00000000
vt 1.00000000 1.00000000
vt 0.00000000 1.00000000
vt 0.00000000 0.00000000
vt 1.00000000 0.00000000
vt 0.00000000 0.00000000
vt 1.00000000 0.00000000
vt 1.00000000 1.00000000
vt 0.00000000 1.00000000
vt 0.00000000 0.00000000
vt 1.00000000 0.00000000
vt 1.00000000 1.00000000
vt 0.00000000 1.00000000
vt 0.00000000 0.00000000
vt 1.00000000 0.00000000
vt 1.00000000 1.00000000
vt 0.00000000 1.00000000
vt 0.00000000 0.00000000
vt 1.00000000 0.00000000
vt 1.00000000 1.00000000
vt 0.00000000 1.00000000
vt 0.00000000 0.00000000
vt 1.00000000 0.00000000
vt 1.00000000 1.00000000
vt 0.00000000 1.00000000
vt 0.00000000 0.00000000
vt 1.00000000 0.00000000
vt 1.00000000 1.00000000
vt 0.00000000 1.00000000
vt 0.00000000 0.00000000
vt 1.00000000 0.00000000
vt 1.00000000 1.00000000
vt 0.00000000 1.00000000
vt 0.00000000 0.72222222
vt 0.00000000 0.27777778
vt 0.35714286 0.00000000
vt 0.64285714 0.00000000
vt 1.00000000 0.27777778
vt 1.00000000 0.72222222
vt 0.64285714 1.00000000
vt 0.35714286 1.00000000
vn 0.00000000 0.70710678 -0.70710678
vn 0.00000000 0.70710678 -0.70710678
vn 0.00000000 0.70710678 -0.70710678
vn 0.00000000 0.70710678 -0.70710678
vn 0.00000000 0.00000000 -1.00000000
vn 0.00000000 0.00000000 -1.00000000
vn 0.00000000 0.00000000 -1.00000000
vn 0.00000000 0.00000000 -1.00000000
vn 0.00000000 -0.70710678 -0.70710678
vn 0.00000000 -0.70710678 -0.70710678
vn 0.00000000 -0.70710678 -0.70710678
vn 0.00000000 -0.70710678 -0.70710678
vn 0.00000000 -1.00000000 0.00000000
vn 0.00000000 -1.00000000 0.00000000
vn 0.00000000 -1.00000000 0.00000000
vn 0.00000000 -1.00000000 0.00000000
vn 0.00000000 -0.70710678 0.70710678
vn 0.00000000 -0.70710678 0.70710678
vn 0.00000000 -0.70710678 0.70710678
vn 0.00000000 -0.70710678 0.70710678
vn 0.00000000 0.00000000 1.00000000
vn 0.00000000 0.00000000 1.00000000
vn 0.00000000 0.00000000 1.00000000
vn 0.00000000 0.00000000 1.00000000
vn 0.00000000 0.70710678 0.70710678
vn 0.00000000 0.70710678 0.70710678
vn 0.00000000 0.70710678 0.70710678
vn 0.00000000 0.70710678 0.70710678
vn 0.19802951 0.69310328 0.69310328
vn 0.19802951 0.69310328 0.69310328
vn 0.19802951 0.69310328 0.69310328
vn 0.19802951 0.69310328 0.69310328
vn 0.20952909 0.97780241 -0.00000000
vn 0.20952909 0.97780241 0.00000000
vn 0.20952909 0.97780241 0.00000000
vn 0.20952909 0.97780241 -0.00000000
vn 0.44721360 0.89442719 0.00000000
vn 0.44721360 0.89442719 0.00000000
vn 0.44721360 0.89442719 0.00000000
vn 0.44721360 0.89442719 0.00000000
vn 0.42640143 0.63960215 -0.63960215
vn 0.42640143 0.63960215 -0.63960215
vn 0.42640143 0.63960215 -0.63960215
vn 0.42640143 0.63960215 -0.63960215
vn 0.44721360 0.00000000 -0.89442719
vn 0.44721360 0.00000000 -0.89442719
vn 0.44721360 0.00000000 -0.89442719
vn 0.44721360 0.00000000 -0.89442719
vn 0.42640143 -0.63960215 -0.63960215
vn 0.42640143 -0.63960215 -0.63960215
vn 0.42640143 -0.63960215 -0.63960215
vn 0.42640143 -0.63960215 -0.63960215
vn 0.44721360 -0.89442719 0.00000000
vn 0.44721360 -0.89442719 0.00000000
vn 0.44721360 -0.89442719 0.00000000
vn 0.44721360 -0.89442719 0.00000000
vn 0.42640143 -0.63960215 0.63960215
vn 0.42640143 -0.63960215 0.63960215
vn 0.42640143 -0.63960215 0.63960215
vn 0.42640143 -0.63960215 0.63960215
vn 0.44721360 0.00000000 0.89442719
vn 0.44721360 0.00000000 0.89442719
vn 0.44721360 0.00000000 0.89442719
vn 0.44721360 0.00000000 0.89442719
vn 1.00000000 0.00000000 0.00000000
vn 1.00000000 0.00000000 0.00000000
vn 1.00000000 0.00000000 0.00000000
vn 1.00000000 0.00000000 0.00000000
vn 1.00000000 0.00000000 0.00000000
vn 1.00000000 0.00000000 0.00000000
vn 1.00000000 0.00000000 0.00000000
vn 1.00000000 0.00000000 0.00000000
vn 0.42640143 0.63960215 0.63960215
vn 0.42640143 0.63960215 0.63960215
vn 0.42640143 0.63960215 0.63960215
vn 0.42640143 0.63960215 0.63960215
vn 0.20952909 0.00000000 0.97780241
vn 0.20952909 0.00000000 0.97780241
vn 0.20952909 -0.00000000 0.97780241
vn 0.20952909 0.00000000 0.97780241
vn 0.19802951 -0.69310328 0.69310328
vn 0.19802951 -0.69310328 0.69310328
vn 0.19802951 -0.69310328 0.69310328
vn 0.19802951 -0.69310328 0.69310328
vn 0.20952909 -0.97780241 0.00000000
vn 0.20952909 -0.97780241 0.00000000
vn 0.20952909 -0.97780241 0.00000000
vn 0.20952909 -0.97780241 0.00000000
vn 0.19802951 -0.69310328 -0.69310328
vn 0.19802951 -0.69310328 -0.69310328
vn 0.19802951 -0.69310328 -0.69310328
vn 0.19802951 -0.69310328 -0.69310328
vn 0.20952909 0.00000000 -0.97780241
vn 0.20952909 0.00000000 -0.97780241
vn 0.20952909 0.00000000 -0.97780241
vn 0.20952909 0.00000000 -0.97780241
vn 0.19802951 0.69310328 -0.69310328
vn 0.19802951 0.69310328 -0.69310328
vn 0.19802951 0.69310328 -0.69310328
vn 0.19802951 0.69310328 -0.69310328
vn 0.00000000 1.00000000 0.00000000
vn 0.00000000 1.00000000 0.00000000
vn 0.00000000 1.00000000 0.00000000
vn 0.00000000 1.00000000 0.00000000
vn -1.00000000 0.00000000 0.00000000
vn -1.00000000 0.00000000 0.00000000
vn -1.00000000 0.00000000 0.00000000
vn -1.00000000 0.00000000 0.00000000
vn -1.00000000 0.00000000 0.00000000
vn -1.00000000 0.00000000 0.00000000
vn -1.00000000 0.00000000 0.00000000
vn -1.00000000 0.00000000 0.00000000
s 1
usemtl Metal_Blue_Light
f 25/81/81 26/82/82 28/84/84
f 26/82/82 27/83/83 28/84/84
s 2
f 29/85/85 30/86/86 25/88/88
f 30/86/86 26/87/87 25/88/88
s 3
f 31/89/89 32/90/90 30/91/91
f 31/89/89 30/91/91 29/92/92
s 4
f 33/93/93 34/94/94 31/96/96
f 34/94/94 32/95/95 31/96/96
s 5
f 35/97/97 36/98/98 33/100/100
f 36/98/98 34/99/99 33/100/100
s 6
f 37/101/101 38/102/102 35/104/104
f 38/102/102 36/103/103 35/104/104
s 7
f 39/105/105 40/106/106 37/108/108
f 40/106/106 38/107/107 37/108/108
s 8
f 42/112/112 39/111/111 41/109/109
f 39/111/111 37/110/110 41/109/109
s 9
f 43/116/116 28/115/115 42/113/113
f 28/115/115 39/114/114 42/113/113
s 10
f 42/117/117 44/118/118 45/119/119
f 42/117/117 45/119/119 43/120/120
s 11
f 43/121/121 45/122/122 46/123/123
f 43/121/121 46/123/123 47/124/124
s 12
f 47/125/125 46/126/126 49/128/128
f 46/126/126 48/127/127 49/128/128
s 13
f 49/129/129 48/130/130 50/131/131
f 49/129/129 50/131/131 51/132/132
s 14
f 51/133/133 50/134/134 52/135/135
f 51/133/133 52/135/135 53/136/136
s 15
f 53/137/137 52/138/138 54/139/139
f 53/137/137 54/139/139 55/140/140
s 16
f 55/141/141 54/142/142 41/144/144
f 54/142/142 56/143/143 41/144/144
s 17
f 50/146/146 48/147/147 46/148/148
f 50/146/146 45/149/149 44/150/150
f 44/150/150 54/152/152 52/145/145
f 44/150/150 56/151/151 54/152/152
f 44/150/150 52/145/145 50/146/146
f 50/146/146 46/148/148 45/149/149
s 18
f 41/153/153 56/154/154 44/155/155
f 41/153/153 44/155/155 42/156/156
s 19
f 41/160/160 37/159/159 55/157/157
f 37/159/159 35/158/158 55/157/157
s 20
f 55/164/164 35/163/163 53/161/161
f 35/163/163 33/162/162 53/161/161
s 21
f 53/168/168 33/167/167 51/165/165
f 33/167/167 31/166/166 51/165/165
s 22
f 51/172/172 31/171/171 49/169/169
f 31/171/171 29/170/170 49/169/169
s 23
f 49/176/176 29/175/175 25/174/174
f 49/176/176 25/174/174 47/173/173
s 24
f 47/180/180 25/179/179 43/177/177
f 25/179/179 28/178/178 43/177/177
s 25
f 28/181/181 27/182/182 39/184/184
f 27/182/182 40/183/183 39/184/184
s 26
f 27/189/189 26/188/188 30/187/187
f 36/192/192 27/189/189 32/186/186
f 32/186/186 34/185/185 36/192/192
f 36/192/192 38/191/191 40/190/190
f 36/192/192 40/190/190 27/189/189
f 27/189/189 30/187/187 32/186/186
