mtllib Spacestation_Structure_Wing_Thin_Backward_Flush.mtl
o object1
g object1
v 0.55000000 -0.05000000 0.50000000
v 0.50000000 -0.05000000 0.55000000
v 0.50000000 -0.10000000 0.50000000
v 0.50000000 0.05000000 0.55000000
v 0.55000000 0.05000000 0.50000000
v -0.50000000 0.15000000 0.55000000
v -0.50000000 -0.15000000 0.55000000
v -0.50000000 -0.20000000 0.50000000
v -0.50000000 -0.20000000 -0.10000000
v -0.50000000 -0.14142136 -0.38284271
v -0.50000000 0.00000000 -0.50000000
v -0.50000000 0.14142136 -0.38284271
v -0.50000000 0.20000000 -0.10000000
v -0.50000000 0.20000000 0.50000000
v 0.50000000 -0.10000000 0.20000000
v 0.50000000 -0.07071068 0.05857864
v 0.55000000 -0.02530667 0.08589338
v 0.55000000 -0.05000000 0.20512331
v 0.50000000 0.00000000 0.00000000
v 0.55000000 -0.00000000 0.06492864
v 0.50000000 0.07071068 0.05857864
v 0.55000000 0.02530667 0.08589338
v 0.50000000 0.10000000 0.20000000
v 0.55000000 0.05000000 0.20512331
v 0.50000000 0.10000000 0.50000000
vt 1.00000000 1.00000000
vt 0.00000000 0.50000000
vt 1.00000000 0.00000000
vt 0.00000000 1.00000000
vt 0.00000000 0.00000000
vt 1.00000000 0.00000000
vt 1.00000000 1.00000000
vt 1.00000000 1.00000000
vt 0.00000000 1.00000000
vt 0.33333333 0.00000000
vt 0.66666667 0.00000000
vt 0.12500000 0.00000000
vt 0.87500000 0.00000000
vt 1.00000000 0.04761905
vt 1.00000000 0.61904762
vt 0.85355339 0.88842163
vt 0.50000000 1.00000000
vt 0.14644661 0.88842163
vt 0.00000000 0.61904762
vt 0.00000000 0.04761905
vt 0.00000000 1.00000000
vt 0.00000000 0.00000000
vt 1.00000000 0.00000000
vt 1.00000000 1.00000000
vt 0.00000000 1.00000000
vt 0.00000000 0.00000000
vt 1.00000000 0.00000000
vt 1.00000000 1.00000000
vt 0.00000000 0.00000000
vt 1.00000000 0.00000000
vt 0.87855735 1.00000000
vt 0.03547444 1.00000000
vt 0.00000000 0.00000000
vt 1.00000000 0.00000000
vt 0.54889983 1.00000000
vt 0.19100943 1.00000000
vt 0.00000000 0.00000000
vt 1.00000000 0.00000000
vt 0.80899057 1.00000000
vt 0.45110017 1.00000000
vt 0.00000000 0.00000000
vt 1.00000000 0.00000000
vt 0.96452556 1.00000000
vt 0.12144265 1.00000000
vt 0.98292231 0.00000000
vt 1.00000000 1.00000000
vt 0.00000000 1.00000000
vt 0.00000000 0.00000000
vt 0.00000000 1.00000000
vt 0.00000000 0.00000000
vt 1.00000000 0.00000000
vt 1.00000000 1.00000000
vt 0.00000000 1.00000000
vt 0.00000000 0.00000000
vt 1.00000000 0.00000000
vt 1.00000000 1.00000000
vt 0.00000000 1.00000000
vt 0.00000000 0.00000000
vt 1.00000000 0.00000000
vt 1.00000000 1.00000000
vt 0.00000000 1.00000000
vt 0.00000000 0.00000000
vt 1.00000000 0.00000000
vt 1.00000000 1.00000000
vt 1.00000000 1.00000000
vt 0.00000000 0.50000000
vt 0.00000000 0.00000000
vt 1.00000000 0.00000000
vt 1.00000000 1.00000000
vt 0.00000000 0.50000000
vt 1.00000000 0.00000000
vt 0.00000000 0.00000000
vt 1.00000000 0.00000000
vt 1.00000000 0.67776627
vt 0.75306673 0.95181311
vt 0.50000000 1.00000000
vt 0.24693327 0.95181311
vt 0.00000000 0.67776627
vt 1.00000000 0.00000000
vt 0.98292231 1.00000000
vt 0.00000000 1.00000000
vt 0.00000000 0.00000000
vt 0.00000000 0.50000000
vt 1.00000000 0.00000000
vt 1.00000000 1.00000000
vt 0.00000000 1.00000000
vn 0.57735027 -0.57735027 0.57735027
vn 0.57735027 -0.57735027 0.57735027
vn 0.57735027 -0.57735027 0.57735027
vn 0.70710678 0.00000000 0.70710678
vn 0.70710678 0.00000000 0.70710678
vn 0.70710678 0.00000000 0.70710678
vn 0.70710678 0.00000000 0.70710678
vn 0.00000000 0.00000000 1.00000000
vn 0.00000000 0.00000000 1.00000000
vn 0.00000000 0.00000000 1.00000000
vn 0.00000000 0.00000000 1.00000000
vn -1.00000000 0.00000000 0.00000000
vn -1.00000000 0.00000000 0.00000000
vn -1.00000000 0.00000000 0.00000000
vn -1.00000000 0.00000000 0.00000000
vn -1.00000000 0.00000000 0.00000000
vn -1.00000000 0.00000000 0.00000000
vn -1.00000000 0.00000000 0.00000000
vn -1.00000000 0.00000000 0.00000000
vn -1.00000000 0.00000000 0.00000000
vn 0.09950372 -0.99503719 0.00000000
vn 0.09950372 -0.99503719 -0.00000000
vn 0.09950372 -0.99503719 -0.00000000
vn 0.09950372 -0.99503719 0.00000000
vn 0.15679905 -0.96710713 -0.20029444
vn 0.15679905 -0.96710713 -0.20029444
vn 0.15679905 -0.96710713 -0.20029444
vn 0.15679905 -0.96710713 -0.20029444
vn 0.70710678 -0.69241279 -0.14340338
vn 0.70710678 -0.69241279 -0.14340338
vn 0.70710678 -0.69241279 -0.14340338
vn 0.70710678 -0.69241279 -0.14340338
vn 0.70710678 -0.45110017 -0.54452607
vn 0.70710678 -0.45110017 -0.54452607
vn 0.70710678 -0.45110017 -0.54452607
vn 0.70710678 -0.45110017 -0.54452607
vn 0.70710678 0.45110017 -0.54452607
vn 0.70710678 0.45110017 -0.54452607
vn 0.70710678 0.45110017 -0.54452607
vn 0.70710678 0.45110017 -0.54452607
vn 0.70710678 0.69241279 -0.14340338
vn 0.70710678 0.69241279 -0.14340338
vn 0.70710678 0.69241279 -0.14340338
vn 0.70710678 0.69241279 -0.14340338
vn 0.70710678 0.70710678 0.00000000
vn 0.70710678 0.70710678 0.00000000
vn 0.70710678 0.70710678 0.00000000
vn 0.70710678 0.70710678 0.00000000
vn 0.35932268 -0.59534532 -0.71864537
vn 0.35932268 -0.59534532 -0.71864537
vn 0.35932268 -0.59534532 -0.71864537
vn 0.35932268 -0.59534532 -0.71864537
vn 0.35932268 0.59534532 -0.71864537
vn 0.35932268 0.59534532 -0.71864537
vn 0.35932268 0.59534532 -0.71864537
vn 0.35932268 0.59534532 -0.71864537
vn 0.15679905 0.96710713 -0.20029444
vn 0.15679905 0.96710713 -0.20029444
vn 0.15679905 0.96710713 -0.20029444
vn 0.15679905 0.96710713 -0.20029444
vn 0.09950372 0.99503719 -0.00000000
vn 0.09950372 0.99503719 0.00000000
vn 0.09950372 0.99503719 0.00000000
vn 0.09950372 0.99503719 -0.00000000
vn 0.07053456 0.70534562 0.70534562
vn 0.07053456 0.70534562 0.70534562
vn 0.07053456 0.70534562 0.70534562
vn 0.07053456 0.70534562 0.70534562
vn 0.57735027 0.57735027 0.57735027
vn 0.57735027 0.57735027 0.57735027
vn 0.57735027 0.57735027 0.57735027
vn 1.00000000 0.00000000 0.00000000
vn 1.00000000 0.00000000 0.00000000
vn 1.00000000 0.00000000 0.00000000
vn 1.00000000 0.00000000 0.00000000
vn 1.00000000 0.00000000 0.00000000
vn 1.00000000 0.00000000 0.00000000
vn 1.00000000 0.00000000 0.00000000
vn 0.70710678 -0.70710678 0.00000000
vn 0.70710678 -0.70710678 0.00000000
vn 0.70710678 -0.70710678 0.00000000
vn 0.70710678 -0.70710678 0.00000000
vn 0.07053456 -0.70534562 0.70534562
vn 0.07053456 -0.70534562 0.70534562
vn 0.07053456 -0.70534562 0.70534562
vn 0.07053456 -0.70534562 0.70534562
s 1
usemtl Metal_Blue
f 1/1/1 2/2/2 3/3/3
s 2
f 4/4/4 2/5/5 5/7/7
f 2/5/5 1/6/6 5/7/7
s 3
f 6/8/8 7/9/9 4/11/11
f 7/9/9 2/10/10 4/11/11
s 4
f 12/18/18 11/17/17 10/16/16
f 13/19/19 12/18/18 9/15/15
f 14/20/20 13/19/19 8/14/14
f 8/14/14 7/13/13 6/12/12
f 14/20/20 8/14/14 6/12/12
f 13/19/19 9/15/15 8/14/14
f 12/18/18 10/16/16 9/15/15
s 5
f 15/24/24 3/23/23 8/22/22
f 15/24/24 8/22/22 9/21/21
s 6
f 16/28/28 15/27/27 9/26/26
f 16/28/28 9/26/26 10/25/25
s 7
f 15/29/29 16/30/30 17/31/31
f 15/29/29 17/31/31 18/32/32
s 8
f 16/33/33 19/34/34 20/35/35
f 16/33/33 20/35/35 17/36/36
s 9
f 19/37/37 21/38/38 20/40/40
f 21/38/38 22/39/39 20/40/40
s 10
f 21/41/41 23/42/42 22/44/44
f 23/42/42 24/43/43 22/44/44
s 11
f 24/45/45 23/46/46 25/47/47
f 24/45/45 25/47/47 5/48/48
s 12
f 19/52/52 16/51/51 10/50/50
f 19/52/52 10/50/50 11/49/49
s 13
f 21/56/56 19/55/55 12/53/53
f 19/55/55 11/54/54 12/53/53
s 14
f 23/60/60 21/59/59 13/57/57
f 21/59/59 12/58/58 13/57/57
s 15
f 25/64/64 23/63/63 14/61/61
f 23/63/63 13/62/62 14/61/61
s 16
f 25/68/68 14/67/67 6/66/66
f 25/68/68 6/66/66 4/65/65
s 17
f 25/71/71 4/70/70 5/69/69
s 18
f 17/77/77 20/76/76 22/75/75
f 18/78/78 22/75/75 24/74/74
f 18/78/78 24/74/74 5/73/73
f 5/73/73 1/72/72 18/78/78
f 18/78/78 17/77/77 22/75/75
s 19
f 15/79/79 18/80/80 3/82/82
f 18/80/80 1/81/81 3/82/82
s 20
f 8/86/86 3/85/85 7/83/83
f 3/85/85 2/84/84 7/83/83
