mtllib Spacestation_Propulsion_Thruster_Single_Small_Housing_Mid.mtl
o object1
g object1
v -0.50000000 -0.35000000 0.16111111
v -0.50000000 -0.18259496 0.34180226
v 0.50000000 -0.18259496 0.34180226
v 0.50000000 -0.35000000 0.16111111
v 0.50000000 -0.35000000 -0.16111111
v 0.50000000 -0.18259496 -0.34180226
v 0.50000000 0.18259496 -0.34180226
v 0.50000000 0.35000000 -0.16111111
v 0.50000000 0.35000000 0.16111111
v 0.50000000 0.18259496 0.34180226
v -0.50000000 0.35000000 0.16111111
v -0.50000000 0.18259496 0.34180226
v -0.50000000 0.35000000 -0.16111111
v -0.50000000 0.18259496 -0.34180226
v -0.50000000 -0.18259496 -0.34180226
v -0.50000000 -0.35000000 -0.16111111
vt 1.00000000 0.00000000
vt 1.00000000 1.00000000
vt 0.00000000 1.00000000
vt 0.00000000 0.00000000
vt 0.23915006 1.00000000
vt 0.00000000 0.73567882
vt 0.00000000 0.26432118
vt 0.23915006 0.00000000
vt 0.76084994 0.00000000
vt 1.00000000 0.26432118
vt 1.00000000 0.73567882
vt 0.76084994 1.00000000
vt 1.00000000 0.00000000
vt 1.00000000 1.00000000
vt 0.00000000 1.00000000
vt 0.00000000 0.00000000
vt 1.00000000 0.00000000
vt 1.00000000 1.00000000
vt 0.00000000 1.00000000
vt 0.00000000 0.00000000
vt 1.00000000 0.00000000
vt 1.00000000 1.00000000
vt 0.00000000 1.00000000
vt 0.00000000 0.00000000
vt 1.00000000 0.00000000
vt 1.00000000 1.00000000
vt 0.00000000 1.00000000
vt 0.00000000 0.00000000
vt 1.00000000 0.00000000
vt 1.00000000 1.00000000
vt 0.00000000 1.00000000
vt 0.00000000 0.00000000
vt 1.00000000 0.00000000
vt 1.00000000 1.00000000
vt 0.00000000 1.00000000
vt 0.00000000 0.00000000
vt 0.23915006 1.00000000
vt 0.00000000 0.73567882
vt 0.00000000 0.26432118
vt 0.23915006 0.00000000
vt 0.76084994 0.00000000
vt 1.00000000 0.26432118
vt 1.00000000 0.73567882
vt 0.76084994 1.00000000
vt 1.00000000 0.00000000
vt 1.00000000 1.00000000
vt 0.00000000 1.00000000
vt 0.00000000 0.00000000
vn -0.00000000 -0.73356146 0.67962312
vn -0.00000000 -0.73356146 0.67962312
vn -0.00000000 -0.73356146 0.67962312
vn -0.00000000 -0.73356146 0.67962312
vn 1.00000000 0.00000000 0.00000000
vn 1.00000000 0.00000000 0.00000000
vn 1.00000000 0.00000000 0.00000000
vn 1.00000000 0.00000000 0.00000000
vn 1.00000000 0.00000000 0.00000000
vn 1.00000000 0.00000000 0.00000000
vn 1.00000000 0.00000000 0.00000000
vn 1.00000000 0.00000000 0.00000000
vn -0.00000000 0.73356146 0.67962312
vn -0.00000000 0.73356146 0.67962312
vn -0.00000000 0.73356146 0.67962312
vn -0.00000000 0.73356146 0.67962312
vn 0.00000000 1.00000000 0.00000000
vn 0.00000000 1.00000000 0.00000000
vn 0.00000000 1.00000000 0.00000000
vn 0.00000000 1.00000000 0.00000000
vn 0.00000000 0.73356146 -0.67962312
vn 0.00000000 0.73356146 -0.67962312
vn 0.00000000 0.73356146 -0.67962312
vn 0.00000000 0.73356146 -0.67962312
vn 0.00000000 0.00000000 -1.00000000
vn 0.00000000 0.00000000 -1.00000000
vn 0.00000000 0.00000000 -1.00000000
vn 0.00000000 0.00000000 -1.00000000
vn 0.00000000 -0.73356146 -0.67962312
vn 0.00000000 -0.73356146 -0.67962312
vn 0.00000000 -0.73356146 -0.67962312
vn 0.00000000 -0.73356146 -0.67962312
vn 0.00000000 -1.00000000 -0.00000000
vn 0.00000000 -1.00000000 -0.00000000
vn 0.00000000 -1.00000000 -0.00000000
vn 0.00000000 -1.00000000 -0.00000000
vn -1.00000000 0.00000000 -0.00000000
vn -1.00000000 0.00000000 -0.00000000
vn -1.00000000 0.00000000 -0.00000000
vn -1.00000000 0.00000000 -0.00000000
vn -1.00000000 0.00000000 -0.00000000
vn -1.00000000 0.00000000 -0.00000000
vn -1.00000000 0.00000000 -0.00000000
vn -1.00000000 0.00000000 -0.00000000
vn -0.00000000 0.00000000 1.00000000
vn -0.00000000 0.00000000 1.00000000
vn -0.00000000 0.00000000 1.00000000
vn -0.00000000 0.00000000 1.00000000
s 1
usemtl Metal_Gray
f 4/4/4 3/3/3 2/2/2
f 4/4/4 2/2/2 1/1/1
s 2
f 3/5/5 4/6/6 5/7/7
f 3/5/5 6/8/8 8/10/10
f 8/10/10 9/11/11 10/12/12
f 6/8/8 7/9/9 8/10/10
f 8/10/10 10/12/12 3/5/5
f 3/5/5 5/7/7 6/8/8
s 3
f 11/13/13 12/14/14 9/16/16
f 12/14/14 10/15/15 9/16/16
s 4
f 13/17/17 11/18/18 8/20/20
f 11/18/18 9/19/19 8/20/20
s 5
f 8/24/24 7/23/23 13/21/21
f 7/23/23 14/22/22 13/21/21
s 6
f 15/25/25 14/26/26 7/27/27
f 15/25/25 7/27/27 6/28/28
s 7
f 16/29/29 15/30/30 6/31/31
f 16/29/29 6/31/31 5/32/32
s 8
f 1/33/33 16/34/34 5/35/35
f 1/33/33 5/35/35 4/36/36
s 9
f 15/40/40 16/39/39 1/38/38
f 12/44/44 13/42/42 1/38/38
f 12/44/44 11/43/43 13/42/42
f 1/38/38 2/37/37 12/44/44
f 13/42/42 15/40/40 1/38/38
f 13/42/42 14/41/41 15/40/40
s 10
f 3/48/48 10/47/47 2/45/45
f 10/47/47 12/46/46 2/45/45
