mtllib Spacestation_Structure_Wing_Thin_Foreward_Angled.mtl
o object1
g object1
v -0.50000000 -0.20000000 0.50000000
v -0.50000000 -0.20000000 -0.10000000
v -0.50000000 -0.14142136 -0.38284271
v -0.50000000 0.00000000 -0.50000000
v -0.50000000 0.14142136 -0.38284271
v -0.50000000 0.20000000 -0.10000000
v -0.50000000 0.20000000 0.50000000
v -0.50000000 0.15000000 0.55000000
v -0.50000000 -0.15000000 0.55000000
v 0.50000000 0.00000000 -0.75000000
v 0.50000000 -0.07071068 -0.69142136
v 0.55000000 -0.00000000 -0.68507136
v 0.55000000 -0.02530667 -0.66410662
v 0.50000000 -0.10000000 -0.55000000
v 0.55000000 -0.05000000 -0.54487669
v 0.55000000 -0.05000000 -0.25000000
v 0.50000000 -0.10000000 -0.25000000
v 0.50000000 -0.05000000 -0.20000000
v 0.50000000 0.05000000 -0.20000000
v 0.55000000 0.05000000 -0.25000000
v 0.50000000 0.10000000 -0.25000000
v 0.55000000 0.05000000 -0.54487669
v 0.50000000 0.10000000 -0.55000000
v 0.50000000 0.07071068 -0.69142136
v 0.55000000 0.02530667 -0.66410662
vt 1.00000000 0.04761905
vt 1.00000000 0.61904762
vt 0.85355339 0.88842163
vt 0.50000000 1.00000000
vt 0.14644661 0.88842163
vt 0.00000000 0.61904762
vt 0.00000000 0.04761905
vt 0.12500000 0.00000000
vt 0.87500000 0.00000000
vt 0.00000000 1.00000000
vt 0.00000000 0.00000000
vt 1.00000000 0.00000000
vt 1.00000000 1.00000000
vt 0.00000000 0.00000000
vt 1.00000000 0.00000000
vt 0.54889983 1.00000000
vt 0.19100943 1.00000000
vt 0.00000000 0.00000000
vt 1.00000000 0.00000000
vt 0.87855735 1.00000000
vt 0.03547444 1.00000000
vt 1.00000000 0.00000000
vt 0.98292231 1.00000000
vt 0.00000000 1.00000000
vt 0.00000000 0.00000000
vt 1.00000000 1.00000000
vt 0.00000000 0.50000000
vt 1.00000000 0.00000000
vt 0.00000000 1.00000000
vt 0.00000000 0.00000000
vt 1.00000000 0.00000000
vt 1.00000000 1.00000000
vt 1.00000000 1.00000000
vt 0.00000000 0.50000000
vt 1.00000000 0.00000000
vt 0.98292231 0.00000000
vt 1.00000000 1.00000000
vt 0.00000000 1.00000000
vt 0.00000000 0.00000000
vt 0.00000000 0.00000000
vt 1.00000000 0.00000000
vt 0.96452556 1.00000000
vt 0.12144265 1.00000000
vt 0.00000000 0.00000000
vt 1.00000000 0.00000000
vt 1.00000000 0.67776627
vt 0.75306673 0.95181311
vt 0.50000000 1.00000000
vt 0.24693327 0.95181311
vt 0.00000000 0.67776627
vt 0.00000000 0.00000000
vt 1.00000000 0.00000000
vt 0.80899057 1.00000000
vt 0.45110017 1.00000000
vt 0.00000000 1.00000000
vt 0.00000000 0.00000000
vt 1.00000000 0.00000000
vt 1.00000000 1.00000000
vt 0.00000000 1.00000000
vt 0.00000000 0.00000000
vt 1.00000000 0.00000000
vt 1.00000000 1.00000000
vt 0.00000000 1.00000000
vt 0.00000000 0.00000000
vt 1.00000000 0.00000000
vt 1.00000000 1.00000000
vt 0.00000000 1.00000000
vt 0.00000000 0.00000000
vt 1.00000000 0.00000000
vt 1.00000000 1.00000000
vt 0.00000000 1.00000000
vt 0.00000000 0.00000000
vt 1.00000000 0.00000000
vt 1.00000000 1.00000000
vt 0.00000000 1.00000000
vt 0.00000000 0.00000000
vt 1.00000000 0.00000000
vt 1.00000000 1.00000000
vt 0.00000000 1.00000000
vt 0.00000000 0.00000000
vt 1.00000000 0.00000000
vt 1.00000000 1.00000000
vt 0.00000000 1.00000000
vt 0.00000000 0.00000000
vt 1.00000000 0.00000000
vt 1.00000000 1.00000000
vn -1.00000000 -0.00000000 0.00000000
vn -1.00000000 -0.00000000 0.00000000
vn -1.00000000 -0.00000000 0.00000000
vn -1.00000000 -0.00000000 0.00000000
vn -1.00000000 -0.00000000 0.00000000
vn -1.00000000 -0.00000000 0.00000000
vn -1.00000000 -0.00000000 0.00000000
vn -1.00000000 -0.00000000 0.00000000
vn -1.00000000 -0.00000000 0.00000000
vn -0.18904752 -0.62644838 -0.75619009
vn -0.18904752 -0.62644838 -0.75619009
vn -0.18904752 -0.62644838 -0.75619009
vn -0.18904752 -0.62644838 -0.75619009
vn 0.70710678 -0.45110017 -0.54452607
vn 0.70710678 -0.45110017 -0.54452607
vn 0.70710678 -0.45110017 -0.54452607
vn 0.70710678 -0.45110017 -0.54452607
vn 0.70710678 -0.69241279 -0.14340338
vn 0.70710678 -0.69241279 -0.14340338
vn 0.70710678 -0.69241279 -0.14340338
vn 0.70710678 -0.69241279 -0.14340338
vn 0.70710678 -0.70710678 0.00000000
vn 0.70710678 -0.70710678 0.00000000
vn 0.70710678 -0.70710678 0.00000000
vn 0.70710678 -0.70710678 0.00000000
vn 0.57735027 -0.57735027 0.57735027
vn 0.57735027 -0.57735027 0.57735027
vn 0.57735027 -0.57735027 0.57735027
vn 0.70710678 0.00000000 0.70710678
vn 0.70710678 0.00000000 0.70710678
vn 0.70710678 0.00000000 0.70710678
vn 0.70710678 0.00000000 0.70710678
vn 0.57735027 0.57735027 0.57735027
vn 0.57735027 0.57735027 0.57735027
vn 0.57735027 0.57735027 0.57735027
vn 0.70710678 0.70710678 0.00000000
vn 0.70710678 0.70710678 0.00000000
vn 0.70710678 0.70710678 0.00000000
vn 0.70710678 0.70710678 0.00000000
vn 0.70710678 0.69241279 -0.14340338
vn 0.70710678 0.69241279 -0.14340338
vn 0.70710678 0.69241279 -0.14340338
vn 0.70710678 0.69241279 -0.14340338
vn 1.00000000 0.00000000 0.00000000
vn 1.00000000 0.00000000 0.00000000
vn 1.00000000 0.00000000 0.00000000
vn 1.00000000 0.00000000 0.00000000
vn 1.00000000 0.00000000 0.00000000
vn 1.00000000 0.00000000 0.00000000
vn 1.00000000 0.00000000 0.00000000
vn 0.70710678 0.45110017 -0.54452607
vn 0.70710678 0.45110017 -0.54452607
vn 0.70710678 0.45110017 -0.54452607
vn 0.70710678 0.45110017 -0.54452607
vn -0.18904752 0.62644838 -0.75619009
vn -0.18904752 0.62644838 -0.75619009
vn -0.18904752 0.62644838 -0.75619009
vn -0.18904752 0.62644838 -0.75619009
vn 0.00666045 0.97919784 -0.20279851
vn 0.00666045 0.97919784 -0.20279851
vn 0.00666045 0.97919784 -0.20279851
vn 0.00666045 0.97919784 -0.20279851
vn 0.09950372 0.99503719 -0.00000000
vn 0.09950372 0.99503719 0.00000000
vn 0.09950372 0.99503719 0.00000000
vn 0.09950372 0.99503719 -0.00000000
vn 0.51515152 0.60606061 0.60606061
vn 0.51515152 0.60606061 0.60606061
vn 0.51515152 0.60606061 0.60606061
vn 0.51515152 0.60606061 0.60606061
vn 0.60000000 0.00000000 0.80000000
vn 0.60000000 0.00000000 0.80000000
vn 0.60000000 -0.00000000 0.80000000
vn 0.60000000 -0.00000000 0.80000000
vn 0.51515152 -0.60606061 0.60606061
vn 0.51515152 -0.60606061 0.60606061
vn 0.51515152 -0.60606061 0.60606061
vn 0.51515152 -0.60606061 0.60606061
vn 0.09950372 -0.99503719 0.00000000
vn 0.09950372 -0.99503719 -0.00000000
vn 0.09950372 -0.99503719 -0.00000000
vn 0.09950372 -0.99503719 0.00000000
vn 0.00666045 -0.97919784 -0.20279851
vn 0.00666045 -0.97919784 -0.20279851
vn 0.00666045 -0.97919784 -0.20279851
vn 0.00666045 -0.97919784 -0.20279851
s 1
usemtl Metal_Blue
f 5/5/5 4/4/4 3/3/3
f 6/6/6 5/5/5 2/2/2
f 7/7/7 6/6/6 1/1/1
f 1/1/1 9/9/9 8/8/8
f 8/8/8 7/7/7 1/1/1
f 6/6/6 2/2/2 1/1/1
f 5/5/5 3/3/3 2/2/2
s 2
f 10/10/10 11/11/11 4/13/13
f 11/11/11 3/12/12 4/13/13
s 3
f 11/14/14 10/15/15 12/16/16
f 11/14/14 12/16/16 13/17/17
s 4
f 14/18/18 11/19/19 13/20/20
f 14/18/18 13/20/20 15/21/21
s 5
f 14/22/22 15/23/23 17/25/25
f 15/23/23 16/24/24 17/25/25
s 6
f 16/26/26 18/27/27 17/28/28
s 7
f 19/29/29 18/30/30 20/32/32
f 18/30/30 16/31/31 20/32/32
s 8
f 21/35/35 19/34/34 20/33/33
s 9
f 22/36/36 23/37/37 21/38/38
f 22/36/36 21/38/38 20/39/39
s 10
f 24/40/40 23/41/41 25/43/43
f 23/41/41 22/42/42 25/43/43
s 11
f 13/49/49 12/48/48 25/47/47
f 15/50/50 25/47/47 22/46/46
f 15/50/50 22/46/46 20/45/45
f 20/45/45 16/44/44 15/50/50
f 15/50/50 13/49/49 25/47/47
s 12
f 10/51/51 24/52/52 12/54/54
f 24/52/52 25/53/53 12/54/54
s 13
f 24/55/55 10/56/56 4/57/57
f 24/55/55 4/57/57 5/58/58
s 14
f 23/59/59 24/60/60 5/61/61
f 23/59/59 5/61/61 6/62/62
s 15
f 21/63/63 23/64/64 6/65/65
f 21/63/63 6/65/65 7/66/66
s 16
f 19/67/67 21/68/68 7/69/69
f 19/67/67 7/69/69 8/70/70
s 17
f 18/71/71 19/72/72 8/73/73
f 18/71/71 8/73/73 9/74/74
s 18
f 17/75/75 18/76/76 1/78/78
f 18/76/76 9/77/77 1/78/78
s 19
f 14/79/79 17/80/80 2/82/82
f 17/80/80 1/81/81 2/82/82
s 20
f 11/83/83 14/84/84 3/86/86
f 14/84/84 2/85/85 3/86/86
