mtllib Spacestation_Weapon_Modular_Gun_Base.mtl
o object1
g object1
v -0.17099037 0.37944837 0.65000000
v -0.42681777 0.19908494 0.24541635
v -0.56250000 0.50000000 0.24541635
v -0.22534695 0.50000000 0.65000000
v -0.17099037 0.62055163 0.65000000
v -0.42681777 0.80091506 0.24541635
v -0.00000000 0.68027756 0.65000000
v -0.00000000 0.95000000 0.24541635
v 0.50000000 0.95000000 0.24541635
v 0.50000000 0.68027756 0.65000000
v 0.50000000 0.95000000 -0.24541635
v -0.00000000 0.95000000 -0.24541635
v 0.50000000 0.68027756 -0.65000000
v -0.00000000 0.68027756 -0.65000000
v -0.17099037 0.62055163 -0.65000000
v -0.42681777 0.80091506 -0.24541635
v -0.22534695 0.50000000 -0.65000000
v -0.56250000 0.50000000 -0.24541635
v -0.42681777 0.19908494 -0.24541635
v -0.17099037 0.37944837 -0.65000000
v 0.00000000 0.05000000 -0.24541635
v 0.00000000 0.31972244 -0.65000000
v 0.00000000 0.05000000 0.24541635
v 0.50000000 0.05000000 -0.24541635
v 0.50000000 0.05000000 0.24541635
v 0.50000000 0.31972244 0.65000000
v 0.00000000 0.31972244 0.65000000
v 0.50000000 0.31972244 -0.65000000
vt 0.00000000 1.00000000
vt 0.00000000 0.00000000
vt 1.00000000 0.00000000
vt 1.00000000 1.00000000
vt 0.00000000 1.00000000
vt 0.00000000 0.00000000
vt 1.00000000 0.00000000
vt 1.00000000 1.00000000
vt 0.00000000 1.00000000
vt 0.00000000 0.00000000
vt 1.00000000 0.00000000
vt 1.00000000 1.00000000
vt 1.00000000 0.00000000
vt 1.00000000 1.00000000
vt 0.00000000 1.00000000
vt 0.00000000 0.00000000
vt 1.00000000 0.00000000
vt 1.00000000 1.00000000
vt 0.00000000 1.00000000
vt 0.00000000 0.00000000
vt 1.00000000 0.00000000
vt 1.00000000 1.00000000
vt 0.00000000 1.00000000
vt 0.00000000 0.00000000
vt 0.00000000 1.00000000
vt 0.00000000 0.00000000
vt 1.00000000 0.00000000
vt 1.00000000 1.00000000
vt 0.00000000 1.00000000
vt 0.00000000 0.00000000
vt 1.00000000 0.00000000
vt 1.00000000 1.00000000
vt 0.00000000 1.00000000
vt 0.00000000 0.00000000
vt 1.00000000 0.00000000
vt 1.00000000 1.00000000
vt 0.00000000 1.00000000
vt 0.00000000 0.00000000
vt 1.00000000 0.00000000
vt 1.00000000 1.00000000
vt 0.00000000 1.00000000
vt 0.00000000 0.00000000
vt 1.00000000 0.00000000
vt 1.00000000 1.00000000
vt 1.00000000 0.00000000
vt 1.00000000 1.00000000
vt 0.00000000 1.00000000
vt 0.00000000 0.00000000
vt 1.00000000 0.00000000
vt 1.00000000 1.00000000
vt 0.00000000 1.00000000
vt 0.00000000 0.00000000
vt 1.00000000 0.00000000
vt 1.00000000 1.00000000
vt 0.00000000 1.00000000
vt 0.00000000 0.00000000
vt 0.50000000 0.00000000
vt 0.83435007 0.07493873
vt 1.00000000 0.31067471
vt 1.00000000 1.00000000
vt 0.00000000 1.00000000
vt 0.00000000 0.31067471
vt 0.16564993 0.07493873
vt 0.00000000 0.29969160
vt 0.31121820 0.00000000
vt 0.68878180 0.00000000
vt 1.00000000 0.29969160
vt 1.00000000 0.70030840
vt 0.68878180 1.00000000
vt 0.31121820 1.00000000
vt 0.00000000 0.70030840
vt 0.00000000 1.00000000
vt 0.00000000 0.00000000
vt 1.00000000 0.00000000
vt 1.00000000 1.00000000
vt 0.00000000 1.00000000
vt 0.00000000 0.00000000
vt 1.00000000 0.00000000
vt 1.00000000 1.00000000
vt 0.00000000 0.00000000
vt 1.00000000 0.00000000
vt 1.00000000 0.68932529
vt 0.83435007 0.92506127
vt 0.50000000 1.00000000
vt 0.16564993 0.92506127
vt 0.00000000 0.68932529
vt 0.00000000 1.00000000
vt 0.00000000 0.00000000
vt 1.00000000 0.00000000
vt 1.00000000 1.00000000
vt 0.00000000 1.00000000
vt 0.00000000 0.00000000
vt 1.00000000 0.00000000
vt 1.00000000 1.00000000
vn -0.72590540 -0.32730985 0.60492116
vn -0.72590540 -0.32730985 0.60492116
vn -0.72590540 -0.32730985 0.60492116
vn -0.72590540 -0.32730985 0.60492116
vn -0.72590540 0.32730985 0.60492116
vn -0.72590540 0.32730985 0.60492116
vn -0.72590540 0.32730985 0.60492116
vn -0.72590540 0.32730985 0.60492116
vn -0.27908269 0.79899050 0.53266033
vn -0.27908269 0.79899050 0.53266033
vn -0.27908269 0.79899050 0.53266033
vn -0.27908269 0.79899050 0.53266033
vn -0.00000000 0.83205029 0.55470020
vn -0.00000000 0.83205029 0.55470020
vn -0.00000000 0.83205029 0.55470020
vn -0.00000000 0.83205029 0.55470020
vn -0.00000000 1.00000000 -0.00000000
vn -0.00000000 1.00000000 -0.00000000
vn -0.00000000 1.00000000 -0.00000000
vn -0.00000000 1.00000000 -0.00000000
vn -0.00000000 0.83205029 -0.55470020
vn -0.00000000 0.83205029 -0.55470020
vn -0.00000000 0.83205029 -0.55470020
vn -0.00000000 0.83205029 -0.55470020
vn -0.27908269 0.79899050 -0.53266033
vn -0.27908269 0.79899050 -0.53266033
vn -0.27908269 0.79899050 -0.53266033
vn -0.27908269 0.79899050 -0.53266033
vn -0.72590540 0.32730985 -0.60492116
vn -0.72590540 0.32730985 -0.60492116
vn -0.72590540 0.32730985 -0.60492116
vn -0.72590540 0.32730985 -0.60492116
vn -0.72590540 -0.32730985 -0.60492116
vn -0.72590540 -0.32730985 -0.60492116
vn -0.72590540 -0.32730985 -0.60492116
vn -0.72590540 -0.32730985 -0.60492116
vn -0.27908269 -0.79899050 -0.53266033
vn -0.27908269 -0.79899050 -0.53266033
vn -0.27908269 -0.79899050 -0.53266033
vn -0.27908269 -0.79899050 -0.53266033
vn -0.32975669 -0.94406595 0.00000000
vn -0.32975669 -0.94406595 0.00000000
vn -0.32975669 -0.94406595 0.00000000
vn -0.32975669 -0.94406595 0.00000000
vn 0.00000000 -1.00000000 0.00000000
vn 0.00000000 -1.00000000 0.00000000
vn 0.00000000 -1.00000000 0.00000000
vn 0.00000000 -1.00000000 0.00000000
vn 0.00000000 -0.83205029 0.55470020
vn 0.00000000 -0.83205029 0.55470020
vn 0.00000000 -0.83205029 0.55470020
vn 0.00000000 -0.83205029 0.55470020
vn 0.00000000 -0.83205029 -0.55470020
vn 0.00000000 -0.83205029 -0.55470020
vn 0.00000000 -0.83205029 -0.55470020
vn 0.00000000 -0.83205029 -0.55470020
vn 0.00000000 -0.00000000 -1.00000000
vn 0.00000000 -0.00000000 -1.00000000
vn 0.00000000 -0.00000000 -1.00000000
vn 0.00000000 -0.00000000 -1.00000000
vn 0.00000000 -0.00000000 -1.00000000
vn 0.00000000 -0.00000000 -1.00000000
vn 0.00000000 -0.00000000 -1.00000000
vn 1.00000000 0.00000000 -0.00000000
vn 1.00000000 0.00000000 -0.00000000
vn 1.00000000 0.00000000 -0.00000000
vn 1.00000000 0.00000000 -0.00000000
vn 1.00000000 0.00000000 -0.00000000
vn 1.00000000 0.00000000 -0.00000000
vn 1.00000000 0.00000000 -0.00000000
vn 1.00000000 0.00000000 -0.00000000
vn -0.32975669 0.94406595 0.00000000
vn -0.32975669 0.94406595 0.00000000
vn -0.32975669 0.94406595 0.00000000
vn -0.32975669 0.94406595 0.00000000
vn -0.91161464 0.41104592 -0.00000000
vn -0.91161464 0.41104592 -0.00000000
vn -0.91161464 0.41104592 -0.00000000
vn -0.91161464 0.41104592 -0.00000000
vn -0.00000000 0.00000000 1.00000000
vn -0.00000000 0.00000000 1.00000000
vn -0.00000000 0.00000000 1.00000000
vn -0.00000000 0.00000000 1.00000000
vn -0.00000000 0.00000000 1.00000000
vn -0.00000000 0.00000000 1.00000000
vn -0.00000000 0.00000000 1.00000000
vn -0.27908269 -0.79899050 0.53266033
vn -0.27908269 -0.79899050 0.53266033
vn -0.27908269 -0.79899050 0.53266033
vn -0.27908269 -0.79899050 0.53266033
vn -0.91161464 -0.41104592 0.00000000
vn -0.91161464 -0.41104592 0.00000000
vn -0.91161464 -0.41104592 0.00000000
vn -0.91161464 -0.41104592 0.00000000
s 1
usemtl Metal_Blue_Light
f 4/4/4 3/3/3 2/2/2
f 4/4/4 2/2/2 1/1/1
s 2
f 5/5/5 6/6/6 4/8/8
f 6/6/6 3/7/7 4/8/8
s 3
f 7/9/9 8/10/10 5/12/12
f 8/10/10 6/11/11 5/12/12
s 4
f 8/16/16 7/15/15 9/13/13
f 7/15/15 10/14/14 9/13/13
s 5
f 12/20/20 8/19/19 9/18/18
f 12/20/20 9/18/18 11/17/17
s 6
f 14/24/24 12/23/23 11/22/22
f 14/24/24 11/22/22 13/21/21
s 7
f 12/25/25 14/26/26 15/27/27
f 12/25/25 15/27/27 16/28/28
s 8
f 16/29/29 15/30/30 17/31/31
f 16/29/29 17/31/31 18/32/32
s 9
f 18/36/36 17/35/35 19/33/33
f 17/35/35 20/34/34 19/33/33
s 10
f 19/40/40 20/39/39 21/37/37
f 20/39/39 22/38/38 21/37/37
s 11
f 2/44/44 19/43/43 21/42/42
f 2/44/44 21/42/42 23/41/41
s 12
f 24/45/45 25/46/46 21/48/48
f 25/46/46 23/47/47 21/48/48
s 13
f 25/49/49 26/50/50 23/52/52
f 26/50/50 27/51/51 23/52/52
s 14
f 28/53/53 24/54/54 22/56/56
f 24/54/54 21/55/55 22/56/56
s 15
f 20/63/63 17/57/57 15/58/58
f 22/62/62 20/63/63 14/59/59
f 13/60/60 28/61/61 22/62/62
f 22/62/62 14/59/59 13/60/60
f 20/63/63 15/58/58 14/59/59
s 16
f 9/65/65 10/64/64 26/71/71
f 26/71/71 24/69/69 11/66/66
f 28/68/68 13/67/67 11/66/66
f 24/69/69 28/68/68 11/66/66
f 26/71/71 25/70/70 24/69/69
f 11/66/66 9/65/65 26/71/71
s 17
f 8/72/72 12/73/73 6/75/75
f 12/73/73 16/74/74 6/75/75
s 18
f 6/76/76 16/77/77 3/79/79
f 16/77/77 18/78/78 3/79/79
s 19
f 5/83/83 4/84/84 1/85/85
f 7/82/82 1/85/85 27/86/86
f 27/86/86 26/80/80 10/81/81
f 10/81/81 7/82/82 27/86/86
f 7/82/82 5/83/83 1/85/85
s 20
f 1/90/90 2/89/89 23/88/88
f 1/90/90 23/88/88 27/87/87
s 21
f 3/94/94 18/93/93 19/92/92
f 3/94/94 19/92/92 2/91/91
o object2
g object2
v -0.47424197 0.16564993 0.05000000
v -0.47424197 0.16564993 -0.05000000
v -0.62500000 0.50000000 -0.05000000
v -0.62500000 0.50000000 0.05000000
v -0.47424197 0.83435007 0.05000000
v -0.47424197 0.83435007 -0.05000000
v -0.00000000 1.00000000 0.05000000
v -0.00000000 1.00000000 -0.05000000
v 0.50000000 1.00000000 -0.05000000
v 0.50000000 1.00000000 0.05000000
v 0.50000000 0.95000000 -0.10000000
v -0.00000000 0.95000000 -0.10000000
v 0.50000000 0.05000000 -0.10000000
v 0.00000000 0.05000000 -0.10000000
v -0.42681777 0.19908494 -0.10000000
v -0.56250000 0.50000000 -0.10000000
v -0.42681777 0.80091506 -0.10000000
v 0.50000000 0.00000000 -0.05000000
v 0.00000000 0.00000000 -0.05000000
v 0.50000000 0.00000000 0.05000000
v 0.00000000 0.00000000 0.05000000
v 0.50000000 0.05000000 0.10000000
v 0.00000000 0.05000000 0.10000000
v -0.42681777 0.19908494 0.10000000
v -0.56250000 0.50000000 0.10000000
v 0.50000000 0.95000000 0.10000000
v -0.00000000 0.95000000 0.10000000
v -0.42681777 0.80091506 0.10000000
vt 0.00000000 1.00000000
vt 0.00000000 0.00000000
vt 1.00000000 0.00000000
vt 1.00000000 1.00000000
vt 0.00000000 1.00000000
vt 0.00000000 0.00000000
vt 1.00000000 0.00000000
vt 1.00000000 1.00000000
vt 0.00000000 1.00000000
vt 0.00000000 0.00000000
vt 1.00000000 0.00000000
vt 1.00000000 1.00000000
vt 1.00000000 0.00000000
vt 1.00000000 1.00000000
vt 0.00000000 1.00000000
vt 0.00000000 0.00000000
vt 1.00000000 0.00000000
vt 1.00000000 1.00000000
vt 0.00000000 1.00000000
vt 0.00000000 0.00000000
vt 0.00000000 1.00000000
vt 0.00000000 0.52941176
vt 0.16564993 0.12770092
vt 0.50000000 0.00000000
vt 0.83435007 0.12770092
vt 1.00000000 0.52941176
vt 1.00000000 1.00000000
vt 1.00000000 0.00000000
vt 1.00000000 1.00000000
vt 0.00000000 1.00000000
vt 0.00000000 0.00000000
vt 1.00000000 0.00000000
vt 1.00000000 1.00000000
vt 0.00000000 1.00000000
vt 0.00000000 0.00000000
vt 1.00000000 0.00000000
vt 1.00000000 1.00000000
vt 0.00000000 1.00000000
vt 0.00000000 0.00000000
vt 0.00000000 1.00000000
vt 0.00000000 0.00000000
vt 1.00000000 0.00000000
vt 1.00000000 1.00000000
vt 0.50000000 1.00000000
vt 0.16564993 0.87229908
vt 0.00000000 0.47058824
vt 0.00000000 0.00000000
vt 1.00000000 0.00000000
vt 1.00000000 0.47058824
vt 0.83435007 0.87229908
vt 0.00000000 1.00000000
vt 0.00000000 0.00000000
vt 1.00000000 0.00000000
vt 1.00000000 1.00000000
vt 1.00000000 0.95000000
vt 0.75000000 1.00000000
vt 0.25000000 1.00000000
vt 0.00000000 0.95000000
vt 0.00000000 0.05000000
vt 0.25000000 0.00000000
vt 0.75000000 0.00000000
vt 1.00000000 0.05000000
vt 1.00000000 0.00000000
vt 1.00000000 1.00000000
vt 0.00000000 1.00000000
vt 0.00000000 0.00000000
vt 0.00000000 1.00000000
vt 0.00000000 0.00000000
vt 1.00000000 0.00000000
vt 1.00000000 1.00000000
vt 0.00000000 1.00000000
vt 0.00000000 0.00000000
vt 1.00000000 0.00000000
vt 1.00000000 1.00000000
vt 0.00000000 1.00000000
vt 0.00000000 0.00000000
vt 1.00000000 0.00000000
vt 1.00000000 1.00000000
vt 0.00000000 1.00000000
vt 0.00000000 0.00000000
vt 1.00000000 0.00000000
vt 1.00000000 1.00000000
vt 0.00000000 1.00000000
vt 0.00000000 0.00000000
vt 1.00000000 0.00000000
vt 1.00000000 1.00000000
vt 0.00000000 1.00000000
vt 0.00000000 0.00000000
vt 1.00000000 0.00000000
vt 1.00000000 1.00000000
vt 0.00000000 1.00000000
vt 0.00000000 0.00000000
vt 1.00000000 0.00000000
vt 1.00000000 1.00000000
vn -0.91161464 -0.41104592 0.00000000
vn -0.91161464 -0.41104592 0.00000000
vn -0.91161464 -0.41104592 0.00000000
vn -0.91161464 -0.41104592 0.00000000
vn -0.91161464 0.41104592 0.00000000
vn -0.91161464 0.41104592 0.00000000
vn -0.91161464 0.41104592 0.00000000
vn -0.91161464 0.41104592 0.00000000
vn -0.32975669 0.94406595 0.00000000
vn -0.32975669 0.94406595 0.00000000
vn -0.32975669 0.94406595 0.00000000
vn -0.32975669 0.94406595 0.00000000
vn -0.00000000 1.00000000 0.00000000
vn -0.00000000 1.00000000 0.00000000
vn -0.00000000 1.00000000 0.00000000
vn -0.00000000 1.00000000 0.00000000
vn -0.00000000 0.70710678 -0.70710678
vn -0.00000000 0.70710678 -0.70710678
vn -0.00000000 0.70710678 -0.70710678
vn -0.00000000 0.70710678 -0.70710678
vn -0.00000000 -0.00000000 -1.00000000
vn -0.00000000 -0.00000000 -1.00000000
vn -0.00000000 -0.00000000 -1.00000000
vn -0.00000000 -0.00000000 -1.00000000
vn -0.00000000 -0.00000000 -1.00000000
vn -0.00000000 -0.00000000 -1.00000000
vn -0.00000000 -0.00000000 -1.00000000
vn 0.00000000 -0.70710678 -0.70710678
vn 0.00000000 -0.70710678 -0.70710678
vn 0.00000000 -0.70710678 -0.70710678
vn 0.00000000 -0.70710678 -0.70710678
vn 0.00000000 -1.00000000 0.00000000
vn 0.00000000 -1.00000000 0.00000000
vn 0.00000000 -1.00000000 0.00000000
vn 0.00000000 -1.00000000 0.00000000
vn 0.00000000 -0.70710678 0.70710678
vn 0.00000000 -0.70710678 0.70710678
vn 0.00000000 -0.70710678 0.70710678
vn 0.00000000 -0.70710678 0.70710678
vn -0.23978275 -0.68647805 0.68647805
vn -0.23978275 -0.68647805 0.68647805
vn -0.23978275 -0.68647805 0.68647805
vn -0.23978275 -0.68647805 0.68647805
vn 0.00000000 0.00000000 1.00000000
vn 0.00000000 0.00000000 1.00000000
vn 0.00000000 0.00000000 1.00000000
vn 0.00000000 0.00000000 1.00000000
vn 0.00000000 0.00000000 1.00000000
vn 0.00000000 0.00000000 1.00000000
vn 0.00000000 0.00000000 1.00000000
vn -0.23978275 -0.68647805 -0.68647805
vn -0.23978275 -0.68647805 -0.68647805
vn -0.23978275 -0.68647805 -0.68647805
vn -0.23978275 -0.68647805 -0.68647805
vn 1.00000000 0.00000000 -0.00000000
vn 1.00000000 0.00000000 -0.00000000
vn 1.00000000 0.00000000 -0.00000000
vn 1.00000000 0.00000000 -0.00000000
vn 1.00000000 0.00000000 -0.00000000
vn 1.00000000 0.00000000 -0.00000000
vn 1.00000000 0.00000000 -0.00000000
vn 1.00000000 0.00000000 -0.00000000
vn -0.00000000 0.70710678 0.70710678
vn -0.00000000 0.70710678 0.70710678
vn -0.00000000 0.70710678 0.70710678
vn -0.00000000 0.70710678 0.70710678
vn -0.23978275 0.68647805 0.68647805
vn -0.23978275 0.68647805 0.68647805
vn -0.23978275 0.68647805 0.68647805
vn -0.23978275 0.68647805 0.68647805
vn -0.23978275 0.68647805 -0.68647805
vn -0.23978275 0.68647805 -0.68647805
vn -0.23978275 0.68647805 -0.68647805
vn -0.23978275 0.68647805 -0.68647805
vn -0.60129674 0.27112396 0.75162093
vn -0.60129674 0.27112396 0.75162093
vn -0.60129674 0.27112396 0.75162093
vn -0.60129674 0.27112396 0.75162093
vn -0.60129674 0.27112396 -0.75162093
vn -0.60129674 0.27112396 -0.75162093
vn -0.60129674 0.27112396 -0.75162093
vn -0.60129674 0.27112396 -0.75162093
vn -0.60129674 -0.27112396 0.75162093
vn -0.60129674 -0.27112396 0.75162093
vn -0.60129674 -0.27112396 0.75162093
vn -0.60129674 -0.27112396 0.75162093
vn -0.32975669 -0.94406595 0.00000000
vn -0.32975669 -0.94406595 0.00000000
vn -0.32975669 -0.94406595 0.00000000
vn -0.32975669 -0.94406595 0.00000000
vn -0.60129674 -0.27112396 -0.75162093
vn -0.60129674 -0.27112396 -0.75162093
vn -0.60129674 -0.27112396 -0.75162093
vn -0.60129674 -0.27112396 -0.75162093
s 1
usemtl Metal_Blue_Dark
f 32/98/98 31/97/97 30/96/96
f 32/98/98 30/96/96 29/95/95
s 2
f 33/99/99 34/100/100 32/102/102
f 34/100/100 31/101/101 32/102/102
s 3
f 35/103/103 36/104/104 33/106/106
f 36/104/104 34/105/105 33/106/106
s 4
f 36/110/110 35/109/109 37/107/107
f 35/109/109 38/108/108 37/107/107
s 5
f 40/114/114 36/113/113 37/112/112
f 40/114/114 37/112/112 39/111/111
s 6
f 43/117/117 44/118/118 45/119/119
f 42/116/116 43/117/117 40/120/120
f 42/116/116 40/120/120 39/121/121
f 39/121/121 41/115/115 42/116/116
f 43/117/117 45/119/119 40/120/120
s 7
f 41/122/122 46/123/123 42/125/125
f 46/123/123 47/124/124 42/125/125
s 8
f 46/126/126 48/127/127 47/129/129
f 48/127/127 49/128/128 47/129/129
s 9
f 48/130/130 50/131/131 51/132/132
f 48/130/130 51/132/132 49/133/133
s 10
f 52/137/137 29/136/136 49/135/135
f 52/137/137 49/135/135 51/134/134
s 11
f 56/144/144 53/138/138 52/139/139
f 55/143/143 52/139/139 51/140/140
f 51/140/140 50/141/141 54/142/142
f 51/140/140 54/142/142 55/143/143
f 55/143/143 56/144/144 52/139/139
s 12
f 30/148/148 43/147/147 47/145/145
f 43/147/147 42/146/146 47/145/145
s 13
f 39/149/149 37/150/150 38/151/151
f 39/149/149 54/152/152 41/156/156
f 50/153/153 48/154/154 41/156/156
f 48/154/154 46/155/155 41/156/156
f 54/152/152 50/153/153 41/156/156
f 39/149/149 38/151/151 54/152/152
s 14
f 35/160/160 55/159/159 38/157/157
f 55/159/159 54/158/158 38/157/157
s 15
f 55/161/161 35/162/162 56/164/164
f 35/162/162 33/163/163 56/164/164
s 16
f 36/165/165 40/166/166 45/167/167
f 36/165/165 45/167/167 34/168/168
s 17
f 56/169/169 33/170/170 53/172/172
f 33/170/170 32/171/171 53/172/172
s 18
f 34/173/173 45/174/174 44/175/175
f 34/173/173 44/175/175 31/176/176
s 19
f 53/180/180 32/179/179 29/178/178
f 53/180/180 29/178/178 52/177/177
s 20
f 29/184/184 30/183/183 47/182/182
f 29/184/184 47/182/182 49/181/181
s 21
f 31/188/188 44/187/187 30/185/185
f 44/187/187 43/186/186 30/185/185
