mtllib Spacestation_Structure_Fuselage_Curved_Outer_Mid.mtl
o object1
g object1
v 1.00000000 -0.00000000 0.50000000
v 0.79903811 0.00000000 -0.25000000
v 0.25000000 0.00000000 -0.79903811
v -0.50000000 0.00000000 -1.00000000
v -0.50000000 0.00000000 0.50000000
v -0.50000000 1.00000000 -1.00000000
v 0.25000000 1.00000000 -0.79903811
v 1.00000000 1.00000000 0.50000000
v 0.79903811 1.00000000 -0.25000000
v -0.50000000 1.00000000 0.50000000
vt 1.00000000 1.00000000
vt 0.50000000 0.86602540
vt 0.13397460 0.50000000
vt 0.00000000 0.00000000
vt 1.00000000 0.00000000
vt 0.00000000 1.00000000
vt 0.00000000 0.00000000
vt 1.00000000 0.00000000
vt 1.00000000 1.00000000
vt 1.00000000 1.00000000
vt 0.50000000 0.86602540
vt 0.13397460 0.50000000
vt 0.00000000 0.00000000
vt 1.00000000 0.00000000
vt 1.00000000 0.00000000
vt 1.00000000 1.00000000
vt 0.00000000 1.00000000
vt 0.00000000 0.00000000
vt 1.00000000 0.00000000
vt 1.00000000 1.00000000
vt 0.00000000 1.00000000
vt 0.00000000 0.00000000
vt 0.00000000 1.00000000
vt 0.00000000 0.00000000
vt 1.00000000 0.00000000
vt 1.00000000 1.00000000
vt 0.00000000 1.00000000
vt 0.00000000 0.00000000
vt 1.00000000 0.00000000
vt 1.00000000 1.00000000
vn -0.00000000 -1.00000000 -0.00000000
vn -0.00000000 -1.00000000 -0.00000000
vn -0.00000000 -1.00000000 -0.00000000
vn -0.00000000 -1.00000000 -0.00000000
vn -0.00000000 -1.00000000 -0.00000000
vn 0.25881905 0.00000000 -0.96592583
vn 0.25881905 0.00000000 -0.96592583
vn 0.25881905 0.00000000 -0.96592583
vn 0.25881905 0.00000000 -0.96592583
vn 0.00000000 1.00000000 0.00000000
vn 0.00000000 1.00000000 0.00000000
vn 0.00000000 1.00000000 0.00000000
vn 0.00000000 1.00000000 0.00000000
vn 0.00000000 1.00000000 0.00000000
vn -1.00000000 0.00000000 0.00000000
vn -1.00000000 0.00000000 0.00000000
vn -1.00000000 0.00000000 0.00000000
vn -1.00000000 0.00000000 0.00000000
vn 0.00000000 0.00000000 1.00000000
vn 0.00000000 0.00000000 1.00000000
vn 0.00000000 0.00000000 1.00000000
vn 0.00000000 0.00000000 1.00000000
vn 0.96592583 0.00000000 -0.25881905
vn 0.96592583 0.00000000 -0.25881905
vn 0.96592583 0.00000000 -0.25881905
vn 0.96592583 0.00000000 -0.25881905
vn 0.70710678 0.00000000 -0.70710678
vn 0.70710678 0.00000000 -0.70710678
vn 0.70710678 0.00000000 -0.70710678
vn 0.70710678 0.00000000 -0.70710678
s 1
usemtl Metal_Blue_Light
f 4/4/4 3/3/3 2/2/2
f 2/2/2 1/1/1 5/5/5
f 5/5/5 4/4/4 2/2/2
s 2
f 6/6/6 7/7/7 3/8/8
f 6/6/6 3/8/8 4/9/9
s 3
f 9/11/11 7/12/12 6/13/13
f 9/11/11 6/13/13 10/14/14
f 10/14/14 8/10/10 9/11/11
s 4
f 4/15/15 5/16/16 6/18/18
f 5/16/16 10/17/17 6/18/18
s 5
f 5/19/19 1/20/20 8/21/21
f 5/19/19 8/21/21 10/22/22
s 6
f 9/23/23 8/24/24 2/26/26
f 8/24/24 1/25/25 2/26/26
s 7
f 7/27/27 9/28/28 2/29/29
f 7/27/27 2/29/29 3/30/30
