mtllib Spacestation_Structure_Wing_Thick_Small_Straight.mtl
o object1
g object1
v -1.00000000 0.31250000 0.50000000
v -1.10000000 0.21250000 0.50000000
v -1.10000000 -0.21250000 0.50000000
v -1.00000000 -0.31250000 0.50000000
v 0.09375000 -0.31250000 0.50000000
v 0.25000000 -0.15625000 0.50000000
v 0.25000000 0.15625000 0.50000000
v 0.09375000 0.31250000 0.50000000
v -1.00000000 0.31250000 -0.50000000
v -1.10000000 0.21250000 -0.50000000
v -1.10000000 -0.21250000 -0.50000000
v -1.00000000 -0.31250000 -0.50000000
v 0.09375000 -0.31250000 -0.50000000
v 0.25000000 -0.15625000 -0.50000000
v 0.25000000 0.15625000 -0.50000000
v 0.09375000 0.31250000 -0.50000000
vt 0.00000000 0.07407407
vt 0.16000000 0.00000000
vt 0.84000000 0.00000000
vt 1.00000000 0.07407407
vt 1.00000000 0.88425926
vt 0.75000000 1.00000000
vt 0.25000000 1.00000000
vt 0.00000000 0.88425926
vt 1.00000000 0.00000000
vt 1.00000000 1.00000000
vt 0.00000000 1.00000000
vt 0.00000000 0.00000000
vt 0.16000000 0.00000000
vt 0.84000000 0.00000000
vt 1.00000000 0.07407407
vt 1.00000000 0.88425926
vt 0.75000000 1.00000000
vt 0.25000000 1.00000000
vt 0.00000000 0.88425926
vt 0.00000000 0.07407407
vt 0.00000000 0.00000000
vt 1.00000000 0.00000000
vt 1.00000000 1.00000000
vt 0.00000000 1.00000000
vt 0.00000000 0.00000000
vt 1.00000000 0.00000000
vt 1.00000000 1.00000000
vt 0.00000000 1.00000000
vt 0.00000000 0.00000000
vt 1.00000000 0.00000000
vt 1.00000000 1.00000000
vt 0.00000000 1.00000000
vt 0.00000000 0.00000000
vt 1.00000000 0.00000000
vt 1.00000000 1.00000000
vt 0.00000000 1.00000000
vt 0.00000000 0.00000000
vt 1.00000000 0.00000000
vt 1.00000000 1.00000000
vt 0.00000000 1.00000000
vt 1.00000000 0.00000000
vt 1.00000000 1.00000000
vt 0.00000000 1.00000000
vt 0.00000000 0.00000000
vt 1.00000000 0.00000000
vt 1.00000000 1.00000000
vt 0.00000000 1.00000000
vt 0.00000000 0.00000000
vn 0.00000000 -0.00000000 1.00000000
vn 0.00000000 -0.00000000 1.00000000
vn 0.00000000 -0.00000000 1.00000000
vn 0.00000000 -0.00000000 1.00000000
vn 0.00000000 -0.00000000 1.00000000
vn 0.00000000 -0.00000000 1.00000000
vn 0.00000000 -0.00000000 1.00000000
vn 0.00000000 -0.00000000 1.00000000
vn -0.70710678 0.70710678 0.00000000
vn -0.70710678 0.70710678 0.00000000
vn -0.70710678 0.70710678 0.00000000
vn -0.70710678 0.70710678 0.00000000
vn -0.00000000 -0.00000000 -1.00000000
vn -0.00000000 -0.00000000 -1.00000000
vn -0.00000000 -0.00000000 -1.00000000
vn -0.00000000 -0.00000000 -1.00000000
vn -0.00000000 -0.00000000 -1.00000000
vn -0.00000000 -0.00000000 -1.00000000
vn -0.00000000 -0.00000000 -1.00000000
vn -0.00000000 -0.00000000 -1.00000000
vn 0.00000000 1.00000000 0.00000000
vn 0.00000000 1.00000000 0.00000000
vn 0.00000000 1.00000000 0.00000000
vn 0.00000000 1.00000000 0.00000000
vn 0.70710678 0.70710678 0.00000000
vn 0.70710678 0.70710678 0.00000000
vn 0.70710678 0.70710678 0.00000000
vn 0.70710678 0.70710678 0.00000000
vn 1.00000000 0.00000000 0.00000000
vn 1.00000000 0.00000000 0.00000000
vn 1.00000000 0.00000000 0.00000000
vn 1.00000000 0.00000000 0.00000000
vn 0.70710678 -0.70710678 0.00000000
vn 0.70710678 -0.70710678 0.00000000
vn 0.70710678 -0.70710678 0.00000000
vn 0.70710678 -0.70710678 0.00000000
vn -0.00000000 -1.00000000 0.00000000
vn -0.00000000 -1.00000000 0.00000000
vn -0.00000000 -1.00000000 0.00000000
vn -0.00000000 -1.00000000 0.00000000
vn -0.70710678 -0.70710678 -0.00000000
vn -0.70710678 -0.70710678 0.00000000
vn -0.70710678 -0.70710678 0.00000000
vn -0.70710678 -0.70710678 -0.00000000
vn -1.00000000 0.00000000 0.00000000
vn -1.00000000 0.00000000 0.00000000
vn -1.00000000 0.00000000 0.00000000
vn -1.00000000 0.00000000 0.00000000
s 1
usemtl Metal_Blue
f 5/5/5 6/6/6 7/7/7
f 4/4/4 5/5/5 8/8/8
f 8/8/8 1/1/1 4/4/4
f 1/1/1 2/2/2 4/4/4
f 2/2/2 3/3/3 4/4/4
f 5/5/5 7/7/7 8/8/8
s 2
f 2/9/9 1/10/10 9/11/11
f 2/9/9 9/11/11 10/12/12
s 3
f 15/18/18 14/17/17 13/16/16
f 9/20/20 13/16/16 12/15/15
f 12/15/15 11/14/14 10/13/13
f 12/15/15 10/13/13 9/20/20
f 9/20/20 16/19/19 13/16/16
f 16/19/19 15/18/18 13/16/16
s 4
f 9/21/21 1/22/22 8/23/23
f 9/21/21 8/23/23 16/24/24
s 5
f 16/25/25 8/26/26 7/27/27
f 16/25/25 7/27/27 15/28/28
s 6
f 15/29/29 7/30/30 14/32/32
f 7/30/30 6/31/31 14/32/32
s 7
f 14/33/33 6/34/34 13/36/36
f 6/34/34 5/35/35 13/36/36
s 8
f 13/37/37 5/38/38 12/40/40
f 5/38/38 4/39/39 12/40/40
s 9
f 4/41/41 3/42/42 12/44/44
f 3/42/42 11/43/43 12/44/44
s 10
f 3/45/45 2/46/46 11/48/48
f 2/46/46 10/47/47 11/48/48
