mtllib Spacestation_Propulsion_Thruster_Triple_Small_Housing_Mid.mtl
o object1
g object1
v 0.50000000 -0.35000000 -0.66111111
v 0.50000000 -0.35000000 0.66111111
v -0.50000000 -0.35000000 0.66111111
v -0.50000000 -0.35000000 -0.66111111
v 0.50000000 0.18259496 0.84180226
v 0.50000000 -0.18259496 0.84180226
v 0.50000000 -0.18259496 -0.84180226
v 0.50000000 0.18259496 -0.84180226
v 0.50000000 0.35000000 -0.66111111
v 0.50000000 0.35000000 0.66111111
v -0.50000000 -0.18259496 0.84180226
v -0.50000000 0.18259496 0.84180226
v -0.50000000 0.35000000 0.66111111
v -0.50000000 0.35000000 -0.66111111
v -0.50000000 0.18259496 -0.84180226
v -0.50000000 -0.18259496 -0.84180226
vt 0.00000000 1.00000000
vt 0.00000000 0.00000000
vt 1.00000000 0.00000000
vt 1.00000000 1.00000000
vt 0.76084994 1.00000000
vt 0.23915006 1.00000000
vt 0.00000000 0.89267601
vt 0.00000000 0.10732399
vt 0.23915006 0.00000000
vt 0.76084994 0.00000000
vt 1.00000000 0.10732399
vt 1.00000000 0.89267601
vt 0.00000000 1.00000000
vt 0.00000000 0.00000000
vt 1.00000000 0.00000000
vt 1.00000000 1.00000000
vt 0.00000000 1.00000000
vt 0.00000000 0.00000000
vt 1.00000000 0.00000000
vt 1.00000000 1.00000000
vt 0.00000000 1.00000000
vt 0.00000000 0.00000000
vt 1.00000000 0.00000000
vt 1.00000000 1.00000000
vt 0.00000000 1.00000000
vt 0.00000000 0.00000000
vt 1.00000000 0.00000000
vt 1.00000000 1.00000000
vt 0.00000000 1.00000000
vt 0.00000000 0.00000000
vt 1.00000000 0.00000000
vt 1.00000000 1.00000000
vt 0.00000000 1.00000000
vt 0.00000000 0.00000000
vt 1.00000000 0.00000000
vt 1.00000000 1.00000000
vt 0.76084994 1.00000000
vt 0.23915006 1.00000000
vt 0.00000000 0.89267601
vt 0.00000000 0.10732399
vt 0.23915006 0.00000000
vt 0.76084994 0.00000000
vt 1.00000000 0.10732399
vt 1.00000000 0.89267601
vt 0.00000000 1.00000000
vt 0.00000000 0.00000000
vt 1.00000000 0.00000000
vt 1.00000000 1.00000000
vn 0.00000000 -1.00000000 0.00000000
vn 0.00000000 -1.00000000 0.00000000
vn 0.00000000 -1.00000000 0.00000000
vn 0.00000000 -1.00000000 0.00000000
vn 1.00000000 0.00000000 0.00000000
vn 1.00000000 0.00000000 0.00000000
vn 1.00000000 0.00000000 0.00000000
vn 1.00000000 0.00000000 0.00000000
vn 1.00000000 0.00000000 0.00000000
vn 1.00000000 0.00000000 0.00000000
vn 1.00000000 0.00000000 0.00000000
vn 1.00000000 0.00000000 0.00000000
vn 0.00000000 0.00000000 1.00000000
vn 0.00000000 0.00000000 1.00000000
vn 0.00000000 0.00000000 1.00000000
vn 0.00000000 0.00000000 1.00000000
vn 0.00000000 0.73356146 0.67962312
vn 0.00000000 0.73356146 0.67962312
vn 0.00000000 0.73356146 0.67962312
vn 0.00000000 0.73356146 0.67962312
vn 0.00000000 1.00000000 0.00000000
vn 0.00000000 1.00000000 0.00000000
vn 0.00000000 1.00000000 0.00000000
vn 0.00000000 1.00000000 0.00000000
vn 0.00000000 0.73356146 -0.67962312
vn 0.00000000 0.73356146 -0.67962312
vn 0.00000000 0.73356146 -0.67962312
vn 0.00000000 0.73356146 -0.67962312
vn 0.00000000 0.00000000 -1.00000000
vn 0.00000000 0.00000000 -1.00000000
vn 0.00000000 0.00000000 -1.00000000
vn 0.00000000 0.00000000 -1.00000000
vn 0.00000000 -0.73356146 -0.67962312
vn 0.00000000 -0.73356146 -0.67962312
vn 0.00000000 -0.73356146 -0.67962312
vn 0.00000000 -0.73356146 -0.67962312
vn -1.00000000 0.00000000 0.00000000
vn -1.00000000 0.00000000 0.00000000
vn -1.00000000 0.00000000 0.00000000
vn -1.00000000 0.00000000 0.00000000
vn -1.00000000 0.00000000 0.00000000
vn -1.00000000 0.00000000 0.00000000
vn -1.00000000 0.00000000 0.00000000
vn -1.00000000 0.00000000 0.00000000
vn 0.00000000 -0.73356146 0.67962312
vn 0.00000000 -0.73356146 0.67962312
vn 0.00000000 -0.73356146 0.67962312
vn 0.00000000 -0.73356146 0.67962312
s 1
usemtl Metal_Gray
f 1/1/1 2/2/2 4/4/4
f 2/2/2 3/3/3 4/4/4
s 2
f 7/9/9 8/10/10 9/11/11
f 1/8/8 9/11/11 10/12/12
f 10/12/12 6/6/6 2/7/7
f 10/12/12 5/5/5 6/6/6
f 10/12/12 2/7/7 1/8/8
f 1/8/8 7/9/9 9/11/11
s 3
f 12/16/16 11/15/15 5/13/13
f 11/15/15 6/14/14 5/13/13
s 4
f 5/17/17 10/18/18 12/20/20
f 10/18/18 13/19/19 12/20/20
s 5
f 10/21/21 9/22/22 13/24/24
f 9/22/22 14/23/23 13/24/24
s 6
f 15/28/28 14/27/27 9/26/26
f 15/28/28 9/26/26 8/25/25
s 7
f 8/29/29 7/30/30 16/31/31
f 8/29/29 16/31/31 15/32/32
s 8
f 7/33/33 1/34/34 16/36/36
f 1/34/34 4/35/35 16/36/36
s 9
f 14/43/43 15/42/42 16/41/41
f 13/44/44 14/43/43 4/40/40
f 4/40/40 3/39/39 13/44/44
f 3/39/39 11/38/38 13/44/44
f 11/38/38 12/37/37 13/44/44
f 14/43/43 16/41/41 4/40/40
s 10
f 11/48/48 3/47/47 2/46/46
f 11/48/48 2/46/46 6/45/45
