mtllib Spacestation_Structure_Wing_Thick_Large_Straight.mtl
o object1
g object1
v -1.00000000 -0.50000000 0.50000000
v 0.75000000 -0.50000000 0.50000000
v 0.70857864 -0.40000000 0.60000000
v -1.00000000 -0.40000000 0.60000000
v -1.00000000 -0.50000000 -0.50000000
v 0.75000000 -0.50000000 -0.50000000
v 1.00000000 -0.25000000 0.50000000
v 1.00000000 -0.25000000 -0.50000000
v 1.00000000 0.25000000 0.50000000
v 1.00000000 0.25000000 -0.50000000
v 0.90000000 -0.20857864 0.60000000
v 0.90000000 0.20857864 0.60000000
v 0.75000000 0.50000000 0.50000000
v 0.70857864 0.40000000 0.60000000
v -1.00000000 0.40000000 0.60000000
v -1.00000000 0.50000000 0.50000000
v -1.10000000 0.39997830 0.50000000
v -1.10000000 -0.39997830 0.50000000
v -1.10000000 0.39997830 -0.50000000
v -1.10000000 -0.39997830 -0.50000000
v -1.00000000 0.50000000 -0.50000000
v 0.75000000 0.50000000 -0.50000000
vt 1.00000000 1.00000000
vt 0.00000000 1.00000000
vt 0.02366935 0.00000000
vt 1.00000000 0.00000000
vt 1.00000000 0.00000000
vt 1.00000000 1.00000000
vt 0.00000000 1.00000000
vt 0.00000000 0.00000000
vt 1.00000000 0.00000000
vt 1.00000000 1.00000000
vt 0.00000000 1.00000000
vt 0.00000000 0.00000000
vt 1.00000000 0.00000000
vt 1.00000000 1.00000000
vt 0.00000000 1.00000000
vt 0.00000000 0.00000000
vt 0.91715729 0.00000000
vt 1.00000000 1.00000000
vt 0.00000000 1.00000000
vt 0.08284271 0.00000000
vt 0.88284271 0.00000000
vt 1.00000000 1.00000000
vt 0.00000000 1.00000000
vt 0.11715729 0.00000000
vt 1.00000000 1.00000000
vt 0.02366935 1.00000000
vt 0.00000000 0.00000000
vt 1.00000000 0.00000000
vt 0.00000000 0.50000001
vt 1.00000000 0.00000000
vt 1.00000000 1.00000000
vt 0.00000000 0.00000000
vt 1.00000000 0.00000000
vt 0.99997288 1.00000000
vt 0.00002712 1.00000000
vt 1.00000000 0.00000000
vt 1.00000000 1.00000000
vt 0.00000000 1.00000000
vt 0.00000000 0.00000000
vt 1.00000000 0.00000000
vt 1.00000000 1.00000000
vt 0.00000000 1.00000000
vt 0.00000000 0.00000000
vt 1.00000000 0.00000000
vt 1.00000000 1.00000000
vt 0.00000000 1.00000000
vt 0.00000000 0.00000000
vt 1.00000000 0.00000000
vt 1.00000000 1.00000000
vt 0.00000000 1.00000000
vt 0.00000000 0.00000000
vt 0.00000000 0.88095238
vt 0.00000000 0.04761905
vt 0.10002170 0.00000000
vt 0.89997830 0.00000000
vt 1.00000000 0.04761905
vt 1.00000000 0.88095238
vt 0.75000000 1.00000000
vt 0.25000000 1.00000000
vt 1.00000000 0.00000000
vt 1.00000000 1.00000000
vt 0.00000000 1.00000000
vt 0.00000000 0.00000000
vt 0.00000000 0.50000001
vt 1.00000000 0.00000000
vt 1.00000000 1.00000000
vt 0.76072330 1.00000000
vt 0.23927670 1.00000000
vt 0.00000000 0.89925192
vt 0.00000000 0.00000000
vt 1.00000000 0.00000000
vt 1.00000000 0.89925192
vt 0.88284271 0.00000000
vt 1.00000000 1.00000000
vt 0.00000000 1.00000000
vt 0.11715729 0.00000000
vn -0.00000000 -0.70710678 0.70710678
vn -0.00000000 -0.70710678 0.70710678
vn -0.00000000 -0.70710678 0.70710678
vn -0.00000000 -0.70710678 0.70710678
vn -0.00000000 -1.00000000 -0.00000000
vn -0.00000000 -1.00000000 -0.00000000
vn -0.00000000 -1.00000000 -0.00000000
vn -0.00000000 -1.00000000 -0.00000000
vn 0.70710678 -0.70710678 -0.00000000
vn 0.70710678 -0.70710678 -0.00000000
vn 0.70710678 -0.70710678 -0.00000000
vn 0.70710678 -0.70710678 -0.00000000
vn 1.00000000 0.00000000 0.00000000
vn 1.00000000 0.00000000 0.00000000
vn 1.00000000 0.00000000 0.00000000
vn 1.00000000 0.00000000 0.00000000
vn 0.70710678 0.00000000 0.70710678
vn 0.70710678 0.00000000 0.70710678
vn 0.70710678 0.00000000 0.70710678
vn 0.70710678 0.00000000 0.70710678
vn 0.50000000 0.50000000 0.70710678
vn 0.50000000 0.50000000 0.70710678
vn 0.50000000 0.50000000 0.70710678
vn 0.50000000 0.50000000 0.70710678
vn -0.00000000 0.70710678 0.70710678
vn -0.00000000 0.70710678 0.70710678
vn -0.00000000 0.70710678 0.70710678
vn -0.00000000 0.70710678 0.70710678
vn -0.57743378 0.57730851 0.57730851
vn -0.57743378 0.57730851 0.57730851
vn -0.57743378 0.57730851 0.57730851
vn -0.70710678 0.00000000 0.70710678
vn -0.70710678 0.00000000 0.70710678
vn -0.70710678 0.00000000 0.70710678
vn -0.70710678 0.00000000 0.70710678
vn -1.00000000 0.00000000 0.00000000
vn -1.00000000 0.00000000 0.00000000
vn -1.00000000 0.00000000 0.00000000
vn -1.00000000 0.00000000 0.00000000
vn -0.70718349 0.70703007 0.00000000
vn -0.70718349 0.70703007 0.00000000
vn -0.70718349 0.70703007 0.00000000
vn -0.70718349 0.70703007 0.00000000
vn -0.00000000 1.00000000 0.00000000
vn -0.00000000 1.00000000 0.00000000
vn -0.00000000 1.00000000 0.00000000
vn -0.00000000 1.00000000 0.00000000
vn 0.70710678 0.70710678 0.00000000
vn 0.70710678 0.70710678 0.00000000
vn 0.70710678 0.70710678 0.00000000
vn 0.70710678 0.70710678 0.00000000
vn -0.00000000 0.00000000 -1.00000000
vn -0.00000000 0.00000000 -1.00000000
vn -0.00000000 0.00000000 -1.00000000
vn -0.00000000 0.00000000 -1.00000000
vn -0.00000000 0.00000000 -1.00000000
vn -0.00000000 0.00000000 -1.00000000
vn -0.00000000 0.00000000 -1.00000000
vn -0.00000000 0.00000000 -1.00000000
vn -0.70718349 -0.70703007 -0.00000000
vn -0.70718349 -0.70703007 -0.00000000
vn -0.70718349 -0.70703007 -0.00000000
vn -0.70718349 -0.70703007 -0.00000000
vn -0.57743378 -0.57730851 0.57730851
vn -0.57743378 -0.57730851 0.57730851
vn -0.57743378 -0.57730851 0.57730851
vn 0.00000000 0.00000000 1.00000000
vn 0.00000000 0.00000000 1.00000000
vn 0.00000000 0.00000000 1.00000000
vn 0.00000000 0.00000000 1.00000000
vn 0.00000000 0.00000000 1.00000000
vn 0.00000000 0.00000000 1.00000000
vn 0.50000000 -0.50000000 0.70710678
vn 0.50000000 -0.50000000 0.70710678
vn 0.50000000 -0.50000000 0.70710678
vn 0.50000000 -0.50000000 0.70710678
s 1
usemtl Metal_Blue
f 1/1/1 2/2/2 3/3/3
f 1/1/1 3/3/3 4/4/4
s 2
f 2/5/5 1/6/6 6/8/8
f 1/6/6 5/7/7 6/8/8
s 3
f 7/9/9 2/10/10 8/12/12
f 2/10/10 6/11/11 8/12/12
s 4
f 9/13/13 7/14/14 10/16/16
f 7/14/14 8/15/15 10/16/16
s 5
f 11/17/17 7/18/18 12/20/20
f 7/18/18 9/19/19 12/20/20
s 6
f 12/21/21 9/22/22 14/24/24
f 9/22/22 13/23/23 14/24/24
s 7
f 15/25/25 14/26/26 16/28/28
f 14/26/26 13/27/27 16/28/28
s 8
f 16/31/31 17/30/30 15/29/29
s 9
f 4/32/32 15/33/33 18/35/35
f 15/33/33 17/34/34 18/35/35
s 10
f 18/36/36 17/37/37 20/39/39
f 17/37/37 19/38/38 20/39/39
s 11
f 17/40/40 16/41/41 21/42/42
f 17/40/40 21/42/42 19/43/43
s 12
f 16/44/44 13/45/45 22/46/46
f 16/44/44 22/46/46 21/47/47
s 13
f 13/48/48 9/49/49 10/50/50
f 13/48/48 10/50/50 22/51/51
s 14
f 22/52/52 10/59/59 8/58/58
f 21/53/53 22/52/52 5/56/56
f 5/56/56 20/55/55 21/53/53
f 20/55/55 19/54/54 21/53/53
f 22/52/52 6/57/57 5/56/56
f 22/52/52 8/58/58 6/57/57
s 15
f 1/60/60 18/61/61 5/63/63
f 18/61/61 20/62/62 5/63/63
s 16
f 4/64/64 18/65/65 1/66/66
s 17
f 11/68/68 12/67/67 14/72/72
f 14/72/72 15/71/71 3/69/69
f 15/71/71 4/70/70 3/69/69
f 3/69/69 11/68/68 14/72/72
s 18
f 3/73/73 2/74/74 7/75/75
f 3/73/73 7/75/75 11/76/76
