mtllib Spacestation_Structure_Runway_Mid.mtl
o object1
g object1
v -1.29310345 -0.00000000 0.50000000
v -1.29310345 -0.00000000 -0.50000000
v -1.05000000 -0.00000000 -0.50000000
v -1.05000000 -0.00000000 0.50000000
v -1.05000000 -0.05172414 -0.50000000
v -1.05000000 -0.05172414 0.50000000
v -1.29310345 -0.05172414 0.50000000
v -1.29310345 -0.05172414 -0.50000000
vt 1.00000000 1.00000000
vt 0.00000000 1.00000000
vt 0.00000000 0.00000000
vt 1.00000000 0.00000000
vt 0.00000000 0.00000000
vt 1.00000000 0.00000000
vt 1.00000000 1.00000000
vt 0.00000000 1.00000000
vt 1.00000000 1.00000000
vt 0.00000000 1.00000000
vt 0.00000000 0.00000000
vt 1.00000000 0.00000000
vt 1.00000000 1.00000000
vt 0.00000000 1.00000000
vt 0.00000000 0.00000000
vt 1.00000000 0.00000000
vt 0.00000000 0.00000000
vt 1.00000000 0.00000000
vt 1.00000000 1.00000000
vt 0.00000000 1.00000000
vt 1.00000000 1.00000000
vt 0.00000000 1.00000000
vt 0.00000000 0.00000000
vt 1.00000000 0.00000000
vn -0.00000000 1.00000000 0.00000000
vn -0.00000000 1.00000000 0.00000000
vn -0.00000000 1.00000000 0.00000000
vn -0.00000000 1.00000000 0.00000000
vn 1.00000000 0.00000000 0.00000000
vn 1.00000000 0.00000000 0.00000000
vn 1.00000000 0.00000000 0.00000000
vn 1.00000000 0.00000000 0.00000000
vn 0.00000000 -1.00000000 0.00000000
vn 0.00000000 -1.00000000 0.00000000
vn 0.00000000 -1.00000000 0.00000000
vn 0.00000000 -1.00000000 0.00000000
vn -0.00000000 0.00000000 1.00000000
vn -0.00000000 0.00000000 1.00000000
vn -0.00000000 0.00000000 1.00000000
vn -0.00000000 0.00000000 1.00000000
vn -1.00000000 -0.00000000 -0.00000000
vn -1.00000000 -0.00000000 -0.00000000
vn -1.00000000 -0.00000000 -0.00000000
vn -1.00000000 -0.00000000 -0.00000000
vn 0.00000000 0.00000000 -1.00000000
vn 0.00000000 0.00000000 -1.00000000
vn 0.00000000 0.00000000 -1.00000000
vn 0.00000000 0.00000000 -1.00000000
s 1
usemtl Metal_Gray_Dark
f 4/4/4 3/3/3 1/1/1
f 3/3/3 2/2/2 1/1/1
s 2
f 4/8/8 6/7/7 3/5/5
f 6/7/7 5/6/6 3/5/5
s 3
f 7/9/9 8/10/10 5/11/11
f 7/9/9 5/11/11 6/12/12
s 4
f 1/13/13 7/14/14 4/16/16
f 7/14/14 6/15/15 4/16/16
s 5
f 8/17/17 7/18/18 2/20/20
f 7/18/18 1/19/19 2/20/20
s 6
f 3/24/24 5/23/23 2/21/21
f 5/23/23 8/22/22 2/21/21
o object2
g object2
v -0.10000000 -0.00000000 -0.50000000
v -0.10000000 -0.00000000 0.50000000
v -0.85000000 -0.00000000 0.50000000
v -0.85000000 -0.00000000 -0.50000000
v -0.85000000 -0.05172414 -0.50000000
v -0.85000000 -0.05172414 0.50000000
v -0.10000000 -0.05172414 -0.50000000
v -0.10000000 -0.05172414 0.50000000
vt 0.00000000 0.00000000
vt 1.00000000 0.00000000
vt 1.00000000 1.00000000
vt 0.00000000 1.00000000
vt 0.00000000 0.00000000
vt 1.00000000 0.00000000
vt 1.00000000 1.00000000
vt 0.00000000 1.00000000
vt 0.00000000 0.00000000
vt 1.00000000 0.00000000
vt 1.00000000 1.00000000
vt 0.00000000 1.00000000
vt 0.00000000 0.00000000
vt 1.00000000 0.00000000
vt 1.00000000 1.00000000
vt 0.00000000 1.00000000
vt 0.00000000 0.00000000
vt 1.00000000 0.00000000
vt 1.00000000 1.00000000
vt 0.00000000 1.00000000
vt 0.00000000 0.00000000
vt 1.00000000 0.00000000
vt 1.00000000 1.00000000
vt 0.00000000 1.00000000
vn -0.00000000 1.00000000 0.00000000
vn -0.00000000 1.00000000 0.00000000
vn -0.00000000 1.00000000 0.00000000
vn -0.00000000 1.00000000 0.00000000
vn -1.00000000 0.00000000 0.00000000
vn -1.00000000 0.00000000 0.00000000
vn -1.00000000 0.00000000 0.00000000
vn -1.00000000 0.00000000 0.00000000
vn 0.00000000 -1.00000000 0.00000000
vn 0.00000000 -1.00000000 0.00000000
vn 0.00000000 -1.00000000 0.00000000
vn 0.00000000 -1.00000000 0.00000000
vn 0.00000000 0.00000000 -1.00000000
vn 0.00000000 0.00000000 -1.00000000
vn 0.00000000 0.00000000 -1.00000000
vn 0.00000000 0.00000000 -1.00000000
vn 1.00000000 0.00000000 0.00000000
vn 1.00000000 0.00000000 0.00000000
vn 1.00000000 0.00000000 0.00000000
vn 1.00000000 0.00000000 0.00000000
vn -0.00000000 0.00000000 1.00000000
vn -0.00000000 0.00000000 1.00000000
vn -0.00000000 0.00000000 1.00000000
vn -0.00000000 0.00000000 1.00000000
s 1
usemtl Metal_Gray_Dark
f 12/28/28 11/27/27 10/26/26
f 12/28/28 10/26/26 9/25/25
s 2
f 12/29/29 13/30/30 11/32/32
f 13/30/30 14/31/31 11/32/32
s 3
f 15/33/33 16/34/34 13/36/36
f 16/34/34 14/35/35 13/36/36
s 4
f 13/40/40 12/39/39 15/37/37
f 12/39/39 9/38/38 15/37/37
s 5
f 10/44/44 16/43/43 9/41/41
f 16/43/43 15/42/42 9/41/41
s 6
f 16/45/45 10/46/46 14/48/48
f 10/46/46 11/47/47 14/48/48
o object3
g object3
v 0.10000000 0.00000000 -0.50000000
v 0.10000000 -0.05172414 -0.50000000
v 0.10000000 -0.05172414 0.50000000
v 0.10000000 0.00000000 0.50000000
v -0.10000000 -0.00000000 0.50000000
v -0.10000000 -0.05172414 0.50000000
v -0.10000000 -0.00000000 -0.50000000
v -0.10000000 -0.05172414 -0.50000000
vt 0.00000000 0.00000000
vt 1.00000000 0.00000000
vt 1.00000000 1.00000000
vt 0.00000000 1.00000000
vt 0.00000000 0.00000000
vt 1.00000000 0.00000000
vt 1.00000000 1.00000000
vt 0.00000000 1.00000000
vt 0.00000000 0.00000000
vt 1.00000000 0.00000000
vt 1.00000000 1.00000000
vt 0.00000000 1.00000000
vt 0.00000000 0.00000000
vt 1.00000000 0.00000000
vt 1.00000000 1.00000000
vt 0.00000000 1.00000000
vt 0.00000000 0.00000000
vt 1.00000000 0.00000000
vt 1.00000000 1.00000000
vt 0.00000000 1.00000000
vt 0.00000000 0.00000000
vt 1.00000000 0.00000000
vt 1.00000000 1.00000000
vt 0.00000000 1.00000000
vn 1.00000000 0.00000000 0.00000000
vn 1.00000000 0.00000000 0.00000000
vn 1.00000000 0.00000000 0.00000000
vn 1.00000000 0.00000000 0.00000000
vn -0.00000000 0.00000000 1.00000000
vn -0.00000000 0.00000000 1.00000000
vn -0.00000000 0.00000000 1.00000000
vn -0.00000000 0.00000000 1.00000000
vn -1.00000000 0.00000000 0.00000000
vn -1.00000000 0.00000000 0.00000000
vn -1.00000000 0.00000000 0.00000000
vn -1.00000000 0.00000000 0.00000000
vn -0.00000000 1.00000000 0.00000000
vn -0.00000000 1.00000000 0.00000000
vn -0.00000000 1.00000000 0.00000000
vn -0.00000000 1.00000000 0.00000000
vn 0.00000000 0.00000000 -1.00000000
vn 0.00000000 0.00000000 -1.00000000
vn 0.00000000 0.00000000 -1.00000000
vn 0.00000000 0.00000000 -1.00000000
vn 0.00000000 -1.00000000 0.00000000
vn 0.00000000 -1.00000000 0.00000000
vn 0.00000000 -1.00000000 0.00000000
vn 0.00000000 -1.00000000 0.00000000
s 1
usemtl Metal_Blue_Dark
f 20/52/52 19/51/51 17/49/49
f 19/51/51 18/50/50 17/49/49
s 2
f 19/53/53 20/54/54 22/56/56
f 20/54/54 21/55/55 22/56/56
s 3
f 23/57/57 24/58/58 21/60/60
f 24/58/58 22/59/59 21/60/60
s 4
f 23/64/64 21/63/63 20/62/62
f 23/64/64 20/62/62 17/61/61
s 5
f 24/68/68 23/67/67 18/65/65
f 23/67/67 17/66/66 18/65/65
s 6
f 18/69/69 19/70/70 24/72/72
f 19/70/70 22/71/71 24/72/72
o object4
g object4
v -1.05000000 -0.00000000 -0.50000000
v -1.05000000 -0.05172414 -0.50000000
v -0.85000000 -0.05172414 -0.50000000
v -0.85000000 -0.00000000 -0.50000000
v -0.85000000 -0.05172414 0.50000000
v -0.85000000 -0.00000000 0.50000000
v -1.05000000 -0.00000000 0.50000000
v -1.05000000 -0.05172414 0.50000000
vt 1.00000000 1.00000000
vt 0.00000000 1.00000000
vt 0.00000000 0.00000000
vt 1.00000000 0.00000000
vt 0.00000000 0.00000000
vt 1.00000000 0.00000000
vt 1.00000000 1.00000000
vt 0.00000000 1.00000000
vt 1.00000000 1.00000000
vt 0.00000000 1.00000000
vt 0.00000000 0.00000000
vt 1.00000000 0.00000000
vt 1.00000000 1.00000000
vt 0.00000000 1.00000000
vt 0.00000000 0.00000000
vt 1.00000000 0.00000000
vt 0.00000000 0.00000000
vt 1.00000000 0.00000000
vt 1.00000000 1.00000000
vt 0.00000000 1.00000000
vt 1.00000000 1.00000000
vt 0.00000000 1.00000000
vt 0.00000000 0.00000000
vt 1.00000000 0.00000000
vn 0.00000000 0.00000000 -1.00000000
vn 0.00000000 0.00000000 -1.00000000
vn 0.00000000 0.00000000 -1.00000000
vn 0.00000000 0.00000000 -1.00000000
vn 1.00000000 0.00000000 0.00000000
vn 1.00000000 0.00000000 0.00000000
vn 1.00000000 0.00000000 0.00000000
vn 1.00000000 0.00000000 0.00000000
vn -0.00000000 0.00000000 1.00000000
vn -0.00000000 0.00000000 1.00000000
vn -0.00000000 0.00000000 1.00000000
vn -0.00000000 0.00000000 1.00000000
vn -0.00000000 1.00000000 0.00000000
vn -0.00000000 1.00000000 0.00000000
vn -0.00000000 1.00000000 0.00000000
vn -0.00000000 1.00000000 0.00000000
vn -1.00000000 0.00000000 0.00000000
vn -1.00000000 0.00000000 0.00000000
vn -1.00000000 0.00000000 0.00000000
vn -1.00000000 0.00000000 0.00000000
vn 0.00000000 -1.00000000 0.00000000
vn 0.00000000 -1.00000000 0.00000000
vn 0.00000000 -1.00000000 0.00000000
vn 0.00000000 -1.00000000 0.00000000
s 1
usemtl Metal_Blue_Dark
f 28/76/76 27/75/75 25/73/73
f 27/75/75 26/74/74 25/73/73
s 2
f 30/80/80 29/79/79 28/77/77
f 29/79/79 27/78/78 28/77/77
s 3
f 31/81/81 32/82/82 30/84/84
f 32/82/82 29/83/83 30/84/84
s 4
f 30/88/88 28/87/87 31/85/85
f 28/87/87 25/86/86 31/85/85
s 5
f 25/89/89 26/90/90 31/92/92
f 26/90/90 32/91/91 31/92/92
s 6
f 32/93/93 26/94/94 27/95/95
f 32/93/93 27/95/95 29/96/96
o object5
g object5
v 1.46803272 0.07758621 -0.50000000
v 1.50000000 0.02586207 -0.50000000
v 1.50000000 -0.40000000 -0.50000000
v 0.50000000 -1.00000000 -0.50000000
v -0.50000000 -1.00000000 -0.50000000
v -1.50000000 -0.40000000 -0.50000000
v -1.50000000 0.02586207 -0.50000000
v -1.46803272 0.07758621 -0.50000000
v -1.34482759 0.07758621 -0.50000000
v -1.29310345 0.02586207 -0.50000000
v -1.29310345 -0.02586207 -0.50000000
v 1.29310345 -0.02586207 -0.50000000
v 1.29310345 0.02586207 -0.50000000
v 1.34482759 0.07758621 -0.50000000
v 1.46803272 0.07758621 0.50000000
v 1.50000000 0.02586207 0.50000000
v 1.34482759 0.07758621 0.50000000
v 1.50000000 -0.40000000 0.50000000
v 0.50000000 -1.00000000 0.50000000
v -0.50000000 -1.00000000 0.50000000
v -1.50000000 -0.40000000 0.50000000
v -1.50000000 0.02586207 0.50000000
v -1.46803272 0.07758621 0.50000000
v -1.34482759 0.07758621 0.50000000
v -1.29310345 0.02586207 0.50000000
v -1.29310345 -0.02586207 0.50000000
v 1.29310345 -0.02586207 0.50000000
v 1.29310345 0.02586207 0.50000000
vt 0.00000000 0.01065576
vt 0.04800000 0.00000000
vt 0.44320000 0.00000000
vt 1.00000000 0.33333333
vt 1.00000000 0.66666667
vt 0.44320000 1.00000000
vt 0.04800000 1.00000000
vt 0.00000000 0.98934424
vt 0.00000000 0.94827586
vt 0.04800000 0.93103448
vt 0.09600000 0.93103448
vt 0.09600000 0.06896552
vt 0.04800000 0.06896552
vt 0.00000000 0.05172414
vt 0.00000000 0.00000000
vt 1.00000000 0.00000000
vt 1.00000000 1.00000000
vt 0.00000000 1.00000000
vt 0.00000000 0.05172414
vt 0.00000000 0.01065576
vt 0.04800000 0.00000000
vt 0.44320000 0.00000000
vt 1.00000000 0.33333333
vt 1.00000000 0.66666667
vt 0.44320000 1.00000000
vt 0.04800000 1.00000000
vt 0.00000000 0.98934424
vt 0.00000000 0.94827586
vt 0.04800000 0.93103448
vt 0.09600000 0.93103448
vt 0.09600000 0.06896552
vt 0.04800000 0.06896552
vt 0.00000000 0.00000000
vt 1.00000000 0.00000000
vt 1.00000000 1.00000000
vt 0.00000000 1.00000000
vt 0.00000000 0.00000000
vt 1.00000000 0.00000000
vt 1.00000000 1.00000000
vt 0.00000000 1.00000000
vt 0.00000000 0.00000000
vt 1.00000000 0.00000000
vt 1.00000000 1.00000000
vt 0.00000000 1.00000000
vt 0.00000000 0.00000000
vt 1.00000000 0.00000000
vt 1.00000000 1.00000000
vt 0.00000000 1.00000000
vt 0.00000000 0.00000000
vt 1.00000000 0.00000000
vt 1.00000000 1.00000000
vt 0.00000000 1.00000000
vt 0.00000000 0.00000000
vt 1.00000000 0.00000000
vt 1.00000000 1.00000000
vt 0.00000000 1.00000000
vt 0.00000000 0.00000000
vt 1.00000000 0.00000000
vt 1.00000000 1.00000000
vt 0.00000000 1.00000000
vt 0.00000000 0.00000000
vt 1.00000000 0.00000000
vt 1.00000000 1.00000000
vt 0.00000000 1.00000000
vt 0.00000000 1.00000000
vt 0.00000000 0.00000000
vt 1.00000000 0.00000000
vt 1.00000000 1.00000000
vt 1.00000000 1.00000000
vt 0.00000000 1.00000000
vt 0.00000000 0.00000000
vt 1.00000000 0.00000000
vt 1.00000000 1.00000000
vt 0.00000000 1.00000000
vt 0.00000000 0.00000000
vt 1.00000000 0.00000000
vt 1.00000000 1.00000000
vt 0.00000000 1.00000000
vt 0.00000000 0.00000000
vt 1.00000000 0.00000000
vt 1.00000000 1.00000000
vt 0.00000000 1.00000000
vt 0.00000000 0.00000000
vt 1.00000000 0.00000000
vn 0.00000000 0.00000000 -1.00000000
vn 0.00000000 0.00000000 -1.00000000
vn 0.00000000 0.00000000 -1.00000000
vn 0.00000000 0.00000000 -1.00000000
vn 0.00000000 0.00000000 -1.00000000
vn 0.00000000 0.00000000 -1.00000000
vn 0.00000000 0.00000000 -1.00000000
vn 0.00000000 0.00000000 -1.00000000
vn 0.00000000 0.00000000 -1.00000000
vn 0.00000000 0.00000000 -1.00000000
vn 0.00000000 0.00000000 -1.00000000
vn 0.00000000 0.00000000 -1.00000000
vn 0.00000000 0.00000000 -1.00000000
vn 0.00000000 0.00000000 -1.00000000
vn 0.85065081 0.52573111 -0.00000000
vn 0.85065081 0.52573111 -0.00000000
vn 0.85065081 0.52573111 -0.00000000
vn 0.85065081 0.52573111 -0.00000000
vn 0.00000000 0.00000000 1.00000000
vn 0.00000000 0.00000000 1.00000000
vn 0.00000000 0.00000000 1.00000000
vn 0.00000000 0.00000000 1.00000000
vn 0.00000000 0.00000000 1.00000000
vn 0.00000000 0.00000000 1.00000000
vn 0.00000000 0.00000000 1.00000000
vn 0.00000000 0.00000000 1.00000000
vn 0.00000000 0.00000000 1.00000000
vn 0.00000000 0.00000000 1.00000000
vn 0.00000000 0.00000000 1.00000000
vn 0.00000000 0.00000000 1.00000000
vn 0.00000000 0.00000000 1.00000000
vn 0.00000000 0.00000000 1.00000000
vn -0.00000000 1.00000000 -0.00000000
vn -0.00000000 1.00000000 -0.00000000
vn -0.00000000 1.00000000 -0.00000000
vn -0.00000000 1.00000000 -0.00000000
vn -0.70710678 0.70710678 -0.00000000
vn -0.70710678 0.70710678 -0.00000000
vn -0.70710678 0.70710678 -0.00000000
vn -0.70710678 0.70710678 -0.00000000
vn -1.00000000 -0.00000000 -0.00000000
vn -1.00000000 -0.00000000 -0.00000000
vn -1.00000000 -0.00000000 -0.00000000
vn -1.00000000 -0.00000000 -0.00000000
vn -0.00000000 1.00000000 -0.00000000
vn -0.00000000 1.00000000 -0.00000000
vn -0.00000000 1.00000000 -0.00000000
vn -0.00000000 1.00000000 -0.00000000
vn 1.00000000 0.00000000 0.00000000
vn 1.00000000 0.00000000 0.00000000
vn 1.00000000 0.00000000 0.00000000
vn 1.00000000 0.00000000 0.00000000
vn 0.70710678 0.70710678 -0.00000000
vn 0.70710678 0.70710678 -0.00000000
vn 0.70710678 0.70710678 -0.00000000
vn 0.70710678 0.70710678 -0.00000000
vn -0.00000000 1.00000000 -0.00000000
vn -0.00000000 1.00000000 -0.00000000
vn -0.00000000 1.00000000 -0.00000000
vn -0.00000000 1.00000000 -0.00000000
vn -0.85065081 0.52573111 -0.00000000
vn -0.85065081 0.52573111 -0.00000000
vn -0.85065081 0.52573111 -0.00000000
vn -0.85065081 0.52573111 -0.00000000
vn -1.00000000 0.00000000 0.00000000
vn -1.00000000 0.00000000 0.00000000
vn -1.00000000 0.00000000 0.00000000
vn -1.00000000 0.00000000 0.00000000
vn -0.51449576 -0.85749293 -0.00000000
vn -0.51449576 -0.85749293 -0.00000000
vn -0.51449576 -0.85749293 -0.00000000
vn -0.51449576 -0.85749293 -0.00000000
vn 0.00000000 -1.00000000 -0.00000000
vn 0.00000000 -1.00000000 -0.00000000
vn 0.00000000 -1.00000000 -0.00000000
vn 0.00000000 -1.00000000 -0.00000000
vn 0.51449576 -0.85749293 -0.00000000
vn 0.51449576 -0.85749293 -0.00000000
vn 0.51449576 -0.85749293 -0.00000000
vn 0.51449576 -0.85749293 -0.00000000
vn 1.00000000 -0.00000000 0.00000000
vn 1.00000000 -0.00000000 0.00000000
vn 1.00000000 -0.00000000 0.00000000
vn 1.00000000 -0.00000000 0.00000000
s 1
usemtl Metal_Blue_Light
f 41/105/105 42/106/106 43/107/107
f 36/100/100 43/107/107 44/108/108
f 44/108/108 34/98/98 35/99/99
f 46/110/110 33/97/97 34/98/98
f 44/108/108 46/110/110 34/98/98
f 44/108/108 45/109/109 46/110/110
f 44/108/108 35/99/99 36/100/100
f 36/100/100 37/101/101 43/107/107
f 37/101/101 38/102/102 43/107/107
f 38/102/102 39/103/103 43/107/107
f 39/103/103 41/105/105 43/107/107
f 39/103/103 40/104/104 41/105/105
s 2
f 33/111/111 47/112/112 48/113/113
f 33/111/111 48/113/113 34/114/114
s 3
f 58/126/126 57/125/125 56/124/124
f 56/124/124 55/123/123 54/122/122
f 59/127/127 58/126/126 52/120/120
f 52/120/120 51/119/119 59/127/127
f 51/119/119 50/118/118 59/127/127
f 50/118/118 48/117/117 59/127/127
f 48/117/117 47/116/116 49/115/115
f 48/117/117 49/115/115 59/127/127
f 49/115/115 60/128/128 59/127/127
f 58/126/126 53/121/121 52/120/120
f 58/126/126 54/122/122 53/121/121
f 58/126/126 56/124/124 54/122/122
s 4
f 46/132/132 49/131/131 47/130/130
f 46/132/132 47/130/130 33/129/129
s 5
f 45/133/133 60/134/134 49/135/135
f 45/133/133 49/135/135 46/136/136
s 6
f 44/140/140 59/139/139 45/137/137
f 59/139/139 60/138/138 45/137/137
s 7
f 43/144/144 58/143/143 59/142/142
f 43/144/144 59/142/142 44/141/141
s 8
f 42/145/145 57/146/146 58/147/147
f 42/145/145 58/147/147 43/148/148
s 9
f 41/149/149 56/150/150 57/151/151
f 41/149/149 57/151/151 42/152/152
s 10
f 40/156/156 55/155/155 56/154/154
f 40/156/156 56/154/154 41/153/153
s 11
f 39/157/157 54/158/158 55/159/159
f 39/157/157 55/159/159 40/160/160
s 12
f 53/161/161 54/162/162 39/163/163
f 53/161/161 39/163/163 38/164/164
s 13
f 37/165/165 52/166/166 38/168/168
f 52/166/166 53/167/167 38/168/168
s 14
f 36/169/169 51/170/170 37/172/172
f 51/170/170 52/171/171 37/172/172
s 15
f 35/173/173 50/174/174 36/176/176
f 50/174/174 51/175/175 36/176/176
s 16
f 34/177/177 48/178/178 50/179/179
f 34/177/177 50/179/179 35/180/180
o object6
g object6
v 1.29310345 0.00000000 -0.50000000
v 1.29310345 0.00000000 0.50000000
v 1.05000000 0.00000000 0.50000000
v 1.05000000 0.00000000 -0.50000000
v 1.05000000 -0.05172414 -0.50000000
v 1.05000000 -0.05172414 0.50000000
v 1.29310345 -0.05172414 -0.50000000
v 1.29310345 -0.05172414 0.50000000
vt 0.00000000 0.00000000
vt 1.00000000 0.00000000
vt 1.00000000 1.00000000
vt 0.00000000 1.00000000
vt 0.00000000 0.00000000
vt 1.00000000 0.00000000
vt 1.00000000 1.00000000
vt 0.00000000 1.00000000
vt 0.00000000 0.00000000
vt 1.00000000 0.00000000
vt 1.00000000 1.00000000
vt 0.00000000 1.00000000
vt 0.00000000 0.00000000
vt 1.00000000 0.00000000
vt 1.00000000 1.00000000
vt 0.00000000 1.00000000
vt 0.00000000 0.00000000
vt 1.00000000 0.00000000
vt 1.00000000 1.00000000
vt 0.00000000 1.00000000
vt 0.00000000 0.00000000
vt 1.00000000 0.00000000
vt 1.00000000 1.00000000
vt 0.00000000 1.00000000
vn -0.00000000 1.00000000 0.00000000
vn -0.00000000 1.00000000 0.00000000
vn -0.00000000 1.00000000 0.00000000
vn -0.00000000 1.00000000 0.00000000
vn -1.00000000 0.00000000 0.00000000
vn -1.00000000 0.00000000 0.00000000
vn -1.00000000 0.00000000 0.00000000
vn -1.00000000 0.00000000 0.00000000
vn 0.00000000 -1.00000000 0.00000000
vn 0.00000000 -1.00000000 0.00000000
vn 0.00000000 -1.00000000 0.00000000
vn 0.00000000 -1.00000000 0.00000000
vn 0.00000000 0.00000000 -1.00000000
vn 0.00000000 0.00000000 -1.00000000
vn 0.00000000 0.00000000 -1.00000000
vn 0.00000000 0.00000000 -1.00000000
vn 1.00000000 0.00000000 0.00000000
vn 1.00000000 0.00000000 0.00000000
vn 1.00000000 0.00000000 0.00000000
vn 1.00000000 0.00000000 0.00000000
vn -0.00000000 0.00000000 1.00000000
vn -0.00000000 0.00000000 1.00000000
vn -0.00000000 0.00000000 1.00000000
vn -0.00000000 0.00000000 1.00000000
s 1
usemtl Metal_Gray_Dark
f 64/184/184 63/183/183 62/182/182
f 64/184/184 62/182/182 61/181/181
s 2
f 64/185/185 65/186/186 63/188/188
f 65/186/186 66/187/187 63/188/188
s 3
f 67/189/189 68/190/190 65/192/192
f 68/190/190 66/191/191 65/192/192
s 4
f 65/196/196 64/195/195 67/193/193
f 64/195/195 61/194/194 67/193/193
s 5
f 61/200/200 62/199/199 67/197/197
f 62/199/199 68/198/198 67/197/197
s 6
f 68/201/201 62/202/202 66/204/204
f 62/202/202 63/203/203 66/204/204
o object7
g object7
v 1.05000000 0.00000000 -0.50000000
v 1.05000000 -0.05172414 -0.50000000
v 1.05000000 -0.05172414 0.50000000
v 1.05000000 0.00000000 0.50000000
v 0.85000000 0.00000000 0.50000000
v 0.85000000 -0.05172414 0.50000000
v 0.85000000 0.00000000 -0.50000000
v 0.85000000 -0.05172414 -0.50000000
vt 0.00000000 0.00000000
vt 1.00000000 0.00000000
vt 1.00000000 1.00000000
vt 0.00000000 1.00000000
vt 1.00000000 1.00000000
vt 0.00000000 1.00000000
vt 0.00000000 0.00000000
vt 1.00000000 0.00000000
vt 0.00000000 0.00000000
vt 1.00000000 0.00000000
vt 1.00000000 1.00000000
vt 0.00000000 1.00000000
vt 1.00000000 1.00000000
vt 0.00000000 1.00000000
vt 0.00000000 0.00000000
vt 1.00000000 0.00000000
vt 1.00000000 1.00000000
vt 0.00000000 1.00000000
vt 0.00000000 0.00000000
vt 1.00000000 0.00000000
vt 1.00000000 1.00000000
vt 0.00000000 1.00000000
vt 0.00000000 0.00000000
vt 1.00000000 0.00000000
vn 1.00000000 0.00000000 0.00000000
vn 1.00000000 0.00000000 0.00000000
vn 1.00000000 0.00000000 0.00000000
vn 1.00000000 0.00000000 0.00000000
vn -0.00000000 0.00000000 1.00000000
vn -0.00000000 0.00000000 1.00000000
vn -0.00000000 0.00000000 1.00000000
vn -0.00000000 0.00000000 1.00000000
vn -1.00000000 0.00000000 0.00000000
vn -1.00000000 0.00000000 0.00000000
vn -1.00000000 0.00000000 0.00000000
vn -1.00000000 0.00000000 0.00000000
vn -0.00000000 1.00000000 0.00000000
vn -0.00000000 1.00000000 0.00000000
vn -0.00000000 1.00000000 0.00000000
vn -0.00000000 1.00000000 0.00000000
vn 0.00000000 0.00000000 -1.00000000
vn 0.00000000 0.00000000 -1.00000000
vn 0.00000000 0.00000000 -1.00000000
vn 0.00000000 0.00000000 -1.00000000
vn 0.00000000 -1.00000000 0.00000000
vn 0.00000000 -1.00000000 0.00000000
vn 0.00000000 -1.00000000 0.00000000
vn 0.00000000 -1.00000000 0.00000000
s 1
usemtl Metal_Blue_Dark
f 72/208/208 71/207/207 69/205/205
f 71/207/207 70/206/206 69/205/205
s 2
f 73/209/209 74/210/210 72/212/212
f 74/210/210 71/211/211 72/212/212
s 3
f 75/213/213 76/214/214 73/216/216
f 76/214/214 74/215/215 73/216/216
s 4
f 72/220/220 69/219/219 73/217/217
f 69/219/219 75/218/218 73/217/217
s 5
f 69/224/224 70/223/223 75/221/221
f 70/223/223 76/222/222 75/221/221
s 6
f 74/225/225 76/226/226 70/227/227
f 74/225/225 70/227/227 71/228/228
o object8
g object8
v 0.10000000 0.00000000 0.50000000
v 0.10000000 0.00000000 -0.50000000
v 0.85000000 0.00000000 -0.50000000
v 0.85000000 0.00000000 0.50000000
v 0.85000000 -0.05172414 -0.50000000
v 0.85000000 -0.05172414 0.50000000
v 0.10000000 -0.05172414 0.50000000
v 0.10000000 -0.05172414 -0.50000000
vt 1.00000000 1.00000000
vt 0.00000000 1.00000000
vt 0.00000000 0.00000000
vt 1.00000000 0.00000000
vt 0.00000000 0.00000000
vt 1.00000000 0.00000000
vt 1.00000000 1.00000000
vt 0.00000000 1.00000000
vt 1.00000000 1.00000000
vt 0.00000000 1.00000000
vt 0.00000000 0.00000000
vt 1.00000000 0.00000000
vt 1.00000000 1.00000000
vt 0.00000000 1.00000000
vt 0.00000000 0.00000000
vt 1.00000000 0.00000000
vt 0.00000000 0.00000000
vt 1.00000000 0.00000000
vt 1.00000000 1.00000000
vt 0.00000000 1.00000000
vt 1.00000000 1.00000000
vt 0.00000000 1.00000000
vt 0.00000000 0.00000000
vt 1.00000000 0.00000000
vn -0.00000000 1.00000000 -0.00000000
vn -0.00000000 1.00000000 -0.00000000
vn -0.00000000 1.00000000 0.00000000
vn -0.00000000 1.00000000 0.00000000
vn 1.00000000 0.00000000 0.00000000
vn 1.00000000 0.00000000 0.00000000
vn 1.00000000 0.00000000 0.00000000
vn 1.00000000 0.00000000 0.00000000
vn 0.00000000 -1.00000000 0.00000000
vn 0.00000000 -1.00000000 0.00000000
vn 0.00000000 -1.00000000 0.00000000
vn 0.00000000 -1.00000000 0.00000000
vn -0.00000000 0.00000000 1.00000000
vn -0.00000000 0.00000000 1.00000000
vn -0.00000000 0.00000000 1.00000000
vn -0.00000000 0.00000000 1.00000000
vn -1.00000000 0.00000000 0.00000000
vn -1.00000000 0.00000000 0.00000000
vn -1.00000000 0.00000000 0.00000000
vn -1.00000000 0.00000000 0.00000000
vn 0.00000000 0.00000000 -1.00000000
vn 0.00000000 0.00000000 -1.00000000
vn 0.00000000 0.00000000 -1.00000000
vn 0.00000000 0.00000000 -1.00000000
s 1
usemtl Metal_Gray_Dark
f 80/232/232 79/231/231 77/229/229
f 79/231/231 78/230/230 77/229/229
s 2
f 80/236/236 82/235/235 79/233/233
f 82/235/235 81/234/234 79/233/233
s 3
f 83/237/237 84/238/238 81/239/239
f 83/237/237 81/239/239 82/240/240
s 4
f 77/241/241 83/242/242 80/244/244
f 83/242/242 82/243/243 80/244/244
s 5
f 78/245/245 84/246/246 77/248/248
f 84/246/246 83/247/247 77/248/248
s 6
f 79/252/252 81/251/251 78/249/249
f 81/251/251 84/250/250 78/249/249
