mtllib Spacestation_Structure_Fuselage_Straight_Vertical_Band.mtl
o object1
g object1
v -0.27500000 0.05088835 -0.50000000
v -0.27500000 -0.00000000 -0.50000000
v -0.27500000 -0.00000000 0.50000000
v -0.27500000 0.05088835 0.50000000
v -0.67500000 0.10088835 0.50000000
v -0.32500000 0.10088835 0.50000000
v -0.72500000 0.00000000 0.50000000
v -0.72500000 0.05088835 0.50000000
v -0.72500000 0.05088835 -0.50000000
v -0.72500000 0.00000000 -0.50000000
v -0.67500000 0.10088835 -0.50000000
v -0.32500000 0.10088835 -0.50000000
vt 1.00000000 0.00000000
vt 1.00000000 1.00000000
vt 0.00000000 1.00000000
vt 0.00000000 0.00000000
vt 0.00000000 0.88888889
vt 0.00000000 0.11111111
vt 0.49559737 0.00000000
vt 1.00000000 0.00000000
vt 1.00000000 1.00000000
vt 0.49559737 1.00000000
vt 1.00000000 0.00000000
vt 1.00000000 1.00000000
vt 0.00000000 1.00000000
vt 0.00000000 0.00000000
vt 0.00000000 0.00000000
vt 1.00000000 0.00000000
vt 1.00000000 1.00000000
vt 0.00000000 1.00000000
vt 1.00000000 0.00000000
vt 1.00000000 1.00000000
vt 0.00000000 1.00000000
vt 0.00000000 0.00000000
vt 0.00000000 0.00000000
vt 1.00000000 0.00000000
vt 1.00000000 1.00000000
vt 0.00000000 1.00000000
vt 0.00000000 0.88888889
vt 0.00000000 0.11111111
vt 0.49559737 0.00000000
vt 1.00000000 0.00000000
vt 1.00000000 1.00000000
vt 0.49559737 1.00000000
vt 0.00000000 1.00000000
vt 0.00000000 0.00000000
vt 1.00000000 0.00000000
vt 1.00000000 1.00000000
vn 1.00000000 -0.00000000 0.00000000
vn 1.00000000 -0.00000000 0.00000000
vn 1.00000000 -0.00000000 0.00000000
vn 1.00000000 -0.00000000 0.00000000
vn -0.00000000 -0.00000000 1.00000000
vn -0.00000000 0.00000000 1.00000000
vn -0.00000000 -0.00000000 1.00000000
vn -0.00000000 -0.00000000 1.00000000
vn -0.00000000 0.00000000 1.00000000
vn -0.00000000 0.00000000 1.00000000
vn -1.00000000 0.00000000 -0.00000000
vn -1.00000000 0.00000000 -0.00000000
vn -1.00000000 0.00000000 -0.00000000
vn -1.00000000 0.00000000 -0.00000000
vn -0.70710678 0.70710678 -0.00000000
vn -0.70710678 0.70710678 -0.00000000
vn -0.70710678 0.70710678 -0.00000000
vn -0.70710678 0.70710678 -0.00000000
vn 0.00000000 1.00000000 -0.00000000
vn 0.00000000 1.00000000 -0.00000000
vn 0.00000000 1.00000000 -0.00000000
vn 0.00000000 1.00000000 -0.00000000
vn 0.70710678 0.70710678 -0.00000000
vn 0.70710678 0.70710678 -0.00000000
vn 0.70710678 0.70710678 -0.00000000
vn 0.70710678 0.70710678 -0.00000000
vn 0.00000000 -0.00000000 -1.00000000
vn 0.00000000 -0.00000000 -1.00000000
vn 0.00000000 -0.00000000 -1.00000000
vn 0.00000000 -0.00000000 -1.00000000
vn 0.00000000 -0.00000000 -1.00000000
vn 0.00000000 -0.00000000 -1.00000000
vn -0.00000000 -1.00000000 -0.00000000
vn -0.00000000 -1.00000000 -0.00000000
vn -0.00000000 -1.00000000 -0.00000000
vn -0.00000000 -1.00000000 -0.00000000
s 1
usemtl Metal_Blue_Dark
f 4/4/4 3/3/3 1/1/1
f 3/3/3 2/2/2 1/1/1
s 2
f 3/8/8 4/7/7 6/6/6
f 7/9/9 3/8/8 5/5/5
f 5/5/5 8/10/10 7/9/9
f 3/8/8 6/6/6 5/5/5
s 3
f 9/11/11 10/12/12 8/14/14
f 10/12/12 7/13/13 8/14/14
s 4
f 5/15/15 11/16/16 8/18/18
f 11/16/16 9/17/17 8/18/18
s 5
f 6/22/22 12/21/21 5/19/19
f 12/21/21 11/20/20 5/19/19
s 6
f 4/23/23 1/24/24 6/26/26
f 1/24/24 12/25/25 6/26/26
s 7
f 10/31/31 9/32/32 11/27/27
f 12/28/28 2/30/30 10/31/31
f 12/28/28 1/29/29 2/30/30
f 10/31/31 11/27/27 12/28/28
s 8
f 7/36/36 10/35/35 2/34/34
f 7/36/36 2/34/34 3/33/33
