mtllib Spacestation_Structure_Fuselage_Straight_Vertical_Windows.mtl
o object1
g object1
v -0.00000000 0.85000000 0.25000000
v -0.00000000 0.85000000 -0.25000000
v -0.00000000 0.15000000 -0.25000000
v -0.00000000 0.15000000 0.25000000
v 0.02500000 0.85000000 0.25000000
v 0.02500000 0.85000000 -0.25000000
v 0.02500000 0.15000000 -0.25000000
v 0.02500000 0.15000000 0.25000000
vt 0.00000000 0.00000000
vt 1.00000000 0.00000000
vt 1.00000000 1.00000000
vt 0.00000000 1.00000000
vt 0.00000000 0.00000000
vt 1.00000000 0.00000000
vt 1.00000000 1.00000000
vt 0.00000000 1.00000000
vt 0.00000000 1.00000000
vt 0.00000000 0.00000000
vt 1.00000000 0.00000000
vt 1.00000000 1.00000000
vt 0.00000000 1.00000000
vt 0.00000000 0.00000000
vt 1.00000000 0.00000000
vt 1.00000000 1.00000000
vt 0.00000000 1.00000000
vt 0.00000000 0.00000000
vt 1.00000000 0.00000000
vt 1.00000000 1.00000000
vt 0.00000000 1.00000000
vt 0.00000000 0.00000000
vt 1.00000000 0.00000000
vt 1.00000000 1.00000000
vn -1.00000000 -0.00000000 -0.00000000
vn -1.00000000 -0.00000000 -0.00000000
vn -1.00000000 -0.00000000 -0.00000000
vn -1.00000000 -0.00000000 -0.00000000
vn 1.00000000 0.00000000 0.00000000
vn 1.00000000 0.00000000 0.00000000
vn 1.00000000 0.00000000 0.00000000
vn 1.00000000 0.00000000 0.00000000
vn 0.00000000 1.00000000 0.00000000
vn -0.00000000 1.00000000 0.00000000
vn -0.00000000 1.00000000 0.00000000
vn 0.00000000 1.00000000 0.00000000
vn 0.00000000 0.00000000 -1.00000000
vn 0.00000000 0.00000000 -1.00000000
vn 0.00000000 0.00000000 -1.00000000
vn 0.00000000 0.00000000 -1.00000000
vn 0.00000000 -1.00000000 -0.00000000
vn -0.00000000 -1.00000000 -0.00000000
vn -0.00000000 -1.00000000 -0.00000000
vn 0.00000000 -1.00000000 -0.00000000
vn -0.00000000 -0.00000000 1.00000000
vn -0.00000000 -0.00000000 1.00000000
vn -0.00000000 -0.00000000 1.00000000
vn -0.00000000 -0.00000000 1.00000000
s 1
usemtl Glass
f 1/1/1 2/2/2 4/4/4
f 2/2/2 3/3/3 4/4/4
s 2
f 8/8/8 7/7/7 6/6/6
f 8/8/8 6/6/6 5/5/5
s 3
f 2/9/9 1/10/10 5/11/11
f 2/9/9 5/11/11 6/12/12
s 4
f 3/13/13 2/14/14 6/15/15
f 3/13/13 6/15/15 7/16/16
s 5
f 7/20/20 8/19/19 3/17/17
f 8/19/19 4/18/18 3/17/17
s 6
f 8/24/24 5/23/23 4/21/21
f 5/23/23 1/22/22 4/21/21
o object2
g object2
v 0.02500000 0.15000000 -0.20000000
v 0.05000000 0.15000000 -0.22500000
v 0.05000000 0.85000000 -0.22500000
v 0.02500000 0.85000000 -0.20000000
v 0.05000000 0.50000000 -0.22500000
v -0.00000000 0.15000000 -0.20000000
v -0.00000000 0.85000000 -0.20000000
v -0.00000000 0.50000000 -0.20000000
v -0.00000000 0.05000000 -0.25000000
v 0.05000000 0.10000000 -0.21464466
v 0.05000000 0.13535534 -0.25000000
v -0.00000000 0.10000000 -0.30000000
v -0.00000000 0.90000000 -0.30000000
v 0.05000000 0.86464466 -0.25000000
v -0.00000000 0.50000000 -0.30000000
v 0.05000000 0.50000000 -0.25000000
v -0.00000000 0.95000000 -0.25000000
v 0.05000000 0.90000000 -0.21464466
v -0.00000000 0.95000000 0.25000000
v 0.05000000 0.90000000 0.21464466
v 0.05000000 0.10000000 0.21464466
v -0.00000000 0.05000000 0.25000000
v 0.05000000 0.86464466 0.25000000
v -0.00000000 0.90000000 0.30000000
v -0.00000000 0.10000000 0.30000000
v 0.05000000 0.13535534 0.25000000
v 0.05000000 0.50000000 0.25000000
v -0.00000000 0.50000000 0.30000000
v 0.05000000 0.87500000 -0.20000000
v 0.05000000 0.87500000 -0.05000000
v 0.05000000 0.85000000 -0.02500000
v 0.05000000 0.50000000 -0.02500000
v 0.05000000 0.50000000 0.02500000
v 0.05000000 0.85000000 0.02500000
v 0.05000000 0.87500000 0.05000000
v 0.05000000 0.87500000 0.20000000
v 0.05000000 0.85000000 0.22500000
v 0.05000000 0.50000000 0.22500000
v 0.05000000 0.15000000 -0.02500000
v 0.05000000 0.12500000 -0.05000000
v 0.05000000 0.12500000 -0.20000000
v 0.05000000 0.15000000 0.22500000
v 0.05000000 0.12500000 0.20000000
v 0.05000000 0.12500000 0.05000000
v 0.05000000 0.15000000 0.02500000
v 0.02500000 0.15000000 0.20000000
v 0.02500000 0.15000000 0.05000000
v -0.00000000 0.15000000 0.20000000
v -0.00000000 0.15000000 0.05000000
v 0.02500000 0.85000000 0.20000000
v -0.00000000 0.85000000 0.20000000
v -0.00000000 0.50000000 0.20000000
v 0.02500000 0.85000000 0.05000000
v -0.00000000 0.85000000 0.05000000
v -0.00000000 0.50000000 0.05000000
v -0.00000000 0.85000000 -0.05000000
v -0.00000000 0.50000000 -0.05000000
v -0.00000000 0.15000000 -0.05000000
v 0.02500000 0.85000000 -0.05000000
v 0.02500000 0.15000000 -0.05000000
vt 1.00000000 0.00000000
vt 1.00000000 1.00000000
vt 0.00000000 1.00000000
vt 0.00000000 0.00000000
vt 0.50000000 1.00000000
vt 1.00000000 1.00000000
vt 0.00000000 1.00000000
vt 0.00000000 0.00000000
vt 1.00000000 0.00000000
vt 1.00000000 0.50000000
vt 1.00000000 1.00000000
vt 0.00000000 0.85355339
vt 0.00000000 0.14644661
vt 1.00000000 0.00000000
vt 0.95580583 0.00000000
vt 1.00000000 1.00000000
vt 0.00000000 1.00000000
vt 0.04419417 0.00000000
vt 0.50000000 1.00000000
vt 0.50000000 0.00000000
vt 1.00000000 1.00000000
vt 0.00000000 0.85355339
vt 0.00000000 0.14644661
vt 1.00000000 0.00000000
vt 0.07071068 1.00000000
vt 0.00000000 0.00000000
vt 1.00000000 0.00000000
vt 0.92928932 1.00000000
vt 0.92928932 1.00000000
vt 0.07071068 1.00000000
vt 0.00000000 0.00000000
vt 1.00000000 0.00000000
vt 1.00000000 1.00000000
vt 0.00000000 0.85355339
vt 0.00000000 0.14644661
vt 1.00000000 0.00000000
vt 1.00000000 0.00000000
vt 0.95580583 1.00000000
vt 0.04419417 1.00000000
vt 0.00000000 0.00000000
vt 0.50000000 1.00000000
vt 0.50000000 0.00000000
vt 0.95000000 0.50000000
vt 0.95000000 0.06250000
vt 0.90000000 0.03125000
vt 0.60000000 0.03125000
vt 0.55000000 0.06250000
vt 0.55000000 0.50000000
vt 0.45000000 0.50000000
vt 0.45000000 0.06250000
vt 0.40000000 0.03125000
vt 0.10000000 0.03125000
vt 0.05000000 0.06250000
vt 0.05000000 0.50000000
vt 0.00000000 0.50000000
vt 0.00000000 0.04419417
vt 0.07071068 0.00000000
vt 0.92928932 0.00000000
vt 1.00000000 0.04419417
vt 1.00000000 0.50000000
vt 0.55000000 0.93750000
vt 0.60000000 0.96875000
vt 0.90000000 0.96875000
vt 0.95000000 0.93750000
vt 1.00000000 0.95580583
vt 0.92928932 1.00000000
vt 0.07071068 1.00000000
vt 0.00000000 0.95580583
vt 0.05000000 0.93750000
vt 0.10000000 0.96875000
vt 0.40000000 0.96875000
vt 0.45000000 0.93750000
vt 0.00000000 1.00000000
vt 0.00000000 0.00000000
vt 1.00000000 0.50000000
vt 0.00000000 1.00000000
vt 0.00000000 0.00000000
vt 1.00000000 0.00000000
vt 1.00000000 1.00000000
vt 0.00000000 0.00000000
vt 1.00000000 0.00000000
vt 1.00000000 1.00000000
vt 0.00000000 1.00000000
vt 0.00000000 0.00000000
vt 1.00000000 0.50000000
vt 0.00000000 1.00000000
vt 1.00000000 1.00000000
vt 0.00000000 0.85355339
vt 0.00000000 0.14644661
vt 1.00000000 0.00000000
vt 1.00000000 0.00000000
vt 1.00000000 1.00000000
vt 0.00000000 1.00000000
vt 0.00000000 0.00000000
vt 0.50000000 1.00000000
vt 0.00000000 0.00000000
vt 1.00000000 0.00000000
vt 1.00000000 1.00000000
vt 0.00000000 1.00000000
vt 1.00000000 0.50000000
vt 0.00000000 1.00000000
vt 0.00000000 0.00000000
vt 1.00000000 0.00000000
vt 1.00000000 1.00000000
vt 0.50000000 1.00000000
vt 0.00000000 0.00000000
vt 1.00000000 0.00000000
vt 1.00000000 1.00000000
vt 0.00000000 1.00000000
vt 1.00000000 0.50000000
vt 0.00000000 1.00000000
vt 0.00000000 0.00000000
vt 1.00000000 0.50000000
vt 0.00000000 1.00000000
vt 0.00000000 0.00000000
vt 1.00000000 0.00000000
vt 1.00000000 1.00000000
vt 0.00000000 0.00000000
vt 1.00000000 0.00000000
vt 1.00000000 1.00000000
vt 0.00000000 1.00000000
vt 0.00000000 0.00000000
vt 1.00000000 0.50000000
vt 0.00000000 1.00000000
vt 0.83333333 0.50000000
vt 0.83333333 0.11111111
vt 0.58333333 0.11111111
vt 0.58333333 0.50000000
vt 0.41666667 0.50000000
vt 0.41666667 0.11111111
vt 0.16666667 0.11111111
vt 0.16666667 0.50000000
vt 0.00000000 0.50000000
vt 0.00000000 0.05555556
vt 0.08333333 0.00000000
vt 0.91666667 0.00000000
vt 1.00000000 0.05555556
vt 1.00000000 0.50000000
vt 0.58333333 0.88888889
vt 0.83333333 0.88888889
vt 1.00000000 0.94444444
vt 0.91666667 1.00000000
vt 0.08333333 1.00000000
vt 0.00000000 0.94444444
vt 0.16666667 0.88888889
vt 0.41666667 0.88888889
vt 0.00000000 0.00000000
vt 1.00000000 0.00000000
vt 1.00000000 1.00000000
vt 0.00000000 1.00000000
vt 1.00000000 0.50000000
vt 0.00000000 1.00000000
vt 0.00000000 0.00000000
vt 1.00000000 0.50000000
vt 1.00000000 0.00000000
vt 1.00000000 1.00000000
vt 0.00000000 0.50000000
vt 0.00000000 0.00000000
vt 1.00000000 0.00000000
vt 1.00000000 1.00000000
vt 0.00000000 1.00000000
vt 0.00000000 1.00000000
vt 0.00000000 0.00000000
vt 1.00000000 0.00000000
vt 1.00000000 1.00000000
vt 0.00000000 1.00000000
vt 0.00000000 0.00000000
vt 1.00000000 0.00000000
vt 1.00000000 1.00000000
vt 0.50000000 0.00000000
vt 0.00000000 1.00000000
vt 0.00000000 0.00000000
vt 1.00000000 0.50000000
vt 1.00000000 0.00000000
vt 1.00000000 1.00000000
vt 0.00000000 0.50000000
vt 0.00000000 0.00000000
vt 1.00000000 0.00000000
vt 1.00000000 1.00000000
vt 0.00000000 1.00000000
vt 0.00000000 1.00000000
vt 0.00000000 0.00000000
vt 1.00000000 0.00000000
vt 1.00000000 1.00000000
vn 0.70710678 -0.00000000 0.70710678
vn 0.70710678 -0.00000000 0.70710678
vn 0.70710678 -0.00000000 0.70710678
vn 0.70710678 -0.00000000 0.70710678
vn 0.70710678 -0.00000000 0.70710678
vn -0.00000000 -0.00000000 1.00000000
vn -0.00000000 -0.00000000 1.00000000
vn 0.00000000 -0.00000000 1.00000000
vn 0.00000000 -0.00000000 1.00000000
vn -0.00000000 -0.00000000 1.00000000
vn 0.77007615 -0.45110017 -0.45110017
vn 0.77007615 -0.45110017 -0.45110017
vn 0.77007615 -0.45110017 -0.45110017
vn 0.77007615 -0.45110017 -0.45110017
vn 0.70710678 0.00000000 -0.70710678
vn 0.70710678 0.00000000 -0.70710678
vn 0.70710678 0.00000000 -0.70710678
vn 0.70710678 0.00000000 -0.70710678
vn 0.70710678 0.00000000 -0.70710678
vn 0.70710678 0.00000000 -0.70710678
vn 0.77007615 0.45110017 -0.45110017
vn 0.77007615 0.45110017 -0.45110017
vn 0.77007615 0.45110017 -0.45110017
vn 0.77007615 0.45110017 -0.45110017
vn 0.70710678 0.70710678 0.00000000
vn 0.70710678 0.70710678 0.00000000
vn 0.70710678 0.70710678 0.00000000
vn 0.70710678 0.70710678 0.00000000
vn 0.70710678 -0.70710678 0.00000000
vn 0.70710678 -0.70710678 0.00000000
vn 0.70710678 -0.70710678 0.00000000
vn 0.70710678 -0.70710678 0.00000000
vn 0.77007615 0.45110017 0.45110017
vn 0.77007615 0.45110017 0.45110017
vn 0.77007615 0.45110017 0.45110017
vn 0.77007615 0.45110017 0.45110017
vn 0.70710678 -0.00000000 0.70710678
vn 0.70710678 -0.00000000 0.70710678
vn 0.70710678 -0.00000000 0.70710678
vn 0.70710678 -0.00000000 0.70710678
vn 0.70710678 -0.00000000 0.70710678
vn 0.70710678 -0.00000000 0.70710678
vn 1.00000000 0.00000000 0.00000000
vn 1.00000000 0.00000000 0.00000000
vn 1.00000000 0.00000000 0.00000000
vn 1.00000000 0.00000000 0.00000000
vn 1.00000000 0.00000000 0.00000000
vn 1.00000000 0.00000000 0.00000000
vn 1.00000000 0.00000000 0.00000000
vn 1.00000000 0.00000000 0.00000000
vn 1.00000000 0.00000000 0.00000000
vn 1.00000000 0.00000000 0.00000000
vn 1.00000000 0.00000000 0.00000000
vn 1.00000000 0.00000000 0.00000000
vn 1.00000000 0.00000000 0.00000000
vn 1.00000000 0.00000000 0.00000000
vn 1.00000000 0.00000000 0.00000000
vn 1.00000000 0.00000000 0.00000000
vn 1.00000000 0.00000000 0.00000000
vn 1.00000000 0.00000000 0.00000000
vn 1.00000000 0.00000000 0.00000000
vn 1.00000000 0.00000000 0.00000000
vn 1.00000000 0.00000000 0.00000000
vn 1.00000000 0.00000000 0.00000000
vn 1.00000000 0.00000000 0.00000000
vn 1.00000000 0.00000000 0.00000000
vn 1.00000000 0.00000000 0.00000000
vn 1.00000000 0.00000000 0.00000000
vn 1.00000000 0.00000000 0.00000000
vn 1.00000000 0.00000000 0.00000000
vn 1.00000000 0.00000000 0.00000000
vn 1.00000000 0.00000000 0.00000000
vn 0.57735027 0.57735027 -0.57735027
vn 0.57735027 0.57735027 -0.57735027
vn 0.57735027 0.57735027 -0.57735027
vn 0.70710678 0.70710678 0.00000000
vn 0.70710678 0.70710678 0.00000000
vn 0.70710678 0.70710678 0.00000000
vn 0.70710678 0.70710678 0.00000000
vn 0.00000000 1.00000000 -0.00000000
vn 0.00000000 1.00000000 -0.00000000
vn 0.00000000 1.00000000 -0.00000000
vn 0.00000000 1.00000000 -0.00000000
vn 0.57735027 0.57735027 0.57735027
vn 0.57735027 0.57735027 0.57735027
vn 0.57735027 0.57735027 0.57735027
vn 0.77007615 -0.45110017 0.45110017
vn 0.77007615 -0.45110017 0.45110017
vn 0.77007615 -0.45110017 0.45110017
vn 0.77007615 -0.45110017 0.45110017
vn 0.70710678 -0.00000000 -0.70710678
vn 0.70710678 -0.00000000 -0.70710678
vn 0.70710678 -0.00000000 -0.70710678
vn 0.70710678 -0.00000000 -0.70710678
vn 0.70710678 -0.00000000 -0.70710678
vn 0.00000000 0.00000000 -1.00000000
vn 0.00000000 0.00000000 -1.00000000
vn 0.00000000 0.00000000 -1.00000000
vn 0.00000000 0.00000000 -1.00000000
vn 0.00000000 0.00000000 -1.00000000
vn 0.70710678 -0.00000000 0.70710678
vn 0.70710678 -0.00000000 0.70710678
vn 0.70710678 -0.00000000 0.70710678
vn 0.70710678 -0.00000000 0.70710678
vn 0.70710678 -0.00000000 0.70710678
vn 0.00000000 -0.00000000 1.00000000
vn 0.00000000 -0.00000000 1.00000000
vn -0.00000000 -0.00000000 1.00000000
vn -0.00000000 -0.00000000 1.00000000
vn -0.00000000 -0.00000000 1.00000000
vn 0.57735027 -0.57735027 -0.57735027
vn 0.57735027 -0.57735027 -0.57735027
vn 0.57735027 -0.57735027 -0.57735027
vn 0.70710678 -0.70710678 0.00000000
vn 0.70710678 -0.70710678 0.00000000
vn 0.70710678 -0.70710678 0.00000000
vn 0.70710678 -0.70710678 0.00000000
vn 0.00000000 -1.00000000 -0.00000000
vn 0.00000000 -1.00000000 -0.00000000
vn 0.00000000 -1.00000000 -0.00000000
vn 0.00000000 -1.00000000 -0.00000000
vn 0.57735027 -0.57735027 0.57735027
vn 0.57735027 -0.57735027 0.57735027
vn 0.57735027 -0.57735027 0.57735027
vn -1.00000000 -0.00000000 -0.00000000
vn -1.00000000 -0.00000000 -0.00000000
vn -1.00000000 -0.00000000 -0.00000000
vn -1.00000000 -0.00000000 -0.00000000
vn -1.00000000 -0.00000000 -0.00000000
vn -1.00000000 -0.00000000 -0.00000000
vn -1.00000000 -0.00000000 -0.00000000
vn -1.00000000 -0.00000000 -0.00000000
vn -1.00000000 -0.00000000 -0.00000000
vn -1.00000000 -0.00000000 -0.00000000
vn -1.00000000 -0.00000000 -0.00000000
vn -1.00000000 -0.00000000 -0.00000000
vn -1.00000000 -0.00000000 -0.00000000
vn -1.00000000 -0.00000000 -0.00000000
vn -1.00000000 -0.00000000 -0.00000000
vn -1.00000000 -0.00000000 -0.00000000
vn -1.00000000 -0.00000000 -0.00000000
vn -1.00000000 -0.00000000 -0.00000000
vn -1.00000000 -0.00000000 -0.00000000
vn -1.00000000 -0.00000000 -0.00000000
vn -1.00000000 -0.00000000 -0.00000000
vn -1.00000000 -0.00000000 -0.00000000
vn 0.00000000 0.00000000 -1.00000000
vn 0.00000000 0.00000000 -1.00000000
vn 0.00000000 0.00000000 -1.00000000
vn 0.00000000 0.00000000 -1.00000000
vn 0.00000000 0.00000000 -1.00000000
vn 0.57735027 0.57735027 0.57735027
vn 0.57735027 0.57735027 0.57735027
vn 0.57735027 0.57735027 0.57735027
vn 0.57735027 0.57735027 -0.57735027
vn 0.57735027 0.57735027 -0.57735027
vn 0.57735027 0.57735027 -0.57735027
vn 0.00000000 1.00000000 -0.00000000
vn 0.00000000 1.00000000 -0.00000000
vn 0.00000000 1.00000000 -0.00000000
vn 0.00000000 1.00000000 -0.00000000
vn 0.70710678 0.70710678 0.00000000
vn 0.70710678 0.70710678 0.00000000
vn 0.70710678 0.70710678 0.00000000
vn 0.70710678 0.70710678 0.00000000
vn 0.70710678 0.00000000 -0.70710678
vn 0.70710678 0.00000000 -0.70710678
vn 0.70710678 0.00000000 -0.70710678
vn 0.70710678 0.00000000 -0.70710678
vn 0.70710678 0.00000000 -0.70710678
vn 0.57735027 -0.57735027 0.57735027
vn 0.57735027 -0.57735027 0.57735027
vn 0.57735027 -0.57735027 0.57735027
vn 0.57735027 -0.57735027 -0.57735027
vn 0.57735027 -0.57735027 -0.57735027
vn 0.57735027 -0.57735027 -0.57735027
vn 0.00000000 -1.00000000 -0.00000000
vn 0.00000000 -1.00000000 -0.00000000
vn 0.00000000 -1.00000000 -0.00000000
vn 0.00000000 -1.00000000 -0.00000000
vn 0.70710678 -0.70710678 0.00000000
vn 0.70710678 -0.70710678 0.00000000
vn 0.70710678 -0.70710678 0.00000000
vn 0.70710678 -0.70710678 0.00000000
s 1
usemtl Metal_Blue
f 13/29/29 11/27/27 12/28/28
f 9/25/25 13/29/29 12/28/28
f 9/25/25 10/26/26 13/29/29
s 2
f 12/32/32 15/33/33 16/34/34
f 16/34/34 14/30/30 9/31/31
f 9/31/31 12/32/32 16/34/34
s 3
f 20/38/38 19/37/37 18/36/36
f 20/38/38 18/36/36 17/35/35
s 4
f 21/41/41 22/42/42 24/44/44
f 20/40/40 23/43/43 24/44/44
f 24/44/44 19/39/39 20/40/40
f 23/43/43 21/41/41 24/44/44
s 5
f 25/45/45 26/46/46 22/47/47
f 25/45/45 22/47/47 21/48/48
s 6
f 26/49/49 25/50/50 28/52/52
f 25/50/50 27/51/51 28/52/52
s 7
f 30/56/56 17/55/55 29/53/53
f 17/55/55 18/54/54 29/53/53
s 8
f 32/60/60 31/59/59 27/57/57
f 31/59/59 28/58/58 27/57/57
s 9
f 35/65/65 31/63/63 32/64/64
f 33/61/61 35/65/65 36/66/66
f 35/65/65 32/64/64 36/66/66
f 33/61/61 34/62/62 35/65/65
s 10
f 35/79/79 46/78/78 45/77/77
f 31/80/80 45/77/77 44/76/76
f 28/81/81 44/76/76 43/75/75
f 43/75/75 42/74/74 38/70/70
f 38/70/70 37/69/69 26/82/82
f 37/69/69 22/83/83 26/82/82
f 11/68/68 24/84/84 22/83/83
f 19/89/89 24/84/84 10/88/88
f 18/90/90 19/89/89 49/87/87
f 29/91/91 18/90/90 48/86/86
f 48/86/86 53/96/96 52/95/95
f 47/85/85 40/72/72 53/96/96
f 40/72/72 41/73/73 53/96/96
f 48/86/86 47/85/85 53/96/96
f 48/86/86 52/95/95 29/91/91
f 52/95/95 51/94/94 29/91/91
f 51/94/94 50/93/93 34/92/92
f 51/94/94 34/92/92 29/91/91
f 18/90/90 49/87/87 48/86/86
f 19/89/89 10/88/88 49/87/87
f 24/84/84 13/67/67 10/88/88
f 11/68/68 13/67/67 24/84/84
f 37/69/69 11/68/68 22/83/83
f 42/74/74 39/71/71 38/70/70
f 42/74/74 40/72/72 39/71/71
f 42/74/74 41/73/73 40/72/72
f 26/82/82 28/81/81 38/70/70
f 28/81/81 43/75/75 38/70/70
f 28/81/81 31/80/80 44/76/76
f 50/93/93 35/79/79 34/92/92
f 50/93/93 46/78/78 35/79/79
f 31/80/80 35/79/79 45/77/77
s 11
f 50/99/99 51/98/98 54/97/97
s 12
f 52/103/103 55/102/102 51/100/100
f 55/102/102 54/101/101 51/100/100
s 13
f 55/107/107 57/106/106 54/104/104
f 57/106/106 56/105/105 54/104/104
s 14
f 52/110/110 53/109/109 55/108/108
s 15
f 30/111/111 29/112/112 33/114/114
f 29/112/112 34/113/113 33/114/114
s 16
f 58/115/115 45/116/116 46/119/119
f 46/119/119 50/117/117 54/118/118
f 58/115/115 46/119/119 54/118/118
s 17
f 60/124/124 59/121/121 58/120/120
f 54/123/123 60/124/124 58/120/120
f 54/123/123 56/122/122 60/124/124
s 18
f 41/129/129 42/125/125 61/126/126
f 61/126/126 55/127/127 41/129/129
f 55/127/127 53/128/128 41/129/129
s 19
f 61/130/130 62/131/131 63/134/134
f 63/134/134 57/132/132 55/133/133
f 61/130/130 63/134/134 55/133/133
s 20
f 58/135/135 44/136/136 45/137/137
s 21
f 44/138/138 58/139/139 43/141/141
f 58/139/139 61/140/140 43/141/141
s 22
f 58/142/142 59/143/143 61/145/145
f 59/143/143 62/144/144 61/145/145
s 23
f 61/146/146 42/147/147 43/148/148
s 24
f 59/155/155 60/156/156 36/157/157
f 33/168/168 36/157/157 56/169/169
f 30/167/167 56/169/169 57/170/170
f 66/163/163 17/166/166 57/170/170
f 14/164/164 20/165/165 17/166/166
f 14/164/164 23/162/162 20/165/165
f 21/161/161 23/162/162 15/150/150
f 25/160/160 15/150/150 64/151/151
f 64/151/151 65/152/152 62/154/154
f 65/152/152 63/153/153 62/154/154
f 64/151/151 62/154/154 25/160/160
f 62/154/154 27/159/159 25/160/160
f 25/160/160 21/161/161 15/150/150
f 23/162/162 16/149/149 15/150/150
f 14/164/164 16/149/149 23/162/162
f 66/163/163 14/164/164 17/166/166
f 57/170/170 65/152/152 66/163/163
f 57/170/170 63/153/153 65/152/152
f 17/166/166 30/167/167 57/170/170
f 30/167/167 33/168/168 56/169/169
f 36/157/157 60/156/156 56/169/169
f 62/154/154 59/155/155 27/159/159
f 59/155/155 32/158/158 27/159/159
f 59/155/155 36/157/157 32/158/158
s 25
f 65/175/175 64/172/172 67/171/171
f 68/174/174 65/175/175 67/171/171
f 68/174/174 66/173/173 65/175/175
s 26
f 9/176/176 49/177/177 10/178/178
s 27
f 47/181/181 48/180/180 68/179/179
s 28
f 9/182/182 14/183/183 68/185/185
f 14/183/183 66/184/184 68/185/185
s 29
f 68/189/189 48/188/188 49/187/187
f 68/189/189 49/187/187 9/186/186
s 30
f 67/190/190 39/191/191 40/194/194
f 40/194/194 47/192/192 68/193/193
f 67/190/190 40/194/194 68/193/193
s 31
f 11/197/197 37/196/196 12/195/195
s 32
f 67/198/198 38/199/199 39/200/200
s 33
f 67/204/204 64/203/203 12/201/201
f 64/203/203 15/202/202 12/201/201
s 34
f 12/205/205 37/206/206 38/207/207
f 12/205/205 38/207/207 67/208/208
