mtllib Spacestation_Structure_Ribbed_Straight_Horizontal.mtl
o object1
g object1
v 0.50000000 0.80000000 -0.43333333
v 0.50000000 0.80000000 -0.50000000
v -0.50000000 0.80000000 -0.50000000
v -0.50000000 0.80000000 -0.43333333
v 0.50000000 0.80000000 0.23333333
v 0.50000000 0.80000000 0.10000000
v 0.50000000 0.75000000 -0.00000000
v 0.50000000 0.80000000 -0.10000000
v 0.50000000 0.80000000 -0.23333333
v 0.50000000 0.75000000 -0.33333333
v 0.50000000 -0.00000000 -0.50000000
v 0.50000000 -0.00000000 0.50000000
v 0.50000000 0.80000000 0.50000000
v 0.50000000 0.80000000 0.43333333
v 0.50000000 0.75000000 0.33333333
v -0.50000000 0.75000000 0.00000000
v -0.50000000 0.80000000 -0.10000000
v -0.50000000 0.80000000 -0.23333333
v -0.50000000 0.75000000 -0.33333333
v -0.50000000 0.00000000 0.50000000
v -0.50000000 0.00000000 -0.50000000
v -0.50000000 0.80000000 0.50000000
v -0.50000000 0.80000000 0.43333333
v -0.50000000 0.75000000 0.33333333
v -0.50000000 0.80000000 0.23333333
v -0.50000000 0.80000000 0.10000000
vt 0.00000000 1.00000000
vt 0.00000000 0.00000000
vt 1.00000000 0.00000000
vt 1.00000000 1.00000000
vt 0.26666667 0.00000000
vt 0.40000000 0.00000000
vt 0.50000000 0.06250000
vt 0.60000000 0.00000000
vt 0.73333333 0.00000000
vt 0.83333333 0.06250000
vt 0.93333333 0.00000000
vt 1.00000000 0.00000000
vt 1.00000000 1.00000000
vt 0.00000000 1.00000000
vt 0.00000000 0.00000000
vt 0.06666667 0.00000000
vt 0.16666667 0.06250000
vt 0.00000000 1.00000000
vt 0.00000000 0.00000000
vt 1.00000000 0.00000000
vt 1.00000000 1.00000000
vt 0.00000000 1.00000000
vt 0.00000000 0.00000000
vt 1.00000000 0.00000000
vt 1.00000000 1.00000000
vt 0.00000000 1.00000000
vt 0.00000000 0.00000000
vt 1.00000000 0.00000000
vt 1.00000000 1.00000000
vt 0.00000000 0.00000000
vt 1.00000000 0.00000000
vt 1.00000000 1.00000000
vt 0.00000000 1.00000000
vt 1.00000000 1.00000000
vt 0.00000000 1.00000000
vt 0.00000000 0.00000000
vt 1.00000000 0.00000000
vt 0.00000000 1.00000000
vt 0.00000000 0.00000000
vt 1.00000000 0.00000000
vt 1.00000000 1.00000000
vt 0.00000000 1.00000000
vt 0.00000000 0.00000000
vt 1.00000000 0.00000000
vt 1.00000000 1.00000000
vt 0.00000000 1.00000000
vt 0.00000000 0.00000000
vt 1.00000000 0.00000000
vt 1.00000000 1.00000000
vt 0.00000000 1.00000000
vt 0.00000000 0.00000000
vt 1.00000000 0.00000000
vt 1.00000000 1.00000000
vt 0.00000000 1.00000000
vt 0.00000000 0.00000000
vt 1.00000000 0.00000000
vt 1.00000000 1.00000000
vt 0.00000000 1.00000000
vt 0.00000000 0.00000000
vt 1.00000000 0.00000000
vt 1.00000000 1.00000000
vt 0.26666667 0.00000000
vt 0.40000000 0.00000000
vt 0.50000000 0.06250000
vt 0.60000000 0.00000000
vt 0.73333333 0.00000000
vt 0.83333333 0.06250000
vt 0.93333333 0.00000000
vt 1.00000000 0.00000000
vt 1.00000000 1.00000000
vt 0.00000000 1.00000000
vt 0.00000000 0.00000000
vt 0.06666667 0.00000000
vt 0.16666667 0.06250000
vt 1.00000000 1.00000000
vt 0.00000000 1.00000000
vt 0.00000000 0.00000000
vt 1.00000000 0.00000000
vn 0.00000000 1.00000000 -0.00000000
vn 0.00000000 1.00000000 -0.00000000
vn 0.00000000 1.00000000 -0.00000000
vn 0.00000000 1.00000000 -0.00000000
vn 1.00000000 -0.00000000 -0.00000000
vn 1.00000000 -0.00000000 -0.00000000
vn 1.00000000 -0.00000000 -0.00000000
vn 1.00000000 -0.00000000 -0.00000000
vn 1.00000000 -0.00000000 -0.00000000
vn 1.00000000 -0.00000000 -0.00000000
vn 1.00000000 -0.00000000 -0.00000000
vn 1.00000000 -0.00000000 -0.00000000
vn 1.00000000 -0.00000000 -0.00000000
vn 1.00000000 -0.00000000 -0.00000000
vn 1.00000000 -0.00000000 -0.00000000
vn 1.00000000 -0.00000000 -0.00000000
vn 1.00000000 -0.00000000 -0.00000000
vn 0.00000000 0.89442719 0.44721360
vn 0.00000000 0.89442719 0.44721360
vn 0.00000000 0.89442719 0.44721360
vn 0.00000000 0.89442719 0.44721360
vn 0.00000000 1.00000000 -0.00000000
vn 0.00000000 1.00000000 -0.00000000
vn 0.00000000 1.00000000 -0.00000000
vn 0.00000000 1.00000000 -0.00000000
vn 0.00000000 0.89442719 -0.44721360
vn 0.00000000 0.89442719 -0.44721360
vn 0.00000000 0.89442719 -0.44721360
vn 0.00000000 0.89442719 -0.44721360
vn -0.00000000 -1.00000000 0.00000000
vn -0.00000000 -1.00000000 0.00000000
vn -0.00000000 -1.00000000 0.00000000
vn -0.00000000 -1.00000000 0.00000000
vn 0.00000000 0.00000000 1.00000000
vn 0.00000000 0.00000000 1.00000000
vn 0.00000000 0.00000000 1.00000000
vn 0.00000000 0.00000000 1.00000000
vn 0.00000000 1.00000000 -0.00000000
vn 0.00000000 1.00000000 -0.00000000
vn 0.00000000 1.00000000 -0.00000000
vn 0.00000000 1.00000000 -0.00000000
vn 0.00000000 0.89442719 -0.44721360
vn 0.00000000 0.89442719 -0.44721360
vn 0.00000000 0.89442719 -0.44721360
vn 0.00000000 0.89442719 -0.44721360
vn 0.00000000 0.89442719 0.44721360
vn 0.00000000 0.89442719 0.44721360
vn 0.00000000 0.89442719 0.44721360
vn 0.00000000 0.89442719 0.44721360
vn 0.00000000 1.00000000 -0.00000000
vn 0.00000000 1.00000000 -0.00000000
vn 0.00000000 1.00000000 -0.00000000
vn 0.00000000 1.00000000 -0.00000000
vn 0.00000000 0.89442719 -0.44721360
vn 0.00000000 0.89442719 -0.44721360
vn 0.00000000 0.89442719 -0.44721360
vn 0.00000000 0.89442719 -0.44721360
vn 0.00000000 0.89442719 0.44721360
vn 0.00000000 0.89442719 0.44721360
vn 0.00000000 0.89442719 0.44721360
vn 0.00000000 0.89442719 0.44721360
vn -1.00000000 0.00000000 0.00000000
vn -1.00000000 0.00000000 0.00000000
vn -1.00000000 0.00000000 0.00000000
vn -1.00000000 0.00000000 0.00000000
vn -1.00000000 0.00000000 0.00000000
vn -1.00000000 0.00000000 0.00000000
vn -1.00000000 0.00000000 0.00000000
vn -1.00000000 0.00000000 0.00000000
vn -1.00000000 0.00000000 0.00000000
vn -1.00000000 0.00000000 0.00000000
vn -1.00000000 0.00000000 0.00000000
vn -1.00000000 0.00000000 0.00000000
vn -1.00000000 0.00000000 0.00000000
vn -0.00000000 -0.00000000 -1.00000000
vn -0.00000000 -0.00000000 -1.00000000
vn -0.00000000 -0.00000000 -1.00000000
vn -0.00000000 -0.00000000 -1.00000000
s 1
usemtl Metal_Blue
f 1/1/1 2/2/2 4/4/4
f 2/2/2 3/3/3 4/4/4
s 2
f 6/6/6 5/5/5 15/17/17
f 15/17/17 13/15/15 11/13/13
f 11/13/13 10/10/10 7/7/7
f 9/9/9 8/8/8 7/7/7
f 2/12/12 1/11/11 10/10/10
f 10/10/10 9/9/9 7/7/7
f 11/13/13 2/12/12 10/10/10
f 13/15/15 12/14/14 11/13/13
f 15/17/17 14/16/16 13/15/15
f 11/13/13 7/7/7 15/17/17
f 7/7/7 6/6/6 15/17/17
s 3
f 17/21/21 16/20/20 8/18/18
f 16/20/20 7/19/19 8/18/18
s 4
f 8/22/22 9/23/23 18/24/24
f 8/22/22 18/24/24 17/25/25
s 5
f 19/29/29 18/28/28 9/27/27
f 19/29/29 9/27/27 10/26/26
s 6
f 11/30/30 12/31/31 20/32/32
f 11/30/30 20/32/32 21/33/33
s 7
f 12/34/34 13/35/35 20/37/37
f 13/35/35 22/36/36 20/37/37
s 8
f 13/38/38 14/39/39 22/41/41
f 14/39/39 23/40/40 22/41/41
s 9
f 24/45/45 23/44/44 14/43/43
f 24/45/45 14/43/43 15/42/42
s 10
f 25/49/49 24/48/48 5/46/46
f 24/48/48 15/47/47 5/46/46
s 11
f 5/50/50 6/51/51 26/52/52
f 5/50/50 26/52/52 25/53/53
s 12
f 16/57/57 26/56/56 6/55/55
f 16/57/57 6/55/55 7/54/54
s 13
f 4/61/61 19/60/60 1/58/58
f 19/60/60 10/59/59 1/58/58
s 14
f 24/74/74 25/62/62 26/63/63
f 20/71/71 24/74/74 16/64/64
f 16/64/64 18/66/66 19/67/67
f 19/67/67 4/68/68 3/69/69
f 16/64/64 17/65/65 18/66/66
f 19/67/67 3/69/69 20/71/71
f 20/71/71 16/64/64 19/67/67
f 3/69/69 21/70/70 20/71/71
f 20/71/71 22/72/72 24/74/74
f 22/72/72 23/73/73 24/74/74
f 24/74/74 26/63/63 16/64/64
s 15
f 21/78/78 3/77/77 2/76/76
f 21/78/78 2/76/76 11/75/75
