mtllib Spacestation_Structure_Fuselage_Curved_Outer_Band.mtl
o object1
g object1
v 0.84386688 0.22500000 -0.27588190
v 1.05176381 0.22500000 0.50000000
v 1.10352762 0.17500000 0.50000000
v 0.88869565 0.17500000 -0.30176381
v -0.50000000 0.22500000 -1.05176381
v 0.27588190 0.22500000 -0.84386688
v -0.50000000 0.22500000 0.50000000
v -0.50000000 0.17500000 -1.10352762
v -0.50000000 -0.17500000 -1.10352762
v -0.50000000 -0.22500000 -1.05176381
v -0.50000000 -0.22500000 0.50000000
v 0.27588190 -0.22500000 -0.84386688
v 0.84386688 -0.22500000 -0.27588190
v 1.05176381 -0.22500000 0.50000000
v 0.88869565 -0.17500000 -0.30176381
v 1.10352762 -0.17500000 0.50000000
v 0.30176381 -0.17500000 -0.88869565
v 0.30176381 0.17500000 -0.88869565
vt 0.01614060 0.00000000
vt 0.98385940 0.00000000
vt 1.00000000 1.00000000
vt 0.00000000 1.00000000
vt 1.00000000 0.00000000
vt 0.86602540 0.50000000
vt 0.50000000 0.86602540
vt 0.00000000 1.00000000
vt 0.00000000 0.00000000
vt 0.00000000 1.00000000
vt 0.00000000 0.03228121
vt 0.11111111 0.00000000
vt 0.88888889 0.00000000
vt 1.00000000 0.03228121
vt 1.00000000 1.00000000
vt 1.00000000 0.00000000
vt 0.86602540 0.50000000
vt 0.50000000 0.86602540
vt 0.00000000 1.00000000
vt 0.00000000 0.00000000
vt 0.00000000 0.00000000
vt 1.00000000 0.00000000
vt 0.98385940 1.00000000
vt 0.01614060 1.00000000
vt 0.00000000 0.00000000
vt 1.00000000 0.00000000
vt 0.98385940 1.00000000
vt 0.01614060 1.00000000
vt 0.00000000 1.00000000
vt 0.00000000 0.00000000
vt 1.00000000 0.00000000
vt 1.00000000 1.00000000
vt 0.98385940 1.00000000
vt 0.01614060 1.00000000
vt 0.00000000 0.00000000
vt 1.00000000 0.00000000
vt 0.00000000 1.00000000
vt 0.00000000 0.00000000
vt 1.00000000 0.00000000
vt 1.00000000 1.00000000
vt 1.00000000 1.00000000
vt 0.00000000 1.00000000
vt 0.01614060 0.00000000
vt 0.98385940 0.00000000
vt 0.01614060 0.00000000
vt 0.98385940 0.00000000
vt 1.00000000 1.00000000
vt 0.00000000 1.00000000
vt 1.00000000 0.00000000
vt 1.00000000 1.00000000
vt 0.00000000 1.00000000
vt 0.00000000 0.00000000
vt 1.00000000 0.03228121
vt 1.00000000 1.00000000
vt 0.00000000 1.00000000
vt 0.00000000 0.03228121
vt 0.11111111 0.00000000
vt 0.88888889 0.00000000
vn 0.68301270 0.70710678 -0.18301270
vn 0.68301270 0.70710678 -0.18301270
vn 0.68301270 0.70710678 -0.18301270
vn 0.68301270 0.70710678 -0.18301270
vn -0.00000000 1.00000000 0.00000000
vn -0.00000000 1.00000000 0.00000000
vn -0.00000000 1.00000000 0.00000000
vn -0.00000000 1.00000000 0.00000000
vn -0.00000000 1.00000000 0.00000000
vn -1.00000000 0.00000000 0.00000000
vn -1.00000000 0.00000000 0.00000000
vn -1.00000000 0.00000000 0.00000000
vn -1.00000000 0.00000000 0.00000000
vn -1.00000000 0.00000000 0.00000000
vn -1.00000000 0.00000000 0.00000000
vn 0.00000000 -1.00000000 -0.00000000
vn 0.00000000 -1.00000000 -0.00000000
vn 0.00000000 -1.00000000 -0.00000000
vn 0.00000000 -1.00000000 -0.00000000
vn 0.00000000 -1.00000000 -0.00000000
vn 0.68301270 -0.70710678 -0.18301270
vn 0.68301270 -0.70710678 -0.18301270
vn 0.68301270 -0.70710678 -0.18301270
vn 0.68301270 -0.70710678 -0.18301270
vn 0.50000000 -0.70710678 -0.50000000
vn 0.50000000 -0.70710678 -0.50000000
vn 0.50000000 -0.70710678 -0.50000000
vn 0.50000000 -0.70710678 -0.50000000
vn 0.70710678 -0.00000000 -0.70710678
vn 0.70710678 -0.00000000 -0.70710678
vn 0.70710678 -0.00000000 -0.70710678
vn 0.70710678 -0.00000000 -0.70710678
vn 0.18301270 -0.70710678 -0.68301270
vn 0.18301270 -0.70710678 -0.68301270
vn 0.18301270 -0.70710678 -0.68301270
vn 0.18301270 -0.70710678 -0.68301270
vn 0.25881905 0.00000000 -0.96592583
vn 0.25881905 0.00000000 -0.96592583
vn 0.25881905 0.00000000 -0.96592583
vn 0.25881905 0.00000000 -0.96592583
vn 0.18301270 0.70710678 -0.68301270
vn 0.18301270 0.70710678 -0.68301270
vn 0.18301270 0.70710678 -0.68301270
vn 0.18301270 0.70710678 -0.68301270
vn 0.50000000 0.70710678 -0.50000000
vn 0.50000000 0.70710678 -0.50000000
vn 0.50000000 0.70710678 -0.50000000
vn 0.50000000 0.70710678 -0.50000000
vn 0.96592583 0.00000000 -0.25881905
vn 0.96592583 0.00000000 -0.25881905
vn 0.96592583 0.00000000 -0.25881905
vn 0.96592583 0.00000000 -0.25881905
vn 0.00000000 0.00000000 1.00000000
vn 0.00000000 0.00000000 1.00000000
vn 0.00000000 0.00000000 1.00000000
vn 0.00000000 0.00000000 1.00000000
vn 0.00000000 0.00000000 1.00000000
vn 0.00000000 0.00000000 1.00000000
s 1
usemtl Metal_Blue_Dark
f 1/1/1 2/2/2 3/3/3
f 1/1/1 3/3/3 4/4/4
s 2
f 2/8/8 1/7/7 6/6/6
f 6/6/6 5/5/5 7/9/9
f 7/9/9 2/8/8 6/6/6
s 3
f 10/14/14 11/15/15 7/10/10
f 5/11/11 9/13/13 10/14/14
f 5/11/11 8/12/12 9/13/13
f 10/14/14 7/10/10 5/11/11
s 4
f 12/17/17 13/18/18 14/19/19
f 12/17/17 14/19/19 11/20/20
f 11/20/20 10/16/16 12/17/17
s 5
f 15/21/21 16/22/22 13/24/24
f 16/22/22 14/23/23 13/24/24
s 6
f 17/25/25 15/26/26 12/28/28
f 15/26/26 13/27/27 12/28/28
s 7
f 15/29/29 17/30/30 4/32/32
f 17/30/30 18/31/31 4/32/32
s 8
f 12/33/33 10/34/34 9/35/35
f 12/33/33 9/35/35 17/36/36
s 9
f 17/37/37 9/38/38 18/40/40
f 9/38/38 8/39/39 18/40/40
s 10
f 18/41/41 8/42/42 6/44/44
f 8/42/42 5/43/43 6/44/44
s 11
f 6/45/45 1/46/46 4/47/47
f 6/45/45 4/47/47 18/48/48
s 12
f 4/49/49 3/50/50 16/51/51
f 4/49/49 16/51/51 15/52/52
s 13
f 2/56/56 7/55/55 11/54/54
f 16/58/58 2/56/56 14/53/53
f 16/58/58 3/57/57 2/56/56
f 2/56/56 11/54/54 14/53/53
