mtllib Spacestation_Structure_Ribbed_Straight.mtl
o object1
g object1
v -0.13449504 0.75000000 -0.00000000
v -0.50000000 0.75000000 -0.00000000
v -0.50000000 0.80000000 0.10000000
v -0.12769840 0.80000000 0.10000000
v -0.12769840 0.80000000 -0.10000000
v -0.50000000 0.80000000 -0.10000000
v -0.50000000 0.80000000 -0.23333333
v -0.12769840 0.80000000 -0.23333333
v -0.13449504 0.75000000 -0.33333333
v -0.50000000 0.75000000 -0.33333333
v -0.12769840 0.80000000 -0.43333333
v -0.50000000 0.80000000 -0.43333333
v -0.50000000 0.80000000 -0.50000000
v -0.12769840 0.80000000 -0.50000000
v 0.65144958 0.34913025 -0.50000000
v -0.07624882 0.78574929 -0.50000000
v -0.50000000 -0.00000000 -0.50000000
v 0.70000000 -0.00000000 -0.50000000
v 0.70000000 0.26338096 -0.50000000
v 0.70000000 -0.00000000 -0.43333333
v 0.65000000 -0.00000000 -0.33333333
v 0.70000000 -0.00000000 -0.23333333
v 0.70000000 -0.00000000 -0.10000000
v 0.65000000 -0.00000000 0.00000000
v 0.70000000 -0.00000000 0.10000000
v 0.70000000 -0.00000000 0.23333333
v 0.65000000 -0.00000000 0.33333333
v 0.70000000 -0.00000000 0.43333333
v 0.70000000 -0.00000000 0.50000000
v -0.50000000 -0.00000000 0.50000000
v 0.65000000 0.25020861 -0.33333333
v 0.70000000 0.26338096 -0.43333333
v 0.61442958 0.31303273 -0.33333333
v 0.65144958 0.34913025 -0.43333333
v 0.65144958 0.34913025 -0.23333333
v 0.70000000 0.26338096 -0.23333333
v 0.70000000 0.26338096 -0.10000000
v 0.65144958 0.34913025 -0.10000000
v 0.61442958 0.31303273 -0.00000000
v 0.65000000 0.25020861 -0.00000000
v 0.65144958 0.34913025 0.10000000
v 0.70000000 0.26338096 0.10000000
v 0.70000000 0.26338096 0.23333333
v 0.65144958 0.34913025 0.23333333
v 0.61442958 0.31303273 0.33333333
v 0.65000000 0.25020861 0.33333333
v 0.65144958 0.34913025 0.43333333
v 0.70000000 0.26338096 0.43333333
v 0.65144958 0.34913025 0.50000000
v 0.70000000 0.26338096 0.50000000
v -0.07624882 0.78574929 0.43333333
v -0.07624882 0.78574929 0.50000000
v -0.12769840 0.80000000 0.43333333
v -0.12769840 0.80000000 0.50000000
v -0.09614553 0.73937780 0.33333333
v -0.13449504 0.75000000 0.33333333
v -0.07624882 0.78574929 0.23333333
v -0.12769840 0.80000000 0.23333333
v -0.50000000 0.75000000 0.33333333
v -0.50000000 0.80000000 0.23333333
v -0.07624882 0.78574929 0.10000000
v -0.50000000 0.80000000 0.43333333
v -0.50000000 0.80000000 0.50000000
v -0.09614553 0.73937780 -0.00000000
v -0.07624882 0.78574929 -0.10000000
v -0.07624882 0.78574929 -0.23333333
v -0.09614553 0.73937780 -0.33333333
v -0.07624882 0.78574929 -0.43333333
vt 1.00000000 0.00000000
vt 1.00000000 1.00000000
vt 0.00000000 1.00000000
vt 0.00000000 0.00000000
vt 0.00000000 1.00000000
vt 0.00000000 0.00000000
vt 1.00000000 0.00000000
vt 1.00000000 1.00000000
vt 1.00000000 0.00000000
vt 1.00000000 1.00000000
vt 0.00000000 1.00000000
vt 0.00000000 0.00000000
vt 1.00000000 0.00000000
vt 1.00000000 1.00000000
vt 0.00000000 1.00000000
vt 0.00000000 0.00000000
vt 0.00000000 1.00000000
vt 0.00000000 0.00000000
vt 1.00000000 0.00000000
vt 1.00000000 1.00000000
vt 0.00000000 1.00000000
vt 0.00000000 0.00000000
vt 1.00000000 0.00000000
vt 1.00000000 1.00000000
vt 0.56358718 0.95954131
vt 0.01781338 0.35312598
vt 0.00000000 0.31025134
vt 0.00000000 0.00000000
vt 1.00000000 0.00000000
vt 1.00000000 1.00000000
vt 0.67077380 1.00000000
vt 0.06666667 0.00000000
vt 0.16666667 0.04166667
vt 0.26666667 0.00000000
vt 0.40000000 0.00000000
vt 0.50000000 0.04166667
vt 0.60000000 0.00000000
vt 0.73333333 0.00000000
vt 0.83333333 0.04166667
vt 0.93333333 0.00000000
vt 1.00000000 0.00000000
vt 1.00000000 1.00000000
vt 0.00000000 1.00000000
vt 0.00000000 0.00000000
vt 0.00000000 1.00000000
vt 0.00000000 0.00000000
vt 1.00000000 0.00000000
vt 1.00000000 1.00000000
vt 0.00000000 1.00000000
vt 0.00000000 0.00000000
vt 1.00000000 0.00000000
vt 1.00000000 1.00000000
vt 1.00000000 0.00000000
vt 1.00000000 1.00000000
vt 0.00000000 1.00000000
vt 0.00000000 0.00000000
vt 1.00000000 0.00000000
vt 1.00000000 1.00000000
vt 0.00000000 1.00000000
vt 0.00000000 0.00000000
vt 0.00000000 1.00000000
vt 0.00000000 0.00000000
vt 1.00000000 0.00000000
vt 1.00000000 1.00000000
vt 1.00000000 0.00000000
vt 1.00000000 1.00000000
vt 0.00000000 1.00000000
vt 0.00000000 0.00000000
vt 0.00000000 1.00000000
vt 0.00000000 0.00000000
vt 1.00000000 0.00000000
vt 1.00000000 1.00000000
vt 0.00000000 1.00000000
vt 0.00000000 0.00000000
vt 1.00000000 0.00000000
vt 1.00000000 1.00000000
vt 1.00000000 0.00000000
vt 1.00000000 1.00000000
vt 0.00000000 1.00000000
vt 0.00000000 0.00000000
vt 1.00000000 0.00000000
vt 1.00000000 1.00000000
vt 0.00000000 1.00000000
vt 0.00000000 0.00000000
vt 0.00000000 1.00000000
vt 0.00000000 0.00000000
vt 1.00000000 0.00000000
vt 1.00000000 1.00000000
vt 1.00000000 0.00000000
vt 1.00000000 1.00000000
vt 0.00000000 1.00000000
vt 0.00000000 0.00000000
vt 1.00000000 0.00000000
vt 1.00000000 1.00000000
vt 0.00000000 1.00000000
vt 0.00000000 0.00000000
vt 0.00000000 1.00000000
vt 0.00000000 0.00000000
vt 1.00000000 0.00000000
vt 1.00000000 1.00000000
vt 0.00000000 1.00000000
vt 0.00000000 0.00000000
vt 1.00000000 0.00000000
vt 1.00000000 1.00000000
vt 0.00000000 1.00000000
vt 0.00000000 0.00000000
vt 1.00000000 0.00000000
vt 1.00000000 1.00000000
vt 1.00000000 0.00000000
vt 1.00000000 1.00000000
vt 0.00000000 1.00000000
vt 0.00000000 0.00000000
vt 1.00000000 0.00000000
vt 1.00000000 1.00000000
vt 0.00000000 1.00000000
vt 0.00000000 0.00000000
vt 1.00000000 0.00000000
vt 1.00000000 1.00000000
vt 0.00000000 1.00000000
vt 0.00000000 0.00000000
vt 0.00000000 1.00000000
vt 0.00000000 0.00000000
vt 1.00000000 0.00000000
vt 1.00000000 1.00000000
vt 1.00000000 0.00000000
vt 1.00000000 1.00000000
vt 0.00000000 1.00000000
vt 0.00000000 0.00000000
vt 1.00000000 0.00000000
vt 1.00000000 1.00000000
vt 0.00000000 1.00000000
vt 0.00000000 0.00000000
vt 0.00000000 1.00000000
vt 0.00000000 0.00000000
vt 1.00000000 0.00000000
vt 1.00000000 1.00000000
vt 0.00000000 1.00000000
vt 0.00000000 0.00000000
vt 1.00000000 0.00000000
vt 1.00000000 1.00000000
vt 1.00000000 0.00000000
vt 1.00000000 1.00000000
vt 0.00000000 1.00000000
vt 0.00000000 0.00000000
vt 0.00000000 1.00000000
vt 0.00000000 0.00000000
vt 1.00000000 0.00000000
vt 1.00000000 1.00000000
vt 0.56358718 0.95954131
vt 0.01781338 0.35312598
vt 0.00000000 0.31025134
vt 0.00000000 0.00000000
vt 1.00000000 0.00000000
vt 1.00000000 1.00000000
vt 0.67077380 1.00000000
vt 1.00000000 0.00000000
vt 1.00000000 1.00000000
vt 0.00000000 1.00000000
vt 0.00000000 0.00000000
vt 1.00000000 0.00000000
vt 1.00000000 1.00000000
vt 0.00000000 1.00000000
vt 0.00000000 0.00000000
vt 0.00000000 1.00000000
vt 0.00000000 0.00000000
vt 1.00000000 0.00000000
vt 1.00000000 1.00000000
vt 0.00000000 1.00000000
vt 0.00000000 0.00000000
vt 1.00000000 0.00000000
vt 1.00000000 1.00000000
vt 1.00000000 0.00000000
vt 1.00000000 1.00000000
vt 0.00000000 1.00000000
vt 0.00000000 0.00000000
vt 0.00000000 1.00000000
vt 0.00000000 0.00000000
vt 1.00000000 0.00000000
vt 1.00000000 1.00000000
vt 1.00000000 0.00000000
vt 1.00000000 1.00000000
vt 0.00000000 1.00000000
vt 0.00000000 0.00000000
vt 1.00000000 0.00000000
vt 1.00000000 1.00000000
vt 0.00000000 1.00000000
vt 0.00000000 0.00000000
vt 0.00000000 1.00000000
vt 0.00000000 0.00000000
vt 1.00000000 0.00000000
vt 1.00000000 1.00000000
vt 0.00000000 1.00000000
vt 0.00000000 0.00000000
vt 1.00000000 0.00000000
vt 1.00000000 1.00000000
vt 1.00000000 0.00000000
vt 1.00000000 1.00000000
vt 0.00000000 1.00000000
vt 0.00000000 0.00000000
vt 0.00000000 1.00000000
vt 0.00000000 0.00000000
vt 1.00000000 0.00000000
vt 1.00000000 1.00000000
vt 0.00000000 1.00000000
vt 0.00000000 0.00000000
vt 1.00000000 0.00000000
vt 1.00000000 1.00000000
vt 1.00000000 0.00000000
vt 1.00000000 1.00000000
vt 0.00000000 1.00000000
vt 0.00000000 0.00000000
vt 1.00000000 0.00000000
vt 1.00000000 1.00000000
vt 0.00000000 1.00000000
vt 0.00000000 0.00000000
vt 0.00000000 1.00000000
vt 0.00000000 0.00000000
vt 1.00000000 0.00000000
vt 1.00000000 1.00000000
vt 1.00000000 0.00000000
vt 1.00000000 1.00000000
vt 0.00000000 1.00000000
vt 0.00000000 0.00000000
vt 0.00000000 1.00000000
vt 0.00000000 0.00000000
vt 1.00000000 0.00000000
vt 1.00000000 1.00000000
vt 0.26666667 0.00000000
vt 0.40000000 0.00000000
vt 0.50000000 0.06250000
vt 0.60000000 0.00000000
vt 0.73333333 0.00000000
vt 0.83333333 0.06250000
vt 0.93333333 0.00000000
vt 1.00000000 0.00000000
vt 1.00000000 1.00000000
vt 0.00000000 1.00000000
vt 0.00000000 0.00000000
vt 0.06666667 0.00000000
vt 0.16666667 0.06250000
vn 0.00000000 0.89442719 -0.44721360
vn 0.00000000 0.89442719 -0.44721360
vn 0.00000000 0.89442719 -0.44721360
vn 0.00000000 0.89442719 -0.44721360
vn 0.00000000 0.89442719 0.44721360
vn 0.00000000 0.89442719 0.44721360
vn 0.00000000 0.89442719 0.44721360
vn 0.00000000 0.89442719 0.44721360
vn 0.00000000 1.00000000 -0.00000000
vn 0.00000000 1.00000000 -0.00000000
vn 0.00000000 1.00000000 -0.00000000
vn 0.00000000 1.00000000 -0.00000000
vn 0.00000000 0.89442719 -0.44721360
vn 0.00000000 0.89442719 -0.44721360
vn 0.00000000 0.89442719 -0.44721360
vn 0.00000000 0.89442719 -0.44721360
vn 0.00000000 0.89442719 0.44721360
vn 0.00000000 0.89442719 0.44721360
vn 0.00000000 0.89442719 0.44721360
vn 0.00000000 0.89442719 0.44721360
vn 0.00000000 1.00000000 -0.00000000
vn 0.00000000 1.00000000 -0.00000000
vn 0.00000000 1.00000000 -0.00000000
vn 0.00000000 1.00000000 -0.00000000
vn -0.00000000 -0.00000000 -1.00000000
vn -0.00000000 -0.00000000 -1.00000000
vn -0.00000000 -0.00000000 -1.00000000
vn -0.00000000 -0.00000000 -1.00000000
vn -0.00000000 -0.00000000 -1.00000000
vn -0.00000000 -0.00000000 -1.00000000
vn -0.00000000 -0.00000000 -1.00000000
vn -0.00000000 -1.00000000 -0.00000000
vn -0.00000000 -1.00000000 -0.00000000
vn -0.00000000 -1.00000000 -0.00000000
vn -0.00000000 -1.00000000 -0.00000000
vn -0.00000000 -1.00000000 -0.00000000
vn -0.00000000 -1.00000000 -0.00000000
vn -0.00000000 -1.00000000 -0.00000000
vn -0.00000000 -1.00000000 -0.00000000
vn -0.00000000 -1.00000000 -0.00000000
vn -0.00000000 -1.00000000 -0.00000000
vn -0.00000000 -1.00000000 -0.00000000
vn -0.00000000 -1.00000000 -0.00000000
vn -0.00000000 -1.00000000 -0.00000000
vn 0.89442719 -0.00000000 0.44721360
vn 0.89442719 -0.00000000 0.44721360
vn 0.89442719 -0.00000000 0.44721360
vn 0.89442719 -0.00000000 0.44721360
vn 0.77833046 0.44068322 0.44721360
vn 0.77833046 0.44068322 0.44721360
vn 0.77833046 0.44068322 0.44721360
vn 0.77833046 0.44068322 0.44721360
vn 0.77833046 0.44068322 -0.44721360
vn 0.77833046 0.44068322 -0.44721360
vn 0.77833046 0.44068322 -0.44721360
vn 0.77833046 0.44068322 -0.44721360
vn 0.87019991 0.49269881 -0.00000000
vn 0.87019991 0.49269881 -0.00000000
vn 0.87019991 0.49269881 -0.00000000
vn 0.87019991 0.49269881 -0.00000000
vn 0.77833046 0.44068322 0.44721360
vn 0.77833046 0.44068322 0.44721360
vn 0.77833046 0.44068322 0.44721360
vn 0.77833046 0.44068322 0.44721360
vn 0.77833046 0.44068322 -0.44721360
vn 0.77833046 0.44068322 -0.44721360
vn 0.77833046 0.44068322 -0.44721360
vn 0.77833046 0.44068322 -0.44721360
vn 0.87019991 0.49269881 -0.00000000
vn 0.87019991 0.49269881 -0.00000000
vn 0.87019991 0.49269881 -0.00000000
vn 0.87019991 0.49269881 -0.00000000
vn 0.77833046 0.44068322 0.44721360
vn 0.77833046 0.44068322 0.44721360
vn 0.77833046 0.44068322 0.44721360
vn 0.77833046 0.44068322 0.44721360
vn 0.77833046 0.44068322 -0.44721360
vn 0.77833046 0.44068322 -0.44721360
vn 0.77833046 0.44068322 -0.44721360
vn 0.77833046 0.44068322 -0.44721360
vn 0.87019991 0.49269881 0.00000000
vn 0.87019991 0.49269881 0.00000000
vn 0.87019991 0.49269881 0.00000000
vn 0.87019991 0.49269881 0.00000000
vn 0.51449576 0.85749293 -0.00000000
vn 0.51449576 0.85749293 -0.00000000
vn 0.51449576 0.85749293 -0.00000000
vn 0.51449576 0.85749293 -0.00000000
vn 0.26693358 0.96371493 -0.00000000
vn 0.26693358 0.96371493 -0.00000000
vn 0.26693358 0.96371493 -0.00000000
vn 0.26693358 0.96371493 -0.00000000
vn 0.23875265 0.86197284 -0.44721360
vn 0.23875265 0.86197284 -0.44721360
vn 0.23875265 0.86197284 -0.44721360
vn 0.23875265 0.86197284 -0.44721360
vn 0.23875265 0.86197284 0.44721360
vn 0.23875265 0.86197284 0.44721360
vn 0.23875265 0.86197284 0.44721360
vn 0.23875265 0.86197284 0.44721360
vn 0.00000000 0.89442719 0.44721360
vn 0.00000000 0.89442719 0.44721360
vn 0.00000000 0.89442719 0.44721360
vn 0.00000000 0.89442719 0.44721360
vn 0.26693358 0.96371493 -0.00000000
vn 0.26693358 0.96371493 -0.00000000
vn 0.26693358 0.96371493 -0.00000000
vn 0.26693358 0.96371493 -0.00000000
vn 0.00000000 0.89442719 -0.44721360
vn 0.00000000 0.89442719 -0.44721360
vn 0.00000000 0.89442719 -0.44721360
vn 0.00000000 0.89442719 -0.44721360
vn 0.00000000 1.00000000 -0.00000000
vn 0.00000000 1.00000000 -0.00000000
vn 0.00000000 1.00000000 -0.00000000
vn 0.00000000 1.00000000 -0.00000000
vn 0.46017899 0.76696499 -0.44721360
vn 0.46017899 0.76696499 -0.44721360
vn 0.46017899 0.76696499 -0.44721360
vn 0.46017899 0.76696499 -0.44721360
vn 0.46017899 0.76696499 0.44721360
vn 0.46017899 0.76696499 0.44721360
vn 0.46017899 0.76696499 0.44721360
vn 0.46017899 0.76696499 0.44721360
vn 0.51449576 0.85749293 -0.00000000
vn 0.51449576 0.85749293 -0.00000000
vn 0.51449576 0.85749293 -0.00000000
vn 0.51449576 0.85749293 -0.00000000
vn 0.46017899 0.76696499 -0.44721360
vn 0.46017899 0.76696499 -0.44721360
vn 0.46017899 0.76696499 -0.44721360
vn 0.46017899 0.76696499 -0.44721360
vn 0.46017899 0.76696499 0.44721360
vn 0.46017899 0.76696499 0.44721360
vn 0.46017899 0.76696499 0.44721360
vn 0.46017899 0.76696499 0.44721360
vn 0.51449576 0.85749293 -0.00000000
vn 0.51449576 0.85749293 -0.00000000
vn 0.51449576 0.85749293 -0.00000000
vn 0.51449576 0.85749293 -0.00000000
vn 0.46017899 0.76696499 -0.44721360
vn 0.46017899 0.76696499 -0.44721360
vn 0.46017899 0.76696499 -0.44721360
vn 0.46017899 0.76696499 -0.44721360
vn 0.46017899 0.76696499 0.44721360
vn 0.46017899 0.76696499 0.44721360
vn 0.46017899 0.76696499 0.44721360
vn 0.46017899 0.76696499 0.44721360
vn 0.00000000 0.00000000 1.00000000
vn 0.00000000 0.00000000 1.00000000
vn 0.00000000 0.00000000 1.00000000
vn 0.00000000 0.00000000 1.00000000
vn 0.00000000 0.00000000 1.00000000
vn 0.00000000 0.00000000 1.00000000
vn 0.00000000 0.00000000 1.00000000
vn 1.00000000 -0.00000000 -0.00000000
vn 1.00000000 -0.00000000 -0.00000000
vn 1.00000000 -0.00000000 -0.00000000
vn 1.00000000 -0.00000000 -0.00000000
vn 0.89442719 -0.00000000 -0.44721360
vn 0.89442719 -0.00000000 -0.44721360
vn 0.89442719 -0.00000000 -0.44721360
vn 0.89442719 -0.00000000 -0.44721360
vn 0.89442719 -0.00000000 0.44721360
vn 0.89442719 -0.00000000 0.44721360
vn 0.89442719 -0.00000000 0.44721360
vn 0.89442719 -0.00000000 0.44721360
vn 1.00000000 -0.00000000 -0.00000000
vn 1.00000000 -0.00000000 -0.00000000
vn 1.00000000 -0.00000000 -0.00000000
vn 1.00000000 -0.00000000 -0.00000000
vn 0.89442719 -0.00000000 -0.44721360
vn 0.89442719 -0.00000000 -0.44721360
vn 0.89442719 -0.00000000 -0.44721360
vn 0.89442719 -0.00000000 -0.44721360
vn 0.89442719 -0.00000000 0.44721360
vn 0.89442719 -0.00000000 0.44721360
vn 0.89442719 -0.00000000 0.44721360
vn 0.89442719 -0.00000000 0.44721360
vn 1.00000000 -0.00000000 -0.00000000
vn 1.00000000 -0.00000000 -0.00000000
vn 1.00000000 -0.00000000 -0.00000000
vn 1.00000000 -0.00000000 -0.00000000
vn 0.89442719 -0.00000000 -0.44721360
vn 0.89442719 -0.00000000 -0.44721360
vn 0.89442719 -0.00000000 -0.44721360
vn 0.89442719 -0.00000000 -0.44721360
vn 1.00000000 -0.00000000 -0.00000000
vn 1.00000000 -0.00000000 -0.00000000
vn 1.00000000 -0.00000000 -0.00000000
vn 1.00000000 -0.00000000 -0.00000000
vn 0.87019991 0.49269881 -0.00000000
vn 0.87019991 0.49269881 -0.00000000
vn 0.87019991 0.49269881 -0.00000000
vn 0.87019991 0.49269881 -0.00000000
vn 0.51449576 0.85749293 -0.00000000
vn 0.51449576 0.85749293 -0.00000000
vn 0.51449576 0.85749293 -0.00000000
vn 0.51449576 0.85749293 -0.00000000
vn 0.26693358 0.96371493 0.00000000
vn 0.26693358 0.96371493 0.00000000
vn 0.26693358 0.96371493 0.00000000
vn 0.26693358 0.96371493 0.00000000
vn 0.23875265 0.86197284 0.44721360
vn 0.23875265 0.86197284 0.44721360
vn 0.23875265 0.86197284 0.44721360
vn 0.23875265 0.86197284 0.44721360
vn 0.23875265 0.86197284 -0.44721360
vn 0.23875265 0.86197284 -0.44721360
vn 0.23875265 0.86197284 -0.44721360
vn 0.23875265 0.86197284 -0.44721360
vn 0.26693358 0.96371493 -0.00000000
vn 0.26693358 0.96371493 -0.00000000
vn 0.26693358 0.96371493 -0.00000000
vn 0.26693358 0.96371493 -0.00000000
vn 0.23875265 0.86197284 0.44721360
vn 0.23875265 0.86197284 0.44721360
vn 0.23875265 0.86197284 0.44721360
vn 0.23875265 0.86197284 0.44721360
vn 0.23875265 0.86197284 -0.44721360
vn 0.23875265 0.86197284 -0.44721360
vn 0.23875265 0.86197284 -0.44721360
vn 0.23875265 0.86197284 -0.44721360
vn 0.00000000 1.00000000 -0.00000000
vn 0.00000000 1.00000000 -0.00000000
vn 0.00000000 1.00000000 -0.00000000
vn 0.00000000 1.00000000 -0.00000000
vn -1.00000000 0.00000000 0.00000000
vn -1.00000000 0.00000000 0.00000000
vn -1.00000000 0.00000000 0.00000000
vn -1.00000000 0.00000000 0.00000000
vn -1.00000000 0.00000000 0.00000000
vn -1.00000000 0.00000000 0.00000000
vn -1.00000000 0.00000000 0.00000000
vn -1.00000000 0.00000000 0.00000000
vn -1.00000000 0.00000000 0.00000000
vn -1.00000000 0.00000000 0.00000000
vn -1.00000000 0.00000000 0.00000000
vn -1.00000000 0.00000000 0.00000000
vn -1.00000000 0.00000000 0.00000000
s 1
usemtl Metal_Blue
f 1/1/1 2/2/2 3/3/3
f 1/1/1 3/3/3 4/4/4
s 2
f 2/5/5 1/6/6 6/8/8
f 1/6/6 5/7/7 6/8/8
s 3
f 6/12/12 5/11/11 8/10/10
f 6/12/12 8/10/10 7/9/9
s 4
f 9/13/13 10/14/14 7/15/15
f 9/13/13 7/15/15 8/16/16
s 5
f 10/17/17 9/18/18 12/20/20
f 9/18/18 11/19/19 12/20/20
s 6
f 14/24/24 13/23/23 11/21/21
f 13/23/23 12/22/22 11/21/21
s 7
f 17/29/29 13/28/28 14/27/27
f 19/31/31 14/27/27 15/25/25
f 14/27/27 16/26/26 15/25/25
f 19/31/31 17/29/29 14/27/27
f 19/31/31 18/30/30 17/29/29
s 8
f 24/36/36 25/37/37 26/38/38
f 21/33/33 24/36/36 30/42/42
f 27/39/39 29/41/41 30/42/42
f 27/39/39 28/40/40 29/41/41
f 30/42/42 17/43/43 18/44/44
f 21/33/33 30/42/42 18/44/44
f 18/44/44 20/32/32 21/33/33
f 21/33/33 22/34/34 23/35/35
f 24/36/36 27/39/39 30/42/42
f 21/33/33 23/35/35 24/36/36
f 24/36/36 26/38/38 27/39/39
s 9
f 31/45/45 21/46/46 20/47/47
f 31/45/45 20/47/47 32/48/48
s 10
f 33/49/49 31/50/50 32/51/51
f 33/49/49 32/51/51 34/52/52
s 11
f 31/53/53 33/54/54 36/56/56
f 33/54/54 35/55/55 36/56/56
s 12
f 38/60/60 37/59/59 36/58/58
f 38/60/60 36/58/58 35/57/57
s 13
f 39/61/61 40/62/62 37/63/63
f 39/61/61 37/63/63 38/64/64
s 14
f 40/65/65 39/66/66 42/68/68
f 39/66/66 41/67/67 42/68/68
s 15
f 42/72/72 41/71/71 43/69/69
f 41/71/71 44/70/70 43/69/69
s 16
f 45/73/73 46/74/74 43/75/75
f 45/73/73 43/75/75 44/76/76
s 17
f 46/77/77 45/78/78 48/80/80
f 45/78/78 47/79/79 48/80/80
s 18
f 48/81/81 47/82/82 50/84/84
f 47/82/82 49/83/83 50/84/84
s 19
f 52/88/88 49/87/87 47/86/86
f 52/88/88 47/86/86 51/85/85
s 20
f 51/89/89 53/90/90 52/92/92
f 53/90/90 54/91/91 52/92/92
s 21
f 55/93/93 56/94/94 51/96/96
f 56/94/94 53/95/95 51/96/96
s 22
f 56/97/97 55/98/98 57/99/99
f 56/97/97 57/99/99 58/100/100
s 23
f 59/101/101 56/102/102 60/104/104
f 56/102/102 58/103/103 60/104/104
s 24
f 61/108/108 4/107/107 57/105/105
f 4/107/107 58/106/106 57/105/105
s 25
f 56/109/109 59/110/110 62/111/111
f 56/109/109 62/111/111 53/112/112
s 26
f 63/116/116 54/115/115 53/114/114
f 63/116/116 53/114/114 62/113/113
s 27
f 45/117/117 55/118/118 51/119/119
f 45/117/117 51/119/119 47/120/120
s 28
f 55/121/121 45/122/122 57/124/124
f 45/122/122 44/123/123 57/124/124
s 29
f 41/128/128 61/127/127 44/125/125
f 61/127/127 57/126/126 44/125/125
s 30
f 39/129/129 64/130/130 61/131/131
f 39/129/129 61/131/131 41/132/132
s 31
f 64/133/133 39/134/134 65/136/136
f 39/134/134 38/135/135 65/136/136
s 32
f 65/140/140 38/139/139 35/138/138
f 65/140/140 35/138/138 66/137/137
s 33
f 33/141/141 67/142/142 66/143/143
f 33/141/141 66/143/143 35/144/144
s 34
f 67/145/145 33/146/146 68/148/148
f 33/146/146 34/147/147 68/148/148
s 35
f 54/151/151 63/152/152 30/153/153
f 30/153/153 29/154/154 50/155/155
f 49/149/149 54/151/151 50/155/155
f 49/149/149 52/150/150 54/151/151
f 54/151/151 30/153/153 50/155/155
s 36
f 50/159/159 29/158/158 48/156/156
f 29/158/158 28/157/157 48/156/156
s 37
f 27/160/160 46/161/161 28/163/163
f 46/161/161 48/162/162 28/163/163
s 38
f 46/164/164 27/165/165 26/166/166
f 46/164/164 26/166/166 43/167/167
s 39
f 25/171/171 42/170/170 43/169/169
f 25/171/171 43/169/169 26/168/168
s 40
f 24/172/172 40/173/173 25/175/175
f 40/173/173 42/174/174 25/175/175
s 41
f 40/176/176 24/177/177 23/178/178
f 40/176/176 23/178/178 37/179/179
s 42
f 37/183/183 23/182/182 36/180/180
f 23/182/182 22/181/181 36/180/180
s 43
f 21/184/184 31/185/185 22/187/187
f 31/185/185 36/186/186 22/187/187
s 44
f 18/191/191 19/190/190 32/189/189
f 18/191/191 32/189/189 20/188/188
s 45
f 19/195/195 15/194/194 34/193/193
f 19/195/195 34/193/193 32/192/192
s 46
f 15/199/199 16/198/198 34/196/196
f 16/198/198 68/197/197 34/196/196
s 47
f 16/203/203 14/202/202 68/200/200
f 14/202/202 11/201/201 68/200/200
s 48
f 9/204/204 67/205/205 68/206/206
f 9/204/204 68/206/206 11/207/207
s 49
f 67/208/208 9/209/209 66/211/211
f 9/209/209 8/210/210 66/211/211
s 50
f 5/215/215 65/214/214 66/213/213
f 5/215/215 66/213/213 8/212/212
s 51
f 1/216/216 64/217/217 65/218/218
f 1/216/216 65/218/218 5/219/219
s 52
f 64/220/220 1/221/221 61/223/223
f 1/221/221 4/222/222 61/223/223
s 53
f 4/227/227 3/226/226 58/224/224
f 3/226/226 60/225/225 58/224/224
s 54
f 59/240/240 60/228/228 3/229/229
f 17/236/236 63/238/238 59/240/240
f 2/230/230 10/233/233 17/236/236
f 10/233/233 12/234/234 13/235/235
f 2/230/230 7/232/232 10/233/233
f 2/230/230 6/231/231 7/232/232
f 10/233/233 13/235/235 17/236/236
f 17/236/236 30/237/237 63/238/238
f 63/238/238 62/239/239 59/240/240
f 59/240/240 2/230/230 17/236/236
f 59/240/240 3/229/229 2/230/230
