mtllib Spacestation_Structure_Fuselage_Long_Angled_Mid_Normal.mtl
o object1
g object1
v -0.50000000 0.00000000 -3.45000000
v -0.50000000 0.17130467 -3.45000000
v 0.50000000 0.17130467 -3.45000000
v 0.50000000 -0.00000000 -3.45000000
v -0.50000000 0.17130467 -3.40000000
v -0.50000000 0.00000000 -3.40000000
v 0.50000000 0.17130467 -3.40000000
v 0.50000000 0.00000000 -3.40000000
vt 1.00000000 0.00000000
vt 1.00000000 1.00000000
vt 0.00000000 1.00000000
vt 0.00000000 0.00000000
vt 1.00000000 0.00000000
vt 1.00000000 1.00000000
vt 0.00000000 1.00000000
vt 0.00000000 0.00000000
vt 1.00000000 0.00000000
vt 1.00000000 1.00000000
vt 0.00000000 1.00000000
vt 0.00000000 0.00000000
vt 1.00000000 0.00000000
vt 1.00000000 1.00000000
vt 0.00000000 1.00000000
vt 0.00000000 0.00000000
vt 1.00000000 0.00000000
vt 1.00000000 1.00000000
vt 0.00000000 1.00000000
vt 0.00000000 0.00000000
vt 1.00000000 0.00000000
vt 1.00000000 1.00000000
vt 0.00000000 1.00000000
vt 0.00000000 0.00000000
vn -0.00000000 -0.00000000 -1.00000000
vn -0.00000000 -0.00000000 -1.00000000
vn -0.00000000 -0.00000000 -1.00000000
vn -0.00000000 -0.00000000 -1.00000000
vn -1.00000000 0.00000000 0.00000000
vn -1.00000000 0.00000000 0.00000000
vn -1.00000000 0.00000000 0.00000000
vn -1.00000000 0.00000000 0.00000000
vn 0.00000000 0.00000000 1.00000000
vn 0.00000000 0.00000000 1.00000000
vn 0.00000000 0.00000000 1.00000000
vn 0.00000000 0.00000000 1.00000000
vn -0.00000000 -1.00000000 0.00000000
vn -0.00000000 -1.00000000 0.00000000
vn -0.00000000 -1.00000000 0.00000000
vn -0.00000000 -1.00000000 0.00000000
vn 1.00000000 -0.00000000 -0.00000000
vn 1.00000000 -0.00000000 -0.00000000
vn 1.00000000 -0.00000000 -0.00000000
vn 1.00000000 -0.00000000 -0.00000000
vn 0.00000000 1.00000000 -0.00000000
vn 0.00000000 1.00000000 -0.00000000
vn 0.00000000 1.00000000 -0.00000000
vn 0.00000000 1.00000000 -0.00000000
s 1
usemtl Light
f 1/1/1 2/2/2 4/4/4
f 2/2/2 3/3/3 4/4/4
s 2
f 6/8/8 5/7/7 1/5/5
f 5/7/7 2/6/6 1/5/5
s 3
f 8/12/12 7/11/11 6/9/9
f 7/11/11 5/10/10 6/9/9
s 4
f 6/13/13 1/14/14 4/15/15
f 6/13/13 4/15/15 8/16/16
s 5
f 4/17/17 3/18/18 7/19/19
f 4/17/17 7/19/19 8/20/20
s 6
f 7/24/24 3/23/23 5/21/21
f 3/23/23 2/22/22 5/21/21
o object2
g object2
v 0.50000000 0.31325564 -3.42425349
v -0.50000000 0.31325564 -3.42425349
v -0.50000000 0.22130467 -3.50000000
v 0.50000000 0.22130467 -3.50000000
v -0.50000000 0.19630467 -3.50000000
v 0.50000000 0.19630467 -3.50000000
v 0.50000000 0.17130467 -3.47500000
v -0.50000000 0.17130467 -3.47500000
v -0.50000000 0.17130467 -3.40000000
v 0.50000000 0.17130467 -3.40000000
v 0.50000000 0.00000000 -3.40000000
v -0.50000000 -0.00000000 -3.40000000
v -0.50000000 0.00000000 0.50000000
v 0.50000000 0.00000000 0.50000000
v 0.50000000 1.00000000 0.50000000
v -0.50000000 1.00000000 0.50000000
vt 0.00000000 0.00000000
vt 1.00000000 0.00000000
vt 1.00000000 1.00000000
vt 0.00000000 1.00000000
vt 0.00000000 0.00000000
vt 1.00000000 0.00000000
vt 1.00000000 1.00000000
vt 0.00000000 1.00000000
vt 1.00000000 1.00000000
vt 0.00000000 1.00000000
vt 0.00000000 0.00000000
vt 1.00000000 0.00000000
vt 1.00000000 1.00000000
vt 0.00000000 1.00000000
vt 0.00000000 0.00000000
vt 1.00000000 0.00000000
vt 0.00000000 1.00000000
vt 0.00000000 0.00000000
vt 1.00000000 0.00000000
vt 1.00000000 1.00000000
vt 1.00000000 1.00000000
vt 0.00000000 1.00000000
vt 0.00000000 0.00000000
vt 1.00000000 0.00000000
vt 0.00000000 0.00000000
vt 1.00000000 0.00000000
vt 1.00000000 1.00000000
vt 0.00000000 1.00000000
vt 0.02500000 1.00000000
vt 0.02500000 0.46045772
vt 0.00625000 0.43719204
vt 0.00000000 0.34565109
vt 0.00000000 0.26231775
vt 0.01893663 0.00000000
vt 1.00000000 0.00000000
vt 1.00000000 1.00000000
vt 1.00000000 0.00000000
vt 1.00000000 1.00000000
vt 0.00000000 1.00000000
vt 0.00000000 0.00000000
vt 0.02500000 1.00000000
vt 0.02500000 0.46045772
vt 0.00625000 0.43719204
vt 0.00000000 0.34565109
vt 0.00000000 0.26231775
vt 0.01893663 0.00000000
vt 1.00000000 0.00000000
vt 1.00000000 1.00000000
vn 0.00000000 0.63581823 -0.77183883
vn 0.00000000 0.63581823 -0.77183883
vn 0.00000000 0.63581823 -0.77183883
vn 0.00000000 0.63581823 -0.77183883
vn 0.00000000 -0.00000000 -1.00000000
vn 0.00000000 -0.00000000 -1.00000000
vn 0.00000000 -0.00000000 -1.00000000
vn 0.00000000 -0.00000000 -1.00000000
vn -0.00000000 -0.70710678 -0.70710678
vn -0.00000000 -0.70710678 -0.70710678
vn -0.00000000 -0.70710678 -0.70710678
vn -0.00000000 -0.70710678 -0.70710678
vn 0.00000000 -1.00000000 0.00000000
vn 0.00000000 -1.00000000 0.00000000
vn 0.00000000 -1.00000000 0.00000000
vn 0.00000000 -1.00000000 0.00000000
vn -0.00000000 -0.00000000 -1.00000000
vn -0.00000000 -0.00000000 -1.00000000
vn -0.00000000 -0.00000000 -1.00000000
vn -0.00000000 -0.00000000 -1.00000000
vn 0.00000000 -1.00000000 0.00000000
vn 0.00000000 -1.00000000 0.00000000
vn 0.00000000 -1.00000000 0.00000000
vn 0.00000000 -1.00000000 0.00000000
vn -0.00000000 0.00000000 1.00000000
vn -0.00000000 0.00000000 1.00000000
vn -0.00000000 0.00000000 1.00000000
vn -0.00000000 0.00000000 1.00000000
vn 1.00000000 0.00000000 0.00000000
vn 1.00000000 0.00000000 0.00000000
vn 1.00000000 0.00000000 0.00000000
vn 1.00000000 0.00000000 0.00000000
vn 1.00000000 0.00000000 0.00000000
vn 1.00000000 0.00000000 0.00000000
vn 1.00000000 0.00000000 0.00000000
vn 1.00000000 -0.00000000 0.00000000
vn -0.00000000 0.98503047 -0.17238033
vn -0.00000000 0.98503047 -0.17238033
vn -0.00000000 0.98503047 -0.17238033
vn -0.00000000 0.98503047 -0.17238033
vn -1.00000000 -0.00000000 -0.00000000
vn -1.00000000 -0.00000000 -0.00000000
vn -1.00000000 -0.00000000 -0.00000000
vn -1.00000000 -0.00000000 -0.00000000
vn -1.00000000 -0.00000000 -0.00000000
vn -1.00000000 -0.00000000 -0.00000000
vn -1.00000000 -0.00000000 -0.00000000
vn -1.00000000 -0.00000000 -0.00000000
s 1
usemtl Metal_Blue_Light
f 12/28/28 11/27/27 9/25/25
f 11/27/27 10/26/26 9/25/25
s 2
f 14/32/32 13/31/31 11/30/30
f 14/32/32 11/30/30 12/29/29
s 3
f 13/33/33 14/34/34 15/35/35
f 13/33/33 15/35/35 16/36/36
s 4
f 16/40/40 15/39/39 18/38/38
f 16/40/40 18/38/38 17/37/37
s 5
f 20/44/44 17/43/43 19/41/41
f 17/43/43 18/42/42 19/41/41
s 6
f 20/48/48 19/47/47 22/46/46
f 20/48/48 22/46/46 21/45/45
s 7
f 23/49/49 24/50/50 22/52/52
f 24/50/50 21/51/51 22/52/52
s 8
f 15/55/55 14/56/56 12/57/57
f 18/54/54 12/57/57 9/58/58
f 9/58/58 23/59/59 22/60/60
f 18/54/54 9/58/58 22/60/60
f 22/60/60 19/53/53 18/54/54
f 18/54/54 15/55/55 12/57/57
s 9
f 10/61/61 24/62/62 23/63/63
f 10/61/61 23/63/63 9/64/64
s 10
f 11/69/69 13/68/68 16/67/67
f 10/70/70 11/69/69 17/66/66
f 17/66/66 20/65/65 21/72/72
f 21/72/72 10/70/70 17/66/66
f 21/72/72 24/71/71 10/70/70
f 11/69/69 16/67/67 17/66/66
