mtllib Spacestation_Structure_Fuselage_Long_Angled_Mid_Band.mtl
o object1
g object1
v -0.72500000 -0.00000000 -3.55000000
v -0.67500000 -0.00000000 -3.60000000
v -0.67500000 0.25077819 -3.60000000
v -0.72500000 0.23283586 -3.55000000
v -0.72500000 0.34974144 -3.45369661
v -0.67500000 0.39576031 -3.48056797
v -0.32500000 0.25077819 -3.60000000
v -0.32500000 0.39576031 -3.48056797
v -0.32500000 1.10077819 0.50000000
v -0.67500000 1.10077819 0.50000000
v -0.27500000 1.05000000 0.50000000
v -0.27500000 0.34974144 -3.45369661
v -0.27500000 0.23283586 -3.55000000
v -0.27500000 -0.00000000 -3.55000000
v -0.27500000 -0.00000000 0.50000000
v -0.32500000 -0.00000000 -3.60000000
v -0.72500000 -0.00000000 0.50000000
v -0.72500000 1.05000000 0.50000000
vt 0.00000000 0.00000000
vt 1.00000000 0.00000000
vt 1.00000000 1.00000000
vt 0.00000000 0.92845340
vt 1.00000000 0.00000000
vt 0.90448074 1.00000000
vt 0.09813593 1.00000000
vt 0.00000000 0.00000000
vt 1.00000000 1.00000000
vt 0.00000000 1.00000000
vt 0.00000000 0.00000000
vt 1.00000000 0.00000000
vt 0.00000000 0.00000000
vt 1.00000000 0.00000000
vt 1.00000000 1.00000000
vt 0.00000000 1.00000000
vt 0.00219065 0.00000000
vt 0.99544001 0.00000000
vt 1.00000000 1.00000000
vt 0.00000000 1.00000000
vt 0.66691292 0.02377862
vt 0.77825156 0.00000000
vt 1.00000000 0.00000000
vt 1.00000000 1.00000000
vt 0.00000000 1.00000000
vt 0.00000000 0.00000000
vt 1.00000000 0.00000000
vt 1.00000000 1.00000000
vt 0.00000000 0.92845340
vt 0.04612935 0.00000000
vt 1.00000000 0.00000000
vt 1.00000000 1.00000000
vt 0.04612935 1.00000000
vt 0.00000000 0.88888889
vt 0.00000000 0.11111111
vt 0.90448074 0.00000000
vt 1.00000000 1.00000000
vt 0.00000000 1.00000000
vt 0.09813593 0.00000000
vt 0.00000000 0.00000000
vt 1.00000000 0.00000000
vt 0.99544001 1.00000000
vt 0.00219065 1.00000000
vt 0.00000000 1.00000000
vt 0.00000000 0.00000000
vt 0.97622138 0.66691292
vt 1.00000000 0.77825156
vt 1.00000000 1.00000000
vt 0.00000000 1.00000000
vt 0.00000000 0.01219512
vt 0.11111111 0.00000000
vt 0.88888889 0.00000000
vt 1.00000000 0.01219512
vt 1.00000000 1.00000000
vt 1.00000000 1.00000000
vt 0.00000000 1.00000000
vt 0.00000000 0.00000000
vt 1.00000000 0.00000000
vn -0.70710678 0.00000000 -0.70710678
vn -0.70710678 0.00000000 -0.70710678
vn -0.70710678 0.00000000 -0.70710678
vn -0.70710678 0.00000000 -0.70710678
vn -0.70710678 0.44959138 -0.54577247
vn -0.70710678 0.44959138 -0.54577247
vn -0.70710678 0.44959138 -0.54577247
vn -0.70710678 0.44959138 -0.54577247
vn 0.00000000 0.63581823 -0.77183883
vn 0.00000000 0.63581823 -0.77183883
vn 0.00000000 0.63581823 -0.77183883
vn 0.00000000 0.63581823 -0.77183883
vn 0.00000000 0.98467479 -0.17440057
vn 0.00000000 0.98467479 -0.17440057
vn 0.00000000 0.98467479 -0.17440057
vn 0.00000000 0.98467479 -0.17440057
vn 0.70710678 0.69627022 -0.12331983
vn 0.70710678 0.69627022 -0.12331983
vn 0.70710678 0.69627022 -0.12331983
vn 0.70710678 0.69627022 -0.12331983
vn 1.00000000 0.00000000 -0.00000000
vn 1.00000000 0.00000000 -0.00000000
vn 1.00000000 0.00000000 -0.00000000
vn 1.00000000 0.00000000 -0.00000000
vn 1.00000000 0.00000000 -0.00000000
vn 0.70710678 -0.00000000 -0.70710678
vn 0.70710678 -0.00000000 -0.70710678
vn 0.70710678 -0.00000000 -0.70710678
vn 0.70710678 -0.00000000 -0.70710678
vn 0.00000000 0.00000000 1.00000000
vn 0.00000000 0.00000000 1.00000000
vn 0.00000000 0.00000000 1.00000000
vn 0.00000000 0.00000000 1.00000000
vn 0.00000000 0.00000000 1.00000000
vn 0.00000000 0.00000000 1.00000000
vn 0.70710678 0.44959138 -0.54577247
vn 0.70710678 0.44959138 -0.54577247
vn 0.70710678 0.44959138 -0.54577247
vn 0.70710678 0.44959138 -0.54577247
vn -0.70710678 0.69627022 -0.12331983
vn -0.70710678 0.69627022 -0.12331983
vn -0.70710678 0.69627022 -0.12331983
vn -0.70710678 0.69627022 -0.12331983
vn -1.00000000 0.00000000 0.00000000
vn -1.00000000 0.00000000 0.00000000
vn -1.00000000 0.00000000 0.00000000
vn -1.00000000 0.00000000 0.00000000
vn -1.00000000 0.00000000 0.00000000
vn -0.00000000 -1.00000000 0.00000000
vn -0.00000000 -1.00000000 0.00000000
vn -0.00000000 -1.00000000 0.00000000
vn -0.00000000 -1.00000000 0.00000000
vn -0.00000000 -1.00000000 0.00000000
vn -0.00000000 -1.00000000 0.00000000
vn -0.00000000 0.00000000 -1.00000000
vn -0.00000000 0.00000000 -1.00000000
vn -0.00000000 0.00000000 -1.00000000
vn -0.00000000 0.00000000 -1.00000000
s 1
usemtl Metal_Blue_Dark
f 4/4/4 3/3/3 2/2/2
f 4/4/4 2/2/2 1/1/1
s 2
f 3/5/5 4/6/6 5/7/7
f 3/5/5 5/7/7 6/8/8
s 3
f 6/12/12 8/11/11 7/10/10
f 6/12/12 7/10/10 3/9/9
s 4
f 8/16/16 6/15/15 9/13/13
f 6/15/15 10/14/14 9/13/13
s 5
f 11/17/17 12/18/18 9/20/20
f 12/18/18 8/19/19 9/20/20
s 6
f 14/23/23 13/22/22 12/21/21
f 12/21/21 11/25/25 15/24/24
f 15/24/24 14/23/23 12/21/21
s 7
f 14/26/26 16/27/27 13/29/29
f 16/27/27 7/28/28 13/29/29
s 8
f 18/33/33 17/32/32 15/31/31
f 9/35/35 18/33/33 11/30/30
f 9/35/35 10/34/34 18/33/33
f 18/33/33 15/31/31 11/30/30
s 9
f 13/36/36 7/37/37 12/39/39
f 7/37/37 8/38/38 12/39/39
s 10
f 10/40/40 6/41/41 5/42/42
f 10/40/40 5/42/42 18/43/43
s 11
f 5/46/46 4/47/47 1/48/48
f 17/44/44 5/46/46 1/48/48
f 17/44/44 18/45/45 5/46/46
s 12
f 2/52/52 16/51/51 14/50/50
f 1/53/53 14/50/50 15/49/49
f 17/54/54 1/53/53 15/49/49
f 1/53/53 2/52/52 14/50/50
s 13
f 7/58/58 16/57/57 3/55/55
f 16/57/57 2/56/56 3/55/55
