mtllib Spacestation_Structure_Fuselage_Narrow_Front_Band.mtl
o object1
g object1
v 0.98004750 0.50199525 0.10199525
v 1.07261177 0.26077723 0.09273882
v 1.07261177 0.26077723 -0.09273882
v 0.98004750 0.50199525 -0.10199525
v 0.94667571 0.45533243 0.15533243
v 1.02306222 0.25627273 0.14769378
v 1.07261177 0.00000000 0.09273882
v 1.02285991 0.00000000 0.14771401
v 1.07261177 0.00000000 -0.09273882
v 1.02285991 0.00000000 -0.14771401
v -0.50000000 0.00000000 -0.30000000
v -1.37738823 0.00000000 -0.30000000
v -1.37738823 0.00000000 0.30000000
v -0.50000000 0.00000000 0.30000000
v 1.02306222 0.25627273 -0.14769378
v -0.50000000 0.60000000 -0.30000000
v 0.94669960 0.45533004 -0.15533004
v -0.50000000 0.65000000 -0.25000000
v -1.37738823 0.60000000 -0.30000000
v -1.37738823 0.65000000 -0.25000000
v -1.37738823 0.65000000 0.25000000
v -0.50000000 0.65000000 0.25000000
v -1.37738823 0.60000000 0.30000000
v -0.50000000 0.60000000 0.30000000
vt 1.00000000 1.00000000
vt 0.00000000 0.95462325
vt 0.00000000 0.04537675
vt 1.00000000 0.00000000
vt 0.99980752 0.88520090
vt 0.00000000 1.00000000
vt 0.00000000 0.00000000
vt 1.00000000 0.05997433
vt 1.00000000 0.00000000
vt 1.00000000 1.00000000
vt 0.00000000 1.00000000
vt 0.00000000 0.00000000
vt 0.02030688 0.74619002
vt 0.00000000 0.65456471
vt 0.00000000 0.34543529
vt 0.02030688 0.25380998
vt 0.64188235 0.00000000
vt 1.00000000 0.00000000
vt 1.00000000 1.00000000
vt 0.64188235 1.00000000
vt 1.00000000 0.00000000
vt 1.00000000 1.00000000
vt 0.00000000 1.00000000
vt 0.00000000 0.00000000
vt 1.00000000 1.00000000
vt 0.00000000 0.99337493
vt 0.00000000 0.04779774
vt 0.31903508 0.00000000
vt 0.74619002 0.00296217
vt 1.00000000 0.00000000
vt 1.00000000 1.00000000
vt 0.00000000 1.00000000
vt 0.02253164 0.00000000
vt 1.00000000 0.00000000
vt 1.00000000 1.00000000
vt 0.00000000 1.00000000
vt 0.00000000 0.00000000
vt 1.00000000 1.00000000
vt 0.00000000 1.00000000
vt 0.00000000 0.00000000
vt 1.00000000 0.00000000
vt 1.00000000 0.00000000
vt 1.00000000 1.00000000
vt 0.00000000 1.00000000
vt 0.00000000 0.00000000
vt 0.00000000 1.00000000
vt 0.00000000 0.00000000
vt 1.00000000 0.00000000
vt 1.00000000 1.00000000
vt 0.07692308 1.00000000
vt 0.00000000 0.91666667
vt 0.00000000 0.08333333
vt 0.07692308 0.00000000
vt 1.00000000 0.00000000
vt 1.00000000 1.00000000
vt 0.00000000 1.00000000
vt 0.00000000 0.00000000
vt 1.00000000 0.00000000
vt 1.00000000 1.00000000
vt 1.00000000 1.00000000
vt 0.00000000 0.99529678
vt 0.00000000 0.04849212
vt 0.31903508 0.00000000
vt 0.74619002 0.00214141
vt 1.00000000 0.00000000
vt 1.00000000 1.00000000
vt 0.00000000 1.00000000
vt 0.02254778 0.00000000
vt 1.00000000 0.00000000
vt 1.00000000 1.00000000
vt 0.00000000 0.90262541
vt 0.00000000 0.09737459
vt 0.99959153 0.88515888
vt 0.00000000 1.00000000
vt 0.00000000 0.00000000
vt 1.00000000 0.05997433
vt 1.00000000 1.00000000
vt 0.00000000 1.00000000
vt 0.00000000 0.00000000
vt 1.00000000 0.00000000
vn 0.93362012 0.35826453 -0.00000000
vn 0.93362012 0.35826453 -0.00000000
vn 0.93362012 0.35826453 -0.00000000
vn 0.93362012 0.35826453 -0.00000000
vn 0.70965710 0.24700149 0.65983109
vn 0.70965710 0.24700149 0.65983109
vn 0.70965710 0.24700149 0.65983109
vn 0.70965710 0.24700149 0.65983109
vn 0.74145253 0.00000000 0.67100532
vn 0.74145240 -0.00059114 0.67100520
vn 0.74284852 -0.00059226 0.66945928
vn 0.74282452 0.00000000 0.66948617
vn 0.00000000 -1.00000000 0.00000000
vn 0.00000000 -1.00000000 0.00000000
vn 0.00000000 -1.00000000 0.00000000
vn 0.00000000 -1.00000000 0.00000000
vn 0.00000000 -1.00000000 0.00000000
vn 0.00000000 -1.00000000 0.00000000
vn 0.00000000 -1.00000000 0.00000000
vn 0.00000000 -1.00000000 0.00000000
vn 0.74145253 -0.00000000 -0.67100532
vn 0.74145240 -0.00059114 -0.67100520
vn 0.74284852 -0.00059226 -0.66945928
vn 0.74282452 -0.00000000 -0.66948617
vn 0.09950372 0.00000000 -0.99503719
vn 0.09950372 0.00000000 -0.99503719
vn 0.09950372 -0.00000000 -0.99503719
vn 0.09950372 -0.00000000 -0.99503719
vn 0.09950372 -0.00000000 -0.99503719
vn 0.14002801 0.70014004 -0.70014004
vn 0.14002801 0.70014004 -0.70014004
vn 0.14002801 0.70014004 -0.70014004
vn 0.14002801 0.70014004 -0.70014004
vn 0.00000000 0.70710678 -0.70710678
vn 0.00000000 0.70710678 -0.70710678
vn 0.00000000 0.70710678 -0.70710678
vn 0.00000000 0.70710678 -0.70710678
vn 0.00000000 1.00000000 0.00000000
vn 0.00000000 1.00000000 0.00000000
vn 0.00000000 1.00000000 0.00000000
vn 0.00000000 1.00000000 0.00000000
vn 0.00000000 0.70710678 0.70710678
vn 0.00000000 0.70710678 0.70710678
vn 0.00000000 0.70710678 0.70710678
vn 0.00000000 0.70710678 0.70710678
vn 0.00000000 0.00000000 -1.00000000
vn 0.00000000 0.00000000 -1.00000000
vn 0.00000000 0.00000000 -1.00000000
vn 0.00000000 0.00000000 -1.00000000
vn -1.00000000 0.00000000 0.00000000
vn -1.00000000 0.00000000 0.00000000
vn -1.00000000 0.00000000 0.00000000
vn -1.00000000 0.00000000 0.00000000
vn -1.00000000 0.00000000 0.00000000
vn -1.00000000 0.00000000 0.00000000
vn 0.00000000 0.00000000 1.00000000
vn 0.00000000 0.00000000 1.00000000
vn 0.00000000 0.00000000 1.00000000
vn 0.00000000 0.00000000 1.00000000
vn 0.09950372 0.00000000 0.99503719
vn 0.09950372 0.00000000 0.99503719
vn 0.09950372 0.00000000 0.99503719
vn 0.09950372 0.00000000 0.99503719
vn 0.09950372 0.00000000 0.99503719
vn 0.14002801 0.70014004 0.70014004
vn 0.14002801 0.70014004 0.70014004
vn 0.14002801 0.70014004 0.70014004
vn 0.14002801 0.70014004 0.70014004
vn 0.09950372 0.99503719 -0.00000000
vn 0.09950372 0.99503719 -0.00000000
vn 0.09950372 0.99503719 -0.00000000
vn 0.09950372 0.99503719 -0.00000000
vn 0.70965710 0.24700149 -0.65983109
vn 0.70965710 0.24700149 -0.65983109
vn 0.70965710 0.24700149 -0.65983109
vn 0.70965710 0.24700149 -0.65983109
vn 1.00000000 0.00000000 -0.00000000
vn 1.00000000 0.00000000 -0.00000000
vn 1.00000000 0.00000000 -0.00000000
vn 1.00000000 0.00000000 -0.00000000
s 1
usemtl Metal_Blue_Dark
f 1/1/1 2/2/2 3/3/3
f 1/1/1 3/3/3 4/4/4
s 2
f 5/5/5 6/8/8 2/7/7
f 2/7/7 1/6/6 5/5/5
s 3
f 2/12/12 6/11/11 7/9/9
f 6/11/11 8/10/10 7/9/9
s 4
f 9/15/15 7/14/14 8/13/13
f 10/16/16 8/13/13 14/20/20
f 14/20/20 12/18/18 11/17/17
f 14/20/20 13/19/19 12/18/18
f 14/20/20 11/17/17 10/16/16
f 10/16/16 9/15/15 8/13/13
s 5
f 9/21/21 10/22/22 15/23/23
f 9/21/21 15/23/23 3/24/24
s 6
f 11/25/25 16/26/26 17/27/27
f 17/27/27 15/28/28 10/29/29
f 10/29/29 11/25/25 17/27/27
s 7
f 16/30/30 18/31/31 17/33/33
f 18/31/31 4/32/32 17/33/33
s 8
f 19/34/34 20/35/35 16/37/37
f 20/35/35 18/36/36 16/37/37
s 9
f 21/38/38 22/39/39 18/40/40
f 21/38/38 18/40/40 20/41/41
s 10
f 24/45/45 22/44/44 21/43/43
f 24/45/45 21/43/43 23/42/42
s 11
f 11/46/46 12/47/47 16/49/49
f 12/47/47 19/48/48 16/49/49
s 12
f 19/53/53 12/54/54 13/55/55
f 23/50/50 20/52/52 19/53/53
f 23/50/50 21/51/51 20/52/52
f 19/53/53 13/55/55 23/50/50
s 13
f 24/59/59 23/58/58 14/56/56
f 23/58/58 13/57/57 14/56/56
s 14
f 5/62/62 24/61/61 14/60/60
f 8/64/64 6/63/63 5/62/62
f 5/62/62 14/60/60 8/64/64
s 15
f 5/68/68 1/67/67 22/66/66
f 5/68/68 22/66/66 24/65/65
s 16
f 18/69/69 22/70/70 4/72/72
f 22/70/70 1/71/71 4/72/72
s 17
f 3/75/75 15/76/76 17/73/73
f 17/73/73 4/74/74 3/75/75
s 18
f 9/80/80 3/79/79 7/77/77
f 3/79/79 2/78/78 7/77/77
