mtllib Spacestation_Structure_Fuselage_Angled_Horizontal_Normal.mtl
o object1
g object1
v 0.50000000 1.00000000 0.50000000
v -0.50000000 1.00000000 0.50000000
v -0.50000000 1.00000000 -1.50000000
v -0.00000000 1.00000000 -1.50000000
v -0.50000000 0.00000000 -1.50000000
v 1.00000000 0.40000000 -1.50000000
v 1.00000000 0.00000000 -1.50000000
v 1.50000000 0.00000000 0.50000000
v -0.50000000 -0.00000000 0.50000000
v 1.50000000 0.40000000 0.50000000
vt 1.00000000 0.00000000
vt 1.00000000 1.00000000
vt 0.00000000 1.00000000
vt 0.00000000 0.50000000
vt 0.00000000 0.00000000
vt 1.00000000 0.00000000
vt 1.00000000 0.33333333
vt 0.40000000 1.00000000
vt 0.00000000 1.00000000
vt 1.00000000 0.00000000
vt 1.00000000 1.00000000
vt 0.00000000 1.00000000
vt 0.00000000 0.25000000
vt 1.00000000 1.00000000
vt 0.00000000 1.00000000
vt 0.00000000 0.00000000
vt 1.00000000 0.00000000
vt 1.00000000 1.00000000
vt 0.00000000 1.00000000
vt 0.00000000 0.00000000
vt 1.00000000 0.00000000
vt 0.00000000 1.00000000
vt 0.00000000 0.00000000
vt 0.40000000 0.00000000
vt 1.00000000 0.50000000
vt 1.00000000 1.00000000
vt 1.00000000 1.00000000
vt 0.00000000 1.00000000
vt 0.00000000 0.00000000
vt 1.00000000 0.00000000
vn 0.00000000 1.00000000 -0.00000000
vn 0.00000000 1.00000000 -0.00000000
vn 0.00000000 1.00000000 -0.00000000
vn 0.00000000 1.00000000 -0.00000000
vn 0.00000000 0.00000000 -1.00000000
vn 0.00000000 0.00000000 -1.00000000
vn 0.00000000 0.00000000 -1.00000000
vn 0.00000000 0.00000000 -1.00000000
vn 0.00000000 0.00000000 -1.00000000
vn 0.00000000 -1.00000000 -0.00000000
vn 0.00000000 -1.00000000 -0.00000000
vn 0.00000000 -1.00000000 -0.00000000
vn 0.00000000 -1.00000000 -0.00000000
vn 0.97014250 0.00000000 -0.24253563
vn 0.97014250 0.00000000 -0.24253563
vn 0.97014250 0.00000000 -0.24253563
vn 0.97014250 0.00000000 -0.24253563
vn 0.51029191 0.85048651 -0.12757298
vn 0.51029191 0.85048651 -0.12757298
vn 0.51029191 0.85048651 -0.12757298
vn 0.51029191 0.85048651 -0.12757298
vn 0.00000000 0.00000000 1.00000000
vn 0.00000000 0.00000000 1.00000000
vn 0.00000000 0.00000000 1.00000000
vn 0.00000000 0.00000000 1.00000000
vn 0.00000000 0.00000000 1.00000000
vn -1.00000000 -0.00000000 0.00000000
vn -1.00000000 -0.00000000 -0.00000000
vn -1.00000000 -0.00000000 -0.00000000
vn -1.00000000 -0.00000000 0.00000000
s 1
usemtl Metal_Blue_Light
f 4/4/4 3/3/3 2/2/2
f 4/4/4 2/2/2 1/1/1
s 2
f 5/5/5 3/6/6 4/7/7
f 4/7/7 6/8/8 7/9/9
f 5/5/5 4/7/7 7/9/9
s 3
f 8/10/10 9/11/11 7/13/13
f 9/11/11 5/12/12 7/13/13
s 4
f 8/14/14 7/15/15 10/17/17
f 7/15/15 6/16/16 10/17/17
s 5
f 10/18/18 6/19/19 1/21/21
f 6/19/19 4/20/20 1/21/21
s 6
f 8/23/23 10/24/24 1/25/25
f 1/25/25 2/26/26 9/22/22
f 9/22/22 8/23/23 1/25/25
s 7
f 3/27/27 5/28/28 9/29/29
f 3/27/27 9/29/29 2/30/30
