mtllib Spacestation_Structure_Fuselage_Curved_Inner_Normal.mtl
o object1
g object1
v 0.75000000 1.00000000 -0.20096189
v 1.25000000 0.40000000 -1.06698730
v 1.50000000 0.40000000 -1.00000000
v 1.50000000 1.00000000 0.00000000
v 1.50000000 1.00000000 0.50000000
v 1.50000000 0.00000000 -1.00000000
v 1.50000000 -0.00000000 0.50000000
v -0.50000000 0.00000000 0.50000000
v -0.50000000 -0.00000000 -1.50000000
v 1.00000000 0.00000000 -1.50000000
v 1.06698730 0.00000000 -1.25000000
v 1.25000000 0.00000000 -1.06698730
v 1.06698730 0.40000000 -1.25000000
v 1.00000000 0.40000000 -1.50000000
v 0.20096189 1.00000000 -0.75000000
v -0.00000000 1.00000000 -1.50000000
v -0.50000000 1.00000000 -1.50000000
v -0.50000000 1.00000000 0.50000000
vt 0.00000000 1.00000000
vt 0.00000000 0.00000000
vt 1.00000000 0.00000000
vt 1.00000000 1.00000000
vt 0.00000000 1.00000000
vt 0.00000000 0.66666667
vt 0.60000000 0.00000000
vt 1.00000000 0.00000000
vt 1.00000000 1.00000000
vt 0.00000000 1.00000000
vt 0.00000000 0.00000000
vt 1.00000000 0.00000000
vt 1.00000000 0.75000000
vt 0.87500000 0.78349365
vt 0.78349365 0.87500000
vt 0.75000000 1.00000000
vt 0.00000000 1.00000000
vt 0.00000000 0.00000000
vt 1.00000000 0.00000000
vt 1.00000000 1.00000000
vt 1.00000000 0.00000000
vt 1.00000000 1.00000000
vt 0.00000000 1.00000000
vt 0.00000000 0.00000000
vt 1.00000000 0.00000000
vt 1.00000000 1.00000000
vt 0.00000000 1.00000000
vt 0.00000000 0.00000000
vt 0.60000000 1.00000000
vt 0.00000000 0.33333333
vt 0.00000000 0.00000000
vt 1.00000000 0.00000000
vt 1.00000000 1.00000000
vt 1.00000000 0.00000000
vt 1.00000000 1.00000000
vt 0.00000000 1.00000000
vt 0.00000000 0.00000000
vt 0.00000000 1.00000000
vt 0.00000000 0.00000000
vt 1.00000000 0.00000000
vt 1.00000000 1.00000000
vt 1.00000000 0.75000000
vt 1.00000000 1.00000000
vt 0.00000000 1.00000000
vt 0.00000000 0.00000000
vt 0.25000000 0.00000000
vt 0.35048095 0.37500000
vt 0.62500000 0.64951905
vt 0.00000000 1.00000000
vt 0.00000000 0.00000000
vt 1.00000000 0.00000000
vt 1.00000000 1.00000000
vt 0.00000000 1.00000000
vt 0.00000000 0.00000000
vt 1.00000000 0.00000000
vt 1.00000000 1.00000000
vn 0.13656710 0.84945892 -0.50967535
vn 0.13656710 0.84945892 -0.50967535
vn 0.13656710 0.84945892 -0.50967535
vn 0.13656710 0.84945892 -0.50967535
vn 1.00000000 0.00000000 -0.00000000
vn 1.00000000 0.00000000 -0.00000000
vn 1.00000000 0.00000000 -0.00000000
vn 1.00000000 0.00000000 -0.00000000
vn 1.00000000 0.00000000 -0.00000000
vn 0.00000000 -1.00000000 -0.00000000
vn 0.00000000 -1.00000000 -0.00000000
vn 0.00000000 -1.00000000 -0.00000000
vn 0.00000000 -1.00000000 -0.00000000
vn 0.00000000 -1.00000000 -0.00000000
vn 0.00000000 -1.00000000 -0.00000000
vn 0.00000000 -1.00000000 -0.00000000
vn 0.70710678 0.00000000 -0.70710678
vn 0.70710678 0.00000000 -0.70710678
vn 0.70710678 0.00000000 -0.70710678
vn 0.70710678 0.00000000 -0.70710678
vn 0.96592583 0.00000000 -0.25881905
vn 0.96592583 0.00000000 -0.25881905
vn 0.96592583 0.00000000 -0.25881905
vn 0.96592583 0.00000000 -0.25881905
vn 0.50967535 0.84945892 -0.13656710
vn 0.50967535 0.84945892 -0.13656710
vn 0.50967535 0.84945892 -0.13656710
vn 0.50967535 0.84945892 -0.13656710
vn -0.00000000 -0.00000000 -1.00000000
vn -0.00000000 -0.00000000 -1.00000000
vn -0.00000000 -0.00000000 -1.00000000
vn -0.00000000 -0.00000000 -1.00000000
vn -0.00000000 -0.00000000 -1.00000000
vn -1.00000000 0.00000000 0.00000000
vn -1.00000000 0.00000000 0.00000000
vn -1.00000000 0.00000000 0.00000000
vn -1.00000000 0.00000000 0.00000000
vn 0.00000000 0.00000000 1.00000000
vn 0.00000000 0.00000000 1.00000000
vn 0.00000000 0.00000000 1.00000000
vn 0.00000000 0.00000000 1.00000000
vn 0.00000000 1.00000000 -0.00000000
vn 0.00000000 1.00000000 -0.00000000
vn 0.00000000 1.00000000 -0.00000000
vn 0.00000000 1.00000000 -0.00000000
vn 0.00000000 1.00000000 -0.00000000
vn 0.00000000 1.00000000 -0.00000000
vn 0.00000000 1.00000000 -0.00000000
vn 0.37310825 0.84945892 -0.37310825
vn 0.37310825 0.84945892 -0.37310825
vn 0.37310825 0.84945892 -0.37310825
vn 0.37310825 0.84945892 -0.37310825
vn 0.25881905 0.00000000 -0.96592583
vn 0.25881905 0.00000000 -0.96592583
vn 0.25881905 0.00000000 -0.96592583
vn 0.25881905 0.00000000 -0.96592583
s 1
usemtl Metal_Blue_Light
f 4/4/4 3/3/3 1/1/1
f 3/3/3 2/2/2 1/1/1
s 2
f 4/6/6 5/5/5 7/9/9
f 7/9/9 6/8/8 4/6/6
f 6/8/8 3/7/7 4/6/6
s 3
f 8/11/11 9/12/12 10/13/13
f 8/11/11 10/13/13 11/14/14
f 11/14/14 12/15/15 8/11/11
f 12/15/15 6/16/16 8/11/11
f 6/16/16 7/10/10 8/11/11
s 4
f 2/20/20 12/19/19 13/17/17
f 12/19/19 11/18/18 13/17/17
s 5
f 10/24/24 14/23/23 11/21/21
f 14/23/23 13/22/22 11/21/21
s 6
f 14/28/28 16/27/27 13/25/25
f 16/27/27 15/26/26 13/25/25
s 7
f 9/32/32 17/31/31 16/30/30
f 16/30/30 14/29/29 10/33/33
f 10/33/33 9/32/32 16/30/30
s 8
f 18/34/34 17/35/35 9/36/36
f 18/34/34 9/36/36 8/37/37
s 9
f 8/38/38 7/39/39 5/40/40
f 8/38/38 5/40/40 18/41/41
s 10
f 15/48/48 16/42/42 17/43/43
f 1/47/47 15/48/48 18/44/44
f 18/44/44 5/45/45 1/47/47
f 5/45/45 4/46/46 1/47/47
f 15/48/48 17/43/43 18/44/44
s 11
f 1/52/52 2/51/51 15/49/49
f 2/51/51 13/50/50 15/49/49
s 12
f 3/56/56 6/55/55 2/53/53
f 6/55/55 12/54/54 2/53/53
