mtllib Spacestation_Structure_Fuselage_Curved_Outer_Normal.mtl
o object1
g object1
v 0.79903811 0.40000000 -0.25000000
v -0.06698730 1.00000000 0.25000000
v -0.25000000 1.00000000 0.06698730
v 0.25000000 0.40000000 -0.79903811
v -0.50000000 1.00000000 0.00000000
v -0.50000000 0.40000000 -1.00000000
v -0.50000000 1.00000000 0.50000000
v -0.50000000 -0.00000000 -1.00000000
v -0.50000000 0.00000000 0.50000000
v 1.00000000 0.40000000 0.50000000
v -0.00000000 1.00000000 0.50000000
v 1.00000000 -0.00000000 0.50000000
v 0.79903811 -0.00000000 -0.25000000
v 0.25000000 -0.00000000 -0.79903811
vt 0.00000000 1.00000000
vt 0.00000000 0.00000000
vt 1.00000000 0.00000000
vt 1.00000000 1.00000000
vt 0.00000000 1.00000000
vt 0.00000000 0.00000000
vt 1.00000000 0.00000000
vt 1.00000000 1.00000000
vt 0.00000000 1.00000000
vt 0.00000000 0.66666667
vt 0.60000000 0.00000000
vt 1.00000000 0.00000000
vt 1.00000000 1.00000000
vt 0.60000000 1.00000000
vt 0.00000000 0.33333333
vt 0.00000000 0.00000000
vt 1.00000000 0.00000000
vt 1.00000000 1.00000000
vt 1.00000000 0.00000000
vt 1.00000000 1.00000000
vt 0.00000000 1.00000000
vt 0.00000000 0.00000000
vt 0.00000000 0.00000000
vt 1.00000000 0.00000000
vt 0.86602540 0.50000000
vt 0.50000000 0.86602540
vt 0.00000000 1.00000000
vt 0.00000000 1.00000000
vt 0.00000000 0.00000000
vt 1.00000000 0.00000000
vt 1.00000000 1.00000000
vt 0.00000000 1.00000000
vt 0.00000000 0.00000000
vt 1.00000000 0.00000000
vt 1.00000000 1.00000000
vt 1.00000000 0.00000000
vt 1.00000000 1.00000000
vt 0.00000000 1.00000000
vt 0.00000000 0.00000000
vt 0.00000000 0.00000000
vt 0.50000000 0.13397460
vt 0.86602540 0.50000000
vt 1.00000000 1.00000000
vt 0.00000000 1.00000000
vn 0.37310825 0.84945892 -0.37310825
vn 0.37310825 0.84945892 -0.37310825
vn 0.37310825 0.84945892 -0.37310825
vn 0.37310825 0.84945892 -0.37310825
vn 0.13656710 0.84945892 -0.50967535
vn 0.13656710 0.84945892 -0.50967535
vn 0.13656710 0.84945892 -0.50967535
vn 0.13656710 0.84945892 -0.50967535
vn -1.00000000 0.00000000 0.00000000
vn -1.00000000 0.00000000 0.00000000
vn -1.00000000 0.00000000 0.00000000
vn -1.00000000 0.00000000 0.00000000
vn -1.00000000 0.00000000 0.00000000
vn 0.00000000 0.00000000 1.00000000
vn 0.00000000 0.00000000 1.00000000
vn 0.00000000 0.00000000 1.00000000
vn 0.00000000 0.00000000 1.00000000
vn 0.00000000 0.00000000 1.00000000
vn 0.96592583 -0.00000000 -0.25881905
vn 0.96592583 -0.00000000 -0.25881905
vn 0.96592583 -0.00000000 -0.25881905
vn 0.96592583 -0.00000000 -0.25881905
vn -0.00000000 -1.00000000 0.00000000
vn -0.00000000 -1.00000000 0.00000000
vn -0.00000000 -1.00000000 0.00000000
vn -0.00000000 -1.00000000 0.00000000
vn -0.00000000 -1.00000000 0.00000000
vn 0.25881905 0.00000000 -0.96592583
vn 0.25881905 0.00000000 -0.96592583
vn 0.25881905 0.00000000 -0.96592583
vn 0.25881905 0.00000000 -0.96592583
vn 0.70710678 -0.00000000 -0.70710678
vn 0.70710678 -0.00000000 -0.70710678
vn 0.70710678 -0.00000000 -0.70710678
vn 0.70710678 -0.00000000 -0.70710678
vn 0.50967535 0.84945892 -0.13656710
vn 0.50967535 0.84945892 -0.13656710
vn 0.50967535 0.84945892 -0.13656710
vn 0.50967535 0.84945892 -0.13656710
vn -0.00000000 1.00000000 -0.00000000
vn -0.00000000 1.00000000 -0.00000000
vn -0.00000000 1.00000000 -0.00000000
vn -0.00000000 1.00000000 -0.00000000
vn -0.00000000 1.00000000 -0.00000000
s 1
usemtl Metal_Blue_Light
f 4/4/4 3/3/3 2/2/2
f 4/4/4 2/2/2 1/1/1
s 2
f 6/8/8 5/7/7 3/6/6
f 6/8/8 3/6/6 4/5/5
s 3
f 9/13/13 7/9/9 5/10/10
f 5/10/10 6/11/11 8/12/12
f 5/10/10 8/12/12 9/13/13
s 4
f 11/15/15 7/16/16 9/17/17
f 11/15/15 9/17/17 12/18/18
f 12/18/18 10/14/14 11/15/15
s 5
f 10/22/22 12/21/21 13/20/20
f 10/22/22 13/20/20 1/19/19
s 6
f 8/24/24 14/25/25 13/26/26
f 13/26/26 12/27/27 9/23/23
f 9/23/23 8/24/24 13/26/26
s 7
f 8/31/31 6/30/30 14/28/28
f 6/30/30 4/29/29 14/28/28
s 8
f 14/35/35 4/34/34 1/33/33
f 14/35/35 1/33/33 13/32/32
s 9
f 11/39/39 10/38/38 1/37/37
f 11/39/39 1/37/37 2/36/36
s 10
f 2/41/41 3/42/42 5/43/43
f 2/41/41 5/43/43 7/44/44
f 7/44/44 11/40/40 2/41/41
