mtllib Spacestation_Structure_Fuselage_Straight_Horizontal_Vented.mtl
o object1
g object1
v -0.45000000 0.10000000 -0.45000000
v 0.45000000 0.10000000 -0.45000000
v 0.45000000 0.92500000 -0.45000000
v -0.45000000 0.92500000 -0.45000000
v -0.45000000 0.92500000 0.45000000
v 0.45000000 0.92500000 0.45000000
v -0.45000000 0.10000000 0.45000000
v 0.45000000 0.10000000 0.45000000
vt 1.00000000 0.00000000
vt 1.00000000 1.00000000
vt 0.00000000 1.00000000
vt 0.00000000 0.00000000
vt 0.00000000 1.00000000
vt 0.00000000 0.00000000
vt 1.00000000 0.00000000
vt 1.00000000 1.00000000
vt 1.00000000 0.00000000
vt 1.00000000 1.00000000
vt 0.00000000 1.00000000
vt 0.00000000 0.00000000
vt 0.00000000 1.00000000
vt 0.00000000 0.00000000
vt 1.00000000 0.00000000
vt 1.00000000 1.00000000
vt 0.00000000 1.00000000
vt 0.00000000 0.00000000
vt 1.00000000 0.00000000
vt 1.00000000 1.00000000
vt 1.00000000 0.00000000
vt 1.00000000 1.00000000
vt 0.00000000 1.00000000
vt 0.00000000 0.00000000
vn 0.00000000 -0.00000000 -1.00000000
vn 0.00000000 -0.00000000 -1.00000000
vn 0.00000000 -0.00000000 -1.00000000
vn 0.00000000 -0.00000000 -1.00000000
vn 0.00000000 1.00000000 0.00000000
vn 0.00000000 1.00000000 0.00000000
vn 0.00000000 1.00000000 0.00000000
vn 0.00000000 1.00000000 0.00000000
vn -0.00000000 0.00000000 1.00000000
vn -0.00000000 0.00000000 1.00000000
vn -0.00000000 0.00000000 1.00000000
vn -0.00000000 0.00000000 1.00000000
vn -1.00000000 -0.00000000 0.00000000
vn -1.00000000 -0.00000000 0.00000000
vn -1.00000000 -0.00000000 0.00000000
vn -1.00000000 -0.00000000 0.00000000
vn -0.00000000 -1.00000000 -0.00000000
vn -0.00000000 -1.00000000 -0.00000000
vn -0.00000000 -1.00000000 -0.00000000
vn -0.00000000 -1.00000000 -0.00000000
vn 1.00000000 -0.00000000 0.00000000
vn 1.00000000 -0.00000000 0.00000000
vn 1.00000000 -0.00000000 0.00000000
vn 1.00000000 -0.00000000 0.00000000
s 1
usemtl Metal_Gray_Dark
f 4/4/4 3/3/3 1/1/1
f 3/3/3 2/2/2 1/1/1
s 2
f 3/5/5 4/6/6 5/7/7
f 3/5/5 5/7/7 6/8/8
s 3
f 7/9/9 8/10/10 6/11/11
f 7/9/9 6/11/11 5/12/12
s 4
f 1/13/13 7/14/14 5/15/15
f 1/13/13 5/15/15 4/16/16
s 5
f 8/20/20 7/19/19 2/17/17
f 7/19/19 1/18/18 2/17/17
s 6
f 3/24/24 6/23/23 2/21/21
f 6/23/23 8/22/22 2/21/21
o object2
g object2
v -0.35000000 0.95000000 0.35000000
v -0.40000000 1.00000000 0.35000000
v -0.40000000 1.00000000 0.25000000
v -0.35000000 0.95000000 0.25000000
v -0.35000000 1.00000000 0.20000000
v 0.35000000 0.95000000 0.25000000
v 0.35000000 1.00000000 0.20000000
v 0.00000000 1.00000000 0.20000000
v 0.40000000 1.00000000 0.25000000
v 0.35000000 0.95000000 0.35000000
v 0.40000000 1.00000000 0.35000000
v 0.35000000 1.00000000 0.40000000
v -0.35000000 1.00000000 0.40000000
v 0.00000000 1.00000000 0.40000000
v -0.35000000 0.10000000 0.35000000
v 0.35000000 0.10000000 0.35000000
v 0.35000000 0.10000000 0.25000000
v -0.35000000 0.10000000 0.25000000
v 0.00000000 1.00000000 0.10000000
v 0.35000000 1.00000000 0.10000000
v 0.40000000 1.00000000 0.05000000
v 0.40000000 1.00000000 -0.05000000
v 0.35000000 1.00000000 -0.10000000
v 0.00000000 1.00000000 -0.10000000
v 0.00000000 1.00000000 -0.20000000
v 0.35000000 1.00000000 -0.20000000
v 0.40000000 1.00000000 -0.25000000
v 0.40000000 1.00000000 -0.35000000
v 0.35000000 1.00000000 -0.40000000
v 0.00000000 1.00000000 -0.40000000
v 0.00000000 1.00000000 -0.50000000
v 0.50000000 1.00000000 -0.50000000
v 0.50000000 1.00000000 0.50000000
v 0.00000000 1.00000000 0.50000000
v -0.50000000 1.00000000 0.50000000
v -0.50000000 1.00000000 -0.50000000
v -0.35000000 1.00000000 -0.40000000
v -0.40000000 1.00000000 -0.35000000
v -0.40000000 1.00000000 -0.25000000
v -0.35000000 1.00000000 -0.20000000
v -0.35000000 1.00000000 -0.10000000
v -0.40000000 1.00000000 -0.05000000
v -0.40000000 1.00000000 0.05000000
v -0.35000000 1.00000000 0.10000000
v -0.35000000 0.95000000 -0.05000000
v -0.35000000 0.95000000 0.05000000
v -0.35000000 0.10000000 -0.05000000
v -0.35000000 0.10000000 0.05000000
v 0.35000000 0.10000000 0.05000000
v 0.35000000 0.10000000 -0.05000000
v 0.35000000 0.95000000 0.05000000
v 0.35000000 0.95000000 -0.05000000
v -0.35000000 0.95000000 -0.35000000
v -0.35000000 0.95000000 -0.25000000
v -0.35000000 0.10000000 -0.35000000
v -0.35000000 0.10000000 -0.25000000
v 0.35000000 0.10000000 -0.25000000
v 0.35000000 0.10000000 -0.35000000
v 0.35000000 0.95000000 -0.25000000
v 0.35000000 0.95000000 -0.35000000
v 0.50000000 0.00000000 0.50000000
v -0.50000000 0.00000000 0.50000000
v -0.50000000 0.00000000 -0.50000000
v 0.50000000 -0.00000000 -0.50000000
vt 0.00000000 1.00000000
vt 0.25000000 0.00000000
vt 0.75000000 0.00000000
vt 1.00000000 1.00000000
vt 0.00000000 1.00000000
vt 0.00000000 0.00000000
vt 1.00000000 0.20000000
vt 0.00000000 0.00000000
vt 1.00000000 0.00000000
vt 1.00000000 1.00000000
vt 0.00000000 1.00000000
vt 1.00000000 0.50000000
vt 0.00000000 1.00000000
vt 0.00000000 0.00000000
vt 1.00000000 0.20000000
vt 0.75000000 0.00000000
vt 1.00000000 1.00000000
vt 0.00000000 1.00000000
vt 0.25000000 0.00000000
vt 0.00000000 1.00000000
vt 0.00000000 0.00000000
vt 1.00000000 0.20000000
vt 0.00000000 1.00000000
vt 0.00000000 0.00000000
vt 1.00000000 0.00000000
vt 1.00000000 1.00000000
vt 0.50000000 1.00000000
vt 0.00000000 1.00000000
vt 0.00000000 0.00000000
vt 1.00000000 0.00000000
vt 1.00000000 1.00000000
vt 1.00000000 0.00000000
vt 1.00000000 1.00000000
vt 0.00000000 1.00000000
vt 0.00000000 0.00000000
vt 1.00000000 0.00000000
vt 1.00000000 1.00000000
vt 0.00000000 1.00000000
vt 0.00000000 0.00000000
vt 0.00000000 0.00000000
vt 1.00000000 0.00000000
vt 1.00000000 1.00000000
vt 0.00000000 1.00000000
vt 1.00000000 0.00000000
vt 1.00000000 1.00000000
vt 0.00000000 1.00000000
vt 0.00000000 0.00000000
vt 0.00000000 1.00000000
vt 0.00000000 0.00000000
vt 1.00000000 0.20000000
vt 0.90000000 0.50000000
vt 0.90000000 0.15000000
vt 0.85000000 0.10000000
vt 0.75000000 0.10000000
vt 0.70000000 0.15000000
vt 0.70000000 0.50000000
vt 0.60000000 0.50000000
vt 0.60000000 0.15000000
vt 0.55000000 0.10000000
vt 0.45000000 0.10000000
vt 0.40000000 0.15000000
vt 0.40000000 0.50000000
vt 0.30000000 0.50000000
vt 0.30000000 0.15000000
vt 0.25000000 0.10000000
vt 0.15000000 0.10000000
vt 0.10000000 0.15000000
vt 0.10000000 0.50000000
vt 0.00000000 0.50000000
vt 0.00000000 0.00000000
vt 1.00000000 0.00000000
vt 1.00000000 0.50000000
vt 0.70000000 0.85000000
vt 0.75000000 0.90000000
vt 0.85000000 0.90000000
vt 0.90000000 0.85000000
vt 1.00000000 1.00000000
vt 0.00000000 1.00000000
vt 0.10000000 0.85000000
vt 0.15000000 0.90000000
vt 0.25000000 0.90000000
vt 0.30000000 0.85000000
vt 0.40000000 0.85000000
vt 0.45000000 0.90000000
vt 0.55000000 0.90000000
vt 0.60000000 0.85000000
vt 0.00000000 1.00000000
vt 0.00000000 0.00000000
vt 1.00000000 0.20000000
vt 0.00000000 1.00000000
vt 0.25000000 0.00000000
vt 0.75000000 0.00000000
vt 1.00000000 1.00000000
vt 1.00000000 0.00000000
vt 1.00000000 1.00000000
vt 0.00000000 1.00000000
vt 0.00000000 0.00000000
vt 0.00000000 1.00000000
vt 0.00000000 0.00000000
vt 1.00000000 0.00000000
vt 1.00000000 1.00000000
vt 1.00000000 0.00000000
vt 1.00000000 1.00000000
vt 0.00000000 1.00000000
vt 0.00000000 0.00000000
vt 0.00000000 1.00000000
vt 0.00000000 0.00000000
vt 1.00000000 0.00000000
vt 1.00000000 1.00000000
vt 0.00000000 0.00000000
vt 1.00000000 0.00000000
vt 1.00000000 1.00000000
vt 0.00000000 1.00000000
vt 0.00000000 1.00000000
vt 0.00000000 0.00000000
vt 1.00000000 0.20000000
vt 0.00000000 1.00000000
vt 0.00000000 0.00000000
vt 1.00000000 0.00000000
vt 1.00000000 1.00000000
vt 0.50000000 1.00000000
vt 0.00000000 1.00000000
vt 0.00000000 0.00000000
vt 1.00000000 0.20000000
vt 0.75000000 0.00000000
vt 1.00000000 1.00000000
vt 0.00000000 1.00000000
vt 0.25000000 0.00000000
vt 0.00000000 1.00000000
vt 0.00000000 0.00000000
vt 1.00000000 0.20000000
vt 0.00000000 0.00000000
vt 1.00000000 0.00000000
vt 1.00000000 1.00000000
vt 0.00000000 1.00000000
vt 1.00000000 0.50000000
vt 0.00000000 1.00000000
vt 0.00000000 0.00000000
vt 1.00000000 0.20000000
vt 0.00000000 1.00000000
vt 0.25000000 0.00000000
vt 0.75000000 0.00000000
vt 1.00000000 1.00000000
vt 1.00000000 0.00000000
vt 1.00000000 1.00000000
vt 0.00000000 1.00000000
vt 0.00000000 0.00000000
vt 0.00000000 1.00000000
vt 0.00000000 0.00000000
vt 1.00000000 0.00000000
vt 1.00000000 1.00000000
vt 1.00000000 0.00000000
vt 1.00000000 1.00000000
vt 0.00000000 1.00000000
vt 0.00000000 0.00000000
vt 0.00000000 1.00000000
vt 0.00000000 0.00000000
vt 1.00000000 0.00000000
vt 1.00000000 1.00000000
vt 0.00000000 0.00000000
vt 1.00000000 0.00000000
vt 1.00000000 1.00000000
vt 0.00000000 1.00000000
vt 0.00000000 1.00000000
vt 0.00000000 0.00000000
vt 1.00000000 0.20000000
vt 0.00000000 1.00000000
vt 0.00000000 0.00000000
vt 1.00000000 0.00000000
vt 1.00000000 1.00000000
vt 0.50000000 1.00000000
vt 0.00000000 1.00000000
vt 0.00000000 0.00000000
vt 1.00000000 0.20000000
vt 0.75000000 0.00000000
vt 1.00000000 1.00000000
vt 0.00000000 1.00000000
vt 0.25000000 0.00000000
vt 0.00000000 1.00000000
vt 0.00000000 0.00000000
vt 1.00000000 0.20000000
vt 0.00000000 0.00000000
vt 1.00000000 0.00000000
vt 1.00000000 1.00000000
vt 0.00000000 1.00000000
vt 1.00000000 0.50000000
vt 1.00000000 1.00000000
vt 0.00000000 1.00000000
vt 0.00000000 0.00000000
vt 1.00000000 0.00000000
vt 0.00000000 0.50000000
vt 0.00000000 1.00000000
vt 0.00000000 0.00000000
vt 1.00000000 0.00000000
vt 1.00000000 1.00000000
vt 0.00000000 1.00000000
vt 0.00000000 0.00000000
vt 1.00000000 0.00000000
vt 1.00000000 1.00000000
vt 1.00000000 1.00000000
vt 0.00000000 1.00000000
vt 0.00000000 0.00000000
vt 1.00000000 0.00000000
vt 0.00000000 0.50000000
vt 0.00000000 1.00000000
vt 0.00000000 0.00000000
vt 1.00000000 0.00000000
vt 1.00000000 1.00000000
vn 0.70710678 0.70710678 0.00000000
vn 0.70710678 0.70710678 0.00000000
vn 0.70710678 0.70710678 0.00000000
vn 0.70710678 0.70710678 0.00000000
vn 0.57735027 0.57735027 0.57735027
vn 0.57735027 0.57735027 0.57735027
vn 0.57735027 0.57735027 0.57735027
vn 0.00000000 0.70710678 0.70710678
vn 0.00000000 0.70710678 0.70710678
vn 0.00000000 0.70710678 0.70710678
vn 0.00000000 0.70710678 0.70710678
vn 0.00000000 0.70710678 0.70710678
vn -0.57735027 0.57735027 0.57735027
vn -0.57735027 0.57735027 0.57735027
vn -0.57735027 0.57735027 0.57735027
vn -0.70710678 0.70710678 0.00000000
vn -0.70710678 0.70710678 0.00000000
vn -0.70710678 0.70710678 0.00000000
vn -0.70710678 0.70710678 0.00000000
vn -0.57735027 0.57735027 -0.57735027
vn -0.57735027 0.57735027 -0.57735027
vn -0.57735027 0.57735027 -0.57735027
vn -0.00000000 0.70710678 -0.70710678
vn -0.00000000 0.70710678 -0.70710678
vn -0.00000000 0.70710678 -0.70710678
vn -0.00000000 0.70710678 -0.70710678
vn -0.00000000 0.70710678 -0.70710678
vn -0.00000000 0.00000000 -1.00000000
vn -0.00000000 0.00000000 -1.00000000
vn -0.00000000 0.00000000 -1.00000000
vn -0.00000000 0.00000000 -1.00000000
vn 0.00000000 1.00000000 -0.00000000
vn 0.00000000 1.00000000 -0.00000000
vn 0.00000000 1.00000000 -0.00000000
vn 0.00000000 1.00000000 -0.00000000
vn -1.00000000 0.00000000 -0.00000000
vn -1.00000000 0.00000000 -0.00000000
vn -1.00000000 0.00000000 -0.00000000
vn -1.00000000 0.00000000 -0.00000000
vn 0.00000000 -0.00000000 1.00000000
vn 0.00000000 -0.00000000 1.00000000
vn 0.00000000 -0.00000000 1.00000000
vn 0.00000000 -0.00000000 1.00000000
vn 1.00000000 0.00000000 -0.00000000
vn 1.00000000 0.00000000 -0.00000000
vn 1.00000000 0.00000000 -0.00000000
vn 1.00000000 0.00000000 -0.00000000
vn 0.57735027 0.57735027 -0.57735027
vn 0.57735027 0.57735027 -0.57735027
vn 0.57735027 0.57735027 -0.57735027
vn 0.00000000 1.00000000 -0.00000000
vn 0.00000000 1.00000000 -0.00000000
vn 0.00000000 1.00000000 -0.00000000
vn 0.00000000 1.00000000 -0.00000000
vn 0.00000000 1.00000000 -0.00000000
vn 0.00000000 1.00000000 -0.00000000
vn 0.00000000 1.00000000 -0.00000000
vn 0.00000000 1.00000000 -0.00000000
vn 0.00000000 1.00000000 -0.00000000
vn 0.00000000 1.00000000 -0.00000000
vn 0.00000000 1.00000000 -0.00000000
vn 0.00000000 1.00000000 -0.00000000
vn 0.00000000 1.00000000 -0.00000000
vn 0.00000000 1.00000000 -0.00000000
vn 0.00000000 1.00000000 -0.00000000
vn 0.00000000 1.00000000 -0.00000000
vn 0.00000000 1.00000000 -0.00000000
vn 0.00000000 1.00000000 -0.00000000
vn 0.00000000 1.00000000 -0.00000000
vn 0.00000000 1.00000000 -0.00000000
vn 0.00000000 1.00000000 -0.00000000
vn 0.00000000 1.00000000 -0.00000000
vn 0.00000000 1.00000000 -0.00000000
vn 0.00000000 1.00000000 -0.00000000
vn 0.00000000 1.00000000 -0.00000000
vn 0.00000000 1.00000000 -0.00000000
vn 0.00000000 1.00000000 -0.00000000
vn 0.00000000 1.00000000 -0.00000000
vn 0.00000000 1.00000000 -0.00000000
vn 0.00000000 1.00000000 -0.00000000
vn 0.00000000 1.00000000 -0.00000000
vn 0.00000000 1.00000000 -0.00000000
vn 0.00000000 1.00000000 -0.00000000
vn 0.00000000 1.00000000 -0.00000000
vn 0.00000000 1.00000000 -0.00000000
vn 0.00000000 1.00000000 -0.00000000
vn 0.57735027 0.57735027 0.57735027
vn 0.57735027 0.57735027 0.57735027
vn 0.57735027 0.57735027 0.57735027
vn 0.70710678 0.70710678 0.00000000
vn 0.70710678 0.70710678 0.00000000
vn 0.70710678 0.70710678 0.00000000
vn 0.70710678 0.70710678 0.00000000
vn 1.00000000 0.00000000 -0.00000000
vn 1.00000000 0.00000000 -0.00000000
vn 1.00000000 0.00000000 -0.00000000
vn 1.00000000 0.00000000 -0.00000000
vn -0.00000000 1.00000000 -0.00000000
vn -0.00000000 1.00000000 -0.00000000
vn -0.00000000 1.00000000 -0.00000000
vn -0.00000000 1.00000000 -0.00000000
vn -1.00000000 0.00000000 -0.00000000
vn -1.00000000 0.00000000 -0.00000000
vn -1.00000000 0.00000000 -0.00000000
vn -1.00000000 0.00000000 -0.00000000
vn -0.00000000 0.00000000 -1.00000000
vn -0.00000000 0.00000000 -1.00000000
vn -0.00000000 0.00000000 -1.00000000
vn -0.00000000 0.00000000 -1.00000000
vn 0.00000000 -0.00000000 1.00000000
vn 0.00000000 -0.00000000 1.00000000
vn 0.00000000 -0.00000000 1.00000000
vn 0.00000000 -0.00000000 1.00000000
vn 0.57735027 0.57735027 -0.57735027
vn 0.57735027 0.57735027 -0.57735027
vn 0.57735027 0.57735027 -0.57735027
vn -0.00000000 0.70710678 -0.70710678
vn -0.00000000 0.70710678 -0.70710678
vn -0.00000000 0.70710678 -0.70710678
vn -0.00000000 0.70710678 -0.70710678
vn -0.00000000 0.70710678 -0.70710678
vn -0.57735027 0.57735027 -0.57735027
vn -0.57735027 0.57735027 -0.57735027
vn -0.57735027 0.57735027 -0.57735027
vn -0.70710678 0.70710678 0.00000000
vn -0.70710678 0.70710678 0.00000000
vn -0.70710678 0.70710678 0.00000000
vn -0.70710678 0.70710678 0.00000000
vn -0.57735027 0.57735027 0.57735027
vn -0.57735027 0.57735027 0.57735027
vn -0.57735027 0.57735027 0.57735027
vn 0.00000000 0.70710678 0.70710678
vn 0.00000000 0.70710678 0.70710678
vn 0.00000000 0.70710678 0.70710678
vn 0.00000000 0.70710678 0.70710678
vn 0.00000000 0.70710678 0.70710678
vn 0.57735027 0.57735027 0.57735027
vn 0.57735027 0.57735027 0.57735027
vn 0.57735027 0.57735027 0.57735027
vn 0.70710678 0.70710678 0.00000000
vn 0.70710678 0.70710678 0.00000000
vn 0.70710678 0.70710678 0.00000000
vn 0.70710678 0.70710678 0.00000000
vn 1.00000000 0.00000000 -0.00000000
vn 1.00000000 0.00000000 -0.00000000
vn 1.00000000 0.00000000 -0.00000000
vn 1.00000000 0.00000000 -0.00000000
vn -0.00000000 1.00000000 -0.00000000
vn -0.00000000 1.00000000 -0.00000000
vn -0.00000000 1.00000000 -0.00000000
vn -0.00000000 1.00000000 -0.00000000
vn -1.00000000 0.00000000 -0.00000000
vn -1.00000000 0.00000000 -0.00000000
vn -1.00000000 0.00000000 -0.00000000
vn -1.00000000 0.00000000 -0.00000000
vn -0.00000000 0.00000000 -1.00000000
vn -0.00000000 0.00000000 -1.00000000
vn -0.00000000 0.00000000 -1.00000000
vn -0.00000000 0.00000000 -1.00000000
vn 0.00000000 -0.00000000 1.00000000
vn 0.00000000 -0.00000000 1.00000000
vn 0.00000000 -0.00000000 1.00000000
vn 0.00000000 -0.00000000 1.00000000
vn 0.57735027 0.57735027 -0.57735027
vn 0.57735027 0.57735027 -0.57735027
vn 0.57735027 0.57735027 -0.57735027
vn -0.00000000 0.70710678 -0.70710678
vn -0.00000000 0.70710678 -0.70710678
vn -0.00000000 0.70710678 -0.70710678
vn -0.00000000 0.70710678 -0.70710678
vn -0.00000000 0.70710678 -0.70710678
vn -0.57735027 0.57735027 -0.57735027
vn -0.57735027 0.57735027 -0.57735027
vn -0.57735027 0.57735027 -0.57735027
vn -0.70710678 0.70710678 0.00000000
vn -0.70710678 0.70710678 0.00000000
vn -0.70710678 0.70710678 0.00000000
vn -0.70710678 0.70710678 0.00000000
vn -0.57735027 0.57735027 0.57735027
vn -0.57735027 0.57735027 0.57735027
vn -0.57735027 0.57735027 0.57735027
vn 0.00000000 0.70710678 0.70710678
vn 0.00000000 0.70710678 0.70710678
vn 0.00000000 0.70710678 0.70710678
vn 0.00000000 0.70710678 0.70710678
vn 0.00000000 0.70710678 0.70710678
vn 0.00000000 -0.00000000 1.00000000
vn 0.00000000 -0.00000000 1.00000000
vn 0.00000000 -0.00000000 1.00000000
vn 0.00000000 -0.00000000 1.00000000
vn 0.00000000 -0.00000000 1.00000000
vn 0.00000000 -1.00000000 0.00000000
vn 0.00000000 -1.00000000 0.00000000
vn 0.00000000 -1.00000000 0.00000000
vn 0.00000000 -1.00000000 0.00000000
vn -1.00000000 0.00000000 0.00000000
vn -1.00000000 0.00000000 0.00000000
vn -1.00000000 0.00000000 0.00000000
vn -1.00000000 0.00000000 0.00000000
vn -0.00000000 0.00000000 -1.00000000
vn -0.00000000 0.00000000 -1.00000000
vn -0.00000000 0.00000000 -1.00000000
vn -0.00000000 0.00000000 -1.00000000
vn -0.00000000 0.00000000 -1.00000000
vn 1.00000000 0.00000000 0.00000000
vn 1.00000000 0.00000000 0.00000000
vn 1.00000000 0.00000000 0.00000000
vn 1.00000000 0.00000000 0.00000000
s 1
usemtl Metal_Blue_Light
f 12/28/28 11/27/27 10/26/26
f 12/28/28 10/26/26 9/25/25
s 2
f 11/29/29 12/30/30 13/31/31
s 3
f 14/32/32 15/33/33 16/36/36
f 16/36/36 13/34/34 12/35/35
f 14/32/32 16/36/36 12/35/35
s 4
f 15/39/39 14/38/38 17/37/37
s 5
f 17/40/40 14/41/41 19/43/43
f 14/41/41 18/42/42 19/43/43
s 6
f 19/44/44 18/45/45 20/46/46
s 7
f 22/51/51 20/47/47 18/48/48
f 18/48/48 9/49/49 22/51/51
f 9/49/49 21/50/50 22/51/51
s 8
f 24/55/55 23/54/54 18/52/52
f 23/54/54 9/53/53 18/52/52
s 9
f 24/56/56 25/57/57 23/59/59
f 25/57/57 26/58/58 23/59/59
s 10
f 18/60/60 14/61/61 24/63/63
f 14/61/61 25/62/62 24/63/63
s 11
f 14/64/64 12/65/65 25/67/67
f 12/65/65 26/66/66 25/67/67
s 12
f 23/71/71 26/70/70 9/68/68
f 26/70/70 12/69/69 9/68/68
s 13
f 21/74/74 9/73/73 10/72/72
s 14
f 20/76/76 22/75/75 42/96/96
f 43/101/101 42/96/96 21/100/100
f 44/102/102 43/101/101 51/109/109
f 11/98/98 52/110/110 51/109/109
f 13/97/97 27/81/81 52/110/110
f 28/82/82 27/81/81 15/79/79
f 29/83/83 28/82/82 17/78/78
f 17/78/78 19/77/77 41/95/95
f 40/94/94 30/84/84 29/83/83
f 35/89/89 31/85/85 30/84/84
f 34/88/88 33/87/87 31/85/85
f 32/86/86 33/87/87 48/106/106
f 49/107/107 48/106/106 47/105/105
f 50/108/108 49/107/107 47/105/105
f 49/107/107 32/86/86 48/106/106
f 33/87/87 32/86/86 31/85/85
f 35/89/89 34/88/88 31/85/85
f 40/94/94 35/89/89 30/84/84
f 40/94/94 36/90/90 35/89/89
f 40/94/94 37/91/91 36/90/90
f 39/93/93 38/92/92 37/91/91
f 45/103/103 38/92/92 39/93/93
f 40/94/94 39/93/93 37/91/91
f 29/83/83 41/95/95 40/94/94
f 29/83/83 17/78/78 41/95/95
f 28/82/82 15/79/79 17/78/78
f 27/81/81 16/80/80 15/79/79
f 13/97/97 16/80/80 27/81/81
f 11/98/98 13/97/97 52/110/110
f 51/109/109 50/108/108 44/102/102
f 50/108/108 47/105/105 44/102/102
f 47/105/105 46/104/104 44/102/102
f 46/104/104 45/103/103 44/102/102
f 45/103/103 39/93/93 44/102/102
f 43/101/101 11/98/98 51/109/109
f 43/101/101 10/99/99 11/98/98
f 43/101/101 21/100/100 10/99/99
f 42/96/96 22/75/75 21/100/100
f 19/77/77 20/76/76 41/95/95
f 20/76/76 42/96/96 41/95/95
s 15
f 50/111/111 53/112/112 49/113/113
s 16
f 53/117/117 50/116/116 51/115/115
f 53/117/117 51/115/115 54/114/114
s 17
f 56/121/121 55/120/120 54/118/118
f 55/120/120 53/119/119 54/118/118
s 18
f 55/122/122 56/123/123 57/124/124
f 55/122/122 57/124/124 58/125/125
s 19
f 59/126/126 60/127/127 57/129/129
f 60/127/127 58/128/128 57/129/129
s 20
f 57/133/133 56/132/132 59/130/130
f 56/132/132 54/131/131 59/130/130
s 21
f 60/134/134 53/135/135 58/137/137
f 53/135/135 55/136/136 58/137/137
s 22
f 52/140/140 54/139/139 51/138/138
s 23
f 27/145/145 28/141/141 59/142/142
f 59/142/142 54/143/143 27/145/145
f 54/143/143 52/144/144 27/145/145
s 24
f 29/146/146 59/147/147 28/148/148
s 25
f 30/149/149 60/150/150 29/152/152
f 60/150/150 59/151/151 29/152/152
s 26
f 31/155/155 60/154/154 30/153/153
s 27
f 60/156/156 31/157/157 32/160/160
f 32/160/160 49/158/158 53/159/159
f 60/156/156 32/160/160 53/159/159
s 28
f 46/161/161 61/162/162 45/163/163
s 29
f 61/167/167 46/166/166 62/164/164
f 46/166/166 47/165/165 62/164/164
s 30
f 64/171/171 63/170/170 62/168/168
f 63/170/170 61/169/169 62/168/168
s 31
f 63/172/172 64/173/173 65/174/174
f 63/172/172 65/174/174 66/175/175
s 32
f 67/176/176 68/177/177 65/179/179
f 68/177/177 66/178/178 65/179/179
s 33
f 65/183/183 64/182/182 67/180/180
f 64/182/182 62/181/181 67/180/180
s 34
f 68/184/184 61/185/185 66/187/187
f 61/185/185 63/186/186 66/187/187
s 35
f 48/190/190 62/189/189 47/188/188
s 36
f 33/195/195 34/191/191 67/192/192
f 67/192/192 62/193/193 33/195/195
f 62/193/193 48/194/194 33/195/195
s 37
f 35/196/196 67/197/197 34/198/198
s 38
f 36/199/199 68/200/200 67/201/201
f 36/199/199 67/201/201 35/202/202
s 39
f 37/205/205 68/204/204 36/203/203
s 40
f 68/206/206 37/207/207 38/210/210
f 38/210/210 45/208/208 61/209/209
f 68/206/206 38/210/210 61/209/209
s 41
f 42/215/215 43/213/213 70/214/214
f 69/211/211 42/215/215 70/214/214
f 69/211/211 41/212/212 42/215/215
s 42
f 72/219/219 69/218/218 71/216/216
f 69/218/218 70/217/217 71/216/216
s 43
f 71/223/223 70/222/222 44/220/220
f 70/222/222 43/221/221 44/220/220
s 44
f 71/227/227 44/226/226 39/228/228
f 39/228/228 40/225/225 72/224/224
f 71/227/227 39/228/228 72/224/224
s 45
f 40/229/229 41/230/230 69/231/231
f 40/229/229 69/231/231 72/232/232
