mtllib Spacestation_Structure_Wing_Double.mtl
o object1
g object1
v 1.00000000 0.65000000 0.15000000
v 0.90000000 0.75000000 0.05000000
v -0.65000000 0.75000000 0.05000000
v -0.65000000 0.65000000 0.15000000
v 0.90000000 0.75000000 -0.05000000
v 1.00000000 0.65000000 -0.15000000
v -0.65000000 0.65000000 -0.15000000
v -0.65000000 0.75000000 -0.05000000
v -0.70000000 0.70000000 -0.05000000
v -0.70000000 0.65000000 -0.10000000
v -0.70000000 0.70000000 0.05000000
v -0.70000000 0.50000000 -0.10000000
v -0.70000000 0.50000000 0.10000000
v -0.70000000 0.65000000 0.10000000
v -0.65000000 0.45000000 -0.15000000
v -0.65000000 0.45000000 0.15000000
vt 1.00000000 0.00000000
vt 0.93939394 1.00000000
vt 0.00000000 1.00000000
vt 0.00000000 0.00000000
vt 0.66666667 1.00000000
vt 0.33333333 1.00000000
vt 0.00000000 0.00000000
vt 1.00000000 0.00000000
vt 0.93939394 0.00000000
vt 1.00000000 1.00000000
vt 0.00000000 1.00000000
vt 0.00000000 0.00000000
vt 1.00000000 0.75000000
vt 0.00000000 1.00000000
vt 0.00000000 0.00000000
vt 1.00000000 0.25000000
vt 1.00000000 1.00000000
vt 0.00000000 1.00000000
vt 0.00000000 0.00000000
vt 1.00000000 0.00000000
vt 0.00000000 1.00000000
vt 0.00000000 0.00000000
vt 0.75000000 0.00000000
vt 1.00000000 0.25000000
vt 1.00000000 0.75000000
vt 0.75000000 1.00000000
vt 0.00000000 1.00000000
vt 0.00000000 0.00000000
vt 1.00000000 0.16666667
vt 1.00000000 0.83333333
vt 1.00000000 0.00000000
vt 1.00000000 1.00000000
vt 0.00000000 1.00000000
vt 0.00000000 0.00000000
vt 0.75000000 0.00000000
vt 1.00000000 1.00000000
vt 0.00000000 1.00000000
vt 0.00000000 0.00000000
vt 1.00000000 0.00000000
vt 0.75000000 1.00000000
vt 0.00000000 1.00000000
vt 0.00000000 0.00000000
vt 1.00000000 0.00000000
vt 1.00000000 1.00000000
vt 0.00000000 1.00000000
vt 0.00000000 0.00000000
vt 0.00000000 0.00000000
vt 1.00000000 0.25000000
vt 1.00000000 0.75000000
vt 0.00000000 1.00000000
vt 1.00000000 0.00000000
vt 1.00000000 1.00000000
vt 0.00000000 1.00000000
vt 0.00000000 0.00000000
vn -0.00000000 0.70710678 0.70710678
vn -0.00000000 0.70710678 0.70710678
vn -0.00000000 0.70710678 0.70710678
vn -0.00000000 0.70710678 0.70710678
vn 0.70710678 0.70710678 0.00000000
vn 0.70710678 0.70710678 0.00000000
vn 0.70710678 0.70710678 0.00000000
vn 0.70710678 0.70710678 0.00000000
vn -0.00000000 0.70710678 -0.70710678
vn -0.00000000 0.70710678 -0.70710678
vn -0.00000000 0.70710678 -0.70710678
vn -0.00000000 0.70710678 -0.70710678
vn -0.57735027 0.57735027 -0.57735027
vn -0.57735027 0.57735027 -0.57735027
vn -0.57735027 0.57735027 -0.57735027
vn -0.57735027 0.57735027 -0.57735027
vn -0.70710678 0.70710678 0.00000000
vn -0.70710678 0.70710678 0.00000000
vn -0.70710678 0.70710678 0.00000000
vn -0.70710678 0.70710678 0.00000000
vn -1.00000000 -0.00000000 0.00000000
vn -1.00000000 -0.00000000 0.00000000
vn -1.00000000 -0.00000000 0.00000000
vn -1.00000000 -0.00000000 0.00000000
vn -1.00000000 -0.00000000 0.00000000
vn -1.00000000 -0.00000000 0.00000000
vn -0.70710678 -0.70710678 0.00000000
vn -0.70710678 -0.70710678 0.00000000
vn -0.70710678 -0.70710678 0.00000000
vn -0.70710678 -0.70710678 0.00000000
vn 1.00000000 0.00000000 0.00000000
vn 1.00000000 0.00000000 0.00000000
vn 1.00000000 0.00000000 0.00000000
vn 1.00000000 0.00000000 0.00000000
vn -0.70710678 0.00000000 0.70710678
vn -0.70710678 0.00000000 0.70710678
vn -0.70710678 0.00000000 0.70710678
vn -0.70710678 0.00000000 0.70710678
vn -0.70710678 0.00000000 -0.70710678
vn -0.70710678 -0.00000000 -0.70710678
vn -0.70710678 -0.00000000 -0.70710678
vn -0.70710678 0.00000000 -0.70710678
vn 0.00000000 -1.00000000 0.00000000
vn 0.00000000 -1.00000000 0.00000000
vn 0.00000000 -1.00000000 0.00000000
vn 0.00000000 -1.00000000 0.00000000
vn -0.57735027 0.57735027 0.57735027
vn -0.57735027 0.57735027 0.57735027
vn -0.57735027 0.57735027 0.57735027
vn -0.57735027 0.57735027 0.57735027
vn -0.00000000 1.00000000 -0.00000000
vn -0.00000000 1.00000000 -0.00000000
vn -0.00000000 1.00000000 -0.00000000
vn -0.00000000 1.00000000 -0.00000000
s 1
usemtl Metal_Blue
f 1/1/1 2/2/2 4/4/4
f 2/2/2 3/3/3 4/4/4
s 2
f 5/5/5 2/6/6 1/7/7
f 5/5/5 1/7/7 6/8/8
s 3
f 5/9/9 6/10/10 7/11/11
f 5/9/9 7/11/11 8/12/12
s 4
f 9/13/13 8/14/14 7/15/15
f 9/13/13 7/15/15 10/16/16
s 5
f 8/17/17 9/18/18 3/20/20
f 9/18/18 11/19/19 3/20/20
s 6
f 11/24/24 9/25/25 10/26/26
f 12/21/21 13/22/22 11/24/24
f 11/24/24 10/26/26 12/21/21
f 13/22/22 14/23/23 11/24/24
s 7
f 15/27/27 16/28/28 12/30/30
f 16/28/28 13/29/29 12/30/30
s 8
f 16/31/31 15/32/32 4/34/34
f 15/32/32 7/33/33 4/34/34
s 9
f 13/35/35 16/36/36 4/37/37
f 13/35/35 4/37/37 14/38/38
s 10
f 15/39/39 12/40/40 7/42/42
f 12/40/40 10/41/41 7/42/42
s 11
f 6/43/43 1/44/44 7/46/46
f 1/44/44 4/45/45 7/46/46
s 12
f 3/50/50 11/49/49 4/47/47
f 11/49/49 14/48/48 4/47/47
s 13
f 8/54/54 3/53/53 2/52/52
f 8/54/54 2/52/52 5/51/51
o object2
g object2
v 0.50000000 0.65717140 -1.38017873
v 0.50000000 0.60358570 -1.50000000
v -0.50000000 0.60358570 -1.50000000
v -0.52926448 0.65717140 -1.38017873
v 0.55991064 0.60358570 -1.38017873
v 0.50000000 0.50358570 -1.50000000
v 0.55991064 0.50358570 -1.38017873
v 0.50000000 0.45000000 -1.38017873
v -0.50000000 0.50358570 -1.50000000
v -0.52926448 0.45000000 -1.38017873
v 0.90000000 0.45000000 0.47639320
v 0.50000000 0.45000000 1.38017873
v -0.52926448 0.45000000 1.38017873
v -0.68063789 0.45000000 0.47639320
v -0.68063789 0.45000000 0.25000000
v -0.65000000 0.45000000 0.15000000
v -0.65000000 0.45000000 -0.15000000
v -0.68063789 0.45000000 -0.25000000
v -0.68063789 0.45000000 -0.47639320
v 0.90000000 0.45000000 -0.47639320
v 0.55991064 0.50358570 1.38017873
v 1.00000000 0.55000000 0.47639320
v 0.50000000 0.50358570 1.50000000
v 0.50000000 0.60358570 1.50000000
v 0.55991064 0.60358570 1.38017873
v -0.50000000 0.60358570 1.50000000
v -0.50000000 0.50358570 1.50000000
v -0.52926448 0.65717140 1.38017873
v 0.50000000 0.65717140 1.38017873
v 0.90000000 0.75000000 0.47639320
v -0.68063789 0.75000000 0.47639320
v 1.00000000 0.65000000 0.47639320
v 0.90000000 0.75000000 0.25000000
v 1.00000000 0.65000000 0.15000000
v -0.65000000 0.65000000 0.15000000
v -0.68063789 0.75000000 0.25000000
v 1.00000000 0.65000000 -0.15000000
v -0.65000000 0.65000000 -0.15000000
v 0.90000000 0.75000000 -0.25000000
v -0.68063789 0.75000000 -0.25000000
v 0.90000000 0.75000000 -0.47639320
v 1.00000000 0.65000000 -0.47639320
v -0.68063789 0.75000000 -0.47639320
v 1.00000000 0.55000000 -0.47639320
vt 1.00000000 1.00000000
vt 0.00000000 1.00000000
vt 0.00000000 0.02843242
vt 1.00000000 0.00000000
vt 1.00000000 1.00000000
vt 0.00000000 1.00000000
vt 0.80000000 0.00000000
vt 0.00000000 0.00000000
vt 1.00000000 0.00000000
vt 1.00000000 1.00000000
vt 0.00000000 1.00000000
vt 0.80000000 1.00000000
vt 0.00000000 0.00000000
vt 1.00000000 0.00000000
vt 1.00000000 1.00000000
vt 0.00000000 1.00000000
vt 0.00000000 0.02843242
vt 1.00000000 0.00000000
vt 0.67258388 0.00000000
vt 1.00000000 0.25306239
vt 1.00000000 0.90423270
vt 0.67258388 1.00000000
vt 0.59056798 1.00000000
vt 0.55434079 0.98061675
vt 0.44565921 0.98061675
vt 0.40943202 1.00000000
vt 0.32741612 1.00000000
vt 0.00000000 0.90423270
vt 0.00000000 0.25306239
vt 0.32741612 0.00000000
vt 1.00000000 0.00000000
vt 1.00000000 1.00000000
vt 0.00000000 1.00000000
vt 0.00000000 0.00000000
vt 0.80000000 1.00000000
vt 0.00000000 0.00000000
vt 1.00000000 0.00000000
vt 0.00000000 0.00000000
vt 1.00000000 0.00000000
vt 1.00000000 1.00000000
vt 0.00000000 1.00000000
vt 1.00000000 0.00000000
vt 1.00000000 1.00000000
vt 0.00000000 1.00000000
vt 0.00000000 0.00000000
vt 1.00000000 0.25865395
vt 1.00000000 0.74134605
vt 0.00000000 1.00000000
vt 0.00000000 0.00000000
vt 1.00000000 1.00000000
vt 0.00000000 1.00000000
vt 0.00000000 0.02843242
vt 1.00000000 0.00000000
vt 1.00000000 1.00000000
vt 0.00000000 1.00000000
vt 0.00000000 0.04203764
vt 1.00000000 0.00000000
vt 1.00000000 0.00000000
vt 1.00000000 1.00000000
vt 0.00000000 1.00000000
vt 0.00000000 0.00000000
vt 0.00000000 1.00000000
vt 0.00000000 0.00000000
vt 0.69362107 0.00000000
vt 1.00000000 1.00000000
vt 0.94049878 0.00000000
vt 1.00000000 1.00000000
vt 0.01822992 1.00000000
vt 0.00000000 0.00000000
vt 1.00000000 0.00000000
vt 1.00000000 1.00000000
vt 0.00000000 1.00000000
vt 0.00000000 0.00000000
vt 1.00000000 0.00000000
vt 0.94049878 1.00000000
vt 0.00000000 1.00000000
vt 0.01822992 0.00000000
vt 1.00000000 0.00000000
vt 1.00000000 1.00000000
vt 0.00000000 1.00000000
vt 0.30637893 0.00000000
vt 1.00000000 1.00000000
vt 0.00000000 1.00000000
vt 0.00000000 0.00000000
vt 1.00000000 0.00000000
vt 1.00000000 0.00000000
vt 1.00000000 1.00000000
vt 0.00000000 1.00000000
vt 0.00000000 0.00000000
vt 0.34256702 0.00000000
vt 0.65743298 0.00000000
vt 1.00000000 1.00000000
vt 0.00000000 1.00000000
vt 0.00000000 0.00000000
vt 1.00000000 0.00000000
vt 1.00000000 1.00000000
vt 0.00000000 1.00000000
vt 0.80000000 0.00000000
vt 1.00000000 0.00000000
vt 1.00000000 1.00000000
vt 0.00000000 1.00000000
vt 0.00000000 0.00000000
vt 1.00000000 0.00000000
vt 1.00000000 1.00000000
vt 0.00000000 1.00000000
vt 0.00000000 0.00000000
vt 1.00000000 1.00000000
vt 0.00000000 1.00000000
vt 0.00000000 0.00000000
vt 1.00000000 0.30942866
vt 0.00000000 1.00000000
vt 0.00000000 0.00000000
vt 1.00000000 0.00000000
vt 1.00000000 1.00000000
vt 0.00000000 0.66666667
vt 0.00000000 0.00000000
vt 1.00000000 0.00000000
vt 1.00000000 1.00000000
vt 1.00000000 0.00000000
vt 1.00000000 1.00000000
vt 0.00000000 1.00000000
vt 0.00000000 0.00000000
vt 0.00000000 0.66666667
vt 0.00000000 0.00000000
vt 1.00000000 0.00000000
vt 1.00000000 1.00000000
vt 0.00000000 1.00000000
vt 0.00000000 0.00000000
vt 1.00000000 0.00000000
vt 1.00000000 1.00000000
vt 1.00000000 1.00000000
vt 0.00000000 1.00000000
vt 0.00000000 0.00000000
vt 1.00000000 0.30942866
vt 1.00000000 1.00000000
vt 0.00000000 1.00000000
vt 0.00000000 0.02843242
vt 1.00000000 0.00000000
vt 1.00000000 0.00000000
vt 1.00000000 1.00000000
vt 0.00000000 1.00000000
vt 0.00000000 0.00000000
vt 1.00000000 0.00000000
vt 1.00000000 1.00000000
vt 0.00000000 1.00000000
vt 0.00000000 0.00000000
vt 1.00000000 0.00000000
vt 1.00000000 1.00000000
vt 0.00000000 1.00000000
vt 0.00000000 0.00000000
vt 1.00000000 1.00000000
vt 0.00000000 1.00000000
vt 0.00000000 0.04203764
vt 1.00000000 0.00000000
vt 1.00000000 0.25865395
vt 1.00000000 0.74134605
vt 0.00000000 1.00000000
vt 0.00000000 0.00000000
vt 1.00000000 0.00000000
vt 1.00000000 1.00000000
vt 0.00000000 1.00000000
vt 0.00000000 0.00000000
vn -0.00000000 0.91287093 -0.40824829
vn -0.00000000 0.91287093 -0.40824829
vn -0.00000000 0.91287093 -0.40824829
vn -0.00000000 0.91287093 -0.40824829
vn 0.63245553 0.70710678 -0.31622777
vn 0.63245553 0.70710678 -0.31622777
vn 0.63245553 0.70710678 -0.31622777
vn 0.89442719 0.00000000 -0.44721360
vn 0.89442719 0.00000000 -0.44721360
vn 0.89442719 0.00000000 -0.44721360
vn 0.89442719 0.00000000 -0.44721360
vn 0.63245553 -0.70710678 -0.31622777
vn 0.63245553 -0.70710678 -0.31622777
vn 0.63245553 -0.70710678 -0.31622777
vn -0.00000000 -0.91287093 -0.40824829
vn -0.00000000 -0.91287093 -0.40824829
vn -0.00000000 -0.91287093 -0.40824829
vn -0.00000000 -0.91287093 -0.40824829
vn -0.00000000 -1.00000000 0.00000000
vn -0.00000000 -1.00000000 0.00000000
vn -0.00000000 -1.00000000 0.00000000
vn -0.00000000 -1.00000000 0.00000000
vn -0.00000000 -1.00000000 0.00000000
vn -0.00000000 -1.00000000 0.00000000
vn -0.00000000 -1.00000000 0.00000000
vn -0.00000000 -1.00000000 0.00000000
vn -0.00000000 -1.00000000 0.00000000
vn -0.00000000 -1.00000000 0.00000000
vn -0.00000000 -1.00000000 0.00000000
vn -0.00000000 -1.00000000 0.00000000
vn 0.64090847 -0.71655745 0.27528488
vn 0.63941447 -0.71488711 0.28299390
vn 0.67483211 -0.67483211 0.29866914
vn 0.67577843 -0.67577843 0.29435868
vn 0.63245553 -0.70710678 0.31622777
vn 0.89442719 0.00000000 0.44721360
vn 0.89442719 0.00000000 0.44721360
vn 0.89442719 0.00000000 0.44721360
vn 0.89442719 0.00000000 0.44721360
vn -0.00000000 0.00000000 1.00000000
vn -0.00000000 0.00000000 1.00000000
vn -0.00000000 0.00000000 1.00000000
vn -0.00000000 0.00000000 1.00000000
vn -0.97144605 0.00000000 0.23726055
vn -0.97144605 0.00000000 0.23726055
vn -0.97144605 0.00000000 0.23726055
vn -0.97144605 0.00000000 0.23726055
vn -0.00000000 0.91287093 0.40824829
vn -0.00000000 0.91287093 0.40824829
vn -0.00000000 0.91287093 0.40824829
vn -0.00000000 0.91287093 0.40824829
vn 0.00000000 0.99476661 0.10217334
vn -0.00000000 0.99476661 0.10217334
vn -0.00000000 0.99476661 0.10217334
vn -0.00000000 0.99476661 0.10217334
vn 0.62491288 0.69867384 0.34833714
vn 0.62667606 0.70064514 0.34113561
vn 0.66085294 0.66085294 0.35573415
vn 0.65976134 0.65976134 0.35976373
vn 0.70710678 0.70710678 0.00000000
vn 0.70710678 0.70710678 0.00000000
vn 0.70710678 0.70710678 0.00000000
vn 0.70710678 0.70710678 0.00000000
vn 0.00000000 0.70710678 -0.70710678
vn -0.00000000 0.70710678 -0.70710678
vn -0.00000000 0.70710678 -0.70710678
vn 0.00000000 0.70710678 -0.70710678
vn -0.00000000 1.00000000 -0.00000000
vn -0.00000000 1.00000000 -0.00000000
vn -0.00000000 1.00000000 -0.00000000
vn -0.00000000 1.00000000 -0.00000000
vn -0.00000000 0.70710678 0.70710678
vn -0.00000000 0.70710678 0.70710678
vn -0.00000000 0.70710678 0.70710678
vn -0.00000000 0.70710678 0.70710678
vn 0.70710678 0.70710678 0.00000000
vn 0.70710678 0.70710678 0.00000000
vn 0.70710678 0.70710678 0.00000000
vn 0.70710678 0.70710678 0.00000000
vn -0.00000000 1.00000000 -0.00000000
vn -0.00000000 1.00000000 -0.00000000
vn -0.00000000 1.00000000 -0.00000000
vn -0.00000000 1.00000000 -0.00000000
vn 1.00000000 0.00000000 0.00000000
vn 1.00000000 0.00000000 0.00000000
vn 1.00000000 0.00000000 0.00000000
vn 1.00000000 0.00000000 0.00000000
vn 1.00000000 0.00000000 0.00000000
vn 1.00000000 0.00000000 0.00000000
vn -0.00000000 1.00000000 -0.00000000
vn -0.00000000 1.00000000 -0.00000000
vn -0.00000000 1.00000000 -0.00000000
vn -0.00000000 1.00000000 -0.00000000
vn 0.63245553 0.70710678 0.31622777
vn 0.89907461 0.00000000 0.43779543
vn 0.89907461 0.00000000 0.43779543
vn 0.70710678 -0.70710678 0.00000000
vn 0.70710678 -0.70710678 0.00000000
vn 0.70710678 -0.70710678 0.00000000
vn 0.70710678 -0.70710678 0.00000000
vn -0.98626222 0.00000000 -0.16518729
vn -0.98626222 0.00000000 -0.16518729
vn -0.98626222 0.00000000 -0.16518729
vn -0.98626222 0.00000000 -0.16518729
vn -1.00000000 0.00000000 0.00000000
vn -1.00000000 0.00000000 0.00000000
vn -1.00000000 0.00000000 0.00000000
vn -1.00000000 0.00000000 0.00000000
vn -0.95613129 0.00000000 0.29293848
vn -0.95613129 0.00000000 0.29293848
vn -0.95613129 0.00000000 0.29293848
vn -0.95613129 0.00000000 0.29293848
vn -1.00000000 0.00000000 0.00000000
vn -1.00000000 0.00000000 0.00000000
vn -1.00000000 0.00000000 0.00000000
vn -1.00000000 0.00000000 0.00000000
vn -0.95613129 0.00000000 -0.29293848
vn -0.95613129 0.00000000 -0.29293848
vn -0.95613129 0.00000000 -0.29293848
vn -0.95613129 0.00000000 -0.29293848
vn -1.00000000 0.00000000 0.00000000
vn -1.00000000 0.00000000 0.00000000
vn -1.00000000 0.00000000 0.00000000
vn -1.00000000 0.00000000 0.00000000
vn -0.98626222 0.00000000 0.16518729
vn -0.98626222 0.00000000 0.16518729
vn -0.98626222 0.00000000 0.16518729
vn -0.98626222 0.00000000 0.16518729
vn -0.00000000 -0.91287093 0.40824829
vn -0.00000000 -0.91287093 0.40824829
vn -0.00000000 -0.91287093 0.40824829
vn -0.00000000 -0.91287093 0.40824829
vn 0.67483211 -0.67483211 -0.29866914
vn 0.67577843 -0.67577843 -0.29435868
vn 0.89907461 0.00000000 -0.43779543
vn 0.89907461 0.00000000 -0.43779543
vn 0.66085294 0.66085294 -0.35573415
vn 0.65976134 0.65976134 -0.35976373
vn 0.00000000 0.99476661 -0.10217334
vn -0.00000000 0.99476661 -0.10217334
vn -0.00000000 0.99476661 -0.10217334
vn -0.00000000 0.99476661 -0.10217334
vn -0.97144605 0.00000000 -0.23726055
vn -0.97144605 0.00000000 -0.23726055
vn -0.97144605 0.00000000 -0.23726055
vn -0.97144605 0.00000000 -0.23726055
vn -0.00000000 0.00000000 -1.00000000
vn -0.00000000 0.00000000 -1.00000000
vn -0.00000000 0.00000000 -1.00000000
vn -0.00000000 0.00000000 -1.00000000
s 1
usemtl Metal_Blue_Dark
f 17/55/55 18/56/56 19/57/57
f 17/55/55 19/57/57 20/58/58
s 2
f 21/59/59 18/60/60 17/61/61
f 57/204/192 21/202/59 17/201/61
f 57/204/192 58/203/191 21/202/59
s 3
f 22/62/62 18/63/63 23/65/65
f 60/199/189 23/198/65 21/197/64
f 58/200/190 60/199/189 21/197/64
f 18/63/63 21/64/64 23/65/65
s 4
f 24/66/66 22/67/67 23/68/68
f 60/196/188 36/195/187 23/193/68
f 36/195/187 24/194/66 23/193/68
s 5
f 26/72/72 25/71/71 24/69/69
f 25/71/71 22/70/70 24/69/69
s 6
f 35/81/81 26/82/82 24/83/83
f 24/83/83 36/84/84 27/73/73
f 27/73/73 32/78/78 33/79/79
f 30/76/76 31/77/77 32/78/78
f 28/74/74 29/75/75 30/76/76
f 27/73/73 30/76/76 32/78/78
f 27/73/73 28/74/74 30/76/76
f 27/73/73 33/79/79 35/81/81
f 33/79/79 34/80/80 35/81/81
f 35/81/81 24/83/83 27/73/73
s 7
f 37/85/85 28/86/86 27/87/87
f 37/91/85 39/90/89 28/89/86
f 37/85/85 27/87/87 38/88/88
s 8
f 37/95/93 41/94/92 39/92/90
f 41/153/92 38/155/149 48/156/150
f 41/94/92 40/93/91 39/92/90
f 41/153/92 37/154/93 38/155/149
s 9
f 43/99/97 39/98/96 42/96/94
f 39/98/96 40/97/95 42/96/94
s 10
f 44/103/101 29/102/100 43/101/99
f 44/103/101 43/101/99 42/100/98
s 11
f 44/107/105 42/106/104 45/104/102
f 42/106/104 40/105/103 45/104/102
s 12
f 45/108/106 46/109/107 47/110/108
f 45/108/106 47/110/108 44/111/109
s 13
f 45/112/110 41/113/111 46/115/113
f 41/113/111 48/114/112 46/115/113
f 45/152/110 40/151/148 41/150/111
s 14
f 50/119/117 49/118/116 48/116/114
f 49/118/116 46/117/115 48/116/114
s 15
f 49/120/118 50/121/119 51/122/120
f 49/120/118 51/122/120 52/123/121
s 16
f 54/127/125 51/126/124 50/125/123
f 54/127/125 50/125/123 53/124/122
s 17
f 53/128/126 55/129/127 54/131/129
f 55/129/127 56/130/128 54/131/129
s 18
f 55/135/133 53/134/132 58/133/131
f 55/135/133 58/133/131 57/132/130
s 19
f 59/139/137 56/138/136 55/137/135
f 59/139/137 55/137/135 57/136/134
s 20
f 60/141/139 58/140/138 53/145/143
f 50/144/142 38/142/140 60/141/139
f 50/144/142 48/143/141 38/142/140
f 60/141/139 53/145/143 50/144/142
s 21
f 52/149/147 47/148/146 46/147/145
f 52/149/147 46/147/145 49/146/144
s 22
f 38/160/154 27/159/153 60/157/151
f 27/159/153 36/158/152 60/157/151
s 23
f 26/161/155 35/162/156 20/164/158
f 35/162/156 59/163/157 20/164/158
s 24
f 34/165/159 56/166/160 35/168/162
f 56/166/160 59/167/161 35/168/162
s 25
f 56/172/166 34/171/165 54/169/163
f 34/171/165 33/170/164 54/169/163
s 26
f 51/176/170 54/175/169 32/173/167
f 54/175/169 33/174/168 32/173/167
s 27
f 51/177/171 32/178/172 31/179/173
f 51/177/171 31/179/173 52/180/174
s 28
f 30/184/178 47/183/177 31/181/175
f 47/183/177 52/182/176 31/181/175
s 29
f 44/188/182 47/187/181 30/186/180
f 44/188/182 30/186/180 29/185/179
s 30
f 28/189/183 39/190/184 43/191/185
f 28/189/183 43/191/185 29/192/186
s 31
f 20/208/196 59/207/195 17/205/193
f 59/207/195 57/206/194 17/205/193
s 32
f 19/209/197 25/210/198 26/211/199
f 19/209/197 26/211/199 20/212/200
s 33
f 19/213/201 18/214/202 25/216/204
f 18/214/202 22/215/203 25/216/204
