mtllib Spacestation_Structure_Rod.mtl
o object1
g object1
v -0.50000000 -0.11584709 0.12624554
v -0.50000000 -0.03356068 0.21511485
v 0.50000000 -0.03356068 0.21511485
v 0.50000000 -0.11584709 0.12624554
v 0.50000000 0.01146359 0.22500000
v 0.50000000 -0.01146359 0.22500000
v 0.50000000 -0.12500000 0.10238068
v 0.50000000 -0.12500000 -0.10238068
v 0.50000000 -0.11584709 -0.12624554
v 0.50000000 -0.03356068 -0.21511485
v 0.50000000 -0.01146359 -0.22500000
v 0.50000000 0.01146359 -0.22500000
v 0.50000000 0.03356068 -0.21511485
v 0.50000000 0.11584709 -0.12624554
v 0.50000000 0.12500000 -0.10238068
v 0.50000000 0.12500000 0.10238068
v 0.50000000 0.11584709 0.12624554
v 0.50000000 0.03356068 0.21511485
v -0.50000000 -0.01146359 0.22500000
v -0.50000000 0.01146359 0.22500000
v -0.50000000 0.03356068 0.21511485
v -0.50000000 0.11584709 0.12624554
v -0.50000000 0.12500000 0.10238068
v -0.50000000 0.12500000 -0.10238068
v -0.50000000 0.11584709 -0.12624554
v -0.50000000 0.03356068 -0.21511485
v -0.50000000 0.01146359 -0.22500000
v -0.50000000 -0.01146359 -0.22500000
v -0.50000000 -0.03356068 -0.21511485
v -0.50000000 -0.11584709 -0.12624554
v -0.50000000 -0.12500000 -0.10238068
v -0.50000000 -0.12500000 0.10238068
vt 0.00000000 1.00000000
vt 0.00000000 0.00000000
vt 1.00000000 0.00000000
vt 1.00000000 1.00000000
vt 0.54585438 1.00000000
vt 0.45414562 1.00000000
vt 0.36575727 0.97803301
vt 0.03661165 0.78054564
vt 0.00000000 0.72751263
vt 0.00000000 0.27248737
vt 0.03661165 0.21945436
vt 0.36575727 0.02196699
vt 0.45414562 0.00000000
vt 0.54585438 0.00000000
vt 0.63424273 0.02196699
vt 0.96338835 0.21945436
vt 1.00000000 0.27248737
vt 1.00000000 0.72751263
vt 0.96338835 0.78054564
vt 0.63424273 0.97803301
vt 1.00000000 0.00000000
vt 1.00000000 1.00000000
vt 0.00000000 1.00000000
vt 0.00000000 0.00000000
vt 0.00000000 1.00000000
vt 0.00000000 0.00000000
vt 1.00000000 0.00000000
vt 1.00000000 1.00000000
vt 0.00000000 1.00000000
vt 0.00000000 0.00000000
vt 1.00000000 0.00000000
vt 1.00000000 1.00000000
vt 0.00000000 1.00000000
vt 0.00000000 0.00000000
vt 1.00000000 0.00000000
vt 1.00000000 1.00000000
vt 1.00000000 0.00000000
vt 1.00000000 1.00000000
vt 0.00000000 1.00000000
vt 0.00000000 0.00000000
vt 0.00000000 1.00000000
vt 0.00000000 0.00000000
vt 1.00000000 0.00000000
vt 1.00000000 1.00000000
vt 0.00000000 1.00000000
vt 0.00000000 0.00000000
vt 1.00000000 0.00000000
vt 1.00000000 1.00000000
vt 0.00000000 1.00000000
vt 0.00000000 0.00000000
vt 1.00000000 0.00000000
vt 1.00000000 1.00000000
vt 0.00000000 1.00000000
vt 0.00000000 0.00000000
vt 1.00000000 0.00000000
vt 1.00000000 1.00000000
vt 0.00000000 1.00000000
vt 0.00000000 0.00000000
vt 1.00000000 0.00000000
vt 1.00000000 1.00000000
vt 0.00000000 1.00000000
vt 0.00000000 0.00000000
vt 1.00000000 0.00000000
vt 1.00000000 1.00000000
vt 0.00000000 1.00000000
vt 0.00000000 0.00000000
vt 1.00000000 0.00000000
vt 1.00000000 1.00000000
vt 0.00000000 1.00000000
vt 0.00000000 0.00000000
vt 1.00000000 0.00000000
vt 1.00000000 1.00000000
vt 0.00000000 1.00000000
vt 0.00000000 0.00000000
vt 1.00000000 0.00000000
vt 1.00000000 1.00000000
vt 0.54585438 1.00000000
vt 0.45414562 1.00000000
vt 0.36575727 0.97803301
vt 0.03661165 0.78054564
vt 0.00000000 0.72751263
vt 0.00000000 0.27248737
vt 0.03661165 0.21945436
vt 0.36575727 0.02196699
vt 0.45414562 0.00000000
vt 0.54585438 0.00000000
vt 0.63424273 0.02196699
vt 0.96338835 0.21945436
vt 1.00000000 0.27248737
vt 1.00000000 0.72751263
vt 0.96338835 0.78054564
vt 0.63424273 0.97803301
vt 0.00000000 1.00000000
vt 0.00000000 0.00000000
vt 1.00000000 0.00000000
vt 1.00000000 1.00000000
vn 0.00000000 -0.73376067 0.67940803
vn 0.00000000 -0.73376067 0.67940803
vn 0.00000000 -0.73376067 0.67940803
vn 0.00000000 -0.73376067 0.67940803
vn 1.00000000 0.00000000 0.00000000
vn 1.00000000 0.00000000 0.00000000
vn 1.00000000 0.00000000 0.00000000
vn 1.00000000 0.00000000 0.00000000
vn 1.00000000 0.00000000 0.00000000
vn 1.00000000 0.00000000 0.00000000
vn 1.00000000 0.00000000 0.00000000
vn 1.00000000 0.00000000 0.00000000
vn 1.00000000 0.00000000 0.00000000
vn 1.00000000 0.00000000 0.00000000
vn 1.00000000 0.00000000 0.00000000
vn 1.00000000 0.00000000 0.00000000
vn 1.00000000 0.00000000 0.00000000
vn 1.00000000 0.00000000 0.00000000
vn 1.00000000 0.00000000 0.00000000
vn 1.00000000 0.00000000 0.00000000
vn 0.00000000 0.00000000 1.00000000
vn 0.00000000 0.00000000 1.00000000
vn 0.00000000 0.00000000 1.00000000
vn 0.00000000 0.00000000 1.00000000
vn 0.00000000 0.40835254 0.91282430
vn 0.00000000 0.40835254 0.91282430
vn 0.00000000 0.40835254 0.91282430
vn 0.00000000 0.40835254 0.91282430
vn 0.00000000 0.73376067 0.67940803
vn 0.00000000 0.73376067 0.67940803
vn 0.00000000 0.73376067 0.67940803
vn 0.00000000 0.73376067 0.67940803
vn 0.00000000 0.93368440 0.35809698
vn 0.00000000 0.93368440 0.35809698
vn 0.00000000 0.93368440 0.35809698
vn 0.00000000 0.93368440 0.35809698
vn 0.00000000 1.00000000 0.00000000
vn 0.00000000 1.00000000 0.00000000
vn 0.00000000 1.00000000 0.00000000
vn 0.00000000 1.00000000 0.00000000
vn 0.00000000 0.93368440 -0.35809698
vn 0.00000000 0.93368440 -0.35809698
vn 0.00000000 0.93368440 -0.35809698
vn 0.00000000 0.93368440 -0.35809698
vn 0.00000000 0.73376067 -0.67940803
vn 0.00000000 0.73376067 -0.67940803
vn 0.00000000 0.73376067 -0.67940803
vn 0.00000000 0.73376067 -0.67940803
vn -0.00000000 0.40835254 -0.91282430
vn -0.00000000 0.40835254 -0.91282430
vn -0.00000000 0.40835254 -0.91282430
vn -0.00000000 0.40835254 -0.91282430
vn 0.00000000 0.00000000 -1.00000000
vn 0.00000000 0.00000000 -1.00000000
vn 0.00000000 0.00000000 -1.00000000
vn 0.00000000 0.00000000 -1.00000000
vn 0.00000000 -0.40835254 -0.91282430
vn 0.00000000 -0.40835254 -0.91282430
vn 0.00000000 -0.40835254 -0.91282430
vn 0.00000000 -0.40835254 -0.91282430
vn 0.00000000 -0.73376067 -0.67940803
vn 0.00000000 -0.73376067 -0.67940803
vn 0.00000000 -0.73376067 -0.67940803
vn 0.00000000 -0.73376067 -0.67940803
vn 0.00000000 -0.93368440 -0.35809698
vn 0.00000000 -0.93368440 -0.35809698
vn 0.00000000 -0.93368440 -0.35809698
vn 0.00000000 -0.93368440 -0.35809698
vn 0.00000000 -1.00000000 0.00000000
vn 0.00000000 -1.00000000 0.00000000
vn 0.00000000 -1.00000000 0.00000000
vn 0.00000000 -1.00000000 0.00000000
vn 0.00000000 -0.93368440 0.35809698
vn 0.00000000 -0.93368440 0.35809698
vn 0.00000000 -0.93368440 0.35809698
vn 0.00000000 -0.93368440 0.35809698
vn -1.00000000 0.00000000 0.00000000
vn -1.00000000 0.00000000 0.00000000
vn -1.00000000 0.00000000 0.00000000
vn -1.00000000 0.00000000 0.00000000
vn -1.00000000 0.00000000 0.00000000
vn -1.00000000 0.00000000 0.00000000
vn -1.00000000 0.00000000 0.00000000
vn -1.00000000 0.00000000 0.00000000
vn -1.00000000 0.00000000 0.00000000
vn -1.00000000 0.00000000 0.00000000
vn -1.00000000 0.00000000 0.00000000
vn -1.00000000 0.00000000 0.00000000
vn -1.00000000 0.00000000 0.00000000
vn -1.00000000 0.00000000 0.00000000
vn -1.00000000 0.00000000 0.00000000
vn -1.00000000 0.00000000 0.00000000
vn -0.00000000 -0.40835254 0.91282430
vn -0.00000000 -0.40835254 0.91282430
vn -0.00000000 -0.40835254 0.91282430
vn -0.00000000 -0.40835254 0.91282430
s 1
usemtl Metal_Blue_Dark
f 4/4/4 3/3/3 1/1/1
f 3/3/3 2/2/2 1/1/1
s 2
f 11/13/13 12/14/14 13/15/15
f 9/11/11 13/15/15 14/16/16
f 7/9/9 14/16/16 16/18/18
f 16/18/18 17/19/19 4/8/8
f 17/19/19 3/7/7 4/8/8
f 18/20/20 6/6/6 3/7/7
f 18/20/20 5/5/5 6/6/6
f 17/19/19 18/20/20 3/7/7
f 4/8/8 7/9/9 16/18/18
f 14/16/16 15/17/17 16/18/18
f 7/9/9 9/11/11 14/16/16
f 7/9/9 8/10/10 9/11/11
f 9/11/11 10/12/12 13/15/15
f 10/12/12 11/13/13 13/15/15
s 3
f 20/24/24 19/23/23 5/21/21
f 19/23/23 6/22/22 5/21/21
s 4
f 21/25/25 20/26/26 5/27/27
f 21/25/25 5/27/27 18/28/28
s 5
f 18/32/32 17/31/31 21/29/29
f 17/31/31 22/30/30 21/29/29
s 6
f 23/33/33 22/34/34 17/35/35
f 23/33/33 17/35/35 16/36/36
s 7
f 24/40/40 23/39/39 16/38/38
f 24/40/40 16/38/38 15/37/37
s 8
f 25/41/41 24/42/42 15/43/43
f 25/41/41 15/43/43 14/44/44
s 9
f 14/48/48 13/47/47 25/45/45
f 13/47/47 26/46/46 25/45/45
s 10
f 27/49/49 26/50/50 13/51/51
f 27/49/49 13/51/51 12/52/52
s 11
f 12/56/56 11/55/55 27/53/53
f 11/55/55 28/54/54 27/53/53
s 12
f 29/57/57 28/58/58 11/59/59
f 29/57/57 11/59/59 10/60/60
s 13
f 10/64/64 9/63/63 29/61/61
f 9/63/63 30/62/62 29/61/61
s 14
f 31/65/65 30/66/66 9/67/67
f 31/65/65 9/67/67 8/68/68
s 15
f 8/72/72 7/71/71 31/69/69
f 7/71/71 32/70/70 31/69/69
s 16
f 1/73/73 32/74/74 7/75/75
f 1/73/73 7/75/75 4/76/76
s 17
f 26/87/87 27/86/86 28/85/85
f 25/88/88 26/87/87 30/83/83
f 30/83/83 31/82/82 32/81/81
f 32/81/81 1/80/80 24/89/89
f 22/91/91 23/90/90 24/89/89
f 2/79/79 21/92/92 22/91/91
f 19/78/78 20/77/77 21/92/92
f 2/79/79 19/78/78 21/92/92
f 1/80/80 22/91/91 24/89/89
f 1/80/80 2/79/79 22/91/91
f 24/89/89 25/88/88 32/81/81
f 25/88/88 30/83/83 32/81/81
f 26/87/87 29/84/84 30/83/83
f 26/87/87 28/85/85 29/84/84
s 18
f 19/93/93 2/94/94 3/95/95
f 19/93/93 3/95/95 6/96/96
