mtllib Spacestation_Structure_Fuselage_Curved_Outer_Large_Mid.mtl
o object1
g object1
v 0.27254249 0.00000000 -1.87764129
v -0.50000000 0.00000000 -2.00000000
v -0.50000000 1.00000000 -2.00000000
v 0.27254249 1.00000000 -1.87764129
v -0.50000000 0.00000000 0.50000000
v 0.96946313 0.00000000 -1.52254249
v 1.52254249 0.00000000 -0.96946313
v 1.87764129 0.00000000 -0.27254249
v 2.00000000 0.00000000 0.50000000
v -0.50000000 1.00000000 0.50000000
v 2.00000000 1.00000000 0.50000000
v 1.87764129 1.00000000 -0.27254249
v 1.52254249 1.00000000 -0.96946313
v 0.96946313 1.00000000 -1.52254249
vt 1.00000000 0.00000000
vt 1.00000000 1.00000000
vt 0.00000000 1.00000000
vt 0.00000000 0.00000000
vt 0.00000000 1.00000000
vt 0.00000000 0.00000000
vt 0.30901699 0.04894348
vt 0.58778525 0.19098301
vt 0.80901699 0.41221475
vt 0.95105652 0.69098301
vt 1.00000000 1.00000000
vt 1.00000000 0.00000000
vt 1.00000000 1.00000000
vt 0.00000000 1.00000000
vt 0.00000000 0.00000000
vt 1.00000000 0.00000000
vt 1.00000000 1.00000000
vt 0.00000000 1.00000000
vt 0.00000000 0.00000000
vt 1.00000000 0.00000000
vt 1.00000000 1.00000000
vt 0.00000000 1.00000000
vt 0.00000000 0.00000000
vt 1.00000000 0.00000000
vt 1.00000000 1.00000000
vt 0.00000000 1.00000000
vt 0.00000000 0.00000000
vt 1.00000000 0.00000000
vt 1.00000000 1.00000000
vt 0.00000000 1.00000000
vt 0.00000000 0.00000000
vt 1.00000000 1.00000000
vt 0.00000000 1.00000000
vt 0.00000000 0.00000000
vt 0.30901699 0.04894348
vt 0.58778525 0.19098301
vt 0.80901699 0.41221475
vt 0.95105652 0.69098301
vt 1.00000000 1.00000000
vt 0.00000000 1.00000000
vt 0.00000000 0.00000000
vt 1.00000000 0.00000000
vn 0.15643447 0.00000000 -0.98768834
vn 0.15643447 0.00000000 -0.98768834
vn 0.15643447 0.00000000 -0.98768834
vn 0.15643447 0.00000000 -0.98768834
vn 0.00000000 -1.00000000 -0.00000000
vn 0.00000000 -1.00000000 -0.00000000
vn 0.00000000 -1.00000000 -0.00000000
vn 0.00000000 -1.00000000 -0.00000000
vn 0.00000000 -1.00000000 -0.00000000
vn 0.00000000 -1.00000000 -0.00000000
vn 0.00000000 -1.00000000 -0.00000000
vn 0.00000000 0.00000000 1.00000000
vn 0.00000000 0.00000000 1.00000000
vn 0.00000000 0.00000000 1.00000000
vn 0.00000000 0.00000000 1.00000000
vn 0.98768834 0.00000000 -0.15643447
vn 0.98768834 0.00000000 -0.15643447
vn 0.98768834 0.00000000 -0.15643447
vn 0.98768834 0.00000000 -0.15643447
vn 0.89100652 0.00000000 -0.45399050
vn 0.89100652 0.00000000 -0.45399050
vn 0.89100652 0.00000000 -0.45399050
vn 0.89100652 0.00000000 -0.45399050
vn 0.70710678 0.00000000 -0.70710678
vn 0.70710678 0.00000000 -0.70710678
vn 0.70710678 0.00000000 -0.70710678
vn 0.70710678 0.00000000 -0.70710678
vn 0.45399050 0.00000000 -0.89100652
vn 0.45399050 0.00000000 -0.89100652
vn 0.45399050 0.00000000 -0.89100652
vn 0.45399050 0.00000000 -0.89100652
vn -0.00000000 1.00000000 0.00000000
vn -0.00000000 1.00000000 0.00000000
vn -0.00000000 1.00000000 0.00000000
vn -0.00000000 1.00000000 0.00000000
vn -0.00000000 1.00000000 0.00000000
vn -0.00000000 1.00000000 0.00000000
vn -0.00000000 1.00000000 0.00000000
vn -1.00000000 -0.00000000 0.00000000
vn -1.00000000 -0.00000000 0.00000000
vn -1.00000000 -0.00000000 0.00000000
vn -1.00000000 -0.00000000 0.00000000
s 1
usemtl Metal_Blue_Light
f 1/1/1 2/2/2 4/4/4
f 2/2/2 3/3/3 4/4/4
s 2
f 5/5/5 2/6/6 1/7/7
f 5/5/5 8/10/10 9/11/11
f 5/5/5 7/9/9 8/10/10
f 5/5/5 6/8/8 7/9/9
f 5/5/5 1/7/7 6/8/8
s 3
f 11/15/15 10/14/14 9/12/12
f 10/14/14 5/13/13 9/12/12
s 4
f 9/16/16 8/17/17 12/18/18
f 9/16/16 12/18/18 11/19/19
s 5
f 8/20/20 7/21/21 13/22/22
f 8/20/20 13/22/22 12/23/23
s 6
f 7/24/24 6/25/25 14/26/26
f 7/24/24 14/26/26 13/27/27
s 7
f 6/28/28 1/29/29 14/31/31
f 1/29/29 4/30/30 14/31/31
s 8
f 4/35/35 3/34/34 10/33/33
f 12/38/38 10/33/33 11/32/32
f 12/38/38 13/37/37 10/33/33
f 13/37/37 14/36/36 10/33/33
f 14/36/36 4/35/35 10/33/33
s 9
f 2/39/39 5/40/40 10/41/41
f 2/39/39 10/41/41 3/42/42
