mtllib Spacestation_Structure_Fuselage_Curved_Outer_Large_Band.mtl
o object1
g object1
v -0.50000000 0.22500000 -2.04937674
v -0.50000000 0.22500000 0.50000000
v -0.50000000 -0.22500000 0.50000000
v -0.50000000 -0.22500000 -2.04937674
v -0.50000000 -0.17500000 -2.10000000
v -0.50000000 0.17500000 -2.10000000
v 1.60344419 0.17500000 -1.02824166
v 1.02824166 0.17500000 -1.60344419
v 1.02824166 -0.17500000 -1.60344419
v 1.60344419 -0.17500000 -1.02824166
v 0.30344419 0.17500000 -1.97274694
v 0.30344419 -0.17500000 -1.97274694
v 0.28780074 0.22500000 -1.92460136
v 0.99848605 0.22500000 -1.56248911
v 1.56248911 0.22500000 -0.99848605
v 1.92460136 0.22500000 -0.28780074
v 2.04937674 0.22500000 0.50000000
v 1.97274694 -0.17500000 -0.30344419
v 2.10000000 -0.17500000 0.50000000
v 2.10000000 0.17500000 0.50000000
v 1.97274694 0.17500000 -0.30344419
v 2.04937674 -0.22500000 0.50000000
v 1.56248911 -0.22500000 -0.99848605
v 1.92460136 -0.22500000 -0.28780074
v 0.28780074 -0.22500000 -1.92460136
v 0.99848605 -0.22500000 -1.56248911
vt 1.00000000 0.01947048
vt 1.00000000 1.00000000
vt 0.00000000 1.00000000
vt 0.00000000 0.01947048
vt 0.11111111 0.00000000
vt 0.88888889 0.00000000
vt 1.00000000 0.00000000
vt 1.00000000 1.00000000
vt 0.00000000 1.00000000
vt 0.00000000 0.00000000
vt 1.00000000 0.00000000
vt 1.00000000 1.00000000
vt 0.00000000 1.00000000
vt 0.00000000 0.00000000
vt 1.00000000 0.00000000
vt 1.00000000 1.00000000
vt 0.00000000 1.00000000
vt 0.00000000 0.00000000
vt 0.00000000 0.00000000
vt 0.30901699 0.04894348
vt 0.58778525 0.19098301
vt 0.80901699 0.41221475
vt 0.95105652 0.69098301
vt 1.00000000 1.00000000
vt 0.00000000 1.00000000
vt 0.00000000 1.00000000
vt 0.00000000 0.00000000
vt 1.00000000 0.00000000
vt 1.00000000 1.00000000
vt 0.00000000 0.01947048
vt 0.11111111 0.00000000
vt 0.88888889 0.00000000
vt 1.00000000 0.01947048
vt 1.00000000 1.00000000
vt 0.00000000 1.00000000
vt 0.80901699 0.41221475
vt 0.95105652 0.69098301
vt 1.00000000 1.00000000
vt 0.00000000 1.00000000
vt 0.00000000 0.00000000
vt 0.30901699 0.04894348
vt 0.58778525 0.19098301
vt 0.00000000 1.00000000
vt 0.00000000 0.00000000
vt 1.00000000 0.00000000
vt 1.00000000 1.00000000
vt 0.00973524 0.00000000
vt 0.99026476 0.00000000
vt 1.00000000 1.00000000
vt 0.00000000 1.00000000
vt 0.00973524 0.00000000
vt 0.99026476 0.00000000
vt 1.00000000 1.00000000
vt 0.00000000 1.00000000
vt 0.00973524 0.00000000
vt 0.99026476 0.00000000
vt 1.00000000 1.00000000
vt 0.00000000 1.00000000
vt 0.00000000 0.00000000
vt 1.00000000 0.00000000
vt 0.99026476 1.00000000
vt 0.00973524 1.00000000
vt 0.00000000 0.00000000
vt 1.00000000 0.00000000
vt 0.99026476 1.00000000
vt 0.00973524 1.00000000
vt 0.00000000 0.00000000
vt 1.00000000 0.00000000
vt 0.99026476 1.00000000
vt 0.00973524 1.00000000
vt 0.00000000 0.00000000
vt 1.00000000 0.00000000
vt 0.99026476 1.00000000
vt 0.00973524 1.00000000
vt 0.00000000 0.00000000
vt 1.00000000 0.00000000
vt 0.99026476 1.00000000
vt 0.00973524 1.00000000
vt 0.00973524 0.00000000
vt 0.99026476 0.00000000
vt 1.00000000 1.00000000
vt 0.00000000 1.00000000
vt 0.00973524 0.00000000
vt 0.99026476 0.00000000
vt 1.00000000 1.00000000
vt 0.00000000 1.00000000
vn -1.00000000 0.00000000 0.00000000
vn -1.00000000 0.00000000 0.00000000
vn -1.00000000 0.00000000 0.00000000
vn -1.00000000 0.00000000 0.00000000
vn -1.00000000 0.00000000 0.00000000
vn -1.00000000 0.00000000 0.00000000
vn 0.70710678 0.00000000 -0.70710678
vn 0.70710678 0.00000000 -0.70710678
vn 0.70710678 0.00000000 -0.70710678
vn 0.70710678 0.00000000 -0.70710678
vn 0.45399050 0.00000000 -0.89100652
vn 0.45399050 0.00000000 -0.89100652
vn 0.45399050 0.00000000 -0.89100652
vn 0.45399050 0.00000000 -0.89100652
vn 0.15643447 0.00000000 -0.98768834
vn 0.15643447 0.00000000 -0.98768834
vn 0.15643447 0.00000000 -0.98768834
vn 0.15643447 0.00000000 -0.98768834
vn -0.00000000 1.00000000 0.00000000
vn -0.00000000 1.00000000 0.00000000
vn -0.00000000 1.00000000 0.00000000
vn -0.00000000 1.00000000 0.00000000
vn -0.00000000 1.00000000 0.00000000
vn -0.00000000 1.00000000 0.00000000
vn -0.00000000 1.00000000 0.00000000
vn 0.98768834 0.00000000 -0.15643447
vn 0.98768834 0.00000000 -0.15643447
vn 0.98768834 0.00000000 -0.15643447
vn 0.98768834 0.00000000 -0.15643447
vn 0.00000000 0.00000000 1.00000000
vn 0.00000000 0.00000000 1.00000000
vn 0.00000000 0.00000000 1.00000000
vn 0.00000000 0.00000000 1.00000000
vn 0.00000000 0.00000000 1.00000000
vn 0.00000000 0.00000000 1.00000000
vn 0.00000000 -1.00000000 -0.00000000
vn 0.00000000 -1.00000000 -0.00000000
vn 0.00000000 -1.00000000 -0.00000000
vn 0.00000000 -1.00000000 -0.00000000
vn 0.00000000 -1.00000000 -0.00000000
vn 0.00000000 -1.00000000 -0.00000000
vn 0.00000000 -1.00000000 -0.00000000
vn 0.89100652 0.00000000 -0.45399050
vn 0.89100652 0.00000000 -0.45399050
vn 0.89100652 0.00000000 -0.45399050
vn 0.89100652 0.00000000 -0.45399050
vn 0.50000000 -0.70710678 -0.50000000
vn 0.50000000 -0.70710678 -0.50000000
vn 0.50000000 -0.70710678 -0.50000000
vn 0.50000000 -0.70710678 -0.50000000
vn 0.32101976 -0.70710678 -0.63003676
vn 0.32101976 -0.70710678 -0.63003676
vn 0.32101976 -0.70710678 -0.63003676
vn 0.32101976 -0.70710678 -0.63003676
vn 0.11061587 -0.70710678 -0.69840112
vn 0.11061587 -0.70710678 -0.69840112
vn 0.11061587 -0.70710678 -0.69840112
vn 0.11061587 -0.70710678 -0.69840112
vn 0.69840112 0.70710678 -0.11061587
vn 0.69840112 0.70710678 -0.11061587
vn 0.69840112 0.70710678 -0.11061587
vn 0.69840112 0.70710678 -0.11061587
vn 0.63003676 0.70710678 -0.32101976
vn 0.63003676 0.70710678 -0.32101976
vn 0.63003676 0.70710678 -0.32101976
vn 0.63003676 0.70710678 -0.32101976
vn 0.50000000 0.70710678 -0.50000000
vn 0.50000000 0.70710678 -0.50000000
vn 0.50000000 0.70710678 -0.50000000
vn 0.50000000 0.70710678 -0.50000000
vn 0.32101976 0.70710678 -0.63003676
vn 0.32101976 0.70710678 -0.63003676
vn 0.32101976 0.70710678 -0.63003676
vn 0.32101976 0.70710678 -0.63003676
vn 0.11061587 0.70710678 -0.69840112
vn 0.11061587 0.70710678 -0.69840112
vn 0.11061587 0.70710678 -0.69840112
vn 0.11061587 0.70710678 -0.69840112
vn 0.69840112 -0.70710678 -0.11061587
vn 0.69840112 -0.70710678 -0.11061587
vn 0.69840112 -0.70710678 -0.11061587
vn 0.69840112 -0.70710678 -0.11061587
vn 0.63003676 -0.70710678 -0.32101976
vn 0.63003676 -0.70710678 -0.32101976
vn 0.63003676 -0.70710678 -0.32101976
vn 0.63003676 -0.70710678 -0.32101976
s 1
usemtl Metal_Blue_Dark
f 3/3/3 2/2/2 1/1/1
f 5/5/5 4/4/4 1/1/1
f 1/1/1 6/6/6 5/5/5
f 4/4/4 3/3/3 1/1/1
s 2
f 10/10/10 9/9/9 7/7/7
f 9/9/9 8/8/8 7/7/7
s 3
f 9/14/14 12/13/13 11/12/12
f 9/14/14 11/12/12 8/11/11
s 4
f 12/18/18 5/17/17 6/16/16
f 12/18/18 6/16/16 11/15/15
s 5
f 2/25/25 17/24/24 16/23/23
f 2/25/25 13/20/20 1/19/19
f 2/25/25 14/21/21 13/20/20
f 2/25/25 15/22/22 14/21/21
f 2/25/25 16/23/23 15/22/22
s 6
f 21/29/29 20/28/28 18/26/26
f 20/28/28 19/27/27 18/26/26
s 7
f 2/34/34 3/35/35 22/30/30
f 22/30/30 19/31/31 17/33/33
f 19/31/31 20/32/32 17/33/33
f 17/33/33 2/34/34 22/30/30
s 8
f 24/37/37 22/38/38 3/39/39
f 3/39/39 4/40/40 25/41/41
f 25/41/41 26/42/42 3/39/39
f 26/42/42 23/36/36 3/39/39
f 23/36/36 24/37/37 3/39/39
s 9
f 7/46/46 21/45/45 10/43/43
f 21/45/45 18/44/44 10/43/43
s 10
f 23/47/47 26/48/48 9/49/49
f 23/47/47 9/49/49 10/50/50
s 11
f 26/51/51 25/52/52 12/53/53
f 26/51/51 12/53/53 9/54/54
s 12
f 25/55/55 4/56/56 5/57/57
f 25/55/55 5/57/57 12/58/58
s 13
f 20/59/59 21/60/60 17/62/62
f 21/60/60 16/61/61 17/62/62
s 14
f 21/63/63 7/64/64 16/66/66
f 7/64/64 15/65/65 16/66/66
s 15
f 7/67/67 8/68/68 15/70/70
f 8/68/68 14/69/69 15/70/70
s 16
f 8/71/71 11/72/72 14/74/74
f 11/72/72 13/73/73 14/74/74
s 17
f 11/75/75 6/76/76 13/78/78
f 6/76/76 1/77/77 13/78/78
s 18
f 22/79/79 24/80/80 18/81/81
f 22/79/79 18/81/81 19/82/82
s 19
f 24/83/83 23/84/84 10/85/85
f 24/83/83 10/85/85 18/86/86
