mtllib Spacestation_Structure_Wing_Thin_Centered.mtl
o object1
g object1
v 0.50000000 -0.10000000 -0.05000000
v 0.55000000 -0.05000000 -0.04487669
v 0.55000000 -0.05000000 0.25000000
v 0.50000000 -0.10000000 0.25000000
v 0.50000000 -0.07071068 -0.19142136
v 0.55000000 -0.02530667 -0.16410662
v -0.50000000 -0.14142136 -0.38284271
v -0.50000000 -0.20000000 -0.10000000
v -0.50000000 0.00000000 -0.50000000
v 0.50000000 0.00000000 -0.25000000
v -0.50000000 0.14142136 -0.38284271
v 0.50000000 0.07071068 -0.19142136
v 0.55000000 0.02530667 -0.16410662
v 0.55000000 -0.00000000 -0.18507136
v 0.50000000 0.10000000 -0.05000000
v 0.55000000 0.05000000 -0.04487669
v 0.50000000 0.10000000 0.25000000
v 0.55000000 0.05000000 0.25000000
v 0.50000000 0.05000000 0.30000000
v 0.50000000 -0.05000000 0.30000000
v -0.50000000 -0.15000000 0.55000000
v -0.50000000 0.15000000 0.55000000
v -0.50000000 -0.20000000 0.50000000
v -0.50000000 0.20000000 0.50000000
v -0.50000000 0.20000000 -0.10000000
vt 1.00000000 0.00000000
vt 0.98292231 1.00000000
vt 0.00000000 1.00000000
vt 0.00000000 0.00000000
vt 0.00000000 0.00000000
vt 1.00000000 0.00000000
vt 0.87855735 1.00000000
vt 0.03547444 1.00000000
vt 0.00000000 1.00000000
vt 0.00000000 0.00000000
vt 1.00000000 0.00000000
vt 1.00000000 1.00000000
vt 0.00000000 1.00000000
vt 0.00000000 0.00000000
vt 1.00000000 0.00000000
vt 1.00000000 1.00000000
vt 0.00000000 1.00000000
vt 0.00000000 0.00000000
vt 1.00000000 0.00000000
vt 1.00000000 1.00000000
vt 0.00000000 0.00000000
vt 1.00000000 0.00000000
vt 0.80899057 1.00000000
vt 0.45110017 1.00000000
vt 0.00000000 0.00000000
vt 1.00000000 0.00000000
vt 0.96452556 1.00000000
vt 0.12144265 1.00000000
vt 0.98292231 0.00000000
vt 1.00000000 1.00000000
vt 0.00000000 1.00000000
vt 0.00000000 0.00000000
vt 1.00000000 1.00000000
vt 0.00000000 0.50000000
vt 1.00000000 0.00000000
vt 0.00000000 1.00000000
vt 0.00000000 0.00000000
vt 1.00000000 0.00000000
vt 1.00000000 1.00000000
vt 0.00000000 1.00000000
vt 0.00000000 0.00000000
vt 1.00000000 0.00000000
vt 1.00000000 1.00000000
vt 0.00000000 1.00000000
vt 0.00000000 0.00000000
vt 1.00000000 0.00000000
vt 1.00000000 1.00000000
vt 0.00000000 1.00000000
vt 0.00000000 0.00000000
vt 1.00000000 0.00000000
vt 1.00000000 1.00000000
vt 0.00000000 1.00000000
vt 0.00000000 0.00000000
vt 1.00000000 0.00000000
vt 1.00000000 1.00000000
vt 0.00000000 1.00000000
vt 0.00000000 0.00000000
vt 1.00000000 0.00000000
vt 1.00000000 1.00000000
vt 0.87500000 0.00000000
vt 1.00000000 0.04761905
vt 1.00000000 0.61904762
vt 0.85355339 0.88842163
vt 0.50000000 1.00000000
vt 0.14644661 0.88842163
vt 0.00000000 0.61904762
vt 0.00000000 0.04761905
vt 0.12500000 0.00000000
vt 0.00000000 0.00000000
vt 1.00000000 0.00000000
vt 0.54889983 1.00000000
vt 0.19100943 1.00000000
vt 0.00000000 1.00000000
vt 0.00000000 0.00000000
vt 1.00000000 0.00000000
vt 1.00000000 1.00000000
vt 1.00000000 1.00000000
vt 0.00000000 0.50000000
vt 1.00000000 0.00000000
vt 0.00000000 0.00000000
vt 1.00000000 0.00000000
vt 1.00000000 0.67776627
vt 0.75306673 0.95181311
vt 0.50000000 1.00000000
vt 0.24693327 0.95181311
vt 0.00000000 0.67776627
vn 0.70710678 -0.70710678 0.00000000
vn 0.70710678 -0.70710678 0.00000000
vn 0.70710678 -0.70710678 0.00000000
vn 0.70710678 -0.70710678 0.00000000
vn 0.70710678 -0.69241279 -0.14340338
vn 0.70710678 -0.69241279 -0.14340338
vn 0.70710678 -0.69241279 -0.14340338
vn 0.70710678 -0.69241279 -0.14340338
vn 0.10743664 -0.97355177 -0.20162917
vn 0.10743664 -0.97355177 -0.20162917
vn 0.10743664 -0.97355177 -0.20162917
vn 0.10743664 -0.97355177 -0.20162917
vn 0.18904752 -0.62644838 -0.75619009
vn 0.18904752 -0.62644838 -0.75619009
vn 0.18904752 -0.62644838 -0.75619009
vn 0.18904752 -0.62644838 -0.75619009
vn 0.18904752 0.62644838 -0.75619009
vn 0.18904752 0.62644838 -0.75619009
vn 0.18904752 0.62644838 -0.75619009
vn 0.18904752 0.62644838 -0.75619009
vn 0.70710678 0.45110017 -0.54452607
vn 0.70710678 0.45110017 -0.54452607
vn 0.70710678 0.45110017 -0.54452607
vn 0.70710678 0.45110017 -0.54452607
vn 0.70710678 0.69241279 -0.14340338
vn 0.70710678 0.69241279 -0.14340338
vn 0.70710678 0.69241279 -0.14340338
vn 0.70710678 0.69241279 -0.14340338
vn 0.70710678 0.70710678 0.00000000
vn 0.70710678 0.70710678 0.00000000
vn 0.70710678 0.70710678 0.00000000
vn 0.70710678 0.70710678 0.00000000
vn 0.57735027 0.57735027 0.57735027
vn 0.57735027 0.57735027 0.57735027
vn 0.57735027 0.57735027 0.57735027
vn 0.70710678 0.00000000 0.70710678
vn 0.70710678 0.00000000 0.70710678
vn 0.70710678 0.00000000 0.70710678
vn 0.70710678 0.00000000 0.70710678
vn 0.24253563 -0.00000000 0.97014250
vn 0.24253563 -0.00000000 0.97014250
vn 0.24253563 0.00000000 0.97014250
vn 0.24253563 0.00000000 0.97014250
vn 0.24023938 -0.68639822 0.68639822
vn 0.24023938 -0.68639822 0.68639822
vn 0.24023938 -0.68639822 0.68639822
vn 0.24023938 -0.68639822 0.68639822
vn 0.24023938 0.68639822 0.68639822
vn 0.24023938 0.68639822 0.68639822
vn 0.24023938 0.68639822 0.68639822
vn 0.24023938 0.68639822 0.68639822
vn 0.09950372 0.99503719 -0.00000000
vn 0.09950372 0.99503719 0.00000000
vn 0.09950372 0.99503719 0.00000000
vn 0.09950372 0.99503719 -0.00000000
vn 0.10743664 0.97355177 -0.20162917
vn 0.10743664 0.97355177 -0.20162917
vn 0.10743664 0.97355177 -0.20162917
vn 0.10743664 0.97355177 -0.20162917
vn -1.00000000 0.00000000 0.00000000
vn -1.00000000 0.00000000 0.00000000
vn -1.00000000 0.00000000 0.00000000
vn -1.00000000 0.00000000 0.00000000
vn -1.00000000 0.00000000 0.00000000
vn -1.00000000 0.00000000 0.00000000
vn -1.00000000 0.00000000 0.00000000
vn -1.00000000 0.00000000 0.00000000
vn -1.00000000 0.00000000 0.00000000
vn 0.70710678 -0.45110017 -0.54452607
vn 0.70710678 -0.45110017 -0.54452607
vn 0.70710678 -0.45110017 -0.54452607
vn 0.70710678 -0.45110017 -0.54452607
vn 0.09950372 -0.99503719 0.00000000
vn 0.09950372 -0.99503719 -0.00000000
vn 0.09950372 -0.99503719 -0.00000000
vn 0.09950372 -0.99503719 0.00000000
vn 0.57735027 -0.57735027 0.57735027
vn 0.57735027 -0.57735027 0.57735027
vn 0.57735027 -0.57735027 0.57735027
vn 1.00000000 0.00000000 0.00000000
vn 1.00000000 0.00000000 0.00000000
vn 1.00000000 0.00000000 0.00000000
vn 1.00000000 0.00000000 0.00000000
vn 1.00000000 0.00000000 0.00000000
vn 1.00000000 0.00000000 0.00000000
vn 1.00000000 0.00000000 0.00000000
s 1
usemtl Metal_Blue
f 1/1/1 2/2/2 4/4/4
f 2/2/2 3/3/3 4/4/4
s 2
f 1/5/5 5/6/6 6/7/7
f 1/5/5 6/7/7 2/8/8
s 3
f 5/12/12 1/11/11 8/10/10
f 5/12/12 8/10/10 7/9/9
s 4
f 10/16/16 5/15/15 7/14/14
f 10/16/16 7/14/14 9/13/13
s 5
f 12/20/20 10/19/19 11/17/17
f 10/19/19 9/18/18 11/17/17
s 6
f 10/21/21 12/22/22 14/24/24
f 12/22/22 13/23/23 14/24/24
s 7
f 12/25/25 15/26/26 13/28/28
f 15/26/26 16/27/27 13/28/28
s 8
f 16/29/29 15/30/30 17/31/31
f 16/29/29 17/31/31 18/32/32
s 9
f 17/35/35 19/34/34 18/33/33
s 10
f 19/36/36 20/37/37 18/39/39
f 20/37/37 3/38/38 18/39/39
s 11
f 20/43/43 19/42/42 22/41/41
f 20/43/43 22/41/41 21/40/40
s 12
f 4/47/47 20/46/46 23/44/44
f 20/46/46 21/45/45 23/44/44
s 13
f 19/51/51 17/50/50 24/49/49
f 19/51/51 24/49/49 22/48/48
s 14
f 17/55/55 15/54/54 25/53/53
f 17/55/55 25/53/53 24/52/52
s 15
f 15/59/59 12/58/58 25/56/56
f 12/58/58 11/57/57 25/56/56
s 16
f 11/65/65 9/64/64 7/63/63
f 25/66/66 11/65/65 8/62/62
f 24/67/67 8/62/62 23/61/61
f 23/61/61 21/60/60 22/68/68
f 22/68/68 24/67/67 23/61/61
f 24/67/67 25/66/66 8/62/62
f 11/65/65 7/63/63 8/62/62
s 17
f 5/69/69 10/70/70 14/71/71
f 5/69/69 14/71/71 6/72/72
s 18
f 1/76/76 4/75/75 8/73/73
f 4/75/75 23/74/74 8/73/73
s 19
f 3/77/77 20/78/78 4/79/79
s 20
f 6/85/85 14/84/84 13/83/83
f 2/86/86 13/83/83 16/82/82
f 2/86/86 16/82/82 18/81/81
f 18/81/81 3/80/80 2/86/86
f 2/86/86 6/85/85 13/83/83
